# Blender 5.2.2 LTS
# www.blender.org
mtllib maze_map.mtl
o Plane
v -2.000000 0.000000 1.500000
v 2.000000 0.000000 1.500000
v -2.000000 0.000000 -1.500000
v 2.000000 0.000000 -1.500000
vn -0.0000 1.0000 -0.0000
vt 0.000000 0.000000
vt 1.000000 0.000000
vt 1.000000 1.000000
vt 0.000000 1.000000
s 0
f 1/1/1 2/2/1 4/3/1 3/4/1
o Cube
v -1.500000 0.000000 1.000000
v -1.500000 0.400000 1.000000
v -1.500000 0.000000 -1.000000
v -1.500000 0.400000 -1.000000
v -1.450000 0.000000 1.000000
v -1.450000 0.400000 1.000000
v -1.450000 0.000000 -1.000000
v -1.450000 0.400000 -1.000000
vn -1.0000 -0.0000 -0.0000
vn -0.0000 -0.0000 -1.0000
vn 1.0000 -0.0000 -0.0000
vn -0.0000 -0.0000 1.0000
vn -0.0000 -1.0000 -0.0000
vn -0.0000 1.0000 -0.0000
vt 0.375000 0.000000
vt 0.625000 0.000000
vt 0.625000 0.250000
vt 0.375000 0.250000
vt 0.625000 0.500000
vt 0.375000 0.500000
vt 0.625000 0.750000
vt 0.375000 0.750000
vt 0.625000 1.000000
vt 0.375000 1.000000
vt 0.125000 0.500000
vt 0.125000 0.750000
vt 0.875000 0.500000
vt 0.875000 0.750000
s 0
f 5/5/2 6/6/2 8/7/2 7/8/2
f 7/8/3 8/7/3 12/9/3 11/10/3
f 11/10/4 12/9/4 10/11/4 9/12/4
f 9/12/5 10/11/5 6/13/5 5/14/5
f 7/15/6 11/10/6 9/12/6 5/16/6
f 12/9/7 8/17/7 6/18/7 10/11/7
o Cube.001
v 1.450000 0.000000 1.000000
v 1.450000 0.400000 1.000000
v 1.450000 0.000000 -1.000000
v 1.450000 0.400000 -1.000000
v 1.500000 0.000000 1.000000
v 1.500000 0.400000 1.000000
v 1.500000 0.000000 -1.000000
v 1.500000 0.400000 -1.000000
vn -1.0000 -0.0000 -0.0000
vn -0.0000 -0.0000 -1.0000
vn 1.0000 -0.0000 -0.0000
vn -0.0000 -0.0000 1.0000
vn -0.0000 -1.0000 -0.0000
vn -0.0000 1.0000 -0.0000
vt 0.375000 0.000000
vt 0.625000 0.000000
vt 0.625000 0.250000
vt 0.375000 0.250000
vt 0.625000 0.500000
vt 0.375000 0.500000
vt 0.625000 0.750000
vt 0.375000 0.750000
vt 0.625000 1.000000
vt 0.375000 1.000000
vt 0.125000 0.500000
vt 0.125000 0.750000
vt 0.875000 0.500000
vt 0.875000 0.750000
s 0
f 13/19/8 14/20/8 16/21/8 15/22/8
f 15/22/9 16/21/9 20/23/9 19/24/9
f 19/24/10 20/23/10 18/25/10 17/26/10
f 17/26/11 18/25/11 14/27/11 13/28/11
f 15/29/12 19/24/12 17/26/12 13/30/12
f 20/23/13 16/31/13 14/32/13 18/25/13
o Cube.002
v -1.500000 0.000000 -0.950000
v -1.500000 0.400000 -0.950000
v -1.500000 0.000000 -1.000000
v -1.500000 0.400000 -1.000000
v -1.200000 0.000000 -0.950000
v -1.200000 0.400000 -0.950000
v -1.200000 0.000000 -1.000000
v -1.200000 0.400000 -1.000000
vn -1.0000 -0.0000 -0.0000
vn -0.0000 -0.0000 -1.0000
vn 1.0000 -0.0000 -0.0000
vn -0.0000 -0.0000 1.0000
vn -0.0000 -1.0000 -0.0000
vn -0.0000 1.0000 -0.0000
vt 0.375000 0.000000
vt 0.625000 0.000000
vt 0.625000 0.250000
vt 0.375000 0.250000
vt 0.625000 0.500000
vt 0.375000 0.500000
vt 0.625000 0.750000
vt 0.375000 0.750000
vt 0.625000 1.000000
vt 0.375000 1.000000
vt 0.125000 0.500000
vt 0.125000 0.750000
vt 0.875000 0.500000
vt 0.875000 0.750000
s 0
f 21/33/14 22/34/14 24/35/14 23/36/14
f 23/36/15 24/35/15 28/37/15 27/38/15
f 27/38/16 28/37/16 26/39/16 25/40/16
f 25/40/17 26/39/17 22/41/17 21/42/17
f 23/43/18 27/38/18 25/40/18 21/44/18
f 28/37/19 24/45/19 22/46/19 26/39/19
o Cube.003
v -0.800000 0.000000 -0.950000
v -0.800000 0.400000 -0.950000
v -0.800000 0.000000 -1.000000
v -0.800000 0.400000 -1.000000
v -0.200000 0.000000 -0.950000
v -0.200000 0.400000 -0.950000
v -0.200000 0.000000 -1.000000
v -0.200000 0.400000 -1.000000
vn -1.0000 -0.0000 -0.0000
vn -0.0000 -0.0000 -1.0000
vn 1.0000 -0.0000 -0.0000
vn -0.0000 -0.0000 1.0000
vn -0.0000 -1.0000 -0.0000
vn -0.0000 1.0000 -0.0000
vt 0.375000 0.000000
vt 0.625000 0.000000
vt 0.625000 0.250000
vt 0.375000 0.250000
vt 0.625000 0.500000
vt 0.375000 0.500000
vt 0.625000 0.750000
vt 0.375000 0.750000
vt 0.625000 1.000000
vt 0.375000 1.000000
vt 0.125000 0.500000
vt 0.125000 0.750000
vt 0.875000 0.500000
vt 0.875000 0.750000
s 0
f 29/47/20 30/48/20 32/49/20 31/50/20
f 31/50/21 32/49/21 36/51/21 35/52/21
f 35/52/22 36/51/22 34/53/22 33/54/22
f 33/54/23 34/53/23 30/55/23 29/56/23
f 31/57/24 35/52/24 33/54/24 29/58/24
f 36/51/25 32/59/25 30/60/25 34/53/25
o Cube.004
v 0.200000 0.000000 -0.950000
v 0.200000 0.400000 -0.950000
v 0.200000 0.000000 -1.000000
v 0.200000 0.400000 -1.000000
v 0.800000 0.000000 -0.950000
v 0.800000 0.400000 -0.950000
v 0.800000 0.000000 -1.000000
v 0.800000 0.400000 -1.000000
vn -1.0000 -0.0000 -0.0000
vn -0.0000 -0.0000 -1.0000
vn 1.0000 -0.0000 -0.0000
vn -0.0000 -0.0000 1.0000
vn -0.0000 -1.0000 -0.0000
vn -0.0000 1.0000 -0.0000
vt 0.375000 0.000000
vt 0.625000 0.000000
vt 0.625000 0.250000
vt 0.375000 0.250000
vt 0.625000 0.500000
vt 0.375000 0.500000
vt 0.625000 0.750000
vt 0.375000 0.750000
vt 0.625000 1.000000
vt 0.375000 1.000000
vt 0.125000 0.500000
vt 0.125000 0.750000
vt 0.875000 0.500000
vt 0.875000 0.750000
s 0
f 37/61/26 38/62/26 40/63/26 39/64/26
f 39/64/27 40/63/27 44/65/27 43/66/27
f 43/66/28 44/65/28 42/67/28 41/68/28
f 41/68/29 42/67/29 38/69/29 37/70/29
f 39/71/30 43/66/30 41/68/30 37/72/30
f 44/65/31 40/73/31 38/74/31 42/67/31
o Cube.005
v 1.200000 0.000000 -0.950000
v 1.200000 0.400000 -0.950000
v 1.200000 0.000000 -1.000000
v 1.200000 0.400000 -1.000000
v 1.500000 0.000000 -0.950000
v 1.500000 0.400000 -0.950000
v 1.500000 0.000000 -1.000000
v 1.500000 0.400000 -1.000000
vn -1.0000 -0.0000 -0.0000
vn -0.0000 -0.0000 -1.0000
vn 1.0000 -0.0000 -0.0000
vn -0.0000 -0.0000 1.0000
vn -0.0000 -1.0000 -0.0000
vn -0.0000 1.0000 -0.0000
vt 0.375000 0.000000
vt 0.625000 0.000000
vt 0.625000 0.250000
vt 0.375000 0.250000
vt 0.625000 0.500000
vt 0.375000 0.500000
vt 0.625000 0.750000
vt 0.375000 0.750000
vt 0.625000 1.000000
vt 0.375000 1.000000
vt 0.125000 0.500000
vt 0.125000 0.750000
vt 0.875000 0.500000
vt 0.875000 0.750000
s 0
f 45/75/32 46/76/32 48/77/32 47/78/32
f 47/78/33 48/77/33 52/79/33 51/80/33
f 51/80/34 52/79/34 50/81/34 49/82/34
f 49/82/35 50/81/35 46/83/35 45/84/35
f 47/85/36 51/80/36 49/82/36 45/86/36
f 52/79/37 48/87/37 46/88/37 50/81/37
o Cube.006
v -1.500000 0.000000 0.025000
v -1.500000 0.400000 0.025000
v -1.500000 0.000000 -0.025000
v -1.500000 0.400000 -0.025000
v -1.200000 0.000000 0.025000
v -1.200000 0.400000 0.025000
v -1.200000 0.000000 -0.025000
v -1.200000 0.400000 -0.025000
vn -1.0000 -0.0000 -0.0000
vn -0.0000 -0.0000 -1.0000
vn 1.0000 -0.0000 -0.0000
vn -0.0000 -0.0000 1.0000
vn -0.0000 -1.0000 -0.0000
vn -0.0000 1.0000 -0.0000
vt 0.375000 0.000000
vt 0.625000 0.000000
vt 0.625000 0.250000
vt 0.375000 0.250000
vt 0.625000 0.500000
vt 0.375000 0.500000
vt 0.625000 0.750000
vt 0.375000 0.750000
vt 0.625000 1.000000
vt 0.375000 1.000000
vt 0.125000 0.500000
vt 0.125000 0.750000
vt 0.875000 0.500000
vt 0.875000 0.750000
s 0
f 53/89/38 54/90/38 56/91/38 55/92/38
f 55/92/39 56/91/39 60/93/39 59/94/39
f 59/94/40 60/93/40 58/95/40 57/96/40
f 57/96/41 58/95/41 54/97/41 53/98/41
f 55/99/42 59/94/42 57/96/42 53/100/42
f 60/93/43 56/101/43 54/102/43 58/95/43
o Cube.007
v -0.800000 0.000000 0.025000
v -0.800000 0.400000 0.025000
v -0.800000 0.000000 -0.025000
v -0.800000 0.400000 -0.025000
v -0.200000 0.000000 0.025000
v -0.200000 0.400000 0.025000
v -0.200000 0.000000 -0.025000
v -0.200000 0.400000 -0.025000
vn -1.0000 -0.0000 -0.0000
vn -0.0000 -0.0000 -1.0000
vn 1.0000 -0.0000 -0.0000
vn -0.0000 -0.0000 1.0000
vn -0.0000 -1.0000 -0.0000
vn -0.0000 1.0000 -0.0000
vt 0.375000 0.000000
vt 0.625000 0.000000
vt 0.625000 0.250000
vt 0.375000 0.250000
vt 0.625000 0.500000
vt 0.375000 0.500000
vt 0.625000 0.750000
vt 0.375000 0.750000
vt 0.625000 1.000000
vt 0.375000 1.000000
vt 0.125000 0.500000
vt 0.125000 0.750000
vt 0.875000 0.500000
vt 0.875000 0.750000
s 0
f 61/103/44 62/104/44 64/105/44 63/106/44
f 63/106/45 64/105/45 68/107/45 67/108/45
f 67/108/46 68/107/46 66/109/46 65/110/46
f 65/110/47 66/109/47 62/111/47 61/112/47
f 63/113/48 67/108/48 65/110/48 61/114/48
f 68/107/49 64/115/49 62/116/49 66/109/49
o Cube.008
v 0.200000 0.000000 0.025000
v 0.200000 0.400000 0.025000
v 0.200000 0.000000 -0.025000
v 0.200000 0.400000 -0.025000
v 0.800000 0.000000 0.025000
v 0.800000 0.400000 0.025000
v 0.800000 0.000000 -0.025000
v 0.800000 0.400000 -0.025000
vn -1.0000 -0.0000 -0.0000
vn -0.0000 -0.0000 -1.0000
vn 1.0000 -0.0000 -0.0000
vn -0.0000 -0.0000 1.0000
vn -0.0000 -1.0000 -0.0000
vn -0.0000 1.0000 -0.0000
vt 0.375000 0.000000
vt 0.625000 0.000000
vt 0.625000 0.250000
vt 0.375000 0.250000
vt 0.625000 0.500000
vt 0.375000 0.500000
vt 0.625000 0.750000
vt 0.375000 0.750000
vt 0.625000 1.000000
vt 0.375000 1.000000
vt 0.125000 0.500000
vt 0.125000 0.750000
vt 0.875000 0.500000
vt 0.875000 0.750000
s 0
f 69/117/50 70/118/50 72/119/50 71/120/50
f 71/120/51 72/119/51 76/121/51 75/122/51
f 75/122/52 76/121/52 74/123/52 73/124/52
f 73/124/53 74/123/53 70/125/53 69/126/53
f 71/127/54 75/122/54 73/124/54 69/128/54
f 76/121/55 72/129/55 70/130/55 74/123/55
o Cube.009
v 1.200000 0.000000 0.025000
v 1.200000 0.400000 0.025000
v 1.200000 0.000000 -0.025000
v 1.200000 0.400000 -0.025000
v 1.500000 0.000000 0.025000
v 1.500000 0.400000 0.025000
v 1.500000 0.000000 -0.025000
v 1.500000 0.400000 -0.025000
vn -1.0000 -0.0000 -0.0000
vn -0.0000 -0.0000 -1.0000
vn 1.0000 -0.0000 -0.0000
vn -0.0000 -0.0000 1.0000
vn -0.0000 -1.0000 -0.0000
vn -0.0000 1.0000 -0.0000
vt 0.375000 0.000000
vt 0.625000 0.000000
vt 0.625000 0.250000
vt 0.375000 0.250000
vt 0.625000 0.500000
vt 0.375000 0.500000
vt 0.625000 0.750000
vt 0.375000 0.750000
vt 0.625000 1.000000
vt 0.375000 1.000000
vt 0.125000 0.500000
vt 0.125000 0.750000
vt 0.875000 0.500000
vt 0.875000 0.750000
s 0
f 77/131/56 78/132/56 80/133/56 79/134/56
f 79/134/57 80/133/57 84/135/57 83/136/57
f 83/136/58 84/135/58 82/137/58 81/138/58
f 81/138/59 82/137/59 78/139/59 77/140/59
f 79/141/60 83/136/60 81/138/60 77/142/60
f 84/135/61 80/143/61 78/144/61 82/137/61
o Cube.010
v -1.500000 0.000000 1.000000
v -1.500000 0.400000 1.000000
v -1.500000 0.000000 0.950000
v -1.500000 0.400000 0.950000
v -1.200000 0.000000 1.000000
v -1.200000 0.400000 1.000000
v -1.200000 0.000000 0.950000
v -1.200000 0.400000 0.950000
vn -1.0000 -0.0000 -0.0000
vn -0.0000 -0.0000 -1.0000
vn 1.0000 -0.0000 -0.0000
vn -0.0000 -0.0000 1.0000
vn -0.0000 -1.0000 -0.0000
vn -0.0000 1.0000 -0.0000
vt 0.375000 0.000000
vt 0.625000 0.000000
vt 0.625000 0.250000
vt 0.375000 0.250000
vt 0.625000 0.500000
vt 0.375000 0.500000
vt 0.625000 0.750000
vt 0.375000 0.750000
vt 0.625000 1.000000
vt 0.375000 1.000000
vt 0.125000 0.500000
vt 0.125000 0.750000
vt 0.875000 0.500000
vt 0.875000 0.750000
s 0
f 85/145/62 86/146/62 88/147/62 87/148/62
f 87/148/63 88/147/63 92/149/63 91/150/63
f 91/150/64 92/149/64 90/151/64 89/152/64
f 89/152/65 90/151/65 86/153/65 85/154/65
f 87/155/66 91/150/66 89/152/66 85/156/66
f 92/149/67 88/157/67 86/158/67 90/151/67
o Cube.011
v -0.800000 0.000000 1.000000
v -0.800000 0.400000 1.000000
v -0.800000 0.000000 0.950000
v -0.800000 0.400000 0.950000
v -0.200000 0.000000 1.000000
v -0.200000 0.400000 1.000000
v -0.200000 0.000000 0.950000
v -0.200000 0.400000 0.950000
vn -1.0000 -0.0000 -0.0000
vn -0.0000 -0.0000 -1.0000
vn 1.0000 -0.0000 -0.0000
vn -0.0000 -0.0000 1.0000
vn -0.0000 -1.0000 -0.0000
vn -0.0000 1.0000 -0.0000
vt 0.375000 0.000000
vt 0.625000 0.000000
vt 0.625000 0.250000
vt 0.375000 0.250000
vt 0.625000 0.500000
vt 0.375000 0.500000
vt 0.625000 0.750000
vt 0.375000 0.750000
vt 0.625000 1.000000
vt 0.375000 1.000000
vt 0.125000 0.500000
vt 0.125000 0.750000
vt 0.875000 0.500000
vt 0.875000 0.750000
s 0
f 93/159/68 94/160/68 96/161/68 95/162/68
f 95/162/69 96/161/69 100/163/69 99/164/69
f 99/164/70 100/163/70 98/165/70 97/166/70
f 97/166/71 98/165/71 94/167/71 93/168/71
f 95/169/72 99/164/72 97/166/72 93/170/72
f 100/163/73 96/171/73 94/172/73 98/165/73
o Cube.012
v 0.200000 0.000000 1.000000
v 0.200000 0.400000 1.000000
v 0.200000 0.000000 0.950000
v 0.200000 0.400000 0.950000
v 0.800000 0.000000 1.000000
v 0.800000 0.400000 1.000000
v 0.800000 0.000000 0.950000
v 0.800000 0.400000 0.950000
vn -1.0000 -0.0000 -0.0000
vn -0.0000 -0.0000 -1.0000
vn 1.0000 -0.0000 -0.0000
vn -0.0000 -0.0000 1.0000
vn -0.0000 -1.0000 -0.0000
vn -0.0000 1.0000 -0.0000
vt 0.375000 0.000000
vt 0.625000 0.000000
vt 0.625000 0.250000
vt 0.375000 0.250000
vt 0.625000 0.500000
vt 0.375000 0.500000
vt 0.625000 0.750000
vt 0.375000 0.750000
vt 0.625000 1.000000
vt 0.375000 1.000000
vt 0.125000 0.500000
vt 0.125000 0.750000
vt 0.875000 0.500000
vt 0.875000 0.750000
s 0
f 101/173/74 102/174/74 104/175/74 103/176/74
f 103/176/75 104/175/75 108/177/75 107/178/75
f 107/178/76 108/177/76 106/179/76 105/180/76
f 105/180/77 106/179/77 102/181/77 101/182/77
f 103/183/78 107/178/78 105/180/78 101/184/78
f 108/177/79 104/185/79 102/186/79 106/179/79
o Cube.013
v 1.400000 0.000000 -0.950000
v 1.400000 0.200000 -0.950000
v 1.400000 0.000000 -1.000000
v 1.400000 0.200000 -1.000000
v 1.500000 0.000000 -0.950000
v 1.500000 0.200000 -0.950000
v 1.500000 0.000000 -1.000000
v 1.500000 0.200000 -1.000000
vn -1.0000 -0.0000 -0.0000
vn -0.0000 -0.0000 -1.0000
vn 1.0000 -0.0000 -0.0000
vn -0.0000 -0.0000 1.0000
vn -0.0000 -1.0000 -0.0000
vn -0.0000 1.0000 -0.0000
vt 0.375000 0.000000
vt 0.625000 0.000000
vt 0.625000 0.250000
vt 0.375000 0.250000
vt 0.625000 0.500000
vt 0.375000 0.500000
vt 0.625000 0.750000
vt 0.375000 0.750000
vt 0.625000 1.000000
vt 0.375000 1.000000
vt 0.125000 0.500000
vt 0.125000 0.750000
vt 0.875000 0.500000
vt 0.875000 0.750000
s 0
f 109/187/80 110/188/80 112/189/80 111/190/80
f 111/190/81 112/189/81 116/191/81 115/192/81
f 115/192/82 116/191/82 114/193/82 113/194/82
f 113/194/83 114/193/83 110/195/83 109/196/83
f 111/197/84 115/192/84 113/194/84 109/198/84
f 116/191/85 112/199/85 110/200/85 114/193/85
o Cube.014
v 1.200000 0.000000 1.000000
v 1.200000 0.400000 1.000000
v 1.200000 0.000000 0.950000
v 1.200000 0.400000 0.950000
v 1.500000 0.000000 1.000000
v 1.500000 0.400000 1.000000
v 1.500000 0.000000 0.950000
v 1.500000 0.400000 0.950000
vn -1.0000 -0.0000 -0.0000
vn -0.0000 -0.0000 -1.0000
vn 1.0000 -0.0000 -0.0000
vn -0.0000 -0.0000 1.0000
vn -0.0000 -1.0000 -0.0000
vn -0.0000 1.0000 -0.0000
vt 0.375000 0.000000
vt 0.625000 0.000000
vt 0.625000 0.250000
vt 0.375000 0.250000
vt 0.625000 0.500000
vt 0.375000 0.500000
vt 0.625000 0.750000
vt 0.375000 0.750000
vt 0.625000 1.000000
vt 0.375000 1.000000
vt 0.125000 0.500000
vt 0.125000 0.750000
vt 0.875000 0.500000
vt 0.875000 0.750000
s 0
f 117/201/86 118/202/86 120/203/86 119/204/86
f 119/204/87 120/203/87 124/205/87 123/206/87
f 123/206/88 124/205/88 122/207/88 121/208/88
f 121/208/89 122/207/89 118/209/89 117/210/89
f 119/211/90 123/206/90 121/208/90 117/212/90
f 124/205/91 120/213/91 118/214/91 122/207/91
o Cube.015
v 0.475000 0.000000 0.300000
v 0.475000 0.400000 0.300000
v 0.475000 0.000000 -0.300000
v 0.475000 0.400000 -0.300000
v 0.525000 0.000000 0.300000
v 0.525000 0.400000 0.300000
v 0.525000 0.000000 -0.300000
v 0.525000 0.400000 -0.300000
vn -1.0000 -0.0000 -0.0000
vn -0.0000 -0.0000 -1.0000
vn 1.0000 -0.0000 -0.0000
vn -0.0000 -0.0000 1.0000
vn -0.0000 -1.0000 -0.0000
vn -0.0000 1.0000 -0.0000
vt 0.375000 0.000000
vt 0.625000 0.000000
vt 0.625000 0.250000
vt 0.375000 0.250000
vt 0.625000 0.500000
vt 0.375000 0.500000
vt 0.625000 0.750000
vt 0.375000 0.750000
vt 0.625000 1.000000
vt 0.375000 1.000000
vt 0.125000 0.500000
vt 0.125000 0.750000
vt 0.875000 0.500000
vt 0.875000 0.750000
s 0
f 125/215/92 126/216/92 128/217/92 127/218/92
f 127/218/93 128/217/93 132/219/93 131/220/93
f 131/220/94 132/219/94 130/221/94 129/222/94
f 129/222/95 130/221/95 126/223/95 125/224/95
f 127/225/96 131/220/96 129/222/96 125/226/96
f 132/219/97 128/227/97 126/228/97 130/221/97
o Cube.016
v -0.525000 0.000000 0.300000
v -0.525000 0.400000 0.300000
v -0.525000 0.000000 -0.300000
v -0.525000 0.400000 -0.300000
v -0.475000 0.000000 0.300000
v -0.475000 0.400000 0.300000
v -0.475000 0.000000 -0.300000
v -0.475000 0.400000 -0.300000
vn -1.0000 -0.0000 -0.0000
vn -0.0000 -0.0000 -1.0000
vn 1.0000 -0.0000 -0.0000
vn -0.0000 -0.0000 1.0000
vn -0.0000 -1.0000 -0.0000
vn -0.0000 1.0000 -0.0000
vt 0.375000 0.000000
vt 0.625000 0.000000
vt 0.625000 0.250000
vt 0.375000 0.250000
vt 0.625000 0.500000
vt 0.375000 0.500000
vt 0.625000 0.750000
vt 0.375000 0.750000
vt 0.625000 1.000000
vt 0.375000 1.000000
vt 0.125000 0.500000
vt 0.125000 0.750000
vt 0.875000 0.500000
vt 0.875000 0.750000
s 0
f 133/229/98 134/230/98 136/231/98 135/232/98
f 135/232/99 136/231/99 140/233/99 139/234/99
f 139/234/100 140/233/100 138/235/100 137/236/100
f 137/236/101 138/235/101 134/237/101 133/238/101
f 135/239/102 139/234/102 137/236/102 133/240/102
f 140/233/103 136/241/103 134/242/103 138/235/103
o Cube.017
v -0.525000 0.000000 -0.700000
v -0.525000 0.400000 -0.700000
v -0.525000 0.000000 -1.000000
v -0.525000 0.400000 -1.000000
v -0.475000 0.000000 -0.700000
v -0.475000 0.400000 -0.700000
v -0.475000 0.000000 -1.000000
v -0.475000 0.400000 -1.000000
vn -1.0000 -0.0000 -0.0000
vn -0.0000 -0.0000 -1.0000
vn 1.0000 -0.0000 -0.0000
vn -0.0000 -0.0000 1.0000
vn -0.0000 -1.0000 -0.0000
vn -0.0000 1.0000 -0.0000
vt 0.375000 0.000000
vt 0.625000 0.000000
vt 0.625000 0.250000
vt 0.375000 0.250000
vt 0.625000 0.500000
vt 0.375000 0.500000
vt 0.625000 0.750000
vt 0.375000 0.750000
vt 0.625000 1.000000
vt 0.375000 1.000000
vt 0.125000 0.500000
vt 0.125000 0.750000
vt 0.875000 0.500000
vt 0.875000 0.750000
s 0
f 141/243/104 142/244/104 144/245/104 143/246/104
f 143/246/105 144/245/105 148/247/105 147/248/105
f 147/248/106 148/247/106 146/249/106 145/250/106
f 145/250/107 146/249/107 142/251/107 141/252/107
f 143/253/108 147/248/108 145/250/108 141/254/108
f 148/247/109 144/255/109 142/256/109 146/249/109
o Cube.019
v 0.475000 0.000000 -0.700000
v 0.475000 0.400000 -0.700000
v 0.475000 0.000000 -1.000000
v 0.475000 0.400000 -1.000000
v 0.525000 0.000000 -0.700000
v 0.525000 0.400000 -0.700000
v 0.525000 0.000000 -1.000000
v 0.525000 0.400000 -1.000000
vn -1.0000 -0.0000 -0.0000
vn -0.0000 -0.0000 -1.0000
vn 1.0000 -0.0000 -0.0000
vn -0.0000 -0.0000 1.0000
vn -0.0000 -1.0000 -0.0000
vn -0.0000 1.0000 -0.0000
vt 0.375000 0.000000
vt 0.625000 0.000000
vt 0.625000 0.250000
vt 0.375000 0.250000
vt 0.625000 0.500000
vt 0.375000 0.500000
vt 0.625000 0.750000
vt 0.375000 0.750000
vt 0.625000 1.000000
vt 0.375000 1.000000
vt 0.125000 0.500000
vt 0.125000 0.750000
vt 0.875000 0.500000
vt 0.875000 0.750000
s 0
f 149/257/110 150/258/110 152/259/110 151/260/110
f 151/260/111 152/259/111 156/261/111 155/262/111
f 155/262/112 156/261/112 154/263/112 153/264/112
f 153/264/113 154/263/113 150/265/113 149/266/113
f 151/267/114 155/262/114 153/264/114 149/268/114
f 156/261/115 152/269/115 150/270/115 154/263/115
o Cube.020
v -0.525000 0.000000 1.000000
v -0.525000 0.400000 1.000000
v -0.525000 0.000000 0.700000
v -0.525000 0.400000 0.700000
v -0.475000 0.000000 1.000000
v -0.475000 0.400000 1.000000
v -0.475000 0.000000 0.700000
v -0.475000 0.400000 0.700000
vn -1.0000 -0.0000 -0.0000
vn -0.0000 -0.0000 -1.0000
vn 1.0000 -0.0000 -0.0000
vn -0.0000 -0.0000 1.0000
vn -0.0000 -1.0000 -0.0000
vn -0.0000 1.0000 -0.0000
vt 0.375000 0.000000
vt 0.625000 0.000000
vt 0.625000 0.250000
vt 0.375000 0.250000
vt 0.625000 0.500000
vt 0.375000 0.500000
vt 0.625000 0.750000
vt 0.375000 0.750000
vt 0.625000 1.000000
vt 0.375000 1.000000
vt 0.125000 0.500000
vt 0.125000 0.750000
vt 0.875000 0.500000
vt 0.875000 0.750000
s 0
f 157/271/116 158/272/116 160/273/116 159/274/116
f 159/274/117 160/273/117 164/275/117 163/276/117
f 163/276/118 164/275/118 162/277/118 161/278/118
f 161/278/119 162/277/119 158/279/119 157/280/119
f 159/281/120 163/276/120 161/278/120 157/282/120
f 164/275/121 160/283/121 158/284/121 162/277/121
o Cube.021
v 0.475000 0.000000 1.000000
v 0.475000 0.400000 1.000000
v 0.475000 0.000000 0.700000
v 0.475000 0.400000 0.700000
v 0.525000 0.000000 1.000000
v 0.525000 0.400000 1.000000
v 0.525000 0.000000 0.700000
v 0.525000 0.400000 0.700000
vn -1.0000 -0.0000 -0.0000
vn -0.0000 -0.0000 -1.0000
vn 1.0000 -0.0000 -0.0000
vn -0.0000 -0.0000 1.0000
vn -0.0000 -1.0000 -0.0000
vn -0.0000 1.0000 -0.0000
vt 0.375000 0.000000
vt 0.625000 0.000000
vt 0.625000 0.250000
vt 0.375000 0.250000
vt 0.625000 0.500000
vt 0.375000 0.500000
vt 0.625000 0.750000
vt 0.375000 0.750000
vt 0.625000 1.000000
vt 0.375000 1.000000
vt 0.125000 0.500000
vt 0.125000 0.750000
vt 0.875000 0.500000
vt 0.875000 0.750000
s 0
f 165/285/122 166/286/122 168/287/122 167/288/122
f 167/288/123 168/287/123 172/289/123 171/290/123
f 171/290/124 172/289/124 170/291/124 169/292/124
f 169/292/125 170/291/125 166/293/125 165/294/125
f 167/295/126 171/290/126 169/292/126 165/296/126
f 172/289/127 168/297/127 166/298/127 170/291/127
o Cube.018
v -2.000000 0.000000 1.500000
v -2.000000 0.400000 1.500000
v -2.000000 0.000000 -1.500000
v -2.000000 0.400000 -1.500000
v -1.950000 0.000000 1.500000
v -1.950000 0.400000 1.500000
v -1.950000 0.000000 -1.500000
v -1.950000 0.400000 -1.500000
vn -1.0000 -0.0000 -0.0000
vn -0.0000 -0.0000 -1.0000
vn 1.0000 -0.0000 -0.0000
vn -0.0000 -0.0000 1.0000
vn -0.0000 -1.0000 -0.0000
vn -0.0000 1.0000 -0.0000
vt 0.375000 0.000000
vt 0.625000 0.000000
vt 0.625000 0.250000
vt 0.375000 0.250000
vt 0.625000 0.500000
vt 0.375000 0.500000
vt 0.625000 0.750000
vt 0.375000 0.750000
vt 0.625000 1.000000
vt 0.375000 1.000000
vt 0.125000 0.500000
vt 0.125000 0.750000
vt 0.875000 0.500000
vt 0.875000 0.750000
s 0
f 173/299/128 174/300/128 176/301/128 175/302/128
f 175/302/129 176/301/129 180/303/129 179/304/129
f 179/304/130 180/303/130 178/305/130 177/306/130
f 177/306/131 178/305/131 174/307/131 173/308/131
f 175/309/132 179/304/132 177/306/132 173/310/132
f 180/303/133 176/311/133 174/312/133 178/305/133
o Cube.022
v 1.950000 0.000000 1.500000
v 1.950000 0.400000 1.500000
v 1.950000 0.000000 -1.500000
v 1.950000 0.400000 -1.500000
v 2.000000 0.000000 1.500000
v 2.000000 0.400000 1.500000
v 2.000000 0.000000 -1.500000
v 2.000000 0.400000 -1.500000
vn -1.0000 -0.0000 -0.0000
vn -0.0000 -0.0000 -1.0000
vn 1.0000 -0.0000 -0.0000
vn -0.0000 -0.0000 1.0000
vn -0.0000 -1.0000 -0.0000
vn -0.0000 1.0000 -0.0000
vt 0.375000 0.000000
vt 0.625000 0.000000
vt 0.625000 0.250000
vt 0.375000 0.250000
vt 0.625000 0.500000
vt 0.375000 0.500000
vt 0.625000 0.750000
vt 0.375000 0.750000
vt 0.625000 1.000000
vt 0.375000 1.000000
vt 0.125000 0.500000
vt 0.125000 0.750000
vt 0.875000 0.500000
vt 0.875000 0.750000
s 0
f 181/313/134 182/314/134 184/315/134 183/316/134
f 183/316/135 184/315/135 188/317/135 187/318/135
f 187/318/136 188/317/136 186/319/136 185/320/136
f 185/320/137 186/319/137 182/321/137 181/322/137
f 183/323/138 187/318/138 185/320/138 181/324/138
f 188/317/139 184/325/139 182/326/139 186/319/139
o Cube.023
v 2.000000 0.000000 1.500000
v 2.000000 0.400000 1.500000
v -2.000000 0.000000 1.500000
v -2.000000 0.400000 1.500000
v 2.000000 0.000000 1.450000
v 2.000000 0.400000 1.450000
v -2.000000 0.000000 1.450000
v -2.000000 0.400000 1.450000
vn -0.0000 -0.0000 1.0000
vn -1.0000 -0.0000 -0.0000
vn -0.0000 -0.0000 -1.0000
vn 1.0000 -0.0000 -0.0000
vn -0.0000 -1.0000 -0.0000
vn -0.0000 1.0000 -0.0000
vt 0.375000 0.000000
vt 0.625000 0.000000
vt 0.625000 0.250000
vt 0.375000 0.250000
vt 0.625000 0.500000
vt 0.375000 0.500000
vt 0.625000 0.750000
vt 0.375000 0.750000
vt 0.625000 1.000000
vt 0.375000 1.000000
vt 0.125000 0.500000
vt 0.125000 0.750000
vt 0.875000 0.500000
vt 0.875000 0.750000
s 0
f 189/327/140 190/328/140 192/329/140 191/330/140
f 191/330/141 192/329/141 196/331/141 195/332/141
f 195/332/142 196/331/142 194/333/142 193/334/142
f 193/334/143 194/333/143 190/335/143 189/336/143
f 191/337/144 195/332/144 193/334/144 189/338/144
f 196/331/145 192/339/145 190/340/145 194/333/145
o Cube.024
v 2.000000 0.000000 -1.450000
v 2.000000 0.400000 -1.450000
v -2.000000 0.000000 -1.450000
v -2.000000 0.400000 -1.450000
v 2.000000 0.000000 -1.500000
v 2.000000 0.400000 -1.500000
v -2.000000 0.000000 -1.500000
v -2.000000 0.400000 -1.500000
vn -0.0000 -0.0000 1.0000
vn -1.0000 -0.0000 -0.0000
vn -0.0000 -0.0000 -1.0000
vn 1.0000 -0.0000 -0.0000
vn -0.0000 -1.0000 -0.0000
vn -0.0000 1.0000 -0.0000
vt 0.375000 0.000000
vt 0.625000 0.000000
vt 0.625000 0.250000
vt 0.375000 0.250000
vt 0.625000 0.500000
vt 0.375000 0.500000
vt 0.625000 0.750000
vt 0.375000 0.750000
vt 0.625000 1.000000
vt 0.375000 1.000000
vt 0.125000 0.500000
vt 0.125000 0.750000
vt 0.875000 0.500000
vt 0.875000 0.750000
s 0
f 197/341/146 198/342/146 200/343/146 199/344/146
f 199/344/147 200/343/147 204/345/147 203/346/147
f 203/346/148 204/345/148 202/347/148 201/348/148
f 201/348/149 202/347/149 198/349/149 197/350/149
f 199/351/150 203/346/150 201/348/150 197/352/150
f 204/345/151 200/353/151 198/354/151 202/347/151
