%TF.GenerationSoftware,KiCad,Pcbnew,10.0.3*%
%TF.CreationDate,2026-09-23T23:22:37+07:00*%
%TF.ProjectId,amr_stm32_kicad,616d725f-7374-46d3-9332-5f6b69636164,rev?*%
%TF.SameCoordinates,Original*%
%TF.FileFunction,Paste,Top*%
%TF.FilePolarity,Positive*%
%FSLAX46Y46*%
G04 Gerber Fmt 4.6, Leading zero omitted, Abs format (unit mm)*
G04 Created by KiCad (PCBNEW 10.0.3) date 2026-09-23 23:22:37*
%MOMM*%
%LPD*%
G01*
G04 APERTURE LIST*
G04 Aperture macros list*
%AMRoundRect*
0 Rectangle with rounded corners*
0 $1 Rounding radius*
0 $2 $3 $4 $5 $6 $7 $8 $9 X,Y pos of 4 corners*
0 Add a 4 corners polygon primitive as box body*
4,1,4,$2,$3,$4,$5,$6,$7,$8,$9,$2,$3,0*
0 Add four circle primitives for the rounded corners*
1,1,$1+$1,$2,$3*
1,1,$1+$1,$4,$5*
1,1,$1+$1,$6,$7*
1,1,$1+$1,$8,$9*
0 Add four rect primitives between the rounded corners*
20,1,$1+$1,$2,$3,$4,$5,0*
20,1,$1+$1,$4,$5,$6,$7,0*
20,1,$1+$1,$6,$7,$8,$9,0*
20,1,$1+$1,$8,$9,$2,$3,0*%
G04 Aperture macros list end*
%ADD10RoundRect,0.250000X-0.325000X-0.650000X0.325000X-0.650000X0.325000X0.650000X-0.325000X0.650000X0*%
%ADD11RoundRect,0.250000X-0.250000X-0.475000X0.250000X-0.475000X0.250000X0.475000X-0.250000X0.475000X0*%
%ADD12RoundRect,0.250000X-0.475000X0.250000X-0.475000X-0.250000X0.475000X-0.250000X0.475000X0.250000X0*%
%ADD13RoundRect,0.225000X-0.335876X-0.017678X-0.017678X-0.335876X0.335876X0.017678X0.017678X0.335876X0*%
%ADD14R,3.100000X2.600000*%
%ADD15R,0.600000X1.550000*%
%ADD16RoundRect,0.250000X0.250000X0.475000X-0.250000X0.475000X-0.250000X-0.475000X0.250000X-0.475000X0*%
%ADD17RoundRect,0.200000X0.200000X0.275000X-0.200000X0.275000X-0.200000X-0.275000X0.200000X-0.275000X0*%
%ADD18RoundRect,0.225000X0.225000X0.250000X-0.225000X0.250000X-0.225000X-0.250000X0.225000X-0.250000X0*%
%ADD19RoundRect,0.375000X0.375000X-0.625000X0.375000X0.625000X-0.375000X0.625000X-0.375000X-0.625000X0*%
%ADD20RoundRect,0.500000X1.400000X-0.500000X1.400000X0.500000X-1.400000X0.500000X-1.400000X-0.500000X0*%
%ADD21RoundRect,0.243750X-0.243750X-0.456250X0.243750X-0.456250X0.243750X0.456250X-0.243750X0.456250X0*%
%ADD22RoundRect,0.150000X0.575000X-0.150000X0.575000X0.150000X-0.575000X0.150000X-0.575000X-0.150000X0*%
%ADD23RoundRect,0.075000X0.650000X-0.075000X0.650000X0.075000X-0.650000X0.075000X-0.650000X-0.075000X0*%
%ADD24RoundRect,0.225000X-0.250000X0.225000X-0.250000X-0.225000X0.250000X-0.225000X0.250000X0.225000X0*%
%ADD25RoundRect,0.200000X-0.275000X0.200000X-0.275000X-0.200000X0.275000X-0.200000X0.275000X0.200000X0*%
%ADD26RoundRect,0.225000X-0.225000X-0.250000X0.225000X-0.250000X0.225000X0.250000X-0.225000X0.250000X0*%
%ADD27RoundRect,0.200000X-0.200000X-0.275000X0.200000X-0.275000X0.200000X0.275000X-0.200000X0.275000X0*%
%ADD28RoundRect,0.250000X0.475000X-0.250000X0.475000X0.250000X-0.475000X0.250000X-0.475000X-0.250000X0*%
%ADD29RoundRect,0.250000X-1.500000X-0.550000X1.500000X-0.550000X1.500000X0.550000X-1.500000X0.550000X0*%
%ADD30RoundRect,0.218750X-0.218750X-0.256250X0.218750X-0.256250X0.218750X0.256250X-0.218750X0.256250X0*%
%ADD31RoundRect,0.225000X-0.225000X-0.375000X0.225000X-0.375000X0.225000X0.375000X-0.225000X0.375000X0*%
%ADD32R,0.900000X1.700000*%
%ADD33RoundRect,0.250000X0.262500X0.450000X-0.262500X0.450000X-0.262500X-0.450000X0.262500X-0.450000X0*%
%ADD34RoundRect,0.250000X-0.262500X-0.450000X0.262500X-0.450000X0.262500X0.450000X-0.262500X0.450000X0*%
%ADD35RoundRect,0.200000X0.275000X-0.200000X0.275000X0.200000X-0.275000X0.200000X-0.275000X-0.200000X0*%
%ADD36R,2.200000X1.500000*%
%ADD37RoundRect,0.250000X-0.450000X0.262500X-0.450000X-0.262500X0.450000X-0.262500X0.450000X0.262500X0*%
%ADD38RoundRect,0.100000X0.100000X-0.850000X0.100000X0.850000X-0.100000X0.850000X-0.100000X-0.850000X0*%
%ADD39RoundRect,0.225000X0.335876X0.017678X0.017678X0.335876X-0.335876X-0.017678X-0.017678X-0.335876X0*%
%ADD40RoundRect,0.250000X0.671751X-0.106066X-0.106066X0.671751X-0.671751X0.106066X0.106066X-0.671751X0*%
%ADD41R,0.203200X0.381000*%
%ADD42R,0.381000X0.203200*%
%ADD43RoundRect,0.250000X0.650000X-0.325000X0.650000X0.325000X-0.650000X0.325000X-0.650000X-0.325000X0*%
%ADD44RoundRect,0.218750X0.218750X0.256250X-0.218750X0.256250X-0.218750X-0.256250X0.218750X-0.256250X0*%
%ADD45RoundRect,0.075000X-0.441942X-0.548008X0.548008X0.441942X0.441942X0.548008X-0.548008X-0.441942X0*%
%ADD46RoundRect,0.075000X0.441942X-0.548008X0.548008X-0.441942X-0.441942X0.548008X-0.548008X0.441942X0*%
%ADD47RoundRect,0.218750X0.381250X-0.218750X0.381250X0.218750X-0.381250X0.218750X-0.381250X-0.218750X0*%
%ADD48RoundRect,0.150000X0.587500X0.150000X-0.587500X0.150000X-0.587500X-0.150000X0.587500X-0.150000X0*%
%ADD49RoundRect,0.225000X-0.375000X0.225000X-0.375000X-0.225000X0.375000X-0.225000X0.375000X0.225000X0*%
%ADD50RoundRect,0.225000X0.250000X-0.225000X0.250000X0.225000X-0.250000X0.225000X-0.250000X-0.225000X0*%
%ADD51RoundRect,0.150000X0.825000X0.150000X-0.825000X0.150000X-0.825000X-0.150000X0.825000X-0.150000X0*%
%ADD52RoundRect,0.087500X0.662500X0.087500X-0.662500X0.087500X-0.662500X-0.087500X0.662500X-0.087500X0*%
G04 APERTURE END LIST*
D10*
%TO.C,C40*%
X132050000Y-77750000D03*
X135000000Y-77750000D03*
%TD*%
D11*
%TO.C,C16*%
X167600000Y-58500000D03*
X165700002Y-58500000D03*
%TD*%
D12*
%TO.C,C49*%
X143495000Y-86775000D03*
X143495000Y-88675000D03*
%TD*%
D13*
%TO.C,C35*%
X165507626Y-74898870D03*
X166603642Y-75994886D03*
%TD*%
D14*
%TO.C,U9*%
X138750000Y-82450000D03*
D15*
X136845000Y-85150000D03*
X138115000Y-85150000D03*
X139385000Y-85150000D03*
X140655000Y-85150000D03*
X140655000Y-79750000D03*
X139385000Y-79750000D03*
X138115000Y-79750000D03*
X136845000Y-79750000D03*
%TD*%
D16*
%TO.C,C23*%
X168950000Y-92750000D03*
X167050000Y-92750000D03*
%TD*%
D17*
%TO.C,R13*%
X192375000Y-88820000D03*
X190725000Y-88820000D03*
%TD*%
D18*
%TO.C,C1*%
X176550000Y-92000000D03*
X175000000Y-92000000D03*
%TD*%
D19*
%TO.C,U1*%
X150700000Y-65750000D03*
X153000000Y-65749999D03*
D20*
X153000000Y-59450001D03*
D19*
X155300000Y-65750000D03*
%TD*%
D21*
%TO.C,D3*%
X151599998Y-72000000D03*
X153475000Y-72000000D03*
%TD*%
D22*
%TO.C,J6*%
X195955000Y-68250000D03*
X195955000Y-67450000D03*
D23*
X195955000Y-66250000D03*
X195955000Y-65250000D03*
X195955000Y-64750000D03*
X195955000Y-63750000D03*
D22*
X195955000Y-62550000D03*
X195955000Y-61750000D03*
X195955000Y-61750000D03*
X195955000Y-62550000D03*
D23*
X195955000Y-63250000D03*
X195955000Y-64250000D03*
X195955000Y-65750000D03*
X195955000Y-66750000D03*
D22*
X195955000Y-67450000D03*
X195955000Y-68250000D03*
%TD*%
D10*
%TO.C,C47*%
X132025000Y-75250000D03*
X134975000Y-75250000D03*
%TD*%
D24*
%TO.C,C39*%
X191000000Y-68025000D03*
X191000000Y-69575000D03*
%TD*%
D25*
%TO.C,R27*%
X134850000Y-81575000D03*
X134850000Y-83225000D03*
%TD*%
D26*
%TO.C,C38*%
X164500000Y-84500000D03*
X166050000Y-84500000D03*
%TD*%
D27*
%TO.C,R20*%
X183925000Y-64500000D03*
X185575000Y-64500000D03*
%TD*%
D28*
%TO.C,C12*%
X157800000Y-60049999D03*
X157800000Y-58150001D03*
%TD*%
D29*
%TO.C,C18*%
X145300000Y-78250000D03*
X150700000Y-78250000D03*
%TD*%
D28*
%TO.C,C17*%
X167750000Y-62499998D03*
X167750000Y-60600000D03*
%TD*%
D30*
%TO.C,D5*%
X178260144Y-82744496D03*
X179835146Y-82744496D03*
%TD*%
D25*
%TO.C,R26*%
X134500000Y-87175000D03*
X134500000Y-88825000D03*
%TD*%
D31*
%TO.C,D1*%
X151350000Y-68400000D03*
X154650000Y-68400000D03*
%TD*%
D24*
%TO.C,C37*%
X187250000Y-75475000D03*
X187250000Y-77025000D03*
%TD*%
D17*
%TO.C,R24*%
X182912646Y-84250000D03*
X181262646Y-84250000D03*
%TD*%
D32*
%TO.C,BOOT*%
X190549999Y-79750000D03*
X193950001Y-79750000D03*
%TD*%
D33*
%TO.C,R7*%
X159725000Y-94750000D03*
X157900000Y-94750000D03*
%TD*%
D28*
%TO.C,C9*%
X147800000Y-60149999D03*
X147800000Y-58250001D03*
%TD*%
D26*
%TO.C,C25*%
X180825000Y-58750000D03*
X182375000Y-58750000D03*
%TD*%
D34*
%TO.C,R5*%
X148250000Y-84000000D03*
X150075000Y-84000000D03*
%TD*%
D33*
%TO.C,R3*%
X157000000Y-72000000D03*
X155175000Y-72000000D03*
%TD*%
D11*
%TO.C,C22*%
X161362500Y-92750000D03*
X163262500Y-92750000D03*
%TD*%
D17*
%TO.C,R22*%
X192225000Y-62200000D03*
X190575000Y-62200000D03*
%TD*%
D18*
%TO.C,C29*%
X177525000Y-79000000D03*
X175975000Y-79000000D03*
%TD*%
D17*
%TO.C,R19*%
X185575000Y-66000000D03*
X183925000Y-66000000D03*
%TD*%
D27*
%TO.C,R28*%
X139275000Y-88750000D03*
X140925000Y-88750000D03*
%TD*%
D18*
%TO.C,C26*%
X164500000Y-69000000D03*
X162950000Y-69000000D03*
%TD*%
D24*
%TO.C,C30*%
X172000000Y-79350000D03*
X172000000Y-80900000D03*
%TD*%
D12*
%TO.C,C11*%
X157800000Y-61750001D03*
X157800000Y-63649999D03*
%TD*%
D30*
%TO.C,D7*%
X178257500Y-85750000D03*
X179832500Y-85750000D03*
%TD*%
D16*
%TO.C,C33*%
X182474999Y-60500000D03*
X180575001Y-60500000D03*
%TD*%
D35*
%TO.C,R6*%
X187250000Y-80325000D03*
X187250000Y-78675000D03*
%TD*%
D16*
%TO.C,C19*%
X153949999Y-84000000D03*
X152050001Y-84000000D03*
%TD*%
%TO.C,C24*%
X168950000Y-94750000D03*
X167050000Y-94750000D03*
%TD*%
D35*
%TO.C,R11*%
X189000000Y-77150000D03*
X189000000Y-75500000D03*
%TD*%
D36*
%TO.C,L2*%
X145250000Y-66300000D03*
X145250000Y-72700000D03*
%TD*%
D24*
%TO.C,C28*%
X184250000Y-75225000D03*
X184250000Y-76775000D03*
%TD*%
D30*
%TO.C,D6*%
X178273431Y-84250000D03*
X179848433Y-84250000D03*
%TD*%
D16*
%TO.C,C15*%
X162200002Y-58500000D03*
X164100000Y-58500000D03*
%TD*%
D24*
%TO.C,C31*%
X170500001Y-79350000D03*
X170500001Y-80900000D03*
%TD*%
D27*
%TO.C,R15*%
X168850000Y-89750000D03*
X170500000Y-89750000D03*
%TD*%
D18*
%TO.C,C27*%
X164525000Y-70750000D03*
X162975000Y-70750000D03*
%TD*%
D37*
%TO.C,R4*%
X162000000Y-60687500D03*
X162000000Y-62512500D03*
%TD*%
D38*
%TO.C,U4*%
X145925000Y-93500000D03*
X146575000Y-93500000D03*
X147225000Y-93500000D03*
X147875000Y-93500000D03*
X148525000Y-93500000D03*
X149175000Y-93500000D03*
X149825000Y-93500000D03*
X150475000Y-93500000D03*
X151125000Y-93500000D03*
X151775000Y-93500000D03*
X152425000Y-93500000D03*
X153075000Y-93500000D03*
X153075000Y-86500000D03*
X152425000Y-86500000D03*
X151775000Y-86500000D03*
X151125000Y-86500000D03*
X150475000Y-86500000D03*
X149825000Y-86500000D03*
X149175000Y-86500000D03*
X148525000Y-86500000D03*
X147875000Y-86500000D03*
X147225000Y-86500000D03*
X146575000Y-86500000D03*
X145925000Y-86500000D03*
%TD*%
D39*
%TO.C,C34*%
X164482321Y-73873565D03*
X163386305Y-72777549D03*
%TD*%
D40*
%TO.C,Y2*%
X164500000Y-77250000D03*
X162166548Y-74916548D03*
X160752334Y-76330762D03*
X163085786Y-78664214D03*
%TD*%
D41*
%TO.C,U3*%
X164049999Y-63355700D03*
X164550000Y-63355700D03*
X165050000Y-63355700D03*
X165550001Y-63355700D03*
D42*
X165714400Y-62699999D03*
X165714400Y-62200000D03*
X165714400Y-61700001D03*
D41*
X165550001Y-61044300D03*
X165050000Y-61044300D03*
X164550000Y-61044300D03*
X164049999Y-61044300D03*
D42*
X163885600Y-61700001D03*
X163885600Y-62200000D03*
X163885600Y-62699999D03*
%TD*%
D35*
%TO.C,R21*%
X192600000Y-69625000D03*
X192600000Y-67975000D03*
%TD*%
D28*
%TO.C,C32*%
X182482233Y-76882105D03*
X182482233Y-74982107D03*
%TD*%
D43*
%TO.C,C45*%
X143000000Y-61975001D03*
X143000000Y-59024999D03*
%TD*%
D44*
%TO.C,FB2*%
X179537500Y-92000000D03*
X177962500Y-92000000D03*
%TD*%
D17*
%TO.C,R29*%
X182900000Y-85750000D03*
X181250000Y-85750000D03*
%TD*%
D45*
%TO.C,U5*%
X167835519Y-71111181D03*
X168189072Y-71464734D03*
X168542625Y-71818287D03*
X168896179Y-72171841D03*
X169249732Y-72525394D03*
X169603286Y-72878948D03*
X169956839Y-73232501D03*
X170310392Y-73586054D03*
X170663946Y-73939608D03*
X171017499Y-74293161D03*
X171371052Y-74646714D03*
X171724606Y-75000268D03*
X172078159Y-75353821D03*
X172431713Y-75707375D03*
X172785266Y-76060928D03*
X173138819Y-76414481D03*
D46*
X175861181Y-76414481D03*
X176214734Y-76060928D03*
X176568287Y-75707375D03*
X176921841Y-75353821D03*
X177275394Y-75000268D03*
X177628948Y-74646714D03*
X177982501Y-74293161D03*
X178336054Y-73939608D03*
X178689608Y-73586054D03*
X179043161Y-73232501D03*
X179396714Y-72878948D03*
X179750268Y-72525394D03*
X180103821Y-72171841D03*
X180457375Y-71818287D03*
X180810928Y-71464734D03*
X181164481Y-71111181D03*
D45*
X181164481Y-68388819D03*
X180810928Y-68035266D03*
X180457375Y-67681713D03*
X180103821Y-67328159D03*
X179750268Y-66974606D03*
X179396714Y-66621052D03*
X179043161Y-66267499D03*
X178689608Y-65913946D03*
X178336054Y-65560392D03*
X177982501Y-65206839D03*
X177628948Y-64853286D03*
X177275394Y-64499732D03*
X176921841Y-64146179D03*
X176568287Y-63792625D03*
X176214734Y-63439072D03*
X175861181Y-63085519D03*
D46*
X173138819Y-63085519D03*
X172785266Y-63439072D03*
X172431713Y-63792625D03*
X172078159Y-64146179D03*
X171724606Y-64499732D03*
X171371052Y-64853286D03*
X171017499Y-65206839D03*
X170663946Y-65560392D03*
X170310392Y-65913946D03*
X169956839Y-66267499D03*
X169603286Y-66621052D03*
X169249732Y-66974606D03*
X168896179Y-67328159D03*
X168542625Y-67681713D03*
X168189072Y-68035266D03*
X167835519Y-68388819D03*
%TD*%
D32*
%TO.C,RESET*%
X190550000Y-76000000D03*
X193950000Y-76000000D03*
%TD*%
D34*
%TO.C,R10*%
X170587500Y-94750000D03*
X172412500Y-94750000D03*
%TD*%
D47*
%TO.C,FB1*%
X173750000Y-81312500D03*
X173750000Y-79187500D03*
%TD*%
D48*
%TO.C,Q1*%
X183937500Y-91450000D03*
X183937500Y-89550000D03*
X182062500Y-90500000D03*
%TD*%
D25*
%TO.C,R25*%
X136100000Y-87175000D03*
X136100000Y-88825000D03*
%TD*%
D11*
%TO.C,C21*%
X161362500Y-94730000D03*
X163262500Y-94730000D03*
%TD*%
D49*
%TO.C,D2*%
X145500000Y-58850000D03*
X145500000Y-62150000D03*
%TD*%
D12*
%TO.C,C10*%
X147800000Y-61650001D03*
X147800000Y-63549999D03*
%TD*%
D26*
%TO.C,C41*%
X133450000Y-79750000D03*
X135000000Y-79750000D03*
%TD*%
D50*
%TO.C,C42*%
X137600000Y-88750000D03*
X137600000Y-87200000D03*
%TD*%
D17*
%TO.C,R23*%
X182912645Y-82744497D03*
X181262645Y-82744497D03*
%TD*%
D43*
%TO.C,C46*%
X140500000Y-61975001D03*
X140500000Y-59024999D03*
%TD*%
D27*
%TO.C,R18*%
X161450000Y-84500000D03*
X163100000Y-84500000D03*
%TD*%
D51*
%TO.C,U6*%
X166400000Y-90405000D03*
X166400000Y-89135000D03*
X166400000Y-87865000D03*
X166400000Y-86595000D03*
X161450000Y-86595000D03*
X161450000Y-87865000D03*
X161450000Y-89135000D03*
X161450000Y-90405000D03*
%TD*%
D22*
%TO.C,J5*%
X195955000Y-93750000D03*
X195955000Y-92950000D03*
D23*
X195955000Y-91750000D03*
X195955000Y-90750000D03*
X195955000Y-90250000D03*
X195955000Y-89250000D03*
D22*
X195955000Y-88050000D03*
X195955000Y-87250000D03*
X195955000Y-87250000D03*
X195955000Y-88050000D03*
D23*
X195955000Y-88750000D03*
X195955000Y-89750000D03*
X195955000Y-91250000D03*
X195955000Y-92250000D03*
D22*
X195955000Y-92950000D03*
X195955000Y-93750000D03*
%TD*%
D33*
%TO.C,R8*%
X159725000Y-92750000D03*
X157900000Y-92750000D03*
%TD*%
D17*
%TO.C,R14*%
X170500000Y-88250000D03*
X168850000Y-88250000D03*
%TD*%
D18*
%TO.C,C2*%
X179525000Y-90500000D03*
X177975000Y-90500000D03*
%TD*%
D26*
%TO.C,C43*%
X139325000Y-87250000D03*
X140875000Y-87250000D03*
%TD*%
D17*
%TO.C,R12*%
X192375000Y-91820000D03*
X190725000Y-91820000D03*
%TD*%
D52*
%TO.C,U7*%
X191600000Y-66250000D03*
X191600000Y-65750000D03*
X191600000Y-65250000D03*
X191600000Y-64750000D03*
X191600000Y-64250000D03*
X187400000Y-64250000D03*
X187400000Y-64750000D03*
X187400000Y-65250000D03*
X187400000Y-65750000D03*
X187400000Y-66250000D03*
%TD*%
D27*
%TO.C,R17*%
X168850000Y-86500000D03*
X170500000Y-86500000D03*
%TD*%
D17*
%TO.C,R16*%
X170500000Y-85000000D03*
X168850000Y-85000000D03*
%TD*%
D16*
%TO.C,C20*%
X146662500Y-84000000D03*
X144762500Y-84000000D03*
%TD*%
D50*
%TO.C,C36*%
X189000000Y-80250000D03*
X189000000Y-78700000D03*
%TD*%
D26*
%TO.C,C44*%
X137975000Y-77250000D03*
X139525000Y-77250000D03*
%TD*%
D34*
%TO.C,R9*%
X170587500Y-92750000D03*
X172412500Y-92750000D03*
%TD*%
M02*
