%TF.GenerationSoftware,KiCad,Pcbnew,10.0.3*%
%TF.CreationDate,2026-09-21T17:25:35+07:00*%
%TF.ProjectId,amr_stm32_kicad,616d725f-7374-46d3-9332-5f6b69636164,rev?*%
%TF.SameCoordinates,Original*%
%TF.FileFunction,Legend,Top*%
%TF.FilePolarity,Positive*%
%FSLAX46Y46*%
G04 Gerber Fmt 4.6, Leading zero omitted, Abs format (unit mm)*
G04 Created by KiCad (PCBNEW 10.0.3) date 2026-09-21 17:25:35*
%MOMM*%
%LPD*%
G01*
G04 APERTURE LIST*
%ADD10C,0.100000*%
%ADD11C,0.150000*%
%ADD12C,0.120000*%
%ADD13C,0.152400*%
%ADD14C,0.000000*%
G04 APERTURE END LIST*
D10*
X185958646Y-104442800D02*
X186415789Y-104442800D01*
X186187217Y-104671371D02*
X186187217Y-104214228D01*
X186987217Y-104071371D02*
X186701503Y-104071371D01*
X186701503Y-104071371D02*
X186672931Y-104357085D01*
X186672931Y-104357085D02*
X186701503Y-104328514D01*
X186701503Y-104328514D02*
X186758646Y-104299942D01*
X186758646Y-104299942D02*
X186901503Y-104299942D01*
X186901503Y-104299942D02*
X186958646Y-104328514D01*
X186958646Y-104328514D02*
X186987217Y-104357085D01*
X186987217Y-104357085D02*
X187015788Y-104414228D01*
X187015788Y-104414228D02*
X187015788Y-104557085D01*
X187015788Y-104557085D02*
X186987217Y-104614228D01*
X186987217Y-104614228D02*
X186958646Y-104642800D01*
X186958646Y-104642800D02*
X186901503Y-104671371D01*
X186901503Y-104671371D02*
X186758646Y-104671371D01*
X186758646Y-104671371D02*
X186701503Y-104642800D01*
X186701503Y-104642800D02*
X186672931Y-104614228D01*
X187187217Y-104071371D02*
X187387217Y-104671371D01*
X187387217Y-104671371D02*
X187587217Y-104071371D01*
X189801503Y-51421371D02*
X189601503Y-51135657D01*
X189458646Y-51421371D02*
X189458646Y-50821371D01*
X189458646Y-50821371D02*
X189687217Y-50821371D01*
X189687217Y-50821371D02*
X189744360Y-50849942D01*
X189744360Y-50849942D02*
X189772931Y-50878514D01*
X189772931Y-50878514D02*
X189801503Y-50935657D01*
X189801503Y-50935657D02*
X189801503Y-51021371D01*
X189801503Y-51021371D02*
X189772931Y-51078514D01*
X189772931Y-51078514D02*
X189744360Y-51107085D01*
X189744360Y-51107085D02*
X189687217Y-51135657D01*
X189687217Y-51135657D02*
X189458646Y-51135657D01*
X190001503Y-50821371D02*
X190401503Y-51421371D01*
X190401503Y-50821371D02*
X190001503Y-51421371D01*
X188708646Y-104442800D02*
X189165789Y-104442800D01*
X188937217Y-104671371D02*
X188937217Y-104214228D01*
X189737217Y-104071371D02*
X189451503Y-104071371D01*
X189451503Y-104071371D02*
X189422931Y-104357085D01*
X189422931Y-104357085D02*
X189451503Y-104328514D01*
X189451503Y-104328514D02*
X189508646Y-104299942D01*
X189508646Y-104299942D02*
X189651503Y-104299942D01*
X189651503Y-104299942D02*
X189708646Y-104328514D01*
X189708646Y-104328514D02*
X189737217Y-104357085D01*
X189737217Y-104357085D02*
X189765788Y-104414228D01*
X189765788Y-104414228D02*
X189765788Y-104557085D01*
X189765788Y-104557085D02*
X189737217Y-104614228D01*
X189737217Y-104614228D02*
X189708646Y-104642800D01*
X189708646Y-104642800D02*
X189651503Y-104671371D01*
X189651503Y-104671371D02*
X189508646Y-104671371D01*
X189508646Y-104671371D02*
X189451503Y-104642800D01*
X189451503Y-104642800D02*
X189422931Y-104614228D01*
X189937217Y-104071371D02*
X190137217Y-104671371D01*
X190137217Y-104671371D02*
X190337217Y-104071371D01*
X191208646Y-104442800D02*
X191665789Y-104442800D01*
X191437217Y-104671371D02*
X191437217Y-104214228D01*
X191894360Y-104071371D02*
X192265788Y-104071371D01*
X192265788Y-104071371D02*
X192065788Y-104299942D01*
X192065788Y-104299942D02*
X192151503Y-104299942D01*
X192151503Y-104299942D02*
X192208646Y-104328514D01*
X192208646Y-104328514D02*
X192237217Y-104357085D01*
X192237217Y-104357085D02*
X192265788Y-104414228D01*
X192265788Y-104414228D02*
X192265788Y-104557085D01*
X192265788Y-104557085D02*
X192237217Y-104614228D01*
X192237217Y-104614228D02*
X192208646Y-104642800D01*
X192208646Y-104642800D02*
X192151503Y-104671371D01*
X192151503Y-104671371D02*
X191980074Y-104671371D01*
X191980074Y-104671371D02*
X191922931Y-104642800D01*
X191922931Y-104642800D02*
X191894360Y-104614228D01*
X192522932Y-104614228D02*
X192551503Y-104642800D01*
X192551503Y-104642800D02*
X192522932Y-104671371D01*
X192522932Y-104671371D02*
X192494360Y-104642800D01*
X192494360Y-104642800D02*
X192522932Y-104614228D01*
X192522932Y-104614228D02*
X192522932Y-104671371D01*
X192751503Y-104071371D02*
X193122931Y-104071371D01*
X193122931Y-104071371D02*
X192922931Y-104299942D01*
X192922931Y-104299942D02*
X193008646Y-104299942D01*
X193008646Y-104299942D02*
X193065789Y-104328514D01*
X193065789Y-104328514D02*
X193094360Y-104357085D01*
X193094360Y-104357085D02*
X193122931Y-104414228D01*
X193122931Y-104414228D02*
X193122931Y-104557085D01*
X193122931Y-104557085D02*
X193094360Y-104614228D01*
X193094360Y-104614228D02*
X193065789Y-104642800D01*
X193065789Y-104642800D02*
X193008646Y-104671371D01*
X193008646Y-104671371D02*
X192837217Y-104671371D01*
X192837217Y-104671371D02*
X192780074Y-104642800D01*
X192780074Y-104642800D02*
X192751503Y-104614228D01*
X193294360Y-104071371D02*
X193494360Y-104671371D01*
X193494360Y-104671371D02*
X193694360Y-104071371D01*
X191872931Y-50821371D02*
X192215789Y-50821371D01*
X192044360Y-51421371D02*
X192044360Y-50821371D01*
X192358646Y-50821371D02*
X192758646Y-51421371D01*
X192758646Y-50821371D02*
X192358646Y-51421371D01*
X194772931Y-50849942D02*
X194715789Y-50821371D01*
X194715789Y-50821371D02*
X194630074Y-50821371D01*
X194630074Y-50821371D02*
X194544360Y-50849942D01*
X194544360Y-50849942D02*
X194487217Y-50907085D01*
X194487217Y-50907085D02*
X194458646Y-50964228D01*
X194458646Y-50964228D02*
X194430074Y-51078514D01*
X194430074Y-51078514D02*
X194430074Y-51164228D01*
X194430074Y-51164228D02*
X194458646Y-51278514D01*
X194458646Y-51278514D02*
X194487217Y-51335657D01*
X194487217Y-51335657D02*
X194544360Y-51392800D01*
X194544360Y-51392800D02*
X194630074Y-51421371D01*
X194630074Y-51421371D02*
X194687217Y-51421371D01*
X194687217Y-51421371D02*
X194772931Y-51392800D01*
X194772931Y-51392800D02*
X194801503Y-51364228D01*
X194801503Y-51364228D02*
X194801503Y-51164228D01*
X194801503Y-51164228D02*
X194687217Y-51164228D01*
X195058646Y-51421371D02*
X195058646Y-50821371D01*
X195058646Y-50821371D02*
X195401503Y-51421371D01*
X195401503Y-51421371D02*
X195401503Y-50821371D01*
X195687217Y-51421371D02*
X195687217Y-50821371D01*
X195687217Y-50821371D02*
X195830074Y-50821371D01*
X195830074Y-50821371D02*
X195915788Y-50849942D01*
X195915788Y-50849942D02*
X195972931Y-50907085D01*
X195972931Y-50907085D02*
X196001502Y-50964228D01*
X196001502Y-50964228D02*
X196030074Y-51078514D01*
X196030074Y-51078514D02*
X196030074Y-51164228D01*
X196030074Y-51164228D02*
X196001502Y-51278514D01*
X196001502Y-51278514D02*
X195972931Y-51335657D01*
X195972931Y-51335657D02*
X195915788Y-51392800D01*
X195915788Y-51392800D02*
X195830074Y-51421371D01*
X195830074Y-51421371D02*
X195687217Y-51421371D01*
X194208646Y-104442800D02*
X194665789Y-104442800D01*
X194437217Y-104671371D02*
X194437217Y-104214228D01*
X194894360Y-104071371D02*
X195265788Y-104071371D01*
X195265788Y-104071371D02*
X195065788Y-104299942D01*
X195065788Y-104299942D02*
X195151503Y-104299942D01*
X195151503Y-104299942D02*
X195208646Y-104328514D01*
X195208646Y-104328514D02*
X195237217Y-104357085D01*
X195237217Y-104357085D02*
X195265788Y-104414228D01*
X195265788Y-104414228D02*
X195265788Y-104557085D01*
X195265788Y-104557085D02*
X195237217Y-104614228D01*
X195237217Y-104614228D02*
X195208646Y-104642800D01*
X195208646Y-104642800D02*
X195151503Y-104671371D01*
X195151503Y-104671371D02*
X194980074Y-104671371D01*
X194980074Y-104671371D02*
X194922931Y-104642800D01*
X194922931Y-104642800D02*
X194894360Y-104614228D01*
X195522932Y-104614228D02*
X195551503Y-104642800D01*
X195551503Y-104642800D02*
X195522932Y-104671371D01*
X195522932Y-104671371D02*
X195494360Y-104642800D01*
X195494360Y-104642800D02*
X195522932Y-104614228D01*
X195522932Y-104614228D02*
X195522932Y-104671371D01*
X195751503Y-104071371D02*
X196122931Y-104071371D01*
X196122931Y-104071371D02*
X195922931Y-104299942D01*
X195922931Y-104299942D02*
X196008646Y-104299942D01*
X196008646Y-104299942D02*
X196065789Y-104328514D01*
X196065789Y-104328514D02*
X196094360Y-104357085D01*
X196094360Y-104357085D02*
X196122931Y-104414228D01*
X196122931Y-104414228D02*
X196122931Y-104557085D01*
X196122931Y-104557085D02*
X196094360Y-104614228D01*
X196094360Y-104614228D02*
X196065789Y-104642800D01*
X196065789Y-104642800D02*
X196008646Y-104671371D01*
X196008646Y-104671371D02*
X195837217Y-104671371D01*
X195837217Y-104671371D02*
X195780074Y-104642800D01*
X195780074Y-104642800D02*
X195751503Y-104614228D01*
X196294360Y-104071371D02*
X196494360Y-104671371D01*
X196494360Y-104671371D02*
X196694360Y-104071371D01*
X196708646Y-51192800D02*
X197165789Y-51192800D01*
X196937217Y-51421371D02*
X196937217Y-50964228D01*
X197737217Y-50821371D02*
X197451503Y-50821371D01*
X197451503Y-50821371D02*
X197422931Y-51107085D01*
X197422931Y-51107085D02*
X197451503Y-51078514D01*
X197451503Y-51078514D02*
X197508646Y-51049942D01*
X197508646Y-51049942D02*
X197651503Y-51049942D01*
X197651503Y-51049942D02*
X197708646Y-51078514D01*
X197708646Y-51078514D02*
X197737217Y-51107085D01*
X197737217Y-51107085D02*
X197765788Y-51164228D01*
X197765788Y-51164228D02*
X197765788Y-51307085D01*
X197765788Y-51307085D02*
X197737217Y-51364228D01*
X197737217Y-51364228D02*
X197708646Y-51392800D01*
X197708646Y-51392800D02*
X197651503Y-51421371D01*
X197651503Y-51421371D02*
X197508646Y-51421371D01*
X197508646Y-51421371D02*
X197451503Y-51392800D01*
X197451503Y-51392800D02*
X197422931Y-51364228D01*
X197937217Y-50821371D02*
X198137217Y-51421371D01*
X198137217Y-51421371D02*
X198337217Y-50821371D01*
X197522931Y-104099942D02*
X197465789Y-104071371D01*
X197465789Y-104071371D02*
X197380074Y-104071371D01*
X197380074Y-104071371D02*
X197294360Y-104099942D01*
X197294360Y-104099942D02*
X197237217Y-104157085D01*
X197237217Y-104157085D02*
X197208646Y-104214228D01*
X197208646Y-104214228D02*
X197180074Y-104328514D01*
X197180074Y-104328514D02*
X197180074Y-104414228D01*
X197180074Y-104414228D02*
X197208646Y-104528514D01*
X197208646Y-104528514D02*
X197237217Y-104585657D01*
X197237217Y-104585657D02*
X197294360Y-104642800D01*
X197294360Y-104642800D02*
X197380074Y-104671371D01*
X197380074Y-104671371D02*
X197437217Y-104671371D01*
X197437217Y-104671371D02*
X197522931Y-104642800D01*
X197522931Y-104642800D02*
X197551503Y-104614228D01*
X197551503Y-104614228D02*
X197551503Y-104414228D01*
X197551503Y-104414228D02*
X197437217Y-104414228D01*
X197808646Y-104671371D02*
X197808646Y-104071371D01*
X197808646Y-104071371D02*
X198151503Y-104671371D01*
X198151503Y-104671371D02*
X198151503Y-104071371D01*
X198437217Y-104671371D02*
X198437217Y-104071371D01*
X198437217Y-104071371D02*
X198580074Y-104071371D01*
X198580074Y-104071371D02*
X198665788Y-104099942D01*
X198665788Y-104099942D02*
X198722931Y-104157085D01*
X198722931Y-104157085D02*
X198751502Y-104214228D01*
X198751502Y-104214228D02*
X198780074Y-104328514D01*
X198780074Y-104328514D02*
X198780074Y-104414228D01*
X198780074Y-104414228D02*
X198751502Y-104528514D01*
X198751502Y-104528514D02*
X198722931Y-104585657D01*
X198722931Y-104585657D02*
X198665788Y-104642800D01*
X198665788Y-104642800D02*
X198580074Y-104671371D01*
X198580074Y-104671371D02*
X198437217Y-104671371D01*
X200022931Y-104099942D02*
X199965789Y-104071371D01*
X199965789Y-104071371D02*
X199880074Y-104071371D01*
X199880074Y-104071371D02*
X199794360Y-104099942D01*
X199794360Y-104099942D02*
X199737217Y-104157085D01*
X199737217Y-104157085D02*
X199708646Y-104214228D01*
X199708646Y-104214228D02*
X199680074Y-104328514D01*
X199680074Y-104328514D02*
X199680074Y-104414228D01*
X199680074Y-104414228D02*
X199708646Y-104528514D01*
X199708646Y-104528514D02*
X199737217Y-104585657D01*
X199737217Y-104585657D02*
X199794360Y-104642800D01*
X199794360Y-104642800D02*
X199880074Y-104671371D01*
X199880074Y-104671371D02*
X199937217Y-104671371D01*
X199937217Y-104671371D02*
X200022931Y-104642800D01*
X200022931Y-104642800D02*
X200051503Y-104614228D01*
X200051503Y-104614228D02*
X200051503Y-104414228D01*
X200051503Y-104414228D02*
X199937217Y-104414228D01*
X200308646Y-104671371D02*
X200308646Y-104071371D01*
X200308646Y-104071371D02*
X200651503Y-104671371D01*
X200651503Y-104671371D02*
X200651503Y-104071371D01*
X200937217Y-104671371D02*
X200937217Y-104071371D01*
X200937217Y-104071371D02*
X201080074Y-104071371D01*
X201080074Y-104071371D02*
X201165788Y-104099942D01*
X201165788Y-104099942D02*
X201222931Y-104157085D01*
X201222931Y-104157085D02*
X201251502Y-104214228D01*
X201251502Y-104214228D02*
X201280074Y-104328514D01*
X201280074Y-104328514D02*
X201280074Y-104414228D01*
X201280074Y-104414228D02*
X201251502Y-104528514D01*
X201251502Y-104528514D02*
X201222931Y-104585657D01*
X201222931Y-104585657D02*
X201165788Y-104642800D01*
X201165788Y-104642800D02*
X201080074Y-104671371D01*
X201080074Y-104671371D02*
X200937217Y-104671371D01*
X136684836Y-89878637D02*
X136684836Y-90283399D01*
X136684836Y-90283399D02*
X136708646Y-90331018D01*
X136708646Y-90331018D02*
X136732455Y-90354828D01*
X136732455Y-90354828D02*
X136780074Y-90378637D01*
X136780074Y-90378637D02*
X136875312Y-90378637D01*
X136875312Y-90378637D02*
X136922931Y-90354828D01*
X136922931Y-90354828D02*
X136946741Y-90331018D01*
X136946741Y-90331018D02*
X136970550Y-90283399D01*
X136970550Y-90283399D02*
X136970550Y-89878637D01*
X137184837Y-90354828D02*
X137256265Y-90378637D01*
X137256265Y-90378637D02*
X137375313Y-90378637D01*
X137375313Y-90378637D02*
X137422932Y-90354828D01*
X137422932Y-90354828D02*
X137446741Y-90331018D01*
X137446741Y-90331018D02*
X137470551Y-90283399D01*
X137470551Y-90283399D02*
X137470551Y-90235780D01*
X137470551Y-90235780D02*
X137446741Y-90188161D01*
X137446741Y-90188161D02*
X137422932Y-90164351D01*
X137422932Y-90164351D02*
X137375313Y-90140542D01*
X137375313Y-90140542D02*
X137280075Y-90116732D01*
X137280075Y-90116732D02*
X137232456Y-90092923D01*
X137232456Y-90092923D02*
X137208646Y-90069113D01*
X137208646Y-90069113D02*
X137184837Y-90021494D01*
X137184837Y-90021494D02*
X137184837Y-89973875D01*
X137184837Y-89973875D02*
X137208646Y-89926256D01*
X137208646Y-89926256D02*
X137232456Y-89902447D01*
X137232456Y-89902447D02*
X137280075Y-89878637D01*
X137280075Y-89878637D02*
X137399122Y-89878637D01*
X137399122Y-89878637D02*
X137470551Y-89902447D01*
X137851503Y-90116732D02*
X137922931Y-90140542D01*
X137922931Y-90140542D02*
X137946741Y-90164351D01*
X137946741Y-90164351D02*
X137970550Y-90211970D01*
X137970550Y-90211970D02*
X137970550Y-90283399D01*
X137970550Y-90283399D02*
X137946741Y-90331018D01*
X137946741Y-90331018D02*
X137922931Y-90354828D01*
X137922931Y-90354828D02*
X137875312Y-90378637D01*
X137875312Y-90378637D02*
X137684836Y-90378637D01*
X137684836Y-90378637D02*
X137684836Y-89878637D01*
X137684836Y-89878637D02*
X137851503Y-89878637D01*
X137851503Y-89878637D02*
X137899122Y-89902447D01*
X137899122Y-89902447D02*
X137922931Y-89926256D01*
X137922931Y-89926256D02*
X137946741Y-89973875D01*
X137946741Y-89973875D02*
X137946741Y-90021494D01*
X137946741Y-90021494D02*
X137922931Y-90069113D01*
X137922931Y-90069113D02*
X137899122Y-90092923D01*
X137899122Y-90092923D02*
X137851503Y-90116732D01*
X137851503Y-90116732D02*
X137684836Y-90116732D01*
X138565788Y-90378637D02*
X138565788Y-89878637D01*
X138565788Y-89878637D02*
X138756264Y-89878637D01*
X138756264Y-89878637D02*
X138803883Y-89902447D01*
X138803883Y-89902447D02*
X138827693Y-89926256D01*
X138827693Y-89926256D02*
X138851502Y-89973875D01*
X138851502Y-89973875D02*
X138851502Y-90045304D01*
X138851502Y-90045304D02*
X138827693Y-90092923D01*
X138827693Y-90092923D02*
X138803883Y-90116732D01*
X138803883Y-90116732D02*
X138756264Y-90140542D01*
X138756264Y-90140542D02*
X138565788Y-90140542D01*
X139065788Y-90378637D02*
X139065788Y-90045304D01*
X139065788Y-89878637D02*
X139041979Y-89902447D01*
X139041979Y-89902447D02*
X139065788Y-89926256D01*
X139065788Y-89926256D02*
X139089598Y-89902447D01*
X139089598Y-89902447D02*
X139065788Y-89878637D01*
X139065788Y-89878637D02*
X139065788Y-89926256D01*
X139684835Y-90378637D02*
X139684835Y-89878637D01*
X139684835Y-89878637D02*
X139875311Y-89878637D01*
X139875311Y-89878637D02*
X139922930Y-89902447D01*
X139922930Y-89902447D02*
X139946740Y-89926256D01*
X139946740Y-89926256D02*
X139970549Y-89973875D01*
X139970549Y-89973875D02*
X139970549Y-90045304D01*
X139970549Y-90045304D02*
X139946740Y-90092923D01*
X139946740Y-90092923D02*
X139922930Y-90116732D01*
X139922930Y-90116732D02*
X139875311Y-90140542D01*
X139875311Y-90140542D02*
X139684835Y-90140542D01*
X140256264Y-90378637D02*
X140208645Y-90354828D01*
X140208645Y-90354828D02*
X140184835Y-90331018D01*
X140184835Y-90331018D02*
X140161026Y-90283399D01*
X140161026Y-90283399D02*
X140161026Y-90140542D01*
X140161026Y-90140542D02*
X140184835Y-90092923D01*
X140184835Y-90092923D02*
X140208645Y-90069113D01*
X140208645Y-90069113D02*
X140256264Y-90045304D01*
X140256264Y-90045304D02*
X140327692Y-90045304D01*
X140327692Y-90045304D02*
X140375311Y-90069113D01*
X140375311Y-90069113D02*
X140399121Y-90092923D01*
X140399121Y-90092923D02*
X140422930Y-90140542D01*
X140422930Y-90140542D02*
X140422930Y-90283399D01*
X140422930Y-90283399D02*
X140399121Y-90331018D01*
X140399121Y-90331018D02*
X140375311Y-90354828D01*
X140375311Y-90354828D02*
X140327692Y-90378637D01*
X140327692Y-90378637D02*
X140256264Y-90378637D01*
X140589597Y-90045304D02*
X140684835Y-90378637D01*
X140684835Y-90378637D02*
X140780073Y-90140542D01*
X140780073Y-90140542D02*
X140875311Y-90378637D01*
X140875311Y-90378637D02*
X140970549Y-90045304D01*
X141351502Y-90354828D02*
X141303883Y-90378637D01*
X141303883Y-90378637D02*
X141208645Y-90378637D01*
X141208645Y-90378637D02*
X141161026Y-90354828D01*
X141161026Y-90354828D02*
X141137217Y-90307208D01*
X141137217Y-90307208D02*
X141137217Y-90116732D01*
X141137217Y-90116732D02*
X141161026Y-90069113D01*
X141161026Y-90069113D02*
X141208645Y-90045304D01*
X141208645Y-90045304D02*
X141303883Y-90045304D01*
X141303883Y-90045304D02*
X141351502Y-90069113D01*
X141351502Y-90069113D02*
X141375312Y-90116732D01*
X141375312Y-90116732D02*
X141375312Y-90164351D01*
X141375312Y-90164351D02*
X141137217Y-90211970D01*
X141589597Y-90378637D02*
X141589597Y-90045304D01*
X141589597Y-90140542D02*
X141613407Y-90092923D01*
X141613407Y-90092923D02*
X141637216Y-90069113D01*
X141637216Y-90069113D02*
X141684835Y-90045304D01*
X141684835Y-90045304D02*
X141732454Y-90045304D01*
X147232455Y-96659133D02*
X147232455Y-95959133D01*
X147232455Y-95959133D02*
X147465789Y-96459133D01*
X147465789Y-96459133D02*
X147699122Y-95959133D01*
X147699122Y-95959133D02*
X147699122Y-96659133D01*
X148132455Y-96659133D02*
X148065789Y-96625800D01*
X148065789Y-96625800D02*
X148032455Y-96592466D01*
X148032455Y-96592466D02*
X147999122Y-96525800D01*
X147999122Y-96525800D02*
X147999122Y-96325800D01*
X147999122Y-96325800D02*
X148032455Y-96259133D01*
X148032455Y-96259133D02*
X148065789Y-96225800D01*
X148065789Y-96225800D02*
X148132455Y-96192466D01*
X148132455Y-96192466D02*
X148232455Y-96192466D01*
X148232455Y-96192466D02*
X148299122Y-96225800D01*
X148299122Y-96225800D02*
X148332455Y-96259133D01*
X148332455Y-96259133D02*
X148365789Y-96325800D01*
X148365789Y-96325800D02*
X148365789Y-96525800D01*
X148365789Y-96525800D02*
X148332455Y-96592466D01*
X148332455Y-96592466D02*
X148299122Y-96625800D01*
X148299122Y-96625800D02*
X148232455Y-96659133D01*
X148232455Y-96659133D02*
X148132455Y-96659133D01*
X148565788Y-96192466D02*
X148832455Y-96192466D01*
X148665788Y-95959133D02*
X148665788Y-96559133D01*
X148665788Y-96559133D02*
X148699122Y-96625800D01*
X148699122Y-96625800D02*
X148765788Y-96659133D01*
X148765788Y-96659133D02*
X148832455Y-96659133D01*
X149165788Y-96659133D02*
X149099122Y-96625800D01*
X149099122Y-96625800D02*
X149065788Y-96592466D01*
X149065788Y-96592466D02*
X149032455Y-96525800D01*
X149032455Y-96525800D02*
X149032455Y-96325800D01*
X149032455Y-96325800D02*
X149065788Y-96259133D01*
X149065788Y-96259133D02*
X149099122Y-96225800D01*
X149099122Y-96225800D02*
X149165788Y-96192466D01*
X149165788Y-96192466D02*
X149265788Y-96192466D01*
X149265788Y-96192466D02*
X149332455Y-96225800D01*
X149332455Y-96225800D02*
X149365788Y-96259133D01*
X149365788Y-96259133D02*
X149399122Y-96325800D01*
X149399122Y-96325800D02*
X149399122Y-96525800D01*
X149399122Y-96525800D02*
X149365788Y-96592466D01*
X149365788Y-96592466D02*
X149332455Y-96625800D01*
X149332455Y-96625800D02*
X149265788Y-96659133D01*
X149265788Y-96659133D02*
X149165788Y-96659133D01*
X149699121Y-96659133D02*
X149699121Y-96192466D01*
X149699121Y-96325800D02*
X149732455Y-96259133D01*
X149732455Y-96259133D02*
X149765788Y-96225800D01*
X149765788Y-96225800D02*
X149832455Y-96192466D01*
X149832455Y-96192466D02*
X149899121Y-96192466D01*
X150999121Y-96659133D02*
X150665787Y-96659133D01*
X150665787Y-96659133D02*
X150665787Y-95959133D01*
X151499121Y-96625800D02*
X151432454Y-96659133D01*
X151432454Y-96659133D02*
X151299121Y-96659133D01*
X151299121Y-96659133D02*
X151232454Y-96625800D01*
X151232454Y-96625800D02*
X151199121Y-96559133D01*
X151199121Y-96559133D02*
X151199121Y-96292466D01*
X151199121Y-96292466D02*
X151232454Y-96225800D01*
X151232454Y-96225800D02*
X151299121Y-96192466D01*
X151299121Y-96192466D02*
X151432454Y-96192466D01*
X151432454Y-96192466D02*
X151499121Y-96225800D01*
X151499121Y-96225800D02*
X151532454Y-96292466D01*
X151532454Y-96292466D02*
X151532454Y-96359133D01*
X151532454Y-96359133D02*
X151199121Y-96425800D01*
X151732454Y-96192466D02*
X151999121Y-96192466D01*
X151832454Y-96659133D02*
X151832454Y-96059133D01*
X151832454Y-96059133D02*
X151865788Y-95992466D01*
X151865788Y-95992466D02*
X151932454Y-95959133D01*
X151932454Y-95959133D02*
X151999121Y-95959133D01*
X152132454Y-96192466D02*
X152399121Y-96192466D01*
X152232454Y-95959133D02*
X152232454Y-96559133D01*
X152232454Y-96559133D02*
X152265788Y-96625800D01*
X152265788Y-96625800D02*
X152332454Y-96659133D01*
X152332454Y-96659133D02*
X152399121Y-96659133D01*
X161982455Y-96659133D02*
X161982455Y-95959133D01*
X161982455Y-95959133D02*
X162215789Y-96459133D01*
X162215789Y-96459133D02*
X162449122Y-95959133D01*
X162449122Y-95959133D02*
X162449122Y-96659133D01*
X162882455Y-96659133D02*
X162815789Y-96625800D01*
X162815789Y-96625800D02*
X162782455Y-96592466D01*
X162782455Y-96592466D02*
X162749122Y-96525800D01*
X162749122Y-96525800D02*
X162749122Y-96325800D01*
X162749122Y-96325800D02*
X162782455Y-96259133D01*
X162782455Y-96259133D02*
X162815789Y-96225800D01*
X162815789Y-96225800D02*
X162882455Y-96192466D01*
X162882455Y-96192466D02*
X162982455Y-96192466D01*
X162982455Y-96192466D02*
X163049122Y-96225800D01*
X163049122Y-96225800D02*
X163082455Y-96259133D01*
X163082455Y-96259133D02*
X163115789Y-96325800D01*
X163115789Y-96325800D02*
X163115789Y-96525800D01*
X163115789Y-96525800D02*
X163082455Y-96592466D01*
X163082455Y-96592466D02*
X163049122Y-96625800D01*
X163049122Y-96625800D02*
X162982455Y-96659133D01*
X162982455Y-96659133D02*
X162882455Y-96659133D01*
X163315788Y-96192466D02*
X163582455Y-96192466D01*
X163415788Y-95959133D02*
X163415788Y-96559133D01*
X163415788Y-96559133D02*
X163449122Y-96625800D01*
X163449122Y-96625800D02*
X163515788Y-96659133D01*
X163515788Y-96659133D02*
X163582455Y-96659133D01*
X163915788Y-96659133D02*
X163849122Y-96625800D01*
X163849122Y-96625800D02*
X163815788Y-96592466D01*
X163815788Y-96592466D02*
X163782455Y-96525800D01*
X163782455Y-96525800D02*
X163782455Y-96325800D01*
X163782455Y-96325800D02*
X163815788Y-96259133D01*
X163815788Y-96259133D02*
X163849122Y-96225800D01*
X163849122Y-96225800D02*
X163915788Y-96192466D01*
X163915788Y-96192466D02*
X164015788Y-96192466D01*
X164015788Y-96192466D02*
X164082455Y-96225800D01*
X164082455Y-96225800D02*
X164115788Y-96259133D01*
X164115788Y-96259133D02*
X164149122Y-96325800D01*
X164149122Y-96325800D02*
X164149122Y-96525800D01*
X164149122Y-96525800D02*
X164115788Y-96592466D01*
X164115788Y-96592466D02*
X164082455Y-96625800D01*
X164082455Y-96625800D02*
X164015788Y-96659133D01*
X164015788Y-96659133D02*
X163915788Y-96659133D01*
X164449121Y-96659133D02*
X164449121Y-96192466D01*
X164449121Y-96325800D02*
X164482455Y-96259133D01*
X164482455Y-96259133D02*
X164515788Y-96225800D01*
X164515788Y-96225800D02*
X164582455Y-96192466D01*
X164582455Y-96192466D02*
X164649121Y-96192466D01*
X165815787Y-96659133D02*
X165582454Y-96325800D01*
X165415787Y-96659133D02*
X165415787Y-95959133D01*
X165415787Y-95959133D02*
X165682454Y-95959133D01*
X165682454Y-95959133D02*
X165749121Y-95992466D01*
X165749121Y-95992466D02*
X165782454Y-96025800D01*
X165782454Y-96025800D02*
X165815787Y-96092466D01*
X165815787Y-96092466D02*
X165815787Y-96192466D01*
X165815787Y-96192466D02*
X165782454Y-96259133D01*
X165782454Y-96259133D02*
X165749121Y-96292466D01*
X165749121Y-96292466D02*
X165682454Y-96325800D01*
X165682454Y-96325800D02*
X165415787Y-96325800D01*
X166115787Y-96659133D02*
X166115787Y-96192466D01*
X166115787Y-95959133D02*
X166082454Y-95992466D01*
X166082454Y-95992466D02*
X166115787Y-96025800D01*
X166115787Y-96025800D02*
X166149121Y-95992466D01*
X166149121Y-95992466D02*
X166115787Y-95959133D01*
X166115787Y-95959133D02*
X166115787Y-96025800D01*
X166749120Y-96192466D02*
X166749120Y-96759133D01*
X166749120Y-96759133D02*
X166715787Y-96825800D01*
X166715787Y-96825800D02*
X166682454Y-96859133D01*
X166682454Y-96859133D02*
X166615787Y-96892466D01*
X166615787Y-96892466D02*
X166515787Y-96892466D01*
X166515787Y-96892466D02*
X166449120Y-96859133D01*
X166749120Y-96625800D02*
X166682454Y-96659133D01*
X166682454Y-96659133D02*
X166549120Y-96659133D01*
X166549120Y-96659133D02*
X166482454Y-96625800D01*
X166482454Y-96625800D02*
X166449120Y-96592466D01*
X166449120Y-96592466D02*
X166415787Y-96525800D01*
X166415787Y-96525800D02*
X166415787Y-96325800D01*
X166415787Y-96325800D02*
X166449120Y-96259133D01*
X166449120Y-96259133D02*
X166482454Y-96225800D01*
X166482454Y-96225800D02*
X166549120Y-96192466D01*
X166549120Y-96192466D02*
X166682454Y-96192466D01*
X166682454Y-96192466D02*
X166749120Y-96225800D01*
X167082453Y-96659133D02*
X167082453Y-95959133D01*
X167382453Y-96659133D02*
X167382453Y-96292466D01*
X167382453Y-96292466D02*
X167349120Y-96225800D01*
X167349120Y-96225800D02*
X167282453Y-96192466D01*
X167282453Y-96192466D02*
X167182453Y-96192466D01*
X167182453Y-96192466D02*
X167115787Y-96225800D01*
X167115787Y-96225800D02*
X167082453Y-96259133D01*
X167615786Y-96192466D02*
X167882453Y-96192466D01*
X167715786Y-95959133D02*
X167715786Y-96559133D01*
X167715786Y-96559133D02*
X167749120Y-96625800D01*
X167749120Y-96625800D02*
X167815786Y-96659133D01*
X167815786Y-96659133D02*
X167882453Y-96659133D01*
X196458646Y-83855405D02*
X196458646Y-84341119D01*
X196458646Y-84341119D02*
X196487217Y-84398262D01*
X196487217Y-84398262D02*
X196515789Y-84426834D01*
X196515789Y-84426834D02*
X196572931Y-84455405D01*
X196572931Y-84455405D02*
X196687217Y-84455405D01*
X196687217Y-84455405D02*
X196744360Y-84426834D01*
X196744360Y-84426834D02*
X196772931Y-84398262D01*
X196772931Y-84398262D02*
X196801503Y-84341119D01*
X196801503Y-84341119D02*
X196801503Y-83855405D01*
X197058645Y-84426834D02*
X197144360Y-84455405D01*
X197144360Y-84455405D02*
X197287217Y-84455405D01*
X197287217Y-84455405D02*
X197344360Y-84426834D01*
X197344360Y-84426834D02*
X197372931Y-84398262D01*
X197372931Y-84398262D02*
X197401502Y-84341119D01*
X197401502Y-84341119D02*
X197401502Y-84283976D01*
X197401502Y-84283976D02*
X197372931Y-84226834D01*
X197372931Y-84226834D02*
X197344360Y-84198262D01*
X197344360Y-84198262D02*
X197287217Y-84169691D01*
X197287217Y-84169691D02*
X197172931Y-84141119D01*
X197172931Y-84141119D02*
X197115788Y-84112548D01*
X197115788Y-84112548D02*
X197087217Y-84083976D01*
X197087217Y-84083976D02*
X197058645Y-84026834D01*
X197058645Y-84026834D02*
X197058645Y-83969691D01*
X197058645Y-83969691D02*
X197087217Y-83912548D01*
X197087217Y-83912548D02*
X197115788Y-83883976D01*
X197115788Y-83883976D02*
X197172931Y-83855405D01*
X197172931Y-83855405D02*
X197315788Y-83855405D01*
X197315788Y-83855405D02*
X197401502Y-83883976D01*
X197858646Y-84141119D02*
X197944360Y-84169691D01*
X197944360Y-84169691D02*
X197972931Y-84198262D01*
X197972931Y-84198262D02*
X198001503Y-84255405D01*
X198001503Y-84255405D02*
X198001503Y-84341119D01*
X198001503Y-84341119D02*
X197972931Y-84398262D01*
X197972931Y-84398262D02*
X197944360Y-84426834D01*
X197944360Y-84426834D02*
X197887217Y-84455405D01*
X197887217Y-84455405D02*
X197658646Y-84455405D01*
X197658646Y-84455405D02*
X197658646Y-83855405D01*
X197658646Y-83855405D02*
X197858646Y-83855405D01*
X197858646Y-83855405D02*
X197915789Y-83883976D01*
X197915789Y-83883976D02*
X197944360Y-83912548D01*
X197944360Y-83912548D02*
X197972931Y-83969691D01*
X197972931Y-83969691D02*
X197972931Y-84026834D01*
X197972931Y-84026834D02*
X197944360Y-84083976D01*
X197944360Y-84083976D02*
X197915789Y-84112548D01*
X197915789Y-84112548D02*
X197858646Y-84141119D01*
X197858646Y-84141119D02*
X197658646Y-84141119D01*
X198915789Y-84141119D02*
X198715789Y-84141119D01*
X198715789Y-84455405D02*
X198715789Y-83855405D01*
X198715789Y-83855405D02*
X199001503Y-83855405D01*
X199487218Y-84055405D02*
X199487218Y-84455405D01*
X199230075Y-84055405D02*
X199230075Y-84369691D01*
X199230075Y-84369691D02*
X199258646Y-84426834D01*
X199258646Y-84426834D02*
X199315789Y-84455405D01*
X199315789Y-84455405D02*
X199401503Y-84455405D01*
X199401503Y-84455405D02*
X199458646Y-84426834D01*
X199458646Y-84426834D02*
X199487218Y-84398262D01*
X199858646Y-84455405D02*
X199801503Y-84426834D01*
X199801503Y-84426834D02*
X199772932Y-84369691D01*
X199772932Y-84369691D02*
X199772932Y-83855405D01*
X200172932Y-84455405D02*
X200115789Y-84426834D01*
X200115789Y-84426834D02*
X200087218Y-84369691D01*
X200087218Y-84369691D02*
X200087218Y-83855405D01*
X200830075Y-84426834D02*
X200915790Y-84455405D01*
X200915790Y-84455405D02*
X201058647Y-84455405D01*
X201058647Y-84455405D02*
X201115790Y-84426834D01*
X201115790Y-84426834D02*
X201144361Y-84398262D01*
X201144361Y-84398262D02*
X201172932Y-84341119D01*
X201172932Y-84341119D02*
X201172932Y-84283976D01*
X201172932Y-84283976D02*
X201144361Y-84226834D01*
X201144361Y-84226834D02*
X201115790Y-84198262D01*
X201115790Y-84198262D02*
X201058647Y-84169691D01*
X201058647Y-84169691D02*
X200944361Y-84141119D01*
X200944361Y-84141119D02*
X200887218Y-84112548D01*
X200887218Y-84112548D02*
X200858647Y-84083976D01*
X200858647Y-84083976D02*
X200830075Y-84026834D01*
X200830075Y-84026834D02*
X200830075Y-83969691D01*
X200830075Y-83969691D02*
X200858647Y-83912548D01*
X200858647Y-83912548D02*
X200887218Y-83883976D01*
X200887218Y-83883976D02*
X200944361Y-83855405D01*
X200944361Y-83855405D02*
X201087218Y-83855405D01*
X201087218Y-83855405D02*
X201172932Y-83883976D01*
X201430076Y-84055405D02*
X201430076Y-84655405D01*
X201430076Y-84083976D02*
X201487219Y-84055405D01*
X201487219Y-84055405D02*
X201601504Y-84055405D01*
X201601504Y-84055405D02*
X201658647Y-84083976D01*
X201658647Y-84083976D02*
X201687219Y-84112548D01*
X201687219Y-84112548D02*
X201715790Y-84169691D01*
X201715790Y-84169691D02*
X201715790Y-84341119D01*
X201715790Y-84341119D02*
X201687219Y-84398262D01*
X201687219Y-84398262D02*
X201658647Y-84426834D01*
X201658647Y-84426834D02*
X201601504Y-84455405D01*
X201601504Y-84455405D02*
X201487219Y-84455405D01*
X201487219Y-84455405D02*
X201430076Y-84426834D01*
X202201504Y-84426834D02*
X202144361Y-84455405D01*
X202144361Y-84455405D02*
X202030076Y-84455405D01*
X202030076Y-84455405D02*
X201972933Y-84426834D01*
X201972933Y-84426834D02*
X201944361Y-84369691D01*
X201944361Y-84369691D02*
X201944361Y-84141119D01*
X201944361Y-84141119D02*
X201972933Y-84083976D01*
X201972933Y-84083976D02*
X202030076Y-84055405D01*
X202030076Y-84055405D02*
X202144361Y-84055405D01*
X202144361Y-84055405D02*
X202201504Y-84083976D01*
X202201504Y-84083976D02*
X202230076Y-84141119D01*
X202230076Y-84141119D02*
X202230076Y-84198262D01*
X202230076Y-84198262D02*
X201944361Y-84255405D01*
X202715790Y-84426834D02*
X202658647Y-84455405D01*
X202658647Y-84455405D02*
X202544362Y-84455405D01*
X202544362Y-84455405D02*
X202487219Y-84426834D01*
X202487219Y-84426834D02*
X202458647Y-84369691D01*
X202458647Y-84369691D02*
X202458647Y-84141119D01*
X202458647Y-84141119D02*
X202487219Y-84083976D01*
X202487219Y-84083976D02*
X202544362Y-84055405D01*
X202544362Y-84055405D02*
X202658647Y-84055405D01*
X202658647Y-84055405D02*
X202715790Y-84083976D01*
X202715790Y-84083976D02*
X202744362Y-84141119D01*
X202744362Y-84141119D02*
X202744362Y-84198262D01*
X202744362Y-84198262D02*
X202458647Y-84255405D01*
X203258648Y-84455405D02*
X203258648Y-83855405D01*
X203258648Y-84426834D02*
X203201505Y-84455405D01*
X203201505Y-84455405D02*
X203087219Y-84455405D01*
X203087219Y-84455405D02*
X203030076Y-84426834D01*
X203030076Y-84426834D02*
X203001505Y-84398262D01*
X203001505Y-84398262D02*
X202972933Y-84341119D01*
X202972933Y-84341119D02*
X202972933Y-84169691D01*
X202972933Y-84169691D02*
X203001505Y-84112548D01*
X203001505Y-84112548D02*
X203030076Y-84083976D01*
X203030076Y-84083976D02*
X203087219Y-84055405D01*
X203087219Y-84055405D02*
X203201505Y-84055405D01*
X203201505Y-84055405D02*
X203258648Y-84083976D01*
X198208646Y-58571371D02*
X198208646Y-59057085D01*
X198208646Y-59057085D02*
X198237217Y-59114228D01*
X198237217Y-59114228D02*
X198265789Y-59142800D01*
X198265789Y-59142800D02*
X198322931Y-59171371D01*
X198322931Y-59171371D02*
X198437217Y-59171371D01*
X198437217Y-59171371D02*
X198494360Y-59142800D01*
X198494360Y-59142800D02*
X198522931Y-59114228D01*
X198522931Y-59114228D02*
X198551503Y-59057085D01*
X198551503Y-59057085D02*
X198551503Y-58571371D01*
X198808645Y-59142800D02*
X198894360Y-59171371D01*
X198894360Y-59171371D02*
X199037217Y-59171371D01*
X199037217Y-59171371D02*
X199094360Y-59142800D01*
X199094360Y-59142800D02*
X199122931Y-59114228D01*
X199122931Y-59114228D02*
X199151502Y-59057085D01*
X199151502Y-59057085D02*
X199151502Y-58999942D01*
X199151502Y-58999942D02*
X199122931Y-58942800D01*
X199122931Y-58942800D02*
X199094360Y-58914228D01*
X199094360Y-58914228D02*
X199037217Y-58885657D01*
X199037217Y-58885657D02*
X198922931Y-58857085D01*
X198922931Y-58857085D02*
X198865788Y-58828514D01*
X198865788Y-58828514D02*
X198837217Y-58799942D01*
X198837217Y-58799942D02*
X198808645Y-58742800D01*
X198808645Y-58742800D02*
X198808645Y-58685657D01*
X198808645Y-58685657D02*
X198837217Y-58628514D01*
X198837217Y-58628514D02*
X198865788Y-58599942D01*
X198865788Y-58599942D02*
X198922931Y-58571371D01*
X198922931Y-58571371D02*
X199065788Y-58571371D01*
X199065788Y-58571371D02*
X199151502Y-58599942D01*
X199608646Y-58857085D02*
X199694360Y-58885657D01*
X199694360Y-58885657D02*
X199722931Y-58914228D01*
X199722931Y-58914228D02*
X199751503Y-58971371D01*
X199751503Y-58971371D02*
X199751503Y-59057085D01*
X199751503Y-59057085D02*
X199722931Y-59114228D01*
X199722931Y-59114228D02*
X199694360Y-59142800D01*
X199694360Y-59142800D02*
X199637217Y-59171371D01*
X199637217Y-59171371D02*
X199408646Y-59171371D01*
X199408646Y-59171371D02*
X199408646Y-58571371D01*
X199408646Y-58571371D02*
X199608646Y-58571371D01*
X199608646Y-58571371D02*
X199665789Y-58599942D01*
X199665789Y-58599942D02*
X199694360Y-58628514D01*
X199694360Y-58628514D02*
X199722931Y-58685657D01*
X199722931Y-58685657D02*
X199722931Y-58742800D01*
X199722931Y-58742800D02*
X199694360Y-58799942D01*
X199694360Y-58799942D02*
X199665789Y-58828514D01*
X199665789Y-58828514D02*
X199608646Y-58857085D01*
X199608646Y-58857085D02*
X199408646Y-58857085D01*
X200465789Y-58571371D02*
X200465789Y-59057085D01*
X200465789Y-59057085D02*
X200494360Y-59114228D01*
X200494360Y-59114228D02*
X200522932Y-59142800D01*
X200522932Y-59142800D02*
X200580074Y-59171371D01*
X200580074Y-59171371D02*
X200694360Y-59171371D01*
X200694360Y-59171371D02*
X200751503Y-59142800D01*
X200751503Y-59142800D02*
X200780074Y-59114228D01*
X200780074Y-59114228D02*
X200808646Y-59057085D01*
X200808646Y-59057085D02*
X200808646Y-58571371D01*
X201065788Y-58999942D02*
X201351503Y-58999942D01*
X201008645Y-59171371D02*
X201208645Y-58571371D01*
X201208645Y-58571371D02*
X201408645Y-59171371D01*
X201951503Y-59171371D02*
X201751503Y-58885657D01*
X201608646Y-59171371D02*
X201608646Y-58571371D01*
X201608646Y-58571371D02*
X201837217Y-58571371D01*
X201837217Y-58571371D02*
X201894360Y-58599942D01*
X201894360Y-58599942D02*
X201922931Y-58628514D01*
X201922931Y-58628514D02*
X201951503Y-58685657D01*
X201951503Y-58685657D02*
X201951503Y-58771371D01*
X201951503Y-58771371D02*
X201922931Y-58828514D01*
X201922931Y-58828514D02*
X201894360Y-58857085D01*
X201894360Y-58857085D02*
X201837217Y-58885657D01*
X201837217Y-58885657D02*
X201608646Y-58885657D01*
X202122931Y-58571371D02*
X202465789Y-58571371D01*
X202294360Y-59171371D02*
X202294360Y-58571371D01*
X123232455Y-94622419D02*
X123232455Y-94098609D01*
X123232455Y-94098609D02*
X123184836Y-94003371D01*
X123184836Y-94003371D02*
X123089598Y-93955752D01*
X123089598Y-93955752D02*
X122899122Y-93955752D01*
X122899122Y-93955752D02*
X122803884Y-94003371D01*
X123232455Y-94574800D02*
X123137217Y-94622419D01*
X123137217Y-94622419D02*
X122899122Y-94622419D01*
X122899122Y-94622419D02*
X122803884Y-94574800D01*
X122803884Y-94574800D02*
X122756265Y-94479561D01*
X122756265Y-94479561D02*
X122756265Y-94384323D01*
X122756265Y-94384323D02*
X122803884Y-94289085D01*
X122803884Y-94289085D02*
X122899122Y-94241466D01*
X122899122Y-94241466D02*
X123137217Y-94241466D01*
X123137217Y-94241466D02*
X123232455Y-94193847D01*
X123708646Y-94622419D02*
X123708646Y-93955752D01*
X123708646Y-94050990D02*
X123756265Y-94003371D01*
X123756265Y-94003371D02*
X123851503Y-93955752D01*
X123851503Y-93955752D02*
X123994360Y-93955752D01*
X123994360Y-93955752D02*
X124089598Y-94003371D01*
X124089598Y-94003371D02*
X124137217Y-94098609D01*
X124137217Y-94098609D02*
X124137217Y-94622419D01*
X124137217Y-94098609D02*
X124184836Y-94003371D01*
X124184836Y-94003371D02*
X124280074Y-93955752D01*
X124280074Y-93955752D02*
X124422931Y-93955752D01*
X124422931Y-93955752D02*
X124518170Y-94003371D01*
X124518170Y-94003371D02*
X124565789Y-94098609D01*
X124565789Y-94098609D02*
X124565789Y-94622419D01*
X125041979Y-94622419D02*
X125041979Y-93955752D01*
X125041979Y-94146228D02*
X125089598Y-94050990D01*
X125089598Y-94050990D02*
X125137217Y-94003371D01*
X125137217Y-94003371D02*
X125232455Y-93955752D01*
X125232455Y-93955752D02*
X125327693Y-93955752D01*
X182982455Y-99622419D02*
X182982455Y-98622419D01*
X182982455Y-99574800D02*
X182887217Y-99622419D01*
X182887217Y-99622419D02*
X182696741Y-99622419D01*
X182696741Y-99622419D02*
X182601503Y-99574800D01*
X182601503Y-99574800D02*
X182553884Y-99527180D01*
X182553884Y-99527180D02*
X182506265Y-99431942D01*
X182506265Y-99431942D02*
X182506265Y-99146228D01*
X182506265Y-99146228D02*
X182553884Y-99050990D01*
X182553884Y-99050990D02*
X182601503Y-99003371D01*
X182601503Y-99003371D02*
X182696741Y-98955752D01*
X182696741Y-98955752D02*
X182887217Y-98955752D01*
X182887217Y-98955752D02*
X182982455Y-99003371D01*
X183839598Y-99574800D02*
X183744360Y-99622419D01*
X183744360Y-99622419D02*
X183553884Y-99622419D01*
X183553884Y-99622419D02*
X183458646Y-99574800D01*
X183458646Y-99574800D02*
X183411027Y-99479561D01*
X183411027Y-99479561D02*
X183411027Y-99098609D01*
X183411027Y-99098609D02*
X183458646Y-99003371D01*
X183458646Y-99003371D02*
X183553884Y-98955752D01*
X183553884Y-98955752D02*
X183744360Y-98955752D01*
X183744360Y-98955752D02*
X183839598Y-99003371D01*
X183839598Y-99003371D02*
X183887217Y-99098609D01*
X183887217Y-99098609D02*
X183887217Y-99193847D01*
X183887217Y-99193847D02*
X183411027Y-99289085D01*
X184268170Y-99574800D02*
X184363408Y-99622419D01*
X184363408Y-99622419D02*
X184553884Y-99622419D01*
X184553884Y-99622419D02*
X184649122Y-99574800D01*
X184649122Y-99574800D02*
X184696741Y-99479561D01*
X184696741Y-99479561D02*
X184696741Y-99431942D01*
X184696741Y-99431942D02*
X184649122Y-99336704D01*
X184649122Y-99336704D02*
X184553884Y-99289085D01*
X184553884Y-99289085D02*
X184411027Y-99289085D01*
X184411027Y-99289085D02*
X184315789Y-99241466D01*
X184315789Y-99241466D02*
X184268170Y-99146228D01*
X184268170Y-99146228D02*
X184268170Y-99098609D01*
X184268170Y-99098609D02*
X184315789Y-99003371D01*
X184315789Y-99003371D02*
X184411027Y-98955752D01*
X184411027Y-98955752D02*
X184553884Y-98955752D01*
X184553884Y-98955752D02*
X184649122Y-99003371D01*
X185125313Y-99622419D02*
X185125313Y-98955752D01*
X185125313Y-98622419D02*
X185077694Y-98670038D01*
X185077694Y-98670038D02*
X185125313Y-98717657D01*
X185125313Y-98717657D02*
X185172932Y-98670038D01*
X185172932Y-98670038D02*
X185125313Y-98622419D01*
X185125313Y-98622419D02*
X185125313Y-98717657D01*
X186030074Y-98955752D02*
X186030074Y-99765276D01*
X186030074Y-99765276D02*
X185982455Y-99860514D01*
X185982455Y-99860514D02*
X185934836Y-99908133D01*
X185934836Y-99908133D02*
X185839598Y-99955752D01*
X185839598Y-99955752D02*
X185696741Y-99955752D01*
X185696741Y-99955752D02*
X185601503Y-99908133D01*
X186030074Y-99574800D02*
X185934836Y-99622419D01*
X185934836Y-99622419D02*
X185744360Y-99622419D01*
X185744360Y-99622419D02*
X185649122Y-99574800D01*
X185649122Y-99574800D02*
X185601503Y-99527180D01*
X185601503Y-99527180D02*
X185553884Y-99431942D01*
X185553884Y-99431942D02*
X185553884Y-99146228D01*
X185553884Y-99146228D02*
X185601503Y-99050990D01*
X185601503Y-99050990D02*
X185649122Y-99003371D01*
X185649122Y-99003371D02*
X185744360Y-98955752D01*
X185744360Y-98955752D02*
X185934836Y-98955752D01*
X185934836Y-98955752D02*
X186030074Y-99003371D01*
X186506265Y-98955752D02*
X186506265Y-99622419D01*
X186506265Y-99050990D02*
X186553884Y-99003371D01*
X186553884Y-99003371D02*
X186649122Y-98955752D01*
X186649122Y-98955752D02*
X186791979Y-98955752D01*
X186791979Y-98955752D02*
X186887217Y-99003371D01*
X186887217Y-99003371D02*
X186934836Y-99098609D01*
X186934836Y-99098609D02*
X186934836Y-99622419D01*
X187791979Y-99574800D02*
X187696741Y-99622419D01*
X187696741Y-99622419D02*
X187506265Y-99622419D01*
X187506265Y-99622419D02*
X187411027Y-99574800D01*
X187411027Y-99574800D02*
X187363408Y-99479561D01*
X187363408Y-99479561D02*
X187363408Y-99098609D01*
X187363408Y-99098609D02*
X187411027Y-99003371D01*
X187411027Y-99003371D02*
X187506265Y-98955752D01*
X187506265Y-98955752D02*
X187696741Y-98955752D01*
X187696741Y-98955752D02*
X187791979Y-99003371D01*
X187791979Y-99003371D02*
X187839598Y-99098609D01*
X187839598Y-99098609D02*
X187839598Y-99193847D01*
X187839598Y-99193847D02*
X187363408Y-99289085D01*
X188696741Y-99622419D02*
X188696741Y-98622419D01*
X188696741Y-99574800D02*
X188601503Y-99622419D01*
X188601503Y-99622419D02*
X188411027Y-99622419D01*
X188411027Y-99622419D02*
X188315789Y-99574800D01*
X188315789Y-99574800D02*
X188268170Y-99527180D01*
X188268170Y-99527180D02*
X188220551Y-99431942D01*
X188220551Y-99431942D02*
X188220551Y-99146228D01*
X188220551Y-99146228D02*
X188268170Y-99050990D01*
X188268170Y-99050990D02*
X188315789Y-99003371D01*
X188315789Y-99003371D02*
X188411027Y-98955752D01*
X188411027Y-98955752D02*
X188601503Y-98955752D01*
X188601503Y-98955752D02*
X188696741Y-99003371D01*
X189934837Y-99622419D02*
X189934837Y-98622419D01*
X189934837Y-99003371D02*
X190030075Y-98955752D01*
X190030075Y-98955752D02*
X190220551Y-98955752D01*
X190220551Y-98955752D02*
X190315789Y-99003371D01*
X190315789Y-99003371D02*
X190363408Y-99050990D01*
X190363408Y-99050990D02*
X190411027Y-99146228D01*
X190411027Y-99146228D02*
X190411027Y-99431942D01*
X190411027Y-99431942D02*
X190363408Y-99527180D01*
X190363408Y-99527180D02*
X190315789Y-99574800D01*
X190315789Y-99574800D02*
X190220551Y-99622419D01*
X190220551Y-99622419D02*
X190030075Y-99622419D01*
X190030075Y-99622419D02*
X189934837Y-99574800D01*
X190744361Y-98955752D02*
X190982456Y-99622419D01*
X191220551Y-98955752D02*
X190982456Y-99622419D01*
X190982456Y-99622419D02*
X190887218Y-99860514D01*
X190887218Y-99860514D02*
X190839599Y-99908133D01*
X190839599Y-99908133D02*
X190744361Y-99955752D01*
X192982456Y-99146228D02*
X192934837Y-99098609D01*
X192934837Y-99098609D02*
X192839599Y-99050990D01*
X192839599Y-99050990D02*
X192744361Y-99050990D01*
X192744361Y-99050990D02*
X192649123Y-99098609D01*
X192649123Y-99098609D02*
X192601504Y-99146228D01*
X192601504Y-99146228D02*
X192553885Y-99241466D01*
X192553885Y-99241466D02*
X192553885Y-99336704D01*
X192553885Y-99336704D02*
X192601504Y-99431942D01*
X192601504Y-99431942D02*
X192649123Y-99479561D01*
X192649123Y-99479561D02*
X192744361Y-99527180D01*
X192744361Y-99527180D02*
X192839599Y-99527180D01*
X192839599Y-99527180D02*
X192934837Y-99479561D01*
X192934837Y-99479561D02*
X192982456Y-99431942D01*
X192982456Y-99050990D02*
X192982456Y-99431942D01*
X192982456Y-99431942D02*
X193030075Y-99479561D01*
X193030075Y-99479561D02*
X193077694Y-99479561D01*
X193077694Y-99479561D02*
X193172933Y-99431942D01*
X193172933Y-99431942D02*
X193220552Y-99336704D01*
X193220552Y-99336704D02*
X193220552Y-99098609D01*
X193220552Y-99098609D02*
X193125314Y-98955752D01*
X193125314Y-98955752D02*
X192982456Y-98860514D01*
X192982456Y-98860514D02*
X192791980Y-98812895D01*
X192791980Y-98812895D02*
X192601504Y-98860514D01*
X192601504Y-98860514D02*
X192458647Y-98955752D01*
X192458647Y-98955752D02*
X192363409Y-99098609D01*
X192363409Y-99098609D02*
X192315790Y-99289085D01*
X192315790Y-99289085D02*
X192363409Y-99479561D01*
X192363409Y-99479561D02*
X192458647Y-99622419D01*
X192458647Y-99622419D02*
X192601504Y-99717657D01*
X192601504Y-99717657D02*
X192791980Y-99765276D01*
X192791980Y-99765276D02*
X192982456Y-99717657D01*
X192982456Y-99717657D02*
X193125314Y-99622419D01*
X193649123Y-99622419D02*
X193649123Y-98622419D01*
X194077694Y-99622419D02*
X194077694Y-99098609D01*
X194077694Y-99098609D02*
X194030075Y-99003371D01*
X194030075Y-99003371D02*
X193934837Y-98955752D01*
X193934837Y-98955752D02*
X193791980Y-98955752D01*
X193791980Y-98955752D02*
X193696742Y-99003371D01*
X193696742Y-99003371D02*
X193649123Y-99050990D01*
X194696742Y-99622419D02*
X194601504Y-99574800D01*
X194601504Y-99574800D02*
X194553885Y-99527180D01*
X194553885Y-99527180D02*
X194506266Y-99431942D01*
X194506266Y-99431942D02*
X194506266Y-99146228D01*
X194506266Y-99146228D02*
X194553885Y-99050990D01*
X194553885Y-99050990D02*
X194601504Y-99003371D01*
X194601504Y-99003371D02*
X194696742Y-98955752D01*
X194696742Y-98955752D02*
X194839599Y-98955752D01*
X194839599Y-98955752D02*
X194934837Y-99003371D01*
X194934837Y-99003371D02*
X194982456Y-99050990D01*
X194982456Y-99050990D02*
X195030075Y-99146228D01*
X195030075Y-99146228D02*
X195030075Y-99431942D01*
X195030075Y-99431942D02*
X194982456Y-99527180D01*
X194982456Y-99527180D02*
X194934837Y-99574800D01*
X194934837Y-99574800D02*
X194839599Y-99622419D01*
X194839599Y-99622419D02*
X194696742Y-99622419D01*
X195458647Y-98955752D02*
X195458647Y-99622419D01*
X195458647Y-99050990D02*
X195506266Y-99003371D01*
X195506266Y-99003371D02*
X195601504Y-98955752D01*
X195601504Y-98955752D02*
X195744361Y-98955752D01*
X195744361Y-98955752D02*
X195839599Y-99003371D01*
X195839599Y-99003371D02*
X195887218Y-99098609D01*
X195887218Y-99098609D02*
X195887218Y-99622419D01*
X196791980Y-98955752D02*
X196791980Y-99765276D01*
X196791980Y-99765276D02*
X196744361Y-99860514D01*
X196744361Y-99860514D02*
X196696742Y-99908133D01*
X196696742Y-99908133D02*
X196601504Y-99955752D01*
X196601504Y-99955752D02*
X196458647Y-99955752D01*
X196458647Y-99955752D02*
X196363409Y-99908133D01*
X196791980Y-99574800D02*
X196696742Y-99622419D01*
X196696742Y-99622419D02*
X196506266Y-99622419D01*
X196506266Y-99622419D02*
X196411028Y-99574800D01*
X196411028Y-99574800D02*
X196363409Y-99527180D01*
X196363409Y-99527180D02*
X196315790Y-99431942D01*
X196315790Y-99431942D02*
X196315790Y-99146228D01*
X196315790Y-99146228D02*
X196363409Y-99050990D01*
X196363409Y-99050990D02*
X196411028Y-99003371D01*
X196411028Y-99003371D02*
X196506266Y-98955752D01*
X196506266Y-98955752D02*
X196696742Y-98955752D01*
X196696742Y-98955752D02*
X196791980Y-99003371D01*
X197125314Y-98955752D02*
X197506266Y-98955752D01*
X197268171Y-98622419D02*
X197268171Y-99479561D01*
X197268171Y-99479561D02*
X197315790Y-99574800D01*
X197315790Y-99574800D02*
X197411028Y-99622419D01*
X197411028Y-99622419D02*
X197506266Y-99622419D01*
X198268171Y-99622419D02*
X198268171Y-99098609D01*
X198268171Y-99098609D02*
X198220552Y-99003371D01*
X198220552Y-99003371D02*
X198125314Y-98955752D01*
X198125314Y-98955752D02*
X197934838Y-98955752D01*
X197934838Y-98955752D02*
X197839600Y-99003371D01*
X198268171Y-99574800D02*
X198172933Y-99622419D01*
X198172933Y-99622419D02*
X197934838Y-99622419D01*
X197934838Y-99622419D02*
X197839600Y-99574800D01*
X197839600Y-99574800D02*
X197791981Y-99479561D01*
X197791981Y-99479561D02*
X197791981Y-99384323D01*
X197791981Y-99384323D02*
X197839600Y-99289085D01*
X197839600Y-99289085D02*
X197934838Y-99241466D01*
X197934838Y-99241466D02*
X198172933Y-99241466D01*
X198172933Y-99241466D02*
X198268171Y-99193847D01*
X198744362Y-98955752D02*
X198744362Y-99622419D01*
X198744362Y-99050990D02*
X198791981Y-99003371D01*
X198791981Y-99003371D02*
X198887219Y-98955752D01*
X198887219Y-98955752D02*
X199030076Y-98955752D01*
X199030076Y-98955752D02*
X199125314Y-99003371D01*
X199125314Y-99003371D02*
X199172933Y-99098609D01*
X199172933Y-99098609D02*
X199172933Y-99622419D01*
X199649124Y-98955752D02*
X199649124Y-99622419D01*
X199649124Y-99050990D02*
X199696743Y-99003371D01*
X199696743Y-99003371D02*
X199791981Y-98955752D01*
X199791981Y-98955752D02*
X199934838Y-98955752D01*
X199934838Y-98955752D02*
X200030076Y-99003371D01*
X200030076Y-99003371D02*
X200077695Y-99098609D01*
X200077695Y-99098609D02*
X200077695Y-99622419D01*
X200553886Y-98955752D02*
X200553886Y-99622419D01*
X200553886Y-99050990D02*
X200601505Y-99003371D01*
X200601505Y-99003371D02*
X200696743Y-98955752D01*
X200696743Y-98955752D02*
X200839600Y-98955752D01*
X200839600Y-98955752D02*
X200934838Y-99003371D01*
X200934838Y-99003371D02*
X200982457Y-99098609D01*
X200982457Y-99098609D02*
X200982457Y-99622419D01*
X201458648Y-98955752D02*
X201458648Y-99622419D01*
X201458648Y-99050990D02*
X201506267Y-99003371D01*
X201506267Y-99003371D02*
X201601505Y-98955752D01*
X201601505Y-98955752D02*
X201744362Y-98955752D01*
X201744362Y-98955752D02*
X201839600Y-99003371D01*
X201839600Y-99003371D02*
X201887219Y-99098609D01*
X201887219Y-99098609D02*
X201887219Y-99622419D01*
D11*
X199983333Y-64562295D02*
X199983333Y-65133723D01*
X199983333Y-65133723D02*
X199945238Y-65248009D01*
X199945238Y-65248009D02*
X199869047Y-65324200D01*
X199869047Y-65324200D02*
X199754762Y-65362295D01*
X199754762Y-65362295D02*
X199678571Y-65362295D01*
X200707143Y-64562295D02*
X200554762Y-64562295D01*
X200554762Y-64562295D02*
X200478571Y-64600390D01*
X200478571Y-64600390D02*
X200440476Y-64638485D01*
X200440476Y-64638485D02*
X200364286Y-64752771D01*
X200364286Y-64752771D02*
X200326190Y-64905152D01*
X200326190Y-64905152D02*
X200326190Y-65209914D01*
X200326190Y-65209914D02*
X200364286Y-65286104D01*
X200364286Y-65286104D02*
X200402381Y-65324200D01*
X200402381Y-65324200D02*
X200478571Y-65362295D01*
X200478571Y-65362295D02*
X200630952Y-65362295D01*
X200630952Y-65362295D02*
X200707143Y-65324200D01*
X200707143Y-65324200D02*
X200745238Y-65286104D01*
X200745238Y-65286104D02*
X200783333Y-65209914D01*
X200783333Y-65209914D02*
X200783333Y-65019438D01*
X200783333Y-65019438D02*
X200745238Y-64943247D01*
X200745238Y-64943247D02*
X200707143Y-64905152D01*
X200707143Y-64905152D02*
X200630952Y-64867057D01*
X200630952Y-64867057D02*
X200478571Y-64867057D01*
X200478571Y-64867057D02*
X200402381Y-64905152D01*
X200402381Y-64905152D02*
X200364286Y-64943247D01*
X200364286Y-64943247D02*
X200326190Y-65019438D01*
X191164285Y-82193247D02*
X191278571Y-82231342D01*
X191278571Y-82231342D02*
X191316666Y-82269438D01*
X191316666Y-82269438D02*
X191354762Y-82345628D01*
X191354762Y-82345628D02*
X191354762Y-82459914D01*
X191354762Y-82459914D02*
X191316666Y-82536104D01*
X191316666Y-82536104D02*
X191278571Y-82574200D01*
X191278571Y-82574200D02*
X191202381Y-82612295D01*
X191202381Y-82612295D02*
X190897619Y-82612295D01*
X190897619Y-82612295D02*
X190897619Y-81812295D01*
X190897619Y-81812295D02*
X191164285Y-81812295D01*
X191164285Y-81812295D02*
X191240476Y-81850390D01*
X191240476Y-81850390D02*
X191278571Y-81888485D01*
X191278571Y-81888485D02*
X191316666Y-81964676D01*
X191316666Y-81964676D02*
X191316666Y-82040866D01*
X191316666Y-82040866D02*
X191278571Y-82117057D01*
X191278571Y-82117057D02*
X191240476Y-82155152D01*
X191240476Y-82155152D02*
X191164285Y-82193247D01*
X191164285Y-82193247D02*
X190897619Y-82193247D01*
X191850000Y-81812295D02*
X192002381Y-81812295D01*
X192002381Y-81812295D02*
X192078571Y-81850390D01*
X192078571Y-81850390D02*
X192154762Y-81926580D01*
X192154762Y-81926580D02*
X192192857Y-82078961D01*
X192192857Y-82078961D02*
X192192857Y-82345628D01*
X192192857Y-82345628D02*
X192154762Y-82498009D01*
X192154762Y-82498009D02*
X192078571Y-82574200D01*
X192078571Y-82574200D02*
X192002381Y-82612295D01*
X192002381Y-82612295D02*
X191850000Y-82612295D01*
X191850000Y-82612295D02*
X191773809Y-82574200D01*
X191773809Y-82574200D02*
X191697619Y-82498009D01*
X191697619Y-82498009D02*
X191659523Y-82345628D01*
X191659523Y-82345628D02*
X191659523Y-82078961D01*
X191659523Y-82078961D02*
X191697619Y-81926580D01*
X191697619Y-81926580D02*
X191773809Y-81850390D01*
X191773809Y-81850390D02*
X191850000Y-81812295D01*
X192688095Y-81812295D02*
X192840476Y-81812295D01*
X192840476Y-81812295D02*
X192916666Y-81850390D01*
X192916666Y-81850390D02*
X192992857Y-81926580D01*
X192992857Y-81926580D02*
X193030952Y-82078961D01*
X193030952Y-82078961D02*
X193030952Y-82345628D01*
X193030952Y-82345628D02*
X192992857Y-82498009D01*
X192992857Y-82498009D02*
X192916666Y-82574200D01*
X192916666Y-82574200D02*
X192840476Y-82612295D01*
X192840476Y-82612295D02*
X192688095Y-82612295D01*
X192688095Y-82612295D02*
X192611904Y-82574200D01*
X192611904Y-82574200D02*
X192535714Y-82498009D01*
X192535714Y-82498009D02*
X192497618Y-82345628D01*
X192497618Y-82345628D02*
X192497618Y-82078961D01*
X192497618Y-82078961D02*
X192535714Y-81926580D01*
X192535714Y-81926580D02*
X192611904Y-81850390D01*
X192611904Y-81850390D02*
X192688095Y-81812295D01*
X193259523Y-81812295D02*
X193716666Y-81812295D01*
X193488094Y-82612295D02*
X193488094Y-81812295D01*
X127733333Y-64062295D02*
X127733333Y-64633723D01*
X127733333Y-64633723D02*
X127695238Y-64748009D01*
X127695238Y-64748009D02*
X127619047Y-64824200D01*
X127619047Y-64824200D02*
X127504762Y-64862295D01*
X127504762Y-64862295D02*
X127428571Y-64862295D01*
X128038095Y-64062295D02*
X128571429Y-64062295D01*
X128571429Y-64062295D02*
X128228571Y-64862295D01*
X138764700Y-60171428D02*
X138764700Y-59028571D01*
X139336128Y-59599999D02*
X138193271Y-59599999D01*
X162954819Y-64386899D02*
X163192914Y-64386899D01*
X163097676Y-64624994D02*
X163192914Y-64386899D01*
X163192914Y-64386899D02*
X163097676Y-64148804D01*
X163383390Y-64529756D02*
X163192914Y-64386899D01*
X163192914Y-64386899D02*
X163383390Y-64244042D01*
X162954819Y-64386899D02*
X163192914Y-64386899D01*
X163097676Y-64624994D02*
X163192914Y-64386899D01*
X163192914Y-64386899D02*
X163097676Y-64148804D01*
X163383390Y-64529756D02*
X163192914Y-64386899D01*
X163192914Y-64386899D02*
X163383390Y-64244042D01*
X191088095Y-73862295D02*
X190821428Y-73481342D01*
X190630952Y-73862295D02*
X190630952Y-73062295D01*
X190630952Y-73062295D02*
X190935714Y-73062295D01*
X190935714Y-73062295D02*
X191011904Y-73100390D01*
X191011904Y-73100390D02*
X191049999Y-73138485D01*
X191049999Y-73138485D02*
X191088095Y-73214676D01*
X191088095Y-73214676D02*
X191088095Y-73328961D01*
X191088095Y-73328961D02*
X191049999Y-73405152D01*
X191049999Y-73405152D02*
X191011904Y-73443247D01*
X191011904Y-73443247D02*
X190935714Y-73481342D01*
X190935714Y-73481342D02*
X190630952Y-73481342D01*
X191430952Y-73443247D02*
X191697618Y-73443247D01*
X191811904Y-73862295D02*
X191430952Y-73862295D01*
X191430952Y-73862295D02*
X191430952Y-73062295D01*
X191430952Y-73062295D02*
X191811904Y-73062295D01*
X192116666Y-73824200D02*
X192230952Y-73862295D01*
X192230952Y-73862295D02*
X192421428Y-73862295D01*
X192421428Y-73862295D02*
X192497619Y-73824200D01*
X192497619Y-73824200D02*
X192535714Y-73786104D01*
X192535714Y-73786104D02*
X192573809Y-73709914D01*
X192573809Y-73709914D02*
X192573809Y-73633723D01*
X192573809Y-73633723D02*
X192535714Y-73557533D01*
X192535714Y-73557533D02*
X192497619Y-73519438D01*
X192497619Y-73519438D02*
X192421428Y-73481342D01*
X192421428Y-73481342D02*
X192269047Y-73443247D01*
X192269047Y-73443247D02*
X192192857Y-73405152D01*
X192192857Y-73405152D02*
X192154762Y-73367057D01*
X192154762Y-73367057D02*
X192116666Y-73290866D01*
X192116666Y-73290866D02*
X192116666Y-73214676D01*
X192116666Y-73214676D02*
X192154762Y-73138485D01*
X192154762Y-73138485D02*
X192192857Y-73100390D01*
X192192857Y-73100390D02*
X192269047Y-73062295D01*
X192269047Y-73062295D02*
X192459524Y-73062295D01*
X192459524Y-73062295D02*
X192573809Y-73100390D01*
X192916667Y-73443247D02*
X193183333Y-73443247D01*
X193297619Y-73862295D02*
X192916667Y-73862295D01*
X192916667Y-73862295D02*
X192916667Y-73062295D01*
X192916667Y-73062295D02*
X193297619Y-73062295D01*
X193526191Y-73062295D02*
X193983334Y-73062295D01*
X193754762Y-73862295D02*
X193754762Y-73062295D01*
X199733333Y-90062295D02*
X199733333Y-90633723D01*
X199733333Y-90633723D02*
X199695238Y-90748009D01*
X199695238Y-90748009D02*
X199619047Y-90824200D01*
X199619047Y-90824200D02*
X199504762Y-90862295D01*
X199504762Y-90862295D02*
X199428571Y-90862295D01*
X200495238Y-90062295D02*
X200114286Y-90062295D01*
X200114286Y-90062295D02*
X200076190Y-90443247D01*
X200076190Y-90443247D02*
X200114286Y-90405152D01*
X200114286Y-90405152D02*
X200190476Y-90367057D01*
X200190476Y-90367057D02*
X200380952Y-90367057D01*
X200380952Y-90367057D02*
X200457143Y-90405152D01*
X200457143Y-90405152D02*
X200495238Y-90443247D01*
X200495238Y-90443247D02*
X200533333Y-90519438D01*
X200533333Y-90519438D02*
X200533333Y-90709914D01*
X200533333Y-90709914D02*
X200495238Y-90786104D01*
X200495238Y-90786104D02*
X200457143Y-90824200D01*
X200457143Y-90824200D02*
X200380952Y-90862295D01*
X200380952Y-90862295D02*
X200190476Y-90862295D01*
X200190476Y-90862295D02*
X200114286Y-90824200D01*
X200114286Y-90824200D02*
X200076190Y-90786104D01*
%TO.C,C40*%
D12*
X132813748Y-76840000D02*
X134236252Y-76840000D01*
X132813748Y-78660000D02*
X134236252Y-78660000D01*
%TO.C,C16*%
X165988747Y-57765000D02*
X166511253Y-57765000D01*
X165988747Y-59235000D02*
X166511253Y-59235000D01*
%TO.C,C49*%
X142760000Y-87463748D02*
X142760000Y-87986252D01*
X144230000Y-87463748D02*
X144230000Y-87986252D01*
%TO.C,C35*%
X165595604Y-75708097D02*
X165794415Y-75906908D01*
X166316853Y-74986848D02*
X166515664Y-75185659D01*
%TO.C,U9*%
D11*
X136175000Y-84525000D02*
X136175000Y-80375000D01*
X141325000Y-84525000D02*
X141325000Y-80375000D01*
D12*
X136275000Y-85125000D02*
X135945000Y-85365000D01*
X135945000Y-84885000D01*
X136275000Y-85125000D01*
G36*
X136275000Y-85125000D02*
G01*
X135945000Y-85365000D01*
X135945000Y-84885000D01*
X136275000Y-85125000D01*
G37*
%TO.C,C23*%
X168261252Y-92015000D02*
X167738748Y-92015000D01*
X168261252Y-93485000D02*
X167738748Y-93485000D01*
%TO.C,R13*%
X191787258Y-88297500D02*
X191312742Y-88297500D01*
X191787258Y-89342500D02*
X191312742Y-89342500D01*
%TO.C,C1*%
X175915580Y-91490000D02*
X175634420Y-91490000D01*
X175915580Y-92510000D02*
X175634420Y-92510000D01*
%TO.C,J4*%
X195820000Y-72670000D02*
X197090000Y-72670000D01*
X195820000Y-73940000D02*
X195820000Y-72670000D01*
X198167358Y-76050000D02*
X198552642Y-76050000D01*
X198167358Y-76910000D02*
X198552642Y-76910000D01*
X198167358Y-78590000D02*
X198552642Y-78590000D01*
X198167358Y-79450000D02*
X198552642Y-79450000D01*
X198167358Y-81130000D02*
X198552642Y-81130000D01*
X198167358Y-81990000D02*
X198552642Y-81990000D01*
X198250000Y-73510000D02*
X198552642Y-73510000D01*
X198250000Y-74370000D02*
X198552642Y-74370000D01*
X200707358Y-73510000D02*
X201020000Y-73510000D01*
X200707358Y-74370000D02*
X201020000Y-74370000D01*
X200707358Y-76050000D02*
X201020000Y-76050000D01*
X200707358Y-76910000D02*
X201020000Y-76910000D01*
X200707358Y-78590000D02*
X201020000Y-78590000D01*
X200707358Y-79450000D02*
X201020000Y-79450000D01*
X200707358Y-81130000D02*
X201020000Y-81130000D01*
X200707358Y-81990000D02*
X201020000Y-81990000D01*
X201020000Y-75210000D02*
X203780000Y-75210000D01*
X201020000Y-77750000D02*
X203780000Y-77750000D01*
X201020000Y-80290000D02*
X203780000Y-80290000D01*
X203780000Y-76050000D02*
X209780000Y-76050000D01*
X203780000Y-78590000D02*
X209780000Y-78590000D01*
X203780000Y-81130000D02*
X209780000Y-81130000D01*
X209780000Y-76050000D02*
X209780000Y-76910000D01*
X209780000Y-76910000D02*
X203780000Y-76910000D01*
X209780000Y-78590000D02*
X209780000Y-79450000D01*
X209780000Y-79450000D02*
X203780000Y-79450000D01*
X209780000Y-81130000D02*
X209780000Y-81990000D01*
X209780000Y-81990000D02*
X203780000Y-81990000D01*
X201020000Y-72560000D02*
X203780000Y-72560000D01*
X203780000Y-82940000D01*
X201020000Y-82940000D01*
X201020000Y-72560000D01*
X203780000Y-73510000D02*
X209780000Y-73510000D01*
X209780000Y-74370000D01*
X203780000Y-74370000D01*
X203780000Y-73510000D01*
G36*
X203780000Y-73510000D02*
G01*
X209780000Y-73510000D01*
X209780000Y-74370000D01*
X203780000Y-74370000D01*
X203780000Y-73510000D01*
G37*
%TO.C,D3*%
X155290000Y-69502502D02*
X155290000Y-72187501D01*
X157210000Y-69502502D02*
X155290000Y-69502502D01*
X157210000Y-72187501D02*
X157210000Y-69502502D01*
%TO.C,J6*%
X198100000Y-60300000D02*
X200100000Y-60300000D01*
X198100000Y-69700000D02*
X200100000Y-69700000D01*
X202000000Y-60300000D02*
X203900000Y-60300000D01*
X202000000Y-69700000D02*
X203900000Y-69700000D01*
X203900000Y-69700000D02*
X203900000Y-60300000D01*
%TO.C,C47*%
X132788748Y-74340000D02*
X134211252Y-74340000D01*
X132788748Y-76160000D02*
X134211252Y-76160000D01*
%TO.C,C39*%
X190609420Y-68240000D02*
X190890580Y-68240000D01*
X190609420Y-69260000D02*
X190890580Y-69260000D01*
%TO.C,R27*%
X134327500Y-82162742D02*
X134327500Y-82637258D01*
X135372500Y-82162742D02*
X135372500Y-82637258D01*
%TO.C,C38*%
X165134420Y-83990000D02*
X165415580Y-83990000D01*
X165134420Y-85010000D02*
X165415580Y-85010000D01*
%TO.C,R20*%
X184512742Y-63977500D02*
X184987258Y-63977500D01*
X184512742Y-65022500D02*
X184987258Y-65022500D01*
%TO.C,C12*%
X157265000Y-62688748D02*
X157265000Y-63211252D01*
X158735000Y-62688748D02*
X158735000Y-63211252D01*
%TO.C,C18*%
X143562500Y-76402500D02*
X144350000Y-76402500D01*
X143956250Y-76008750D02*
X143956250Y-76796250D01*
X144590000Y-75904437D02*
X144590000Y-77190000D01*
X144590000Y-75904437D02*
X145654437Y-74840000D01*
X144590000Y-80595563D02*
X144590000Y-79310000D01*
X144590000Y-80595563D02*
X145654437Y-81660000D01*
X145654437Y-74840000D02*
X151410000Y-74840000D01*
X145654437Y-81660000D02*
X151410000Y-81660000D01*
X151410000Y-74840000D02*
X151410000Y-77190000D01*
X151410000Y-81660000D02*
X151410000Y-79310000D01*
%TO.C,C17*%
X167015000Y-62666953D02*
X167015000Y-62144447D01*
X168485000Y-62666953D02*
X168485000Y-62144447D01*
%TO.C,D5*%
X177562645Y-82009496D02*
X177562645Y-83479496D01*
X177562645Y-83479496D02*
X179847645Y-83479496D01*
X179847645Y-82009496D02*
X177562645Y-82009496D01*
%TO.C,R26*%
X133977500Y-87762742D02*
X133977500Y-88237258D01*
X135022500Y-87762742D02*
X135022500Y-88237258D01*
%TO.C,D1*%
X150890000Y-58250000D02*
X150890000Y-60250000D01*
X150890000Y-58250000D02*
X154900000Y-58250000D01*
X150890000Y-60250000D02*
X154900000Y-60250000D01*
%TO.C,C37*%
X186740000Y-76109420D02*
X186740000Y-76390580D01*
X187760000Y-76109420D02*
X187760000Y-76390580D01*
%TO.C,J10*%
X186090000Y-100920000D02*
X186090000Y-103580000D01*
X198850000Y-100920000D02*
X186090000Y-100920000D01*
X198850000Y-100920000D02*
X198850000Y-103580000D01*
X198850000Y-103580000D02*
X186090000Y-103580000D01*
X201450000Y-102250000D02*
X201450000Y-103580000D01*
X201450000Y-103580000D02*
X200120000Y-103580000D01*
%TO.C,R24*%
X182324904Y-83727500D02*
X181850388Y-83727500D01*
X182324904Y-84772500D02*
X181850388Y-84772500D01*
%TO.C,BOOT*%
X190600000Y-78350000D02*
X193900000Y-78350000D01*
X190600000Y-78650000D02*
X190600000Y-78350000D01*
X190600000Y-80850000D02*
X190600000Y-81150000D01*
X190600000Y-81150000D02*
X193900000Y-81150000D01*
X193900000Y-78350000D02*
X193900000Y-78650000D01*
X193900000Y-81150000D02*
X193900000Y-80850000D01*
%TO.C,R7*%
X159039564Y-94015000D02*
X158585436Y-94015000D01*
X159039564Y-95485000D02*
X158585436Y-95485000D01*
%TO.C,C9*%
X148485000Y-61238747D02*
X148485000Y-61761253D01*
X147015000Y-61238747D02*
X147015000Y-61761253D01*
%TO.C,C25*%
X181609419Y-58240000D02*
X181890581Y-58240000D01*
X181609419Y-59260000D02*
X181890581Y-59260000D01*
%TO.C,R5*%
X148935436Y-83265000D02*
X149389564Y-83265000D01*
X148935436Y-84735000D02*
X149389564Y-84735000D01*
%TO.C,R3*%
X157515000Y-70960437D02*
X157515000Y-71414565D01*
X158985000Y-70960437D02*
X158985000Y-71414565D01*
%TO.C,C22*%
X162051248Y-92015000D02*
X162573752Y-92015000D01*
X162051248Y-93485000D02*
X162573752Y-93485000D01*
%TO.C,R22*%
X192977500Y-61737258D02*
X192977500Y-61262742D01*
X194022500Y-61737258D02*
X194022500Y-61262742D01*
%TO.C,C29*%
X176890581Y-78490000D02*
X176609419Y-78490000D01*
X176890581Y-79510000D02*
X176609419Y-79510000D01*
%TO.C,J8*%
X128190000Y-105970000D02*
X128190000Y-106490000D01*
X128190000Y-106490000D02*
X142810000Y-106490000D01*
X128840000Y-91010000D02*
X128840000Y-94340000D01*
X128840000Y-91010000D02*
X142160000Y-91010000D01*
X128840000Y-105970000D02*
X128190000Y-105970000D01*
X128840000Y-105970000D02*
X128840000Y-97860000D01*
X131100000Y-90790000D02*
X132900000Y-90790000D01*
X142160000Y-91010000D02*
X142160000Y-94340000D01*
X142160000Y-97860000D02*
X142160000Y-105970000D01*
X142810000Y-105970000D02*
X142160000Y-105970000D01*
X142810000Y-106490000D02*
X142810000Y-105970000D01*
%TO.C,R19*%
X184987258Y-65477500D02*
X184512742Y-65477500D01*
X184987258Y-66522500D02*
X184512742Y-66522500D01*
%TO.C,R28*%
X139862742Y-88227500D02*
X140337258Y-88227500D01*
X139862742Y-89272500D02*
X140337258Y-89272500D01*
%TO.C,C26*%
X163865581Y-68490000D02*
X163584419Y-68490000D01*
X163865581Y-69510000D02*
X163584419Y-69510000D01*
%TO.C,C30*%
X171490000Y-79984419D02*
X171490000Y-80265581D01*
X172510000Y-79984419D02*
X172510000Y-80265581D01*
%TO.C,C11*%
X155265000Y-62688748D02*
X155265000Y-63211252D01*
X156735000Y-62688748D02*
X156735000Y-63211252D01*
%TO.C,D7*%
X177560000Y-85015000D02*
X177560000Y-86485000D01*
X177560000Y-86485000D02*
X179845000Y-86485000D01*
X179845000Y-85015000D02*
X177560000Y-85015000D01*
%TO.C,C33*%
X181786253Y-59765000D02*
X181263747Y-59765000D01*
X181786253Y-61235000D02*
X181263747Y-61235000D01*
%TO.C,R6*%
X186727500Y-79737258D02*
X186727500Y-79262742D01*
X187772500Y-79737258D02*
X187772500Y-79262742D01*
%TO.C,J7*%
X119690000Y-57640000D02*
X134000000Y-57640000D01*
X119690000Y-73360000D02*
X119690000Y-57640000D01*
X119690000Y-73360000D02*
X134000000Y-73360000D01*
X138110000Y-66790000D02*
X138110000Y-63050000D01*
X134000000Y-57640000D02*
G75*
G02*
X137930413Y-60548352I0J-4110000D01*
G01*
X137522958Y-71366806D02*
G75*
G02*
X134000000Y-73360000I-3522957J2116805D01*
G01*
%TO.C,C19*%
X153261253Y-83265000D02*
X152738747Y-83265000D01*
X153261253Y-84735000D02*
X152738747Y-84735000D01*
%TO.C,C24*%
X168261252Y-94015000D02*
X167738748Y-94015000D01*
X168261252Y-95485000D02*
X167738748Y-95485000D01*
%TO.C,R11*%
X188477500Y-76562258D02*
X188477500Y-76087742D01*
X189522500Y-76562258D02*
X189522500Y-76087742D01*
%TO.C,L2*%
X141550000Y-65800000D02*
X143850000Y-65800000D01*
X141550000Y-73200000D02*
X141550000Y-65800000D01*
X143850000Y-73200000D02*
X141550000Y-73200000D01*
X146650000Y-65800000D02*
X148950000Y-65800000D01*
X148950000Y-65800000D02*
X148950000Y-73200000D01*
X148950000Y-73200000D02*
X146650000Y-73200000D01*
%TO.C,C28*%
X183740000Y-75859419D02*
X183740000Y-76140581D01*
X184760000Y-75859419D02*
X184760000Y-76140581D01*
%TO.C,D6*%
X177575932Y-83515000D02*
X177575932Y-84985000D01*
X177575932Y-84985000D02*
X179860932Y-84985000D01*
X179860932Y-83515000D02*
X177575932Y-83515000D01*
%TO.C,C15*%
X163011253Y-57765000D02*
X162488747Y-57765000D01*
X163011253Y-59235000D02*
X162488747Y-59235000D01*
%TO.C,U2*%
X151090000Y-61440000D02*
X152910000Y-61440000D01*
X151090000Y-61490000D02*
X151090000Y-61440000D01*
X151090000Y-64560000D02*
X151090000Y-64510000D01*
X152910000Y-61440000D02*
X152910000Y-61490000D01*
X152910000Y-62610000D02*
X152910000Y-63390000D01*
X152910000Y-64510000D02*
X152910000Y-64560000D01*
X152910000Y-64560000D02*
X151090000Y-64560000D01*
X150550000Y-61490000D02*
X150310000Y-61160000D01*
X150790000Y-61160000D01*
X150550000Y-61490000D01*
G36*
X150550000Y-61490000D02*
G01*
X150310000Y-61160000D01*
X150790000Y-61160000D01*
X150550000Y-61490000D01*
G37*
%TO.C,C31*%
X169990001Y-79984419D02*
X169990001Y-80265581D01*
X171010001Y-79984419D02*
X171010001Y-80265581D01*
%TO.C,R15*%
X169437742Y-89227500D02*
X169912258Y-89227500D01*
X169437742Y-90272500D02*
X169912258Y-90272500D01*
%TO.C,J1*%
X126220000Y-51080000D02*
X177240000Y-51080000D01*
X126220000Y-53730000D02*
X126220000Y-51080000D01*
X126220000Y-56380000D02*
X126220000Y-55000000D01*
X127600000Y-56380000D02*
X126220000Y-56380000D01*
X128870000Y-53730000D02*
X126220000Y-53730000D01*
X128870000Y-56380000D02*
X128870000Y-53730000D01*
X128870000Y-56380000D02*
X177240000Y-56380000D01*
X177240000Y-56380000D02*
X177240000Y-51080000D01*
%TO.C,C27*%
X163890581Y-70240000D02*
X163609419Y-70240000D01*
X163890581Y-71260000D02*
X163609419Y-71260000D01*
%TO.C,R4*%
X161265000Y-61022936D02*
X161265000Y-61477064D01*
X162735000Y-61022936D02*
X162735000Y-61477064D01*
%TO.C,U4*%
X145290000Y-87240000D02*
X145465000Y-87240000D01*
X145290000Y-92760000D02*
X145290000Y-87240000D01*
X145465000Y-92760000D02*
X145290000Y-92760000D01*
X153535000Y-87240000D02*
X153710000Y-87240000D01*
X153710000Y-87240000D02*
X153710000Y-92760000D01*
X153710000Y-92760000D02*
X153535000Y-92760000D01*
X145460000Y-93500000D02*
X144990000Y-93840000D01*
X144990000Y-93160000D01*
X145460000Y-93500000D01*
G36*
X145460000Y-93500000D02*
G01*
X144990000Y-93840000D01*
X144990000Y-93160000D01*
X145460000Y-93500000D01*
G37*
%TO.C,C34*%
X163673094Y-73785587D02*
X163474283Y-73586776D01*
X164394343Y-73064338D02*
X164195532Y-72865527D01*
%TO.C,Y2*%
X159359334Y-76153985D02*
X161989771Y-73523548D01*
X159394689Y-76189340D02*
X159359334Y-76153985D01*
X161728141Y-78522793D02*
X160893755Y-77688407D01*
X161989771Y-73523548D02*
X162025126Y-73558903D01*
X163262563Y-80057214D02*
X163227208Y-80021859D01*
X163524193Y-75057969D02*
X164358579Y-75892355D01*
X164358579Y-75892355D02*
X164606066Y-75644868D01*
X165857645Y-77391422D02*
X165893000Y-77426777D01*
X165893000Y-77426777D02*
X163262563Y-80057214D01*
X166105132Y-77143934D02*
X165857645Y-77391422D01*
%TO.C,U3*%
D13*
X163179200Y-60780100D02*
X163179200Y-61550915D01*
X163179200Y-63260485D02*
X163179200Y-64031300D01*
X163179200Y-64031300D02*
X163467702Y-64031300D01*
X163467702Y-60780100D02*
X163179200Y-60780100D01*
X165532298Y-64031300D02*
X165820800Y-64031300D01*
X165820800Y-60780100D02*
X165532298Y-60780100D01*
X165820800Y-61550915D02*
X165820800Y-60780100D01*
X165820800Y-64031300D02*
X165820800Y-63260485D01*
D14*
G36*
X164440501Y-60805500D02*
G01*
X164059500Y-60805500D01*
X164059500Y-60551500D01*
X164440501Y-60551500D01*
X164440501Y-60805500D01*
G37*
%TO.C,R21*%
D12*
X192727500Y-68737258D02*
X192727500Y-68262742D01*
X193772500Y-68737258D02*
X193772500Y-68262742D01*
%TO.C,C32*%
X181747233Y-76193359D02*
X181747233Y-75670853D01*
X183217233Y-76193359D02*
X183217233Y-75670853D01*
%TO.C,C45*%
X142090000Y-61211252D02*
X142090000Y-59788748D01*
X143910000Y-61211252D02*
X143910000Y-59788748D01*
%TO.C,FB2*%
X178912779Y-91490000D02*
X178587221Y-91490000D01*
X178912779Y-92510000D02*
X178587221Y-92510000D01*
%TO.C,R29*%
X182312258Y-85227500D02*
X181837742Y-85227500D01*
X182312258Y-86272500D02*
X181837742Y-86272500D01*
%TO.C,U5*%
X167273369Y-69750000D02*
X167945120Y-69078249D01*
X167945120Y-70421751D02*
X167273369Y-69750000D01*
X173828249Y-63195120D02*
X174500000Y-62523369D01*
X174500000Y-62523369D02*
X175171751Y-63195120D01*
X174500000Y-76976631D02*
X173828249Y-76304880D01*
X175171751Y-76304880D02*
X174500000Y-76976631D01*
X181054880Y-69078249D02*
X181726631Y-69750000D01*
X181726631Y-69750000D02*
X181054880Y-70421751D01*
X167492572Y-70874300D02*
X166919815Y-70782376D01*
X167400648Y-70301543D01*
X167492572Y-70874300D01*
G36*
X167492572Y-70874300D02*
G01*
X166919815Y-70782376D01*
X167400648Y-70301543D01*
X167492572Y-70874300D01*
G37*
%TO.C,RESET*%
X190600000Y-74600000D02*
X193900000Y-74600000D01*
X190600000Y-74900000D02*
X190600000Y-74600000D01*
X190600000Y-77100000D02*
X190600000Y-77400000D01*
X190600000Y-77400000D02*
X193900000Y-77400000D01*
X193900000Y-74600000D02*
X193900000Y-74900000D01*
X193900000Y-77400000D02*
X193900000Y-77100000D01*
%TO.C,R10*%
X171272936Y-94015000D02*
X171727064Y-94015000D01*
X171272936Y-95485000D02*
X171727064Y-95485000D01*
%TO.C,FB1*%
X173190000Y-80649622D02*
X173190000Y-79850378D01*
X174310000Y-80649622D02*
X174310000Y-79850378D01*
%TO.C,Q1*%
X182240000Y-88940000D02*
X183760000Y-88940000D01*
X182240000Y-89940000D02*
X182240000Y-88940000D01*
X182240000Y-92060000D02*
X182240000Y-91060000D01*
X183760000Y-88940000D02*
X183760000Y-88990000D01*
X183760000Y-90110000D02*
X183760000Y-90890000D01*
X183760000Y-92010000D02*
X183760000Y-92060000D01*
X183760000Y-92060000D02*
X182240000Y-92060000D01*
X184300000Y-90880000D02*
X184060000Y-90550000D01*
X184540000Y-90550000D01*
X184300000Y-90880000D01*
G36*
X184300000Y-90880000D02*
G01*
X184060000Y-90550000D01*
X184540000Y-90550000D01*
X184300000Y-90880000D01*
G37*
%TO.C,R25*%
X135577500Y-87762742D02*
X135577500Y-88237258D01*
X136622500Y-87762742D02*
X136622500Y-88237258D01*
%TO.C,C21*%
X162051248Y-93995000D02*
X162573752Y-93995000D01*
X162051248Y-95465000D02*
X162573752Y-95465000D01*
%TO.C,C48*%
X124759999Y-84412322D02*
X121082999Y-84412323D01*
X124759999Y-84452321D02*
X121092999Y-84452322D01*
X124759999Y-84492322D02*
X121103999Y-84492322D01*
X124759999Y-84532322D02*
X121114999Y-84532322D01*
X124759999Y-84572322D02*
X121126999Y-84572322D01*
X124759999Y-84652322D02*
X121150999Y-84652322D01*
X124759999Y-84692322D02*
X121162999Y-84692322D01*
X124759999Y-84732322D02*
X121175999Y-84732322D01*
X124759999Y-84812322D02*
X121202999Y-84812322D01*
X124759999Y-84852322D02*
X121217999Y-84852322D01*
X124759999Y-84892321D02*
X121231999Y-84892322D01*
X124759999Y-84932322D02*
X121246999Y-84932322D01*
X124759999Y-84972322D02*
X121262000Y-84972322D01*
X124759999Y-85012322D02*
X121277999Y-85012322D01*
X124759999Y-85092322D02*
X121309999Y-85092322D01*
X124759999Y-85132322D02*
X121326999Y-85132323D01*
X124759999Y-85172322D02*
X121343999Y-85172322D01*
X124759999Y-85252322D02*
X121379999Y-85252322D01*
X124759999Y-85292322D02*
X121397999Y-85292322D01*
X124759999Y-85332321D02*
X121416999Y-85332321D01*
X124759999Y-85372323D02*
X121435999Y-85372322D01*
X124759999Y-85412322D02*
X121455999Y-85412322D01*
X124759999Y-85452322D02*
X121475999Y-85452322D01*
X124759999Y-85532322D02*
X121516999Y-85532322D01*
X124759999Y-85572322D02*
X121538999Y-85572322D01*
X124759999Y-85612322D02*
X121560999Y-85612322D01*
X124759999Y-85692322D02*
X121605999Y-85692322D01*
X124759999Y-85732322D02*
X121628999Y-85732322D01*
X124759999Y-85772321D02*
X121652999Y-85772322D01*
X124759999Y-85812323D02*
X121676999Y-85812323D01*
X124759999Y-85852322D02*
X121701999Y-85852321D01*
X124759999Y-85892322D02*
X121727999Y-85892322D01*
X124759999Y-85972322D02*
X121779999Y-85972322D01*
X124759999Y-86012322D02*
X121806999Y-86012322D01*
X124759999Y-86052322D02*
X121833999Y-86052322D01*
X124759999Y-86132322D02*
X121890999Y-86132322D01*
X124759999Y-86172322D02*
X121919999Y-86172322D01*
X124759999Y-86212322D02*
X121949999Y-86212322D01*
X124759999Y-86252323D02*
X121979999Y-86252322D01*
X124759999Y-86292322D02*
X122011999Y-86292322D01*
X124759999Y-86332322D02*
X122042999Y-86332322D01*
X124759999Y-86412322D02*
X122108999Y-86412322D01*
X124759999Y-86452322D02*
X122142000Y-86452322D01*
X124759999Y-86492322D02*
X122176999Y-86492322D01*
X124759999Y-86572322D02*
X122247999Y-86572322D01*
X124759999Y-86612322D02*
X122283999Y-86612322D01*
X124759999Y-86652322D02*
X122321999Y-86652322D01*
X124759999Y-86692323D02*
X122359999Y-86692322D01*
X124759999Y-86732322D02*
X122398999Y-86732322D01*
X124759999Y-86772322D02*
X122438999Y-86772322D01*
X124759999Y-86812321D02*
X122479999Y-86812322D01*
X124759999Y-86852322D02*
X122521999Y-86852322D01*
X124760000Y-84612322D02*
X121138999Y-84612322D01*
X124760000Y-84772322D02*
X121189998Y-84772322D01*
X124760000Y-85052322D02*
X121293999Y-85052321D01*
X124760000Y-85212322D02*
X121361999Y-85212322D01*
X124760000Y-85492322D02*
X121495999Y-85492322D01*
X124760000Y-85652322D02*
X121582999Y-85652322D01*
X124760000Y-85932322D02*
X121752999Y-85932321D01*
X124760000Y-86092322D02*
X121861999Y-86092322D01*
X124760000Y-86372322D02*
X122075999Y-86372322D01*
X124760000Y-86532322D02*
X122212000Y-86532322D01*
X126598999Y-88212321D02*
X125400999Y-88212321D01*
X126861999Y-88172322D02*
X125137999Y-88172322D01*
X127061999Y-88132321D02*
X124937999Y-88132321D01*
X127229999Y-88092322D02*
X124769999Y-88092322D01*
X127376999Y-88052322D02*
X124622999Y-88052322D01*
X127508999Y-88012322D02*
X124490999Y-88012322D01*
X127629999Y-87972322D02*
X124369999Y-87972322D01*
X127742000Y-87932322D02*
X124257998Y-87932322D01*
X127845999Y-87892322D02*
X124153999Y-87892322D01*
X127944000Y-87852322D02*
X124055998Y-87852322D01*
X128036999Y-87812322D02*
X123962999Y-87812322D01*
X128123999Y-87772322D02*
X123875999Y-87772322D01*
X128207999Y-87732322D02*
X123791999Y-87732322D01*
X128287999Y-87692322D02*
X123711999Y-87692322D01*
X128364999Y-87652322D02*
X123634999Y-87652322D01*
X128438999Y-87612322D02*
X123560999Y-87612322D01*
X128509999Y-87572322D02*
X123489999Y-87572322D01*
X128577999Y-87532322D02*
X123421999Y-87532322D01*
X128643999Y-87492322D02*
X123355999Y-87492322D01*
X128707999Y-87452322D02*
X123291999Y-87452322D01*
X128769999Y-87412322D02*
X123229999Y-87412322D01*
X128829999Y-87372322D02*
X123169999Y-87372322D01*
X128874999Y-77652676D02*
X128874999Y-78652676D01*
X128887999Y-87332322D02*
X123111999Y-87332322D01*
X128944999Y-87292322D02*
X123054999Y-87292322D01*
X128999999Y-87252322D02*
X122999999Y-87252322D01*
X129052999Y-87212323D02*
X122946999Y-87212323D01*
X129104999Y-87172322D02*
X122894999Y-87172322D01*
X129155999Y-87132322D02*
X122843999Y-87132322D01*
X129204999Y-87092322D02*
X122794999Y-87092322D01*
X129253999Y-87052322D02*
X122745999Y-87052322D01*
X129300999Y-87012322D02*
X122698999Y-87012322D01*
X129346998Y-86972322D02*
X122653000Y-86972322D01*
X129374999Y-78152676D02*
X128374999Y-78152676D01*
X129390999Y-86932322D02*
X122608999Y-86932322D01*
X129434999Y-86892322D02*
X122564999Y-86892322D01*
X129477999Y-86852322D02*
X127239999Y-86852322D01*
X129519999Y-86812322D02*
X127239999Y-86812321D01*
X129560999Y-86772322D02*
X127239999Y-86772322D01*
X129600999Y-86732322D02*
X127239999Y-86732322D01*
X129639999Y-86692322D02*
X127239999Y-86692323D01*
X129677999Y-86652322D02*
X127239999Y-86652322D01*
X129715999Y-86612322D02*
X127239999Y-86612322D01*
X129751999Y-86572322D02*
X127239999Y-86572322D01*
X129787998Y-86532322D02*
X127239998Y-86532322D01*
X129822999Y-86492322D02*
X127239999Y-86492322D01*
X129857998Y-86452322D02*
X127239999Y-86452322D01*
X129890999Y-86412322D02*
X127239999Y-86412322D01*
X129923999Y-86372322D02*
X127239998Y-86372322D01*
X129956999Y-86332322D02*
X127239999Y-86332322D01*
X129987999Y-86292322D02*
X127239999Y-86292322D01*
X130019999Y-86252322D02*
X127239999Y-86252323D01*
X130049999Y-86212322D02*
X127239999Y-86212322D01*
X130079999Y-86172322D02*
X127239999Y-86172322D01*
X130108999Y-86132322D02*
X127239999Y-86132322D01*
X130137999Y-86092322D02*
X127239998Y-86092322D01*
X130165999Y-86052322D02*
X127239999Y-86052322D01*
X130192999Y-86012322D02*
X127239999Y-86012322D01*
X130219999Y-85972322D02*
X127239999Y-85972322D01*
X130246999Y-85932321D02*
X127239998Y-85932322D01*
X130271999Y-85892322D02*
X127239999Y-85892322D01*
X130297999Y-85852321D02*
X127239999Y-85852322D01*
X130322999Y-85812323D02*
X127239999Y-85812323D01*
X130346999Y-85772322D02*
X127239999Y-85772321D01*
X130370999Y-85732322D02*
X127239999Y-85732322D01*
X130393999Y-85692322D02*
X127239999Y-85692322D01*
X130416999Y-85652322D02*
X127239998Y-85652322D01*
X130438999Y-85612322D02*
X127239999Y-85612322D01*
X130460999Y-85572322D02*
X127239999Y-85572322D01*
X130482999Y-85532322D02*
X127239999Y-85532322D01*
X130503999Y-85492322D02*
X127239998Y-85492322D01*
X130523999Y-85452322D02*
X127239999Y-85452322D01*
X130543999Y-85412322D02*
X127239999Y-85412322D01*
X130563999Y-85372322D02*
X127239999Y-85372323D01*
X130582999Y-85332321D02*
X127239999Y-85332321D01*
X130601999Y-85292322D02*
X127239999Y-85292322D01*
X130619999Y-85252322D02*
X127239999Y-85252322D01*
X130637999Y-85212322D02*
X127239998Y-85212322D01*
X130655999Y-85172322D02*
X127239999Y-85172322D01*
X130672999Y-85132323D02*
X127239999Y-85132322D01*
X130689999Y-85092322D02*
X127239999Y-85092322D01*
X130705999Y-85052321D02*
X127239998Y-85052322D01*
X130721999Y-85012322D02*
X127239999Y-85012322D01*
X130737998Y-84972322D02*
X127239999Y-84972322D01*
X130752999Y-84932322D02*
X127239999Y-84932322D01*
X130767999Y-84892322D02*
X127239999Y-84892321D01*
X130781999Y-84852322D02*
X127239999Y-84852322D01*
X130796999Y-84812322D02*
X127239999Y-84812322D01*
X130810000Y-84772322D02*
X127239998Y-84772322D01*
X130823999Y-84732322D02*
X127239999Y-84732322D01*
X130836999Y-84692322D02*
X127239999Y-84692322D01*
X130848999Y-84652322D02*
X127239999Y-84652322D01*
X130860999Y-84612322D02*
X127239998Y-84612322D01*
X130872999Y-84572322D02*
X127239999Y-84572322D01*
X130884999Y-84532322D02*
X127239999Y-84532322D01*
X130895999Y-84492322D02*
X127239999Y-84492322D01*
X130906999Y-84452322D02*
X127239999Y-84452321D01*
X130916999Y-84412323D02*
X127239999Y-84412322D01*
X130927999Y-84372322D02*
X121071999Y-84372322D01*
X130936999Y-84332322D02*
X121062999Y-84332322D01*
X130946999Y-84292322D02*
X121052999Y-84292322D01*
X130955999Y-84252322D02*
X121043999Y-84252322D01*
X130964999Y-84212322D02*
X121034999Y-84212322D01*
X130972999Y-84172322D02*
X121026999Y-84172322D01*
X130980999Y-84132322D02*
X121018999Y-84132322D01*
X130988999Y-84092322D02*
X121010999Y-84092322D01*
X130996999Y-84052322D02*
X121002999Y-84052322D01*
X131003999Y-84012322D02*
X120995999Y-84012322D01*
X131010999Y-83972322D02*
X120988999Y-83972322D01*
X131016999Y-83932322D02*
X120982999Y-83932322D01*
X131022998Y-83892322D02*
X120977000Y-83892322D01*
X131028999Y-83852322D02*
X120970999Y-83852322D01*
X131034999Y-83812322D02*
X120964999Y-83812322D01*
X131039999Y-83772322D02*
X120959999Y-83772322D01*
X131044999Y-83732322D02*
X120954999Y-83732322D01*
X131048999Y-83692322D02*
X120950999Y-83692322D01*
X131053999Y-83652322D02*
X120945999Y-83652322D01*
X131056999Y-83612322D02*
X120942999Y-83612322D01*
X131060998Y-83572322D02*
X120939000Y-83572322D01*
X131063999Y-83532322D02*
X120935999Y-83532322D01*
X131066999Y-83492321D02*
X120932999Y-83492321D01*
X131069999Y-83452323D02*
X120929999Y-83452323D01*
X131071999Y-83412322D02*
X120927999Y-83412322D01*
X131073999Y-83372322D02*
X120925999Y-83372322D01*
X131075999Y-83332322D02*
X120923999Y-83332322D01*
X131076999Y-83292322D02*
X120922999Y-83292322D01*
X131078999Y-83212322D02*
X120920999Y-83212322D01*
X131078999Y-83252322D02*
X120920999Y-83252322D01*
X131079998Y-83132322D02*
X120920000Y-83132322D01*
X131079999Y-83172322D02*
X120919999Y-83172322D01*
X131119999Y-83132322D02*
G75*
G02*
X120879999Y-83132322I-5120000J0D01*
G01*
X120879999Y-83132322D02*
G75*
G02*
X131119999Y-83132322I5120000J0D01*
G01*
%TO.C,D2*%
X144500000Y-58140000D02*
X144500000Y-62150000D01*
X146500000Y-58140000D02*
X144500000Y-58140000D01*
X146500000Y-58140000D02*
X146500000Y-62150000D01*
%TO.C,C10*%
X149015000Y-59761253D02*
X149015000Y-59238747D01*
X150485000Y-59761253D02*
X150485000Y-59238747D01*
%TO.C,C41*%
X134084420Y-79240000D02*
X134365580Y-79240000D01*
X134084420Y-80260000D02*
X134365580Y-80260000D01*
%TO.C,C42*%
X137090000Y-88115580D02*
X137090000Y-87834420D01*
X138110000Y-88115580D02*
X138110000Y-87834420D01*
%TO.C,R23*%
X182324903Y-82221997D02*
X181850387Y-82221997D01*
X182324903Y-83266997D02*
X181850387Y-83266997D01*
%TO.C,C46*%
X139590000Y-61211252D02*
X139590000Y-59788748D01*
X141410000Y-61211252D02*
X141410000Y-59788748D01*
%TO.C,R18*%
X162037742Y-83977500D02*
X162512258Y-83977500D01*
X162037742Y-85022500D02*
X162512258Y-85022500D01*
%TO.C,U6*%
X161865000Y-85940000D02*
X165985000Y-85940000D01*
X161865000Y-86035000D02*
X161865000Y-85940000D01*
X161865000Y-91060000D02*
X161865000Y-90965000D01*
X165985000Y-85940000D02*
X165985000Y-86035000D01*
X165985000Y-90965000D02*
X165985000Y-91060000D01*
X165985000Y-91060000D02*
X161865000Y-91060000D01*
X166525000Y-90970000D02*
X166765000Y-91300000D01*
X166285000Y-91300000D01*
X166525000Y-90970000D01*
G36*
X166765000Y-91300000D02*
G01*
X166285000Y-91300000D01*
X166525000Y-90970000D01*
X166765000Y-91300000D01*
G37*
%TO.C,J5*%
X198100000Y-85800000D02*
X200100000Y-85800000D01*
X198100000Y-95200000D02*
X200100000Y-95200000D01*
X202000000Y-85800000D02*
X203900000Y-85800000D01*
X202000000Y-95200000D02*
X203900000Y-95200000D01*
X203900000Y-95200000D02*
X203900000Y-85800000D01*
%TO.C,R8*%
X159039564Y-92015000D02*
X158585436Y-92015000D01*
X159039564Y-93485000D02*
X158585436Y-93485000D01*
%TO.C,R14*%
X169912258Y-87727500D02*
X169437742Y-87727500D01*
X169912258Y-88772500D02*
X169437742Y-88772500D01*
%TO.C,C2*%
X178890580Y-89990000D02*
X178609420Y-89990000D01*
X178890580Y-91010000D02*
X178609420Y-91010000D01*
%TO.C,C43*%
X139959420Y-86740000D02*
X140240580Y-86740000D01*
X139959420Y-87760000D02*
X140240580Y-87760000D01*
%TO.C,R12*%
X191787258Y-91297500D02*
X191312742Y-91297500D01*
X191787258Y-92342500D02*
X191312742Y-92342500D01*
%TO.C,J9*%
X185820000Y-52170000D02*
X185820000Y-54830000D01*
X198580000Y-52170000D02*
X185820000Y-52170000D01*
X198580000Y-52170000D02*
X198580000Y-54830000D01*
X198580000Y-54830000D02*
X185820000Y-54830000D01*
X201180000Y-53500000D02*
X201180000Y-54830000D01*
X201180000Y-54830000D02*
X199850000Y-54830000D01*
%TO.C,U7*%
X187890000Y-63640000D02*
X191110000Y-63640000D01*
X187890000Y-63815000D02*
X187890000Y-63640000D01*
X187890000Y-66860000D02*
X187890000Y-66685000D01*
X191110000Y-63640000D02*
X191110000Y-63815000D01*
X191110000Y-66685000D02*
X191110000Y-66860000D01*
X191110000Y-66860000D02*
X187890000Y-66860000D01*
X191660000Y-66690000D02*
X191900000Y-67020000D01*
X191420000Y-67020000D01*
X191660000Y-66690000D01*
G36*
X191900000Y-67020000D02*
G01*
X191420000Y-67020000D01*
X191660000Y-66690000D01*
X191900000Y-67020000D01*
G37*
%TO.C,J3*%
X161440000Y-97840000D02*
X161440000Y-105660000D01*
X161440000Y-99440000D02*
X162360000Y-99440000D01*
X161440000Y-105660000D02*
X175560000Y-105660000D01*
X162360000Y-97840000D02*
X161440000Y-97840000D01*
X162360000Y-99440000D02*
X162360000Y-97840000D01*
X162640000Y-99440000D02*
X162360000Y-99440000D01*
X162640000Y-99440000D02*
X162640000Y-98225000D01*
X162700000Y-103400000D02*
X162700000Y-105660000D01*
X163200000Y-103400000D02*
X163200000Y-105660000D01*
X164000000Y-101300000D02*
X173000000Y-101300000D01*
X164000000Y-105660000D02*
X164000000Y-101300000D01*
X173000000Y-101300000D02*
X173000000Y-105660000D01*
X174640000Y-97840000D02*
X174640000Y-99440000D01*
X174640000Y-99440000D02*
X174360000Y-99440000D01*
X175560000Y-97840000D02*
X174640000Y-97840000D01*
X175560000Y-99440000D02*
X174640000Y-99440000D01*
X175560000Y-105660000D02*
X175560000Y-97840000D01*
X162200000Y-101800000D02*
X163200000Y-101800000D01*
X163200000Y-103400000D01*
X162200000Y-103400000D01*
X162200000Y-101800000D01*
X173800000Y-101800000D02*
X174800000Y-101800000D01*
X174800000Y-103400000D01*
X173800000Y-103400000D01*
X173800000Y-101800000D01*
%TO.C,R17*%
X169437742Y-85977500D02*
X169912258Y-85977500D01*
X169437742Y-87022500D02*
X169912258Y-87022500D01*
%TO.C,R16*%
X169912258Y-84477500D02*
X169437742Y-84477500D01*
X169912258Y-85522500D02*
X169437742Y-85522500D01*
%TO.C,C20*%
X145973752Y-83265000D02*
X145451248Y-83265000D01*
X145973752Y-84735000D02*
X145451248Y-84735000D01*
%TO.C,C36*%
X188490000Y-79615580D02*
X188490000Y-79334420D01*
X189510000Y-79615580D02*
X189510000Y-79334420D01*
%TO.C,J2*%
X145190000Y-97790000D02*
X145190000Y-105610000D01*
X145190000Y-99390000D02*
X146110000Y-99390000D01*
X145190000Y-105610000D02*
X159310000Y-105610000D01*
X146110000Y-97790000D02*
X145190000Y-97790000D01*
X146110000Y-99390000D02*
X146110000Y-97790000D01*
X146390000Y-99390000D02*
X146110000Y-99390000D01*
X146390000Y-99390000D02*
X146390000Y-98175000D01*
X146450000Y-103350000D02*
X146450000Y-105610000D01*
X146950000Y-103350000D02*
X146950000Y-105610000D01*
X147750000Y-101250000D02*
X156750000Y-101250000D01*
X147750000Y-105610000D02*
X147750000Y-101250000D01*
X156750000Y-101250000D02*
X156750000Y-105610000D01*
X158390000Y-97790000D02*
X158390000Y-99390000D01*
X158390000Y-99390000D02*
X158110000Y-99390000D01*
X159310000Y-97790000D02*
X158390000Y-97790000D01*
X159310000Y-99390000D02*
X158390000Y-99390000D01*
X159310000Y-105610000D02*
X159310000Y-97790000D01*
X145950000Y-101750000D02*
X146950000Y-101750000D01*
X146950000Y-103350000D01*
X145950000Y-103350000D01*
X145950000Y-101750000D01*
X157550000Y-101750000D02*
X158550000Y-101750000D01*
X158550000Y-103350000D01*
X157550000Y-103350000D01*
X157550000Y-101750000D01*
%TO.C,C44*%
X138609420Y-76740000D02*
X138890580Y-76740000D01*
X138609420Y-77760000D02*
X138890580Y-77760000D01*
%TO.C,R9*%
X171272936Y-92015000D02*
X171727064Y-92015000D01*
X171272936Y-93485000D02*
X171727064Y-93485000D01*
%TD*%
M02*
