%TF.GenerationSoftware,KiCad,Pcbnew,10.0.3*%
%TF.CreationDate,2026-09-23T18:40:51+07:00*%
%TF.ProjectId,amr_stm32_kicad,616d725f-7374-46d3-9332-5f6b69636164,rev?*%
%TF.SameCoordinates,Original*%
%TF.FileFunction,Legend,Bot*%
%TF.FilePolarity,Positive*%
%FSLAX46Y46*%
G04 Gerber Fmt 4.6, Leading zero omitted, Abs format (unit mm)*
G04 Created by KiCad (PCBNEW 10.0.3) date 2026-09-23 18:40:51*
%MOMM*%
%LPD*%
G01*
G04 APERTURE LIST*
%ADD10C,0.000000*%
%ADD11C,0.100000*%
G04 APERTURE END LIST*
D10*
G36*
X179792068Y-97246560D02*
G01*
X179796189Y-97247194D01*
X179800226Y-97248172D01*
X179804175Y-97249502D01*
X179808008Y-97251167D01*
X179811727Y-97253149D01*
X179815312Y-97255446D01*
X179818741Y-97258044D01*
X179822014Y-97260934D01*
X179825115Y-97264104D01*
X179828022Y-97267539D01*
X179830730Y-97271234D01*
X179833225Y-97275176D01*
X179835489Y-97279352D01*
X179837514Y-97283760D01*
X179839280Y-97288377D01*
X179840782Y-97293197D01*
X179842001Y-97298215D01*
X179842924Y-97303412D01*
X179843538Y-97308778D01*
X179843830Y-97314306D01*
X179843789Y-97319989D01*
X179843396Y-97325806D01*
X179842646Y-97331752D01*
X179840509Y-97343291D01*
X179837865Y-97354624D01*
X179834720Y-97365745D01*
X179831095Y-97376640D01*
X179826997Y-97387300D01*
X179822448Y-97397712D01*
X179817447Y-97407866D01*
X179812018Y-97417755D01*
X179806166Y-97427358D01*
X179799908Y-97436680D01*
X179793259Y-97445699D01*
X179786223Y-97454408D01*
X179778828Y-97462796D01*
X179771073Y-97470849D01*
X179762974Y-97478562D01*
X179754545Y-97485925D01*
X179745801Y-97492919D01*
X179736753Y-97499542D01*
X179727418Y-97505777D01*
X179717799Y-97511618D01*
X179707918Y-97517053D01*
X179697780Y-97522070D01*
X179687407Y-97526663D01*
X179676802Y-97530816D01*
X179665986Y-97534521D01*
X179654969Y-97537765D01*
X179643764Y-97540536D01*
X179632385Y-97542834D01*
X179620839Y-97544636D01*
X179609147Y-97545937D01*
X179597314Y-97546725D01*
X179585361Y-97546989D01*
X179577766Y-97546911D01*
X179570370Y-97546675D01*
X179563183Y-97546282D01*
X179556200Y-97545738D01*
X179549427Y-97545038D01*
X179542866Y-97544184D01*
X179536520Y-97543180D01*
X179530393Y-97542031D01*
X179524484Y-97540731D01*
X179518798Y-97539284D01*
X179513339Y-97537694D01*
X179508107Y-97535957D01*
X179503103Y-97534077D01*
X179498330Y-97532056D01*
X179493800Y-97529896D01*
X179489502Y-97527593D01*
X179485446Y-97525156D01*
X179481633Y-97522582D01*
X179478067Y-97519867D01*
X179474745Y-97517025D01*
X179471678Y-97514051D01*
X179468867Y-97510937D01*
X179466304Y-97507702D01*
X179464005Y-97504333D01*
X179461966Y-97500839D01*
X179460190Y-97497217D01*
X179458681Y-97493470D01*
X179457442Y-97489600D01*
X179456472Y-97485609D01*
X179455772Y-97481495D01*
X179455356Y-97477261D01*
X179455211Y-97472909D01*
X179455557Y-97466607D01*
X179456601Y-97460839D01*
X179457394Y-97458153D01*
X179458363Y-97455601D01*
X179459518Y-97453178D01*
X179460863Y-97450885D01*
X179462393Y-97448719D01*
X179464117Y-97446682D01*
X179466034Y-97444773D01*
X179468147Y-97442992D01*
X179470462Y-97441337D01*
X179472975Y-97439806D01*
X179475693Y-97438400D01*
X179478616Y-97437120D01*
X179485089Y-97434923D01*
X179492414Y-97433220D01*
X179500609Y-97431989D01*
X179509698Y-97431238D01*
X179519692Y-97430954D01*
X179530613Y-97431136D01*
X179542488Y-97431774D01*
X179555325Y-97432865D01*
X179564577Y-97433720D01*
X179573220Y-97434402D01*
X179581278Y-97434913D01*
X179588815Y-97435242D01*
X179595865Y-97435381D01*
X179602468Y-97435327D01*
X179608674Y-97435074D01*
X179614517Y-97434617D01*
X179620041Y-97433946D01*
X179625298Y-97433063D01*
X179630318Y-97431951D01*
X179635148Y-97430612D01*
X179639837Y-97429038D01*
X179644416Y-97427224D01*
X179648935Y-97425166D01*
X179653434Y-97422855D01*
X179660845Y-97418637D01*
X179668042Y-97413885D01*
X179675001Y-97408637D01*
X179681700Y-97402926D01*
X179688107Y-97396777D01*
X179694211Y-97390227D01*
X179699970Y-97383308D01*
X179705366Y-97376051D01*
X179710380Y-97368487D01*
X179714976Y-97360655D01*
X179719139Y-97352581D01*
X179722840Y-97344299D01*
X179726051Y-97335838D01*
X179728758Y-97327237D01*
X179730920Y-97318519D01*
X179732522Y-97309729D01*
X179733153Y-97305769D01*
X179733918Y-97301784D01*
X179734804Y-97297808D01*
X179735807Y-97293867D01*
X179736915Y-97289980D01*
X179738120Y-97286185D01*
X179739410Y-97282495D01*
X179740780Y-97278944D01*
X179742221Y-97275556D01*
X179743728Y-97272362D01*
X179745283Y-97269383D01*
X179746884Y-97266650D01*
X179748518Y-97264183D01*
X179750179Y-97262018D01*
X179751859Y-97260168D01*
X179752701Y-97259375D01*
X179753544Y-97258669D01*
X179757793Y-97255616D01*
X179762080Y-97253013D01*
X179766391Y-97250854D01*
X179770715Y-97249123D01*
X179775041Y-97247814D01*
X179779354Y-97246913D01*
X179783637Y-97246411D01*
X179787882Y-97246300D01*
X179792068Y-97246560D01*
G37*
G36*
X178351501Y-97277964D02*
G01*
X178353285Y-97278087D01*
X178355055Y-97278322D01*
X178356818Y-97278663D01*
X178358579Y-97279121D01*
X178360354Y-97279687D01*
X178362141Y-97280368D01*
X178363960Y-97281155D01*
X178365802Y-97282056D01*
X178367691Y-97283060D01*
X178369630Y-97284173D01*
X178373682Y-97286727D01*
X178378019Y-97289704D01*
X178380378Y-97291540D01*
X178382559Y-97293480D01*
X178384575Y-97295523D01*
X178386424Y-97297663D01*
X178388101Y-97299902D01*
X178389606Y-97302241D01*
X178390942Y-97304669D01*
X178392114Y-97307193D01*
X178393115Y-97309810D01*
X178393945Y-97312513D01*
X178394612Y-97315303D01*
X178395109Y-97318177D01*
X178395435Y-97321137D01*
X178395597Y-97324178D01*
X178395589Y-97327302D01*
X178395414Y-97330504D01*
X178394563Y-97337126D01*
X178393048Y-97344042D01*
X178390864Y-97351235D01*
X178388014Y-97358688D01*
X178384505Y-97366386D01*
X178380336Y-97374320D01*
X178375502Y-97382467D01*
X178370012Y-97390816D01*
X178367411Y-97394870D01*
X178364869Y-97399123D01*
X178362401Y-97403540D01*
X178360034Y-97408087D01*
X178357764Y-97412727D01*
X178355617Y-97417425D01*
X178353609Y-97422145D01*
X178351737Y-97426854D01*
X178350042Y-97431521D01*
X178348523Y-97436103D01*
X178347199Y-97440567D01*
X178346076Y-97444876D01*
X178345181Y-97449000D01*
X178344528Y-97452904D01*
X178344120Y-97456546D01*
X178343982Y-97459893D01*
X178344084Y-97463773D01*
X178344384Y-97467707D01*
X178344876Y-97471689D01*
X178345554Y-97475702D01*
X178346414Y-97479748D01*
X178347444Y-97483813D01*
X178348644Y-97487888D01*
X178350005Y-97491960D01*
X178351517Y-97496026D01*
X178353178Y-97500071D01*
X178356917Y-97508075D01*
X178361166Y-97515898D01*
X178365880Y-97523462D01*
X178371008Y-97530703D01*
X178376490Y-97537538D01*
X178382280Y-97543897D01*
X178385276Y-97546879D01*
X178388328Y-97549712D01*
X178391433Y-97552390D01*
X178394581Y-97554902D01*
X178397768Y-97557244D01*
X178400990Y-97559397D01*
X178404235Y-97561362D01*
X178407500Y-97563125D01*
X178410774Y-97564680D01*
X178414059Y-97566012D01*
X178419949Y-97568269D01*
X178425417Y-97570889D01*
X178430468Y-97573846D01*
X178435105Y-97577111D01*
X178439329Y-97580654D01*
X178443141Y-97584445D01*
X178446541Y-97588456D01*
X178449538Y-97592663D01*
X178452128Y-97597040D01*
X178454314Y-97601543D01*
X178456102Y-97606159D01*
X178457490Y-97610850D01*
X178458484Y-97615594D01*
X178459081Y-97620357D01*
X178459290Y-97625110D01*
X178459110Y-97629832D01*
X178458542Y-97634492D01*
X178457587Y-97639051D01*
X178456251Y-97643492D01*
X178454535Y-97647781D01*
X178452442Y-97651896D01*
X178449968Y-97655799D01*
X178447121Y-97659467D01*
X178443907Y-97662872D01*
X178440321Y-97665981D01*
X178436366Y-97668770D01*
X178432046Y-97671204D01*
X178427367Y-97673259D01*
X178422320Y-97674913D01*
X178416920Y-97676125D01*
X178411164Y-97676875D01*
X178405051Y-97677138D01*
X178400917Y-97676968D01*
X178396590Y-97676471D01*
X178392090Y-97675659D01*
X178387432Y-97674541D01*
X178382631Y-97673129D01*
X178377706Y-97671439D01*
X178367541Y-97667265D01*
X178357056Y-97662112D01*
X178346379Y-97656068D01*
X178335640Y-97649243D01*
X178324962Y-97641723D01*
X178314471Y-97633599D01*
X178304291Y-97624975D01*
X178294560Y-97615945D01*
X178285384Y-97606605D01*
X178276909Y-97597047D01*
X178269245Y-97587361D01*
X178262534Y-97577653D01*
X178259566Y-97572816D01*
X178256886Y-97568014D01*
X178252689Y-97559518D01*
X178248912Y-97550756D01*
X178245556Y-97541751D01*
X178242614Y-97532538D01*
X178240080Y-97523134D01*
X178237949Y-97513576D01*
X178236216Y-97503875D01*
X178234876Y-97494072D01*
X178233927Y-97484186D01*
X178233359Y-97474249D01*
X178233174Y-97464283D01*
X178233357Y-97454315D01*
X178233911Y-97444374D01*
X178234829Y-97434484D01*
X178237739Y-97414966D01*
X178239720Y-97405397D01*
X178242045Y-97395980D01*
X178244709Y-97386751D01*
X178247704Y-97377733D01*
X178251031Y-97368953D01*
X178254684Y-97360438D01*
X178258657Y-97352216D01*
X178262938Y-97344312D01*
X178267533Y-97336751D01*
X178272436Y-97329565D01*
X178277629Y-97322771D01*
X178283122Y-97316405D01*
X178288905Y-97310490D01*
X178294976Y-97305050D01*
X178301319Y-97300115D01*
X178307941Y-97295711D01*
X178314570Y-97291829D01*
X178320602Y-97288431D01*
X178326104Y-97285521D01*
X178331140Y-97283089D01*
X178333503Y-97282054D01*
X178335768Y-97281129D01*
X178337951Y-97280328D01*
X178340060Y-97279643D01*
X178342093Y-97279077D01*
X178344068Y-97278628D01*
X178345987Y-97278290D01*
X178347860Y-97278066D01*
X178349696Y-97277958D01*
X178351501Y-97277964D01*
G37*
G36*
X180066642Y-96720131D02*
G01*
X180080430Y-96721658D01*
X180094024Y-96723977D01*
X180107406Y-96727067D01*
X180120553Y-96730904D01*
X180133437Y-96735466D01*
X180146027Y-96740746D01*
X180158311Y-96746706D01*
X180170253Y-96753334D01*
X180181834Y-96760611D01*
X180193021Y-96768507D01*
X180203800Y-96777012D01*
X180214130Y-96786098D01*
X180224001Y-96795751D01*
X180233376Y-96805942D01*
X180242240Y-96816655D01*
X180250562Y-96827870D01*
X180258316Y-96839561D01*
X180265478Y-96851719D01*
X180272028Y-96864311D01*
X180277931Y-96877325D01*
X180283169Y-96890734D01*
X180287710Y-96904514D01*
X180291535Y-96918654D01*
X180294622Y-96933134D01*
X180296932Y-96947919D01*
X180298450Y-96963003D01*
X180299151Y-96978358D01*
X180299148Y-96990259D01*
X180298751Y-97001203D01*
X180298401Y-97006320D01*
X180297946Y-97011209D01*
X180297382Y-97015871D01*
X180296709Y-97020313D01*
X180295925Y-97024533D01*
X180295029Y-97028537D01*
X180294017Y-97032323D01*
X180292886Y-97035902D01*
X180291634Y-97039276D01*
X180290260Y-97042446D01*
X180288762Y-97045414D01*
X180287138Y-97048186D01*
X180285381Y-97050767D01*
X180283500Y-97053155D01*
X180281478Y-97055354D01*
X180279325Y-97057372D01*
X180277032Y-97059210D01*
X180274600Y-97060870D01*
X180272025Y-97062357D01*
X180269306Y-97063673D01*
X180266441Y-97064821D01*
X180263424Y-97065805D01*
X180260257Y-97066633D01*
X180256942Y-97067300D01*
X180253466Y-97067814D01*
X180249834Y-97068175D01*
X180246042Y-97068392D01*
X180242086Y-97068459D01*
X180234532Y-97068235D01*
X180227605Y-97067536D01*
X180224376Y-97067001D01*
X180221300Y-97066341D01*
X180218373Y-97065548D01*
X180215586Y-97064630D01*
X180212949Y-97063567D01*
X180210453Y-97062366D01*
X180208095Y-97061025D01*
X180205870Y-97059538D01*
X180203784Y-97057900D01*
X180201824Y-97056113D01*
X180199995Y-97054168D01*
X180198289Y-97052064D01*
X180196707Y-97049801D01*
X180195245Y-97047376D01*
X180193902Y-97044776D01*
X180192677Y-97042014D01*
X180191559Y-97039073D01*
X180190558Y-97035959D01*
X180188872Y-97029182D01*
X180187599Y-97021658D01*
X180186712Y-97013370D01*
X180186194Y-97004285D01*
X180186023Y-96994377D01*
X180185755Y-96982718D01*
X180184954Y-96971403D01*
X180183625Y-96960436D01*
X180181771Y-96949843D01*
X180179397Y-96939632D01*
X180176524Y-96929811D01*
X180174894Y-96925053D01*
X180173139Y-96920402D01*
X180171259Y-96915852D01*
X180169256Y-96911409D01*
X180167132Y-96907076D01*
X180164882Y-96902853D01*
X180162510Y-96898742D01*
X180160020Y-96894746D01*
X180157408Y-96890863D01*
X180154677Y-96887101D01*
X180151826Y-96883446D01*
X180148858Y-96879922D01*
X180145772Y-96876517D01*
X180142572Y-96873236D01*
X180139256Y-96870074D01*
X180135822Y-96867047D01*
X180132274Y-96864146D01*
X180128613Y-96861371D01*
X180124837Y-96858733D01*
X180120954Y-96856225D01*
X180113913Y-96852307D01*
X180106347Y-96848816D01*
X180098317Y-96845757D01*
X180089889Y-96843130D01*
X180081114Y-96840948D01*
X180072067Y-96839206D01*
X180062797Y-96837914D01*
X180053379Y-96837075D01*
X180043864Y-96836697D01*
X180034316Y-96836780D01*
X180024795Y-96837326D01*
X180015366Y-96838346D01*
X180006091Y-96839838D01*
X179997028Y-96841810D01*
X179988245Y-96844268D01*
X179979795Y-96847216D01*
X179974381Y-96849013D01*
X179969020Y-96850466D01*
X179963728Y-96851582D01*
X179958523Y-96852379D01*
X179953413Y-96852862D01*
X179948410Y-96853036D01*
X179943523Y-96852911D01*
X179938767Y-96852500D01*
X179934153Y-96851812D01*
X179929691Y-96850853D01*
X179925399Y-96849637D01*
X179921284Y-96848164D01*
X179917359Y-96846452D01*
X179913635Y-96844507D01*
X179910121Y-96842342D01*
X179906841Y-96839957D01*
X179903794Y-96837366D01*
X179900999Y-96834583D01*
X179898461Y-96831611D01*
X179896197Y-96828463D01*
X179894219Y-96825147D01*
X179892543Y-96821670D01*
X179891171Y-96818038D01*
X179890120Y-96814276D01*
X179889402Y-96810371D01*
X179889029Y-96806347D01*
X179889016Y-96802208D01*
X179889366Y-96797970D01*
X179890101Y-96793631D01*
X179891226Y-96789206D01*
X179892757Y-96784707D01*
X179894702Y-96780139D01*
X179896989Y-96775550D01*
X179899746Y-96771165D01*
X179902976Y-96766966D01*
X179906700Y-96762947D01*
X179910935Y-96759101D01*
X179915694Y-96755414D01*
X179921000Y-96751877D01*
X179926860Y-96748481D01*
X179933298Y-96745211D01*
X179940329Y-96742060D01*
X179947965Y-96739020D01*
X179956223Y-96736077D01*
X179965121Y-96733219D01*
X179974674Y-96730442D01*
X179984900Y-96727733D01*
X179995813Y-96725077D01*
X180010153Y-96722343D01*
X180024428Y-96720498D01*
X180038620Y-96719532D01*
X180052699Y-96719413D01*
X180066642Y-96720131D01*
G37*
G36*
X180647966Y-97346847D02*
G01*
X180651392Y-97347160D01*
X180654836Y-97347761D01*
X180658306Y-97348647D01*
X180661796Y-97349818D01*
X180665308Y-97351273D01*
X180668838Y-97353009D01*
X180672379Y-97355024D01*
X180675936Y-97357320D01*
X180679508Y-97359892D01*
X180683087Y-97362738D01*
X180686674Y-97365863D01*
X180690269Y-97369259D01*
X180693871Y-97372920D01*
X180697472Y-97376857D01*
X180701077Y-97381064D01*
X180704679Y-97385533D01*
X180708279Y-97390268D01*
X180715466Y-97400533D01*
X180722619Y-97411843D01*
X180729366Y-97424212D01*
X180735337Y-97436892D01*
X180740533Y-97449849D01*
X180744942Y-97463039D01*
X180748575Y-97476420D01*
X180751429Y-97489957D01*
X180753496Y-97503607D01*
X180754782Y-97517331D01*
X180755277Y-97531094D01*
X180754989Y-97544850D01*
X180753912Y-97558563D01*
X180752043Y-97572189D01*
X180749382Y-97585697D01*
X180745929Y-97599041D01*
X180741683Y-97612180D01*
X180736639Y-97625074D01*
X180731961Y-97635213D01*
X180726786Y-97645151D01*
X180721140Y-97654867D01*
X180715060Y-97664351D01*
X180708563Y-97673577D01*
X180701695Y-97682532D01*
X180694484Y-97691194D01*
X180686953Y-97699550D01*
X180679146Y-97707582D01*
X180671092Y-97715261D01*
X180662814Y-97722580D01*
X180654348Y-97729521D01*
X180645731Y-97736055D01*
X180636987Y-97742178D01*
X180628150Y-97747863D01*
X180619254Y-97753096D01*
X180610330Y-97757852D01*
X180601406Y-97762122D01*
X180592516Y-97765881D01*
X180583694Y-97769114D01*
X180574965Y-97771803D01*
X180566365Y-97773928D01*
X180557927Y-97775470D01*
X180549679Y-97776419D01*
X180541653Y-97776746D01*
X180533882Y-97776437D01*
X180526397Y-97775474D01*
X180519231Y-97773840D01*
X180512413Y-97771518D01*
X180505977Y-97768487D01*
X180499949Y-97764729D01*
X180494366Y-97760227D01*
X180491139Y-97757182D01*
X180488216Y-97754055D01*
X180485592Y-97750862D01*
X180483262Y-97747608D01*
X180481225Y-97744295D01*
X180479478Y-97740937D01*
X180478019Y-97737550D01*
X180476847Y-97734132D01*
X180475956Y-97730704D01*
X180475343Y-97727261D01*
X180475002Y-97723819D01*
X180474939Y-97720390D01*
X180475145Y-97716971D01*
X180475617Y-97713581D01*
X180476352Y-97710230D01*
X180477348Y-97706917D01*
X180478605Y-97703660D01*
X180480114Y-97700466D01*
X180481875Y-97697341D01*
X180483886Y-97694294D01*
X180486147Y-97691336D01*
X180488647Y-97688478D01*
X180491389Y-97685721D01*
X180494366Y-97683079D01*
X180497581Y-97680559D01*
X180501024Y-97678174D01*
X180504700Y-97675931D01*
X180508601Y-97673832D01*
X180512726Y-97671899D01*
X180517068Y-97670126D01*
X180521628Y-97668531D01*
X180526401Y-97667126D01*
X180535128Y-97664486D01*
X180543652Y-97661463D01*
X180551952Y-97658062D01*
X180560016Y-97654296D01*
X180567831Y-97650183D01*
X180575378Y-97645726D01*
X180582640Y-97640940D01*
X180589598Y-97635840D01*
X180596244Y-97630433D01*
X180602553Y-97624733D01*
X180608511Y-97618754D01*
X180614108Y-97612499D01*
X180619325Y-97605992D01*
X180624141Y-97599238D01*
X180628546Y-97592244D01*
X180632519Y-97585033D01*
X180634822Y-97580470D01*
X180636840Y-97576134D01*
X180638579Y-97571964D01*
X180640047Y-97567908D01*
X180641233Y-97563897D01*
X180642143Y-97559884D01*
X180642788Y-97555811D01*
X180643155Y-97551622D01*
X180643259Y-97547251D01*
X180643087Y-97542653D01*
X180642654Y-97537760D01*
X180641954Y-97532523D01*
X180640988Y-97526875D01*
X180639764Y-97520774D01*
X180638269Y-97514151D01*
X180636527Y-97506945D01*
X180635166Y-97501883D01*
X180633721Y-97496846D01*
X180632205Y-97491874D01*
X180630628Y-97486983D01*
X180628998Y-97482215D01*
X180627321Y-97477594D01*
X180625614Y-97473146D01*
X180623886Y-97468904D01*
X180622147Y-97464897D01*
X180620403Y-97461152D01*
X180618672Y-97457703D01*
X180616958Y-97454573D01*
X180615271Y-97451799D01*
X180613628Y-97449406D01*
X180612032Y-97447423D01*
X180611257Y-97446592D01*
X180610493Y-97445878D01*
X180608769Y-97444372D01*
X180607165Y-97442678D01*
X180605675Y-97440810D01*
X180604300Y-97438775D01*
X180603045Y-97436591D01*
X180601906Y-97434262D01*
X180600878Y-97431808D01*
X180599969Y-97429233D01*
X180598498Y-97423783D01*
X180597493Y-97418003D01*
X180596946Y-97411992D01*
X180596857Y-97405833D01*
X180597227Y-97399634D01*
X180598051Y-97393476D01*
X180599331Y-97387461D01*
X180601063Y-97381682D01*
X180602101Y-97378908D01*
X180603250Y-97376231D01*
X180604510Y-97373657D01*
X180605882Y-97371201D01*
X180607368Y-97368877D01*
X180608967Y-97366689D01*
X180610675Y-97364658D01*
X180612499Y-97362782D01*
X180615523Y-97359843D01*
X180618598Y-97357201D01*
X180621712Y-97354860D01*
X180624867Y-97352822D01*
X180628063Y-97351081D01*
X180631298Y-97349644D01*
X180634567Y-97348496D01*
X180637870Y-97347644D01*
X180641207Y-97347087D01*
X180644570Y-97346821D01*
X180647966Y-97346847D01*
G37*
G36*
X179214186Y-96598472D02*
G01*
X179231643Y-96599718D01*
X179248801Y-96601802D01*
X179265503Y-96604693D01*
X179281598Y-96608362D01*
X179296925Y-96612769D01*
X179311335Y-96617887D01*
X179324662Y-96623683D01*
X179336761Y-96630126D01*
X179342300Y-96633577D01*
X179347476Y-96637181D01*
X179352260Y-96640927D01*
X179356643Y-96644817D01*
X179360599Y-96648839D01*
X179364115Y-96652998D01*
X179368853Y-96658888D01*
X179372937Y-96664218D01*
X179376363Y-96669058D01*
X179377828Y-96671323D01*
X179379129Y-96673492D01*
X179380267Y-96675572D01*
X179381240Y-96677578D01*
X179382051Y-96679517D01*
X179382695Y-96681401D01*
X179383178Y-96683235D01*
X179383494Y-96685030D01*
X179383648Y-96686790D01*
X179383639Y-96688542D01*
X179383461Y-96690271D01*
X179383121Y-96691999D01*
X179382614Y-96693735D01*
X179381946Y-96695486D01*
X179381111Y-96697263D01*
X179380116Y-96699074D01*
X179378952Y-96700925D01*
X179377628Y-96702830D01*
X179376138Y-96704804D01*
X179374484Y-96706841D01*
X179370683Y-96711168D01*
X179366224Y-96715889D01*
X179361109Y-96721074D01*
X179336081Y-96745100D01*
X179278015Y-96725077D01*
X179260656Y-96719670D01*
X179252177Y-96717418D01*
X179243841Y-96715471D01*
X179235634Y-96713817D01*
X179227564Y-96712478D01*
X179219628Y-96711438D01*
X179211819Y-96710707D01*
X179204142Y-96710275D01*
X179196588Y-96710156D01*
X179189166Y-96710345D01*
X179181865Y-96710843D01*
X179174686Y-96711647D01*
X179167631Y-96712768D01*
X179160698Y-96714201D01*
X179153879Y-96715943D01*
X179147183Y-96718000D01*
X179140599Y-96720374D01*
X179134129Y-96723065D01*
X179127774Y-96726065D01*
X179121528Y-96729388D01*
X179115394Y-96733027D01*
X179109367Y-96736991D01*
X179103451Y-96741267D01*
X179097635Y-96745869D01*
X179091927Y-96750792D01*
X179086322Y-96756041D01*
X179080815Y-96761608D01*
X179075410Y-96767505D01*
X179070101Y-96773723D01*
X179064891Y-96780274D01*
X179059774Y-96787149D01*
X179057151Y-96790696D01*
X179054538Y-96794556D01*
X179051959Y-96798690D01*
X179049422Y-96803055D01*
X179046945Y-96807616D01*
X179044537Y-96812330D01*
X179042218Y-96817158D01*
X179040004Y-96822062D01*
X179037906Y-96826999D01*
X179035945Y-96831931D01*
X179034124Y-96836823D01*
X179032466Y-96841631D01*
X179030985Y-96846314D01*
X179029692Y-96850834D01*
X179028606Y-96855152D01*
X179027741Y-96859227D01*
X179026097Y-96868428D01*
X179024160Y-96876882D01*
X179023078Y-96880835D01*
X179021922Y-96884607D01*
X179020689Y-96888198D01*
X179019372Y-96891609D01*
X179017977Y-96894839D01*
X179016497Y-96897891D01*
X179014939Y-96900769D01*
X179013293Y-96903468D01*
X179011565Y-96905994D01*
X179009744Y-96908347D01*
X179007837Y-96910527D01*
X179005842Y-96912535D01*
X179003754Y-96914377D01*
X179001575Y-96916044D01*
X178999303Y-96917546D01*
X178996936Y-96918886D01*
X178994471Y-96920051D01*
X178991910Y-96921058D01*
X178989251Y-96921901D01*
X178986491Y-96922579D01*
X178983631Y-96923097D01*
X178980669Y-96923455D01*
X178977602Y-96923653D01*
X178974428Y-96923693D01*
X178971153Y-96923577D01*
X178967767Y-96923303D01*
X178964269Y-96922878D01*
X178960667Y-96922301D01*
X178929391Y-96916384D01*
X178916247Y-96914056D01*
X178904557Y-96912149D01*
X178894164Y-96910653D01*
X178884909Y-96909574D01*
X178876634Y-96908914D01*
X178872819Y-96908734D01*
X178869190Y-96908659D01*
X178865730Y-96908685D01*
X178862411Y-96908815D01*
X178859225Y-96909047D01*
X178856144Y-96909382D01*
X178853156Y-96909820D01*
X178850235Y-96910359D01*
X178847365Y-96910999D01*
X178844523Y-96911739D01*
X178838849Y-96913523D01*
X178833062Y-96915714D01*
X178827000Y-96918307D01*
X178820510Y-96921296D01*
X178810900Y-96926171D01*
X178801955Y-96931418D01*
X178793653Y-96937079D01*
X178785988Y-96943167D01*
X178778938Y-96949709D01*
X178772487Y-96956738D01*
X178766622Y-96964277D01*
X178761321Y-96972351D01*
X178756573Y-96980993D01*
X178752362Y-96990223D01*
X178748666Y-97000067D01*
X178745475Y-97010551D01*
X178742770Y-97021705D01*
X178740536Y-97033556D01*
X178738760Y-97046127D01*
X178737421Y-97059447D01*
X178736194Y-97071315D01*
X178734757Y-97082162D01*
X178733080Y-97092023D01*
X178732149Y-97096594D01*
X178731147Y-97100935D01*
X178730073Y-97105045D01*
X178728922Y-97108929D01*
X178727692Y-97112591D01*
X178726384Y-97116044D01*
X178724994Y-97119283D01*
X178723509Y-97122313D01*
X178721938Y-97125147D01*
X178720275Y-97127775D01*
X178718512Y-97130212D01*
X178716652Y-97132462D01*
X178714686Y-97134524D01*
X178712614Y-97136414D01*
X178710433Y-97138116D01*
X178708143Y-97139653D01*
X178705733Y-97141023D01*
X178703209Y-97142230D01*
X178700557Y-97143275D01*
X178697791Y-97144172D01*
X178694888Y-97144915D01*
X178691853Y-97145515D01*
X178688688Y-97145971D01*
X178685383Y-97146294D01*
X178681943Y-97146485D01*
X178678350Y-97146547D01*
X178675381Y-97146439D01*
X178672466Y-97146119D01*
X178669618Y-97145588D01*
X178666833Y-97144850D01*
X178664114Y-97143913D01*
X178661469Y-97142779D01*
X178658891Y-97141451D01*
X178656391Y-97139929D01*
X178653965Y-97138222D01*
X178651618Y-97136336D01*
X178649354Y-97134270D01*
X178647172Y-97132025D01*
X178643061Y-97127039D01*
X178639313Y-97121393D01*
X178635931Y-97115127D01*
X178632953Y-97108272D01*
X178630377Y-97100855D01*
X178628233Y-97092911D01*
X178626539Y-97084466D01*
X178625301Y-97075548D01*
X178624546Y-97066204D01*
X178624293Y-97056448D01*
X178624628Y-97043105D01*
X178625618Y-97029932D01*
X178627257Y-97016942D01*
X178629518Y-97004162D01*
X178632390Y-96991595D01*
X178635855Y-96979264D01*
X178639897Y-96967188D01*
X178644504Y-96955381D01*
X178649657Y-96943859D01*
X178655334Y-96932642D01*
X178661526Y-96921742D01*
X178668217Y-96911177D01*
X178675390Y-96900966D01*
X178683023Y-96891127D01*
X178691108Y-96881669D01*
X178699627Y-96872618D01*
X178708562Y-96863984D01*
X178717896Y-96855787D01*
X178727614Y-96848042D01*
X178737700Y-96840766D01*
X178748140Y-96833981D01*
X178758914Y-96827692D01*
X178770005Y-96821927D01*
X178781408Y-96816699D01*
X178793089Y-96812019D01*
X178805048Y-96807915D01*
X178817256Y-96804390D01*
X178829707Y-96801469D01*
X178842382Y-96799167D01*
X178855262Y-96797510D01*
X178868334Y-96796496D01*
X178881580Y-96796157D01*
X178888347Y-96796118D01*
X178894422Y-96795969D01*
X178899867Y-96795680D01*
X178904745Y-96795219D01*
X178906987Y-96794910D01*
X178909110Y-96794543D01*
X178911121Y-96794119D01*
X178913024Y-96793623D01*
X178914834Y-96793061D01*
X178916551Y-96792422D01*
X178918184Y-96791704D01*
X178919741Y-96790902D01*
X178921241Y-96790011D01*
X178922671Y-96789029D01*
X178924053Y-96787953D01*
X178925385Y-96786771D01*
X178926683Y-96785489D01*
X178927953Y-96784091D01*
X178929197Y-96782582D01*
X178930430Y-96780953D01*
X178931654Y-96779201D01*
X178932877Y-96777322D01*
X178935357Y-96773164D01*
X178937922Y-96768442D01*
X178940644Y-96763122D01*
X178948675Y-96748358D01*
X178957355Y-96734111D01*
X178966643Y-96720421D01*
X178976509Y-96707310D01*
X178986927Y-96694807D01*
X178997852Y-96682946D01*
X179009256Y-96671753D01*
X179021108Y-96661255D01*
X179033370Y-96651492D01*
X179046003Y-96642479D01*
X179058986Y-96634251D01*
X179072275Y-96626845D01*
X179085840Y-96620282D01*
X179099649Y-96614590D01*
X179113662Y-96609802D01*
X179127852Y-96605947D01*
X179144475Y-96602513D01*
X179161573Y-96600087D01*
X179178993Y-96598622D01*
X179196584Y-96598094D01*
X179214186Y-96598472D01*
G37*
D11*
X195314895Y-73620550D02*
X195295847Y-73582455D01*
X195295847Y-73582455D02*
X195295847Y-73525312D01*
X195295847Y-73525312D02*
X195314895Y-73468169D01*
X195314895Y-73468169D02*
X195352990Y-73430074D01*
X195352990Y-73430074D02*
X195391085Y-73411027D01*
X195391085Y-73411027D02*
X195467276Y-73391979D01*
X195467276Y-73391979D02*
X195524419Y-73391979D01*
X195524419Y-73391979D02*
X195600609Y-73411027D01*
X195600609Y-73411027D02*
X195638704Y-73430074D01*
X195638704Y-73430074D02*
X195676800Y-73468169D01*
X195676800Y-73468169D02*
X195695847Y-73525312D01*
X195695847Y-73525312D02*
X195695847Y-73563408D01*
X195695847Y-73563408D02*
X195676800Y-73620550D01*
X195676800Y-73620550D02*
X195657752Y-73639598D01*
X195657752Y-73639598D02*
X195524419Y-73639598D01*
X195524419Y-73639598D02*
X195524419Y-73563408D01*
X195695847Y-73811027D02*
X195295847Y-73811027D01*
X195295847Y-73811027D02*
X195695847Y-74039598D01*
X195695847Y-74039598D02*
X195295847Y-74039598D01*
X195695847Y-74230075D02*
X195295847Y-74230075D01*
X195295847Y-74230075D02*
X195295847Y-74325313D01*
X195295847Y-74325313D02*
X195314895Y-74382456D01*
X195314895Y-74382456D02*
X195352990Y-74420551D01*
X195352990Y-74420551D02*
X195391085Y-74439598D01*
X195391085Y-74439598D02*
X195467276Y-74458646D01*
X195467276Y-74458646D02*
X195524419Y-74458646D01*
X195524419Y-74458646D02*
X195600609Y-74439598D01*
X195600609Y-74439598D02*
X195638704Y-74420551D01*
X195638704Y-74420551D02*
X195676800Y-74382456D01*
X195676800Y-74382456D02*
X195695847Y-74325313D01*
X195695847Y-74325313D02*
X195695847Y-74230075D01*
X195314895Y-76120550D02*
X195295847Y-76082455D01*
X195295847Y-76082455D02*
X195295847Y-76025312D01*
X195295847Y-76025312D02*
X195314895Y-75968169D01*
X195314895Y-75968169D02*
X195352990Y-75930074D01*
X195352990Y-75930074D02*
X195391085Y-75911027D01*
X195391085Y-75911027D02*
X195467276Y-75891979D01*
X195467276Y-75891979D02*
X195524419Y-75891979D01*
X195524419Y-75891979D02*
X195600609Y-75911027D01*
X195600609Y-75911027D02*
X195638704Y-75930074D01*
X195638704Y-75930074D02*
X195676800Y-75968169D01*
X195676800Y-75968169D02*
X195695847Y-76025312D01*
X195695847Y-76025312D02*
X195695847Y-76063408D01*
X195695847Y-76063408D02*
X195676800Y-76120550D01*
X195676800Y-76120550D02*
X195657752Y-76139598D01*
X195657752Y-76139598D02*
X195524419Y-76139598D01*
X195524419Y-76139598D02*
X195524419Y-76063408D01*
X195695847Y-76311027D02*
X195295847Y-76311027D01*
X195295847Y-76311027D02*
X195695847Y-76539598D01*
X195695847Y-76539598D02*
X195295847Y-76539598D01*
X195695847Y-76730075D02*
X195295847Y-76730075D01*
X195295847Y-76730075D02*
X195295847Y-76825313D01*
X195295847Y-76825313D02*
X195314895Y-76882456D01*
X195314895Y-76882456D02*
X195352990Y-76920551D01*
X195352990Y-76920551D02*
X195391085Y-76939598D01*
X195391085Y-76939598D02*
X195467276Y-76958646D01*
X195467276Y-76958646D02*
X195524419Y-76958646D01*
X195524419Y-76958646D02*
X195600609Y-76939598D01*
X195600609Y-76939598D02*
X195638704Y-76920551D01*
X195638704Y-76920551D02*
X195676800Y-76882456D01*
X195676800Y-76882456D02*
X195695847Y-76825313D01*
X195695847Y-76825313D02*
X195695847Y-76730075D01*
X195314895Y-78620550D02*
X195295847Y-78582455D01*
X195295847Y-78582455D02*
X195295847Y-78525312D01*
X195295847Y-78525312D02*
X195314895Y-78468169D01*
X195314895Y-78468169D02*
X195352990Y-78430074D01*
X195352990Y-78430074D02*
X195391085Y-78411027D01*
X195391085Y-78411027D02*
X195467276Y-78391979D01*
X195467276Y-78391979D02*
X195524419Y-78391979D01*
X195524419Y-78391979D02*
X195600609Y-78411027D01*
X195600609Y-78411027D02*
X195638704Y-78430074D01*
X195638704Y-78430074D02*
X195676800Y-78468169D01*
X195676800Y-78468169D02*
X195695847Y-78525312D01*
X195695847Y-78525312D02*
X195695847Y-78563408D01*
X195695847Y-78563408D02*
X195676800Y-78620550D01*
X195676800Y-78620550D02*
X195657752Y-78639598D01*
X195657752Y-78639598D02*
X195524419Y-78639598D01*
X195524419Y-78639598D02*
X195524419Y-78563408D01*
X195695847Y-78811027D02*
X195295847Y-78811027D01*
X195295847Y-78811027D02*
X195695847Y-79039598D01*
X195695847Y-79039598D02*
X195295847Y-79039598D01*
X195695847Y-79230075D02*
X195295847Y-79230075D01*
X195295847Y-79230075D02*
X195295847Y-79325313D01*
X195295847Y-79325313D02*
X195314895Y-79382456D01*
X195314895Y-79382456D02*
X195352990Y-79420551D01*
X195352990Y-79420551D02*
X195391085Y-79439598D01*
X195391085Y-79439598D02*
X195467276Y-79458646D01*
X195467276Y-79458646D02*
X195524419Y-79458646D01*
X195524419Y-79458646D02*
X195600609Y-79439598D01*
X195600609Y-79439598D02*
X195638704Y-79420551D01*
X195638704Y-79420551D02*
X195676800Y-79382456D01*
X195676800Y-79382456D02*
X195695847Y-79325313D01*
X195695847Y-79325313D02*
X195695847Y-79230075D01*
X195695847Y-80889598D02*
X195505371Y-80756265D01*
X195695847Y-80661027D02*
X195295847Y-80661027D01*
X195295847Y-80661027D02*
X195295847Y-80813408D01*
X195295847Y-80813408D02*
X195314895Y-80851503D01*
X195314895Y-80851503D02*
X195333942Y-80870550D01*
X195333942Y-80870550D02*
X195372038Y-80889598D01*
X195372038Y-80889598D02*
X195429180Y-80889598D01*
X195429180Y-80889598D02*
X195467276Y-80870550D01*
X195467276Y-80870550D02*
X195486323Y-80851503D01*
X195486323Y-80851503D02*
X195505371Y-80813408D01*
X195505371Y-80813408D02*
X195505371Y-80661027D01*
X195486323Y-81061027D02*
X195486323Y-81194360D01*
X195695847Y-81251503D02*
X195695847Y-81061027D01*
X195695847Y-81061027D02*
X195295847Y-81061027D01*
X195295847Y-81061027D02*
X195295847Y-81251503D01*
X195676800Y-81403884D02*
X195695847Y-81461027D01*
X195695847Y-81461027D02*
X195695847Y-81556265D01*
X195695847Y-81556265D02*
X195676800Y-81594360D01*
X195676800Y-81594360D02*
X195657752Y-81613408D01*
X195657752Y-81613408D02*
X195619657Y-81632455D01*
X195619657Y-81632455D02*
X195581561Y-81632455D01*
X195581561Y-81632455D02*
X195543466Y-81613408D01*
X195543466Y-81613408D02*
X195524419Y-81594360D01*
X195524419Y-81594360D02*
X195505371Y-81556265D01*
X195505371Y-81556265D02*
X195486323Y-81480074D01*
X195486323Y-81480074D02*
X195467276Y-81441979D01*
X195467276Y-81441979D02*
X195448228Y-81422932D01*
X195448228Y-81422932D02*
X195410133Y-81403884D01*
X195410133Y-81403884D02*
X195372038Y-81403884D01*
X195372038Y-81403884D02*
X195333942Y-81422932D01*
X195333942Y-81422932D02*
X195314895Y-81441979D01*
X195314895Y-81441979D02*
X195295847Y-81480074D01*
X195295847Y-81480074D02*
X195295847Y-81575313D01*
X195295847Y-81575313D02*
X195314895Y-81632455D01*
X195486323Y-81803884D02*
X195486323Y-81937217D01*
X195695847Y-81994360D02*
X195695847Y-81803884D01*
X195695847Y-81803884D02*
X195295847Y-81803884D01*
X195295847Y-81803884D02*
X195295847Y-81994360D01*
X195295847Y-82108646D02*
X195295847Y-82337217D01*
X195695847Y-82222931D02*
X195295847Y-82222931D01*
X201564895Y-73620550D02*
X201545847Y-73582455D01*
X201545847Y-73582455D02*
X201545847Y-73525312D01*
X201545847Y-73525312D02*
X201564895Y-73468169D01*
X201564895Y-73468169D02*
X201602990Y-73430074D01*
X201602990Y-73430074D02*
X201641085Y-73411027D01*
X201641085Y-73411027D02*
X201717276Y-73391979D01*
X201717276Y-73391979D02*
X201774419Y-73391979D01*
X201774419Y-73391979D02*
X201850609Y-73411027D01*
X201850609Y-73411027D02*
X201888704Y-73430074D01*
X201888704Y-73430074D02*
X201926800Y-73468169D01*
X201926800Y-73468169D02*
X201945847Y-73525312D01*
X201945847Y-73525312D02*
X201945847Y-73563408D01*
X201945847Y-73563408D02*
X201926800Y-73620550D01*
X201926800Y-73620550D02*
X201907752Y-73639598D01*
X201907752Y-73639598D02*
X201774419Y-73639598D01*
X201774419Y-73639598D02*
X201774419Y-73563408D01*
X201945847Y-73811027D02*
X201545847Y-73811027D01*
X201545847Y-73811027D02*
X201945847Y-74039598D01*
X201945847Y-74039598D02*
X201545847Y-74039598D01*
X201945847Y-74230075D02*
X201545847Y-74230075D01*
X201545847Y-74230075D02*
X201545847Y-74325313D01*
X201545847Y-74325313D02*
X201564895Y-74382456D01*
X201564895Y-74382456D02*
X201602990Y-74420551D01*
X201602990Y-74420551D02*
X201641085Y-74439598D01*
X201641085Y-74439598D02*
X201717276Y-74458646D01*
X201717276Y-74458646D02*
X201774419Y-74458646D01*
X201774419Y-74458646D02*
X201850609Y-74439598D01*
X201850609Y-74439598D02*
X201888704Y-74420551D01*
X201888704Y-74420551D02*
X201926800Y-74382456D01*
X201926800Y-74382456D02*
X201945847Y-74325313D01*
X201945847Y-74325313D02*
X201945847Y-74230075D01*
X201926800Y-75391979D02*
X201945847Y-75449122D01*
X201945847Y-75449122D02*
X201945847Y-75544360D01*
X201945847Y-75544360D02*
X201926800Y-75582455D01*
X201926800Y-75582455D02*
X201907752Y-75601503D01*
X201907752Y-75601503D02*
X201869657Y-75620550D01*
X201869657Y-75620550D02*
X201831561Y-75620550D01*
X201831561Y-75620550D02*
X201793466Y-75601503D01*
X201793466Y-75601503D02*
X201774419Y-75582455D01*
X201774419Y-75582455D02*
X201755371Y-75544360D01*
X201755371Y-75544360D02*
X201736323Y-75468169D01*
X201736323Y-75468169D02*
X201717276Y-75430074D01*
X201717276Y-75430074D02*
X201698228Y-75411027D01*
X201698228Y-75411027D02*
X201660133Y-75391979D01*
X201660133Y-75391979D02*
X201622038Y-75391979D01*
X201622038Y-75391979D02*
X201583942Y-75411027D01*
X201583942Y-75411027D02*
X201564895Y-75430074D01*
X201564895Y-75430074D02*
X201545847Y-75468169D01*
X201545847Y-75468169D02*
X201545847Y-75563408D01*
X201545847Y-75563408D02*
X201564895Y-75620550D01*
X201545847Y-75753883D02*
X201945847Y-75849121D01*
X201945847Y-75849121D02*
X201660133Y-75925312D01*
X201660133Y-75925312D02*
X201945847Y-76001502D01*
X201945847Y-76001502D02*
X201545847Y-76096741D01*
X201907752Y-76477693D02*
X201926800Y-76458645D01*
X201926800Y-76458645D02*
X201945847Y-76401503D01*
X201945847Y-76401503D02*
X201945847Y-76363407D01*
X201945847Y-76363407D02*
X201926800Y-76306264D01*
X201926800Y-76306264D02*
X201888704Y-76268169D01*
X201888704Y-76268169D02*
X201850609Y-76249122D01*
X201850609Y-76249122D02*
X201774419Y-76230074D01*
X201774419Y-76230074D02*
X201717276Y-76230074D01*
X201717276Y-76230074D02*
X201641085Y-76249122D01*
X201641085Y-76249122D02*
X201602990Y-76268169D01*
X201602990Y-76268169D02*
X201564895Y-76306264D01*
X201564895Y-76306264D02*
X201545847Y-76363407D01*
X201545847Y-76363407D02*
X201545847Y-76401503D01*
X201545847Y-76401503D02*
X201564895Y-76458645D01*
X201564895Y-76458645D02*
X201583942Y-76477693D01*
X201945847Y-76839598D02*
X201945847Y-76649122D01*
X201945847Y-76649122D02*
X201545847Y-76649122D01*
X201945847Y-76972932D02*
X201545847Y-76972932D01*
X201945847Y-77201503D02*
X201717276Y-77030074D01*
X201545847Y-77201503D02*
X201774419Y-76972932D01*
X201926800Y-78141979D02*
X201945847Y-78199122D01*
X201945847Y-78199122D02*
X201945847Y-78294360D01*
X201945847Y-78294360D02*
X201926800Y-78332455D01*
X201926800Y-78332455D02*
X201907752Y-78351503D01*
X201907752Y-78351503D02*
X201869657Y-78370550D01*
X201869657Y-78370550D02*
X201831561Y-78370550D01*
X201831561Y-78370550D02*
X201793466Y-78351503D01*
X201793466Y-78351503D02*
X201774419Y-78332455D01*
X201774419Y-78332455D02*
X201755371Y-78294360D01*
X201755371Y-78294360D02*
X201736323Y-78218169D01*
X201736323Y-78218169D02*
X201717276Y-78180074D01*
X201717276Y-78180074D02*
X201698228Y-78161027D01*
X201698228Y-78161027D02*
X201660133Y-78141979D01*
X201660133Y-78141979D02*
X201622038Y-78141979D01*
X201622038Y-78141979D02*
X201583942Y-78161027D01*
X201583942Y-78161027D02*
X201564895Y-78180074D01*
X201564895Y-78180074D02*
X201545847Y-78218169D01*
X201545847Y-78218169D02*
X201545847Y-78313408D01*
X201545847Y-78313408D02*
X201564895Y-78370550D01*
X201545847Y-78503883D02*
X201945847Y-78599121D01*
X201945847Y-78599121D02*
X201660133Y-78675312D01*
X201660133Y-78675312D02*
X201945847Y-78751502D01*
X201945847Y-78751502D02*
X201545847Y-78846741D01*
X201945847Y-78999122D02*
X201545847Y-78999122D01*
X201545847Y-78999122D02*
X201545847Y-79094360D01*
X201545847Y-79094360D02*
X201564895Y-79151503D01*
X201564895Y-79151503D02*
X201602990Y-79189598D01*
X201602990Y-79189598D02*
X201641085Y-79208645D01*
X201641085Y-79208645D02*
X201717276Y-79227693D01*
X201717276Y-79227693D02*
X201774419Y-79227693D01*
X201774419Y-79227693D02*
X201850609Y-79208645D01*
X201850609Y-79208645D02*
X201888704Y-79189598D01*
X201888704Y-79189598D02*
X201926800Y-79151503D01*
X201926800Y-79151503D02*
X201945847Y-79094360D01*
X201945847Y-79094360D02*
X201945847Y-78999122D01*
X201945847Y-79399122D02*
X201545847Y-79399122D01*
X201545847Y-79665788D02*
X201545847Y-79741979D01*
X201545847Y-79741979D02*
X201564895Y-79780074D01*
X201564895Y-79780074D02*
X201602990Y-79818169D01*
X201602990Y-79818169D02*
X201679180Y-79837217D01*
X201679180Y-79837217D02*
X201812514Y-79837217D01*
X201812514Y-79837217D02*
X201888704Y-79818169D01*
X201888704Y-79818169D02*
X201926800Y-79780074D01*
X201926800Y-79780074D02*
X201945847Y-79741979D01*
X201945847Y-79741979D02*
X201945847Y-79665788D01*
X201945847Y-79665788D02*
X201926800Y-79627693D01*
X201926800Y-79627693D02*
X201888704Y-79589598D01*
X201888704Y-79589598D02*
X201812514Y-79570550D01*
X201812514Y-79570550D02*
X201679180Y-79570550D01*
X201679180Y-79570550D02*
X201602990Y-79589598D01*
X201602990Y-79589598D02*
X201564895Y-79627693D01*
X201564895Y-79627693D02*
X201545847Y-79665788D01*
X201545847Y-80603884D02*
X201945847Y-80737217D01*
X201945847Y-80737217D02*
X201545847Y-80870550D01*
X201736323Y-81137217D02*
X201755371Y-81194360D01*
X201755371Y-81194360D02*
X201774419Y-81213407D01*
X201774419Y-81213407D02*
X201812514Y-81232455D01*
X201812514Y-81232455D02*
X201869657Y-81232455D01*
X201869657Y-81232455D02*
X201907752Y-81213407D01*
X201907752Y-81213407D02*
X201926800Y-81194360D01*
X201926800Y-81194360D02*
X201945847Y-81156265D01*
X201945847Y-81156265D02*
X201945847Y-81003884D01*
X201945847Y-81003884D02*
X201545847Y-81003884D01*
X201545847Y-81003884D02*
X201545847Y-81137217D01*
X201545847Y-81137217D02*
X201564895Y-81175312D01*
X201564895Y-81175312D02*
X201583942Y-81194360D01*
X201583942Y-81194360D02*
X201622038Y-81213407D01*
X201622038Y-81213407D02*
X201660133Y-81213407D01*
X201660133Y-81213407D02*
X201698228Y-81194360D01*
X201698228Y-81194360D02*
X201717276Y-81175312D01*
X201717276Y-81175312D02*
X201736323Y-81137217D01*
X201736323Y-81137217D02*
X201736323Y-81003884D01*
X201545847Y-81403884D02*
X201869657Y-81403884D01*
X201869657Y-81403884D02*
X201907752Y-81422931D01*
X201907752Y-81422931D02*
X201926800Y-81441979D01*
X201926800Y-81441979D02*
X201945847Y-81480074D01*
X201945847Y-81480074D02*
X201945847Y-81556265D01*
X201945847Y-81556265D02*
X201926800Y-81594360D01*
X201926800Y-81594360D02*
X201907752Y-81613407D01*
X201907752Y-81613407D02*
X201869657Y-81632455D01*
X201869657Y-81632455D02*
X201545847Y-81632455D01*
X201926800Y-81803884D02*
X201945847Y-81861027D01*
X201945847Y-81861027D02*
X201945847Y-81956265D01*
X201945847Y-81956265D02*
X201926800Y-81994360D01*
X201926800Y-81994360D02*
X201907752Y-82013408D01*
X201907752Y-82013408D02*
X201869657Y-82032455D01*
X201869657Y-82032455D02*
X201831561Y-82032455D01*
X201831561Y-82032455D02*
X201793466Y-82013408D01*
X201793466Y-82013408D02*
X201774419Y-81994360D01*
X201774419Y-81994360D02*
X201755371Y-81956265D01*
X201755371Y-81956265D02*
X201736323Y-81880074D01*
X201736323Y-81880074D02*
X201717276Y-81841979D01*
X201717276Y-81841979D02*
X201698228Y-81822932D01*
X201698228Y-81822932D02*
X201660133Y-81803884D01*
X201660133Y-81803884D02*
X201622038Y-81803884D01*
X201622038Y-81803884D02*
X201583942Y-81822932D01*
X201583942Y-81822932D02*
X201564895Y-81841979D01*
X201564895Y-81841979D02*
X201545847Y-81880074D01*
X201545847Y-81880074D02*
X201545847Y-81975313D01*
X201545847Y-81975313D02*
X201564895Y-82032455D01*
M02*
