%TF.GenerationSoftware,KiCad,Pcbnew,10.0.3*%
%TF.CreationDate,2026-09-20T10:00:20+07:00*%
%TF.ProjectId,amr_stm32_kicad,616d725f-7374-46d3-9332-5f6b69636164,rev?*%
%TF.SameCoordinates,Original*%
%TF.FileFunction,Legend,Top*%
%TF.FilePolarity,Positive*%
%FSLAX46Y46*%
G04 Gerber Fmt 4.6, Leading zero omitted, Abs format (unit mm)*
G04 Created by KiCad (PCBNEW 10.0.3) date 2026-09-20 10:00:20*
%MOMM*%
%LPD*%
G01*
G04 APERTURE LIST*
%ADD10C,0.100000*%
%ADD11C,0.150000*%
%ADD12C,0.120000*%
%ADD13C,0.152400*%
%ADD14C,0.000000*%
G04 APERTURE END LIST*
D10*
X123232455Y-94622419D02*
X123232455Y-94098609D01*
X123232455Y-94098609D02*
X123184836Y-94003371D01*
X123184836Y-94003371D02*
X123089598Y-93955752D01*
X123089598Y-93955752D02*
X122899122Y-93955752D01*
X122899122Y-93955752D02*
X122803884Y-94003371D01*
X123232455Y-94574800D02*
X123137217Y-94622419D01*
X123137217Y-94622419D02*
X122899122Y-94622419D01*
X122899122Y-94622419D02*
X122803884Y-94574800D01*
X122803884Y-94574800D02*
X122756265Y-94479561D01*
X122756265Y-94479561D02*
X122756265Y-94384323D01*
X122756265Y-94384323D02*
X122803884Y-94289085D01*
X122803884Y-94289085D02*
X122899122Y-94241466D01*
X122899122Y-94241466D02*
X123137217Y-94241466D01*
X123137217Y-94241466D02*
X123232455Y-94193847D01*
X123708646Y-94622419D02*
X123708646Y-93955752D01*
X123708646Y-94050990D02*
X123756265Y-94003371D01*
X123756265Y-94003371D02*
X123851503Y-93955752D01*
X123851503Y-93955752D02*
X123994360Y-93955752D01*
X123994360Y-93955752D02*
X124089598Y-94003371D01*
X124089598Y-94003371D02*
X124137217Y-94098609D01*
X124137217Y-94098609D02*
X124137217Y-94622419D01*
X124137217Y-94098609D02*
X124184836Y-94003371D01*
X124184836Y-94003371D02*
X124280074Y-93955752D01*
X124280074Y-93955752D02*
X124422931Y-93955752D01*
X124422931Y-93955752D02*
X124518170Y-94003371D01*
X124518170Y-94003371D02*
X124565789Y-94098609D01*
X124565789Y-94098609D02*
X124565789Y-94622419D01*
X125041979Y-94622419D02*
X125041979Y-93955752D01*
X125041979Y-94146228D02*
X125089598Y-94050990D01*
X125089598Y-94050990D02*
X125137217Y-94003371D01*
X125137217Y-94003371D02*
X125232455Y-93955752D01*
X125232455Y-93955752D02*
X125327693Y-93955752D01*
X181732455Y-97872419D02*
X181732455Y-96872419D01*
X181732455Y-97824800D02*
X181637217Y-97872419D01*
X181637217Y-97872419D02*
X181446741Y-97872419D01*
X181446741Y-97872419D02*
X181351503Y-97824800D01*
X181351503Y-97824800D02*
X181303884Y-97777180D01*
X181303884Y-97777180D02*
X181256265Y-97681942D01*
X181256265Y-97681942D02*
X181256265Y-97396228D01*
X181256265Y-97396228D02*
X181303884Y-97300990D01*
X181303884Y-97300990D02*
X181351503Y-97253371D01*
X181351503Y-97253371D02*
X181446741Y-97205752D01*
X181446741Y-97205752D02*
X181637217Y-97205752D01*
X181637217Y-97205752D02*
X181732455Y-97253371D01*
X182589598Y-97824800D02*
X182494360Y-97872419D01*
X182494360Y-97872419D02*
X182303884Y-97872419D01*
X182303884Y-97872419D02*
X182208646Y-97824800D01*
X182208646Y-97824800D02*
X182161027Y-97729561D01*
X182161027Y-97729561D02*
X182161027Y-97348609D01*
X182161027Y-97348609D02*
X182208646Y-97253371D01*
X182208646Y-97253371D02*
X182303884Y-97205752D01*
X182303884Y-97205752D02*
X182494360Y-97205752D01*
X182494360Y-97205752D02*
X182589598Y-97253371D01*
X182589598Y-97253371D02*
X182637217Y-97348609D01*
X182637217Y-97348609D02*
X182637217Y-97443847D01*
X182637217Y-97443847D02*
X182161027Y-97539085D01*
X183018170Y-97824800D02*
X183113408Y-97872419D01*
X183113408Y-97872419D02*
X183303884Y-97872419D01*
X183303884Y-97872419D02*
X183399122Y-97824800D01*
X183399122Y-97824800D02*
X183446741Y-97729561D01*
X183446741Y-97729561D02*
X183446741Y-97681942D01*
X183446741Y-97681942D02*
X183399122Y-97586704D01*
X183399122Y-97586704D02*
X183303884Y-97539085D01*
X183303884Y-97539085D02*
X183161027Y-97539085D01*
X183161027Y-97539085D02*
X183065789Y-97491466D01*
X183065789Y-97491466D02*
X183018170Y-97396228D01*
X183018170Y-97396228D02*
X183018170Y-97348609D01*
X183018170Y-97348609D02*
X183065789Y-97253371D01*
X183065789Y-97253371D02*
X183161027Y-97205752D01*
X183161027Y-97205752D02*
X183303884Y-97205752D01*
X183303884Y-97205752D02*
X183399122Y-97253371D01*
X183875313Y-97872419D02*
X183875313Y-97205752D01*
X183875313Y-96872419D02*
X183827694Y-96920038D01*
X183827694Y-96920038D02*
X183875313Y-96967657D01*
X183875313Y-96967657D02*
X183922932Y-96920038D01*
X183922932Y-96920038D02*
X183875313Y-96872419D01*
X183875313Y-96872419D02*
X183875313Y-96967657D01*
X184780074Y-97205752D02*
X184780074Y-98015276D01*
X184780074Y-98015276D02*
X184732455Y-98110514D01*
X184732455Y-98110514D02*
X184684836Y-98158133D01*
X184684836Y-98158133D02*
X184589598Y-98205752D01*
X184589598Y-98205752D02*
X184446741Y-98205752D01*
X184446741Y-98205752D02*
X184351503Y-98158133D01*
X184780074Y-97824800D02*
X184684836Y-97872419D01*
X184684836Y-97872419D02*
X184494360Y-97872419D01*
X184494360Y-97872419D02*
X184399122Y-97824800D01*
X184399122Y-97824800D02*
X184351503Y-97777180D01*
X184351503Y-97777180D02*
X184303884Y-97681942D01*
X184303884Y-97681942D02*
X184303884Y-97396228D01*
X184303884Y-97396228D02*
X184351503Y-97300990D01*
X184351503Y-97300990D02*
X184399122Y-97253371D01*
X184399122Y-97253371D02*
X184494360Y-97205752D01*
X184494360Y-97205752D02*
X184684836Y-97205752D01*
X184684836Y-97205752D02*
X184780074Y-97253371D01*
X185256265Y-97205752D02*
X185256265Y-97872419D01*
X185256265Y-97300990D02*
X185303884Y-97253371D01*
X185303884Y-97253371D02*
X185399122Y-97205752D01*
X185399122Y-97205752D02*
X185541979Y-97205752D01*
X185541979Y-97205752D02*
X185637217Y-97253371D01*
X185637217Y-97253371D02*
X185684836Y-97348609D01*
X185684836Y-97348609D02*
X185684836Y-97872419D01*
X186922932Y-97872419D02*
X186922932Y-96872419D01*
X186922932Y-97253371D02*
X187018170Y-97205752D01*
X187018170Y-97205752D02*
X187208646Y-97205752D01*
X187208646Y-97205752D02*
X187303884Y-97253371D01*
X187303884Y-97253371D02*
X187351503Y-97300990D01*
X187351503Y-97300990D02*
X187399122Y-97396228D01*
X187399122Y-97396228D02*
X187399122Y-97681942D01*
X187399122Y-97681942D02*
X187351503Y-97777180D01*
X187351503Y-97777180D02*
X187303884Y-97824800D01*
X187303884Y-97824800D02*
X187208646Y-97872419D01*
X187208646Y-97872419D02*
X187018170Y-97872419D01*
X187018170Y-97872419D02*
X186922932Y-97824800D01*
X187732456Y-97205752D02*
X187970551Y-97872419D01*
X188208646Y-97205752D02*
X187970551Y-97872419D01*
X187970551Y-97872419D02*
X187875313Y-98110514D01*
X187875313Y-98110514D02*
X187827694Y-98158133D01*
X187827694Y-98158133D02*
X187732456Y-98205752D01*
X189970551Y-97396228D02*
X189922932Y-97348609D01*
X189922932Y-97348609D02*
X189827694Y-97300990D01*
X189827694Y-97300990D02*
X189732456Y-97300990D01*
X189732456Y-97300990D02*
X189637218Y-97348609D01*
X189637218Y-97348609D02*
X189589599Y-97396228D01*
X189589599Y-97396228D02*
X189541980Y-97491466D01*
X189541980Y-97491466D02*
X189541980Y-97586704D01*
X189541980Y-97586704D02*
X189589599Y-97681942D01*
X189589599Y-97681942D02*
X189637218Y-97729561D01*
X189637218Y-97729561D02*
X189732456Y-97777180D01*
X189732456Y-97777180D02*
X189827694Y-97777180D01*
X189827694Y-97777180D02*
X189922932Y-97729561D01*
X189922932Y-97729561D02*
X189970551Y-97681942D01*
X189970551Y-97300990D02*
X189970551Y-97681942D01*
X189970551Y-97681942D02*
X190018170Y-97729561D01*
X190018170Y-97729561D02*
X190065789Y-97729561D01*
X190065789Y-97729561D02*
X190161028Y-97681942D01*
X190161028Y-97681942D02*
X190208647Y-97586704D01*
X190208647Y-97586704D02*
X190208647Y-97348609D01*
X190208647Y-97348609D02*
X190113409Y-97205752D01*
X190113409Y-97205752D02*
X189970551Y-97110514D01*
X189970551Y-97110514D02*
X189780075Y-97062895D01*
X189780075Y-97062895D02*
X189589599Y-97110514D01*
X189589599Y-97110514D02*
X189446742Y-97205752D01*
X189446742Y-97205752D02*
X189351504Y-97348609D01*
X189351504Y-97348609D02*
X189303885Y-97539085D01*
X189303885Y-97539085D02*
X189351504Y-97729561D01*
X189351504Y-97729561D02*
X189446742Y-97872419D01*
X189446742Y-97872419D02*
X189589599Y-97967657D01*
X189589599Y-97967657D02*
X189780075Y-98015276D01*
X189780075Y-98015276D02*
X189970551Y-97967657D01*
X189970551Y-97967657D02*
X190113409Y-97872419D01*
X190637218Y-97872419D02*
X190637218Y-96872419D01*
X191065789Y-97872419D02*
X191065789Y-97348609D01*
X191065789Y-97348609D02*
X191018170Y-97253371D01*
X191018170Y-97253371D02*
X190922932Y-97205752D01*
X190922932Y-97205752D02*
X190780075Y-97205752D01*
X190780075Y-97205752D02*
X190684837Y-97253371D01*
X190684837Y-97253371D02*
X190637218Y-97300990D01*
X191684837Y-97872419D02*
X191589599Y-97824800D01*
X191589599Y-97824800D02*
X191541980Y-97777180D01*
X191541980Y-97777180D02*
X191494361Y-97681942D01*
X191494361Y-97681942D02*
X191494361Y-97396228D01*
X191494361Y-97396228D02*
X191541980Y-97300990D01*
X191541980Y-97300990D02*
X191589599Y-97253371D01*
X191589599Y-97253371D02*
X191684837Y-97205752D01*
X191684837Y-97205752D02*
X191827694Y-97205752D01*
X191827694Y-97205752D02*
X191922932Y-97253371D01*
X191922932Y-97253371D02*
X191970551Y-97300990D01*
X191970551Y-97300990D02*
X192018170Y-97396228D01*
X192018170Y-97396228D02*
X192018170Y-97681942D01*
X192018170Y-97681942D02*
X191970551Y-97777180D01*
X191970551Y-97777180D02*
X191922932Y-97824800D01*
X191922932Y-97824800D02*
X191827694Y-97872419D01*
X191827694Y-97872419D02*
X191684837Y-97872419D01*
X192446742Y-97205752D02*
X192446742Y-97872419D01*
X192446742Y-97300990D02*
X192494361Y-97253371D01*
X192494361Y-97253371D02*
X192589599Y-97205752D01*
X192589599Y-97205752D02*
X192732456Y-97205752D01*
X192732456Y-97205752D02*
X192827694Y-97253371D01*
X192827694Y-97253371D02*
X192875313Y-97348609D01*
X192875313Y-97348609D02*
X192875313Y-97872419D01*
X193780075Y-97205752D02*
X193780075Y-98015276D01*
X193780075Y-98015276D02*
X193732456Y-98110514D01*
X193732456Y-98110514D02*
X193684837Y-98158133D01*
X193684837Y-98158133D02*
X193589599Y-98205752D01*
X193589599Y-98205752D02*
X193446742Y-98205752D01*
X193446742Y-98205752D02*
X193351504Y-98158133D01*
X193780075Y-97824800D02*
X193684837Y-97872419D01*
X193684837Y-97872419D02*
X193494361Y-97872419D01*
X193494361Y-97872419D02*
X193399123Y-97824800D01*
X193399123Y-97824800D02*
X193351504Y-97777180D01*
X193351504Y-97777180D02*
X193303885Y-97681942D01*
X193303885Y-97681942D02*
X193303885Y-97396228D01*
X193303885Y-97396228D02*
X193351504Y-97300990D01*
X193351504Y-97300990D02*
X193399123Y-97253371D01*
X193399123Y-97253371D02*
X193494361Y-97205752D01*
X193494361Y-97205752D02*
X193684837Y-97205752D01*
X193684837Y-97205752D02*
X193780075Y-97253371D01*
X194113409Y-97205752D02*
X194494361Y-97205752D01*
X194256266Y-96872419D02*
X194256266Y-97729561D01*
X194256266Y-97729561D02*
X194303885Y-97824800D01*
X194303885Y-97824800D02*
X194399123Y-97872419D01*
X194399123Y-97872419D02*
X194494361Y-97872419D01*
X195256266Y-97872419D02*
X195256266Y-97348609D01*
X195256266Y-97348609D02*
X195208647Y-97253371D01*
X195208647Y-97253371D02*
X195113409Y-97205752D01*
X195113409Y-97205752D02*
X194922933Y-97205752D01*
X194922933Y-97205752D02*
X194827695Y-97253371D01*
X195256266Y-97824800D02*
X195161028Y-97872419D01*
X195161028Y-97872419D02*
X194922933Y-97872419D01*
X194922933Y-97872419D02*
X194827695Y-97824800D01*
X194827695Y-97824800D02*
X194780076Y-97729561D01*
X194780076Y-97729561D02*
X194780076Y-97634323D01*
X194780076Y-97634323D02*
X194827695Y-97539085D01*
X194827695Y-97539085D02*
X194922933Y-97491466D01*
X194922933Y-97491466D02*
X195161028Y-97491466D01*
X195161028Y-97491466D02*
X195256266Y-97443847D01*
X195732457Y-97205752D02*
X195732457Y-97872419D01*
X195732457Y-97300990D02*
X195780076Y-97253371D01*
X195780076Y-97253371D02*
X195875314Y-97205752D01*
X195875314Y-97205752D02*
X196018171Y-97205752D01*
X196018171Y-97205752D02*
X196113409Y-97253371D01*
X196113409Y-97253371D02*
X196161028Y-97348609D01*
X196161028Y-97348609D02*
X196161028Y-97872419D01*
X196637219Y-97205752D02*
X196637219Y-97872419D01*
X196637219Y-97300990D02*
X196684838Y-97253371D01*
X196684838Y-97253371D02*
X196780076Y-97205752D01*
X196780076Y-97205752D02*
X196922933Y-97205752D01*
X196922933Y-97205752D02*
X197018171Y-97253371D01*
X197018171Y-97253371D02*
X197065790Y-97348609D01*
X197065790Y-97348609D02*
X197065790Y-97872419D01*
X197541981Y-97205752D02*
X197541981Y-97872419D01*
X197541981Y-97300990D02*
X197589600Y-97253371D01*
X197589600Y-97253371D02*
X197684838Y-97205752D01*
X197684838Y-97205752D02*
X197827695Y-97205752D01*
X197827695Y-97205752D02*
X197922933Y-97253371D01*
X197922933Y-97253371D02*
X197970552Y-97348609D01*
X197970552Y-97348609D02*
X197970552Y-97872419D01*
X198446743Y-97205752D02*
X198446743Y-97872419D01*
X198446743Y-97300990D02*
X198494362Y-97253371D01*
X198494362Y-97253371D02*
X198589600Y-97205752D01*
X198589600Y-97205752D02*
X198732457Y-97205752D01*
X198732457Y-97205752D02*
X198827695Y-97253371D01*
X198827695Y-97253371D02*
X198875314Y-97348609D01*
X198875314Y-97348609D02*
X198875314Y-97872419D01*
D11*
X132882142Y-78109580D02*
X132834523Y-78157200D01*
X132834523Y-78157200D02*
X132691666Y-78204819D01*
X132691666Y-78204819D02*
X132596428Y-78204819D01*
X132596428Y-78204819D02*
X132453571Y-78157200D01*
X132453571Y-78157200D02*
X132358333Y-78061961D01*
X132358333Y-78061961D02*
X132310714Y-77966723D01*
X132310714Y-77966723D02*
X132263095Y-77776247D01*
X132263095Y-77776247D02*
X132263095Y-77633390D01*
X132263095Y-77633390D02*
X132310714Y-77442914D01*
X132310714Y-77442914D02*
X132358333Y-77347676D01*
X132358333Y-77347676D02*
X132453571Y-77252438D01*
X132453571Y-77252438D02*
X132596428Y-77204819D01*
X132596428Y-77204819D02*
X132691666Y-77204819D01*
X132691666Y-77204819D02*
X132834523Y-77252438D01*
X132834523Y-77252438D02*
X132882142Y-77300057D01*
X133739285Y-77538152D02*
X133739285Y-78204819D01*
X133501190Y-77157200D02*
X133263095Y-77871485D01*
X133263095Y-77871485D02*
X133882142Y-77871485D01*
X134453571Y-77204819D02*
X134548809Y-77204819D01*
X134548809Y-77204819D02*
X134644047Y-77252438D01*
X134644047Y-77252438D02*
X134691666Y-77300057D01*
X134691666Y-77300057D02*
X134739285Y-77395295D01*
X134739285Y-77395295D02*
X134786904Y-77585771D01*
X134786904Y-77585771D02*
X134786904Y-77823866D01*
X134786904Y-77823866D02*
X134739285Y-78014342D01*
X134739285Y-78014342D02*
X134691666Y-78109580D01*
X134691666Y-78109580D02*
X134644047Y-78157200D01*
X134644047Y-78157200D02*
X134548809Y-78204819D01*
X134548809Y-78204819D02*
X134453571Y-78204819D01*
X134453571Y-78204819D02*
X134358333Y-78157200D01*
X134358333Y-78157200D02*
X134310714Y-78109580D01*
X134310714Y-78109580D02*
X134263095Y-78014342D01*
X134263095Y-78014342D02*
X134215476Y-77823866D01*
X134215476Y-77823866D02*
X134215476Y-77585771D01*
X134215476Y-77585771D02*
X134263095Y-77395295D01*
X134263095Y-77395295D02*
X134310714Y-77300057D01*
X134310714Y-77300057D02*
X134358333Y-77252438D01*
X134358333Y-77252438D02*
X134453571Y-77204819D01*
X165607142Y-58859580D02*
X165559523Y-58907200D01*
X165559523Y-58907200D02*
X165416666Y-58954819D01*
X165416666Y-58954819D02*
X165321428Y-58954819D01*
X165321428Y-58954819D02*
X165178571Y-58907200D01*
X165178571Y-58907200D02*
X165083333Y-58811961D01*
X165083333Y-58811961D02*
X165035714Y-58716723D01*
X165035714Y-58716723D02*
X164988095Y-58526247D01*
X164988095Y-58526247D02*
X164988095Y-58383390D01*
X164988095Y-58383390D02*
X165035714Y-58192914D01*
X165035714Y-58192914D02*
X165083333Y-58097676D01*
X165083333Y-58097676D02*
X165178571Y-58002438D01*
X165178571Y-58002438D02*
X165321428Y-57954819D01*
X165321428Y-57954819D02*
X165416666Y-57954819D01*
X165416666Y-57954819D02*
X165559523Y-58002438D01*
X165559523Y-58002438D02*
X165607142Y-58050057D01*
X166559523Y-58954819D02*
X165988095Y-58954819D01*
X166273809Y-58954819D02*
X166273809Y-57954819D01*
X166273809Y-57954819D02*
X166178571Y-58097676D01*
X166178571Y-58097676D02*
X166083333Y-58192914D01*
X166083333Y-58192914D02*
X165988095Y-58240533D01*
X167416666Y-57954819D02*
X167226190Y-57954819D01*
X167226190Y-57954819D02*
X167130952Y-58002438D01*
X167130952Y-58002438D02*
X167083333Y-58050057D01*
X167083333Y-58050057D02*
X166988095Y-58192914D01*
X166988095Y-58192914D02*
X166940476Y-58383390D01*
X166940476Y-58383390D02*
X166940476Y-58764342D01*
X166940476Y-58764342D02*
X166988095Y-58859580D01*
X166988095Y-58859580D02*
X167035714Y-58907200D01*
X167035714Y-58907200D02*
X167130952Y-58954819D01*
X167130952Y-58954819D02*
X167321428Y-58954819D01*
X167321428Y-58954819D02*
X167416666Y-58907200D01*
X167416666Y-58907200D02*
X167464285Y-58859580D01*
X167464285Y-58859580D02*
X167511904Y-58764342D01*
X167511904Y-58764342D02*
X167511904Y-58526247D01*
X167511904Y-58526247D02*
X167464285Y-58431009D01*
X167464285Y-58431009D02*
X167416666Y-58383390D01*
X167416666Y-58383390D02*
X167321428Y-58335771D01*
X167321428Y-58335771D02*
X167130952Y-58335771D01*
X167130952Y-58335771D02*
X167035714Y-58383390D01*
X167035714Y-58383390D02*
X166988095Y-58431009D01*
X166988095Y-58431009D02*
X166940476Y-58526247D01*
X143859580Y-88642857D02*
X143907200Y-88690476D01*
X143907200Y-88690476D02*
X143954819Y-88833333D01*
X143954819Y-88833333D02*
X143954819Y-88928571D01*
X143954819Y-88928571D02*
X143907200Y-89071428D01*
X143907200Y-89071428D02*
X143811961Y-89166666D01*
X143811961Y-89166666D02*
X143716723Y-89214285D01*
X143716723Y-89214285D02*
X143526247Y-89261904D01*
X143526247Y-89261904D02*
X143383390Y-89261904D01*
X143383390Y-89261904D02*
X143192914Y-89214285D01*
X143192914Y-89214285D02*
X143097676Y-89166666D01*
X143097676Y-89166666D02*
X143002438Y-89071428D01*
X143002438Y-89071428D02*
X142954819Y-88928571D01*
X142954819Y-88928571D02*
X142954819Y-88833333D01*
X142954819Y-88833333D02*
X143002438Y-88690476D01*
X143002438Y-88690476D02*
X143050057Y-88642857D01*
X143288152Y-87785714D02*
X143954819Y-87785714D01*
X142907200Y-88023809D02*
X143621485Y-88261904D01*
X143621485Y-88261904D02*
X143621485Y-87642857D01*
X143954819Y-87214285D02*
X143954819Y-87023809D01*
X143954819Y-87023809D02*
X143907200Y-86928571D01*
X143907200Y-86928571D02*
X143859580Y-86880952D01*
X143859580Y-86880952D02*
X143716723Y-86785714D01*
X143716723Y-86785714D02*
X143526247Y-86738095D01*
X143526247Y-86738095D02*
X143145295Y-86738095D01*
X143145295Y-86738095D02*
X143050057Y-86785714D01*
X143050057Y-86785714D02*
X143002438Y-86833333D01*
X143002438Y-86833333D02*
X142954819Y-86928571D01*
X142954819Y-86928571D02*
X142954819Y-87119047D01*
X142954819Y-87119047D02*
X143002438Y-87214285D01*
X143002438Y-87214285D02*
X143050057Y-87261904D01*
X143050057Y-87261904D02*
X143145295Y-87309523D01*
X143145295Y-87309523D02*
X143383390Y-87309523D01*
X143383390Y-87309523D02*
X143478628Y-87261904D01*
X143478628Y-87261904D02*
X143526247Y-87214285D01*
X143526247Y-87214285D02*
X143573866Y-87119047D01*
X143573866Y-87119047D02*
X143573866Y-86928571D01*
X143573866Y-86928571D02*
X143526247Y-86833333D01*
X143526247Y-86833333D02*
X143478628Y-86785714D01*
X143478628Y-86785714D02*
X143383390Y-86738095D01*
X165291169Y-75299693D02*
X165223825Y-75299693D01*
X165223825Y-75299693D02*
X165089138Y-75232349D01*
X165089138Y-75232349D02*
X165021795Y-75165006D01*
X165021795Y-75165006D02*
X164954451Y-75030319D01*
X164954451Y-75030319D02*
X164954451Y-74895632D01*
X164954451Y-74895632D02*
X164988123Y-74794617D01*
X164988123Y-74794617D02*
X165089138Y-74626258D01*
X165089138Y-74626258D02*
X165190153Y-74525243D01*
X165190153Y-74525243D02*
X165358512Y-74424227D01*
X165358512Y-74424227D02*
X165459527Y-74390556D01*
X165459527Y-74390556D02*
X165594214Y-74390556D01*
X165594214Y-74390556D02*
X165728901Y-74457899D01*
X165728901Y-74457899D02*
X165796245Y-74525243D01*
X165796245Y-74525243D02*
X165863588Y-74659930D01*
X165863588Y-74659930D02*
X165863588Y-74727273D01*
X166166634Y-74895632D02*
X166604367Y-75333365D01*
X166604367Y-75333365D02*
X166099291Y-75367036D01*
X166099291Y-75367036D02*
X166200306Y-75468052D01*
X166200306Y-75468052D02*
X166233978Y-75569067D01*
X166233978Y-75569067D02*
X166233978Y-75636410D01*
X166233978Y-75636410D02*
X166200306Y-75737426D01*
X166200306Y-75737426D02*
X166031947Y-75905784D01*
X166031947Y-75905784D02*
X165930932Y-75939456D01*
X165930932Y-75939456D02*
X165863588Y-75939456D01*
X165863588Y-75939456D02*
X165762573Y-75905784D01*
X165762573Y-75905784D02*
X165560543Y-75703754D01*
X165560543Y-75703754D02*
X165526871Y-75602739D01*
X165526871Y-75602739D02*
X165526871Y-75535395D01*
X167244130Y-75973128D02*
X166907413Y-75636410D01*
X166907413Y-75636410D02*
X166537024Y-75939456D01*
X166537024Y-75939456D02*
X166604367Y-75939456D01*
X166604367Y-75939456D02*
X166705382Y-75973128D01*
X166705382Y-75973128D02*
X166873741Y-76141487D01*
X166873741Y-76141487D02*
X166907413Y-76242502D01*
X166907413Y-76242502D02*
X166907413Y-76309846D01*
X166907413Y-76309846D02*
X166873741Y-76410861D01*
X166873741Y-76410861D02*
X166705382Y-76579220D01*
X166705382Y-76579220D02*
X166604367Y-76612891D01*
X166604367Y-76612891D02*
X166537024Y-76612891D01*
X166537024Y-76612891D02*
X166436008Y-76579220D01*
X166436008Y-76579220D02*
X166267650Y-76410861D01*
X166267650Y-76410861D02*
X166233978Y-76309846D01*
X166233978Y-76309846D02*
X166233978Y-76242502D01*
X139504819Y-83061904D02*
X140314342Y-83061904D01*
X140314342Y-83061904D02*
X140409580Y-83014285D01*
X140409580Y-83014285D02*
X140457200Y-82966666D01*
X140457200Y-82966666D02*
X140504819Y-82871428D01*
X140504819Y-82871428D02*
X140504819Y-82680952D01*
X140504819Y-82680952D02*
X140457200Y-82585714D01*
X140457200Y-82585714D02*
X140409580Y-82538095D01*
X140409580Y-82538095D02*
X140314342Y-82490476D01*
X140314342Y-82490476D02*
X139504819Y-82490476D01*
X140504819Y-81966666D02*
X140504819Y-81776190D01*
X140504819Y-81776190D02*
X140457200Y-81680952D01*
X140457200Y-81680952D02*
X140409580Y-81633333D01*
X140409580Y-81633333D02*
X140266723Y-81538095D01*
X140266723Y-81538095D02*
X140076247Y-81490476D01*
X140076247Y-81490476D02*
X139695295Y-81490476D01*
X139695295Y-81490476D02*
X139600057Y-81538095D01*
X139600057Y-81538095D02*
X139552438Y-81585714D01*
X139552438Y-81585714D02*
X139504819Y-81680952D01*
X139504819Y-81680952D02*
X139504819Y-81871428D01*
X139504819Y-81871428D02*
X139552438Y-81966666D01*
X139552438Y-81966666D02*
X139600057Y-82014285D01*
X139600057Y-82014285D02*
X139695295Y-82061904D01*
X139695295Y-82061904D02*
X139933390Y-82061904D01*
X139933390Y-82061904D02*
X140028628Y-82014285D01*
X140028628Y-82014285D02*
X140076247Y-81966666D01*
X140076247Y-81966666D02*
X140123866Y-81871428D01*
X140123866Y-81871428D02*
X140123866Y-81680952D01*
X140123866Y-81680952D02*
X140076247Y-81585714D01*
X140076247Y-81585714D02*
X140028628Y-81538095D01*
X140028628Y-81538095D02*
X139933390Y-81490476D01*
X167357142Y-93359580D02*
X167309523Y-93407200D01*
X167309523Y-93407200D02*
X167166666Y-93454819D01*
X167166666Y-93454819D02*
X167071428Y-93454819D01*
X167071428Y-93454819D02*
X166928571Y-93407200D01*
X166928571Y-93407200D02*
X166833333Y-93311961D01*
X166833333Y-93311961D02*
X166785714Y-93216723D01*
X166785714Y-93216723D02*
X166738095Y-93026247D01*
X166738095Y-93026247D02*
X166738095Y-92883390D01*
X166738095Y-92883390D02*
X166785714Y-92692914D01*
X166785714Y-92692914D02*
X166833333Y-92597676D01*
X166833333Y-92597676D02*
X166928571Y-92502438D01*
X166928571Y-92502438D02*
X167071428Y-92454819D01*
X167071428Y-92454819D02*
X167166666Y-92454819D01*
X167166666Y-92454819D02*
X167309523Y-92502438D01*
X167309523Y-92502438D02*
X167357142Y-92550057D01*
X167738095Y-92550057D02*
X167785714Y-92502438D01*
X167785714Y-92502438D02*
X167880952Y-92454819D01*
X167880952Y-92454819D02*
X168119047Y-92454819D01*
X168119047Y-92454819D02*
X168214285Y-92502438D01*
X168214285Y-92502438D02*
X168261904Y-92550057D01*
X168261904Y-92550057D02*
X168309523Y-92645295D01*
X168309523Y-92645295D02*
X168309523Y-92740533D01*
X168309523Y-92740533D02*
X168261904Y-92883390D01*
X168261904Y-92883390D02*
X167690476Y-93454819D01*
X167690476Y-93454819D02*
X168309523Y-93454819D01*
X168642857Y-92454819D02*
X169261904Y-92454819D01*
X169261904Y-92454819D02*
X168928571Y-92835771D01*
X168928571Y-92835771D02*
X169071428Y-92835771D01*
X169071428Y-92835771D02*
X169166666Y-92883390D01*
X169166666Y-92883390D02*
X169214285Y-92931009D01*
X169214285Y-92931009D02*
X169261904Y-93026247D01*
X169261904Y-93026247D02*
X169261904Y-93264342D01*
X169261904Y-93264342D02*
X169214285Y-93359580D01*
X169214285Y-93359580D02*
X169166666Y-93407200D01*
X169166666Y-93407200D02*
X169071428Y-93454819D01*
X169071428Y-93454819D02*
X168785714Y-93454819D01*
X168785714Y-93454819D02*
X168690476Y-93407200D01*
X168690476Y-93407200D02*
X168642857Y-93359580D01*
X187857142Y-89204819D02*
X187523809Y-88728628D01*
X187285714Y-89204819D02*
X187285714Y-88204819D01*
X187285714Y-88204819D02*
X187666666Y-88204819D01*
X187666666Y-88204819D02*
X187761904Y-88252438D01*
X187761904Y-88252438D02*
X187809523Y-88300057D01*
X187809523Y-88300057D02*
X187857142Y-88395295D01*
X187857142Y-88395295D02*
X187857142Y-88538152D01*
X187857142Y-88538152D02*
X187809523Y-88633390D01*
X187809523Y-88633390D02*
X187761904Y-88681009D01*
X187761904Y-88681009D02*
X187666666Y-88728628D01*
X187666666Y-88728628D02*
X187285714Y-88728628D01*
X188809523Y-89204819D02*
X188238095Y-89204819D01*
X188523809Y-89204819D02*
X188523809Y-88204819D01*
X188523809Y-88204819D02*
X188428571Y-88347676D01*
X188428571Y-88347676D02*
X188333333Y-88442914D01*
X188333333Y-88442914D02*
X188238095Y-88490533D01*
X189142857Y-88204819D02*
X189761904Y-88204819D01*
X189761904Y-88204819D02*
X189428571Y-88585771D01*
X189428571Y-88585771D02*
X189571428Y-88585771D01*
X189571428Y-88585771D02*
X189666666Y-88633390D01*
X189666666Y-88633390D02*
X189714285Y-88681009D01*
X189714285Y-88681009D02*
X189761904Y-88776247D01*
X189761904Y-88776247D02*
X189761904Y-89014342D01*
X189761904Y-89014342D02*
X189714285Y-89109580D01*
X189714285Y-89109580D02*
X189666666Y-89157200D01*
X189666666Y-89157200D02*
X189571428Y-89204819D01*
X189571428Y-89204819D02*
X189285714Y-89204819D01*
X189285714Y-89204819D02*
X189190476Y-89157200D01*
X189190476Y-89157200D02*
X189142857Y-89109580D01*
X175583333Y-91109580D02*
X175535714Y-91157200D01*
X175535714Y-91157200D02*
X175392857Y-91204819D01*
X175392857Y-91204819D02*
X175297619Y-91204819D01*
X175297619Y-91204819D02*
X175154762Y-91157200D01*
X175154762Y-91157200D02*
X175059524Y-91061961D01*
X175059524Y-91061961D02*
X175011905Y-90966723D01*
X175011905Y-90966723D02*
X174964286Y-90776247D01*
X174964286Y-90776247D02*
X174964286Y-90633390D01*
X174964286Y-90633390D02*
X175011905Y-90442914D01*
X175011905Y-90442914D02*
X175059524Y-90347676D01*
X175059524Y-90347676D02*
X175154762Y-90252438D01*
X175154762Y-90252438D02*
X175297619Y-90204819D01*
X175297619Y-90204819D02*
X175392857Y-90204819D01*
X175392857Y-90204819D02*
X175535714Y-90252438D01*
X175535714Y-90252438D02*
X175583333Y-90300057D01*
X176535714Y-91204819D02*
X175964286Y-91204819D01*
X176250000Y-91204819D02*
X176250000Y-90204819D01*
X176250000Y-90204819D02*
X176154762Y-90347676D01*
X176154762Y-90347676D02*
X176059524Y-90442914D01*
X176059524Y-90442914D02*
X175964286Y-90490533D01*
X202731666Y-71144819D02*
X202731666Y-71859104D01*
X202731666Y-71859104D02*
X202684047Y-72001961D01*
X202684047Y-72001961D02*
X202588809Y-72097200D01*
X202588809Y-72097200D02*
X202445952Y-72144819D01*
X202445952Y-72144819D02*
X202350714Y-72144819D01*
X203636428Y-71478152D02*
X203636428Y-72144819D01*
X203398333Y-71097200D02*
X203160238Y-71811485D01*
X203160238Y-71811485D02*
X203779285Y-71811485D01*
X156704819Y-71738094D02*
X155704819Y-71738094D01*
X155704819Y-71738094D02*
X155704819Y-71499999D01*
X155704819Y-71499999D02*
X155752438Y-71357142D01*
X155752438Y-71357142D02*
X155847676Y-71261904D01*
X155847676Y-71261904D02*
X155942914Y-71214285D01*
X155942914Y-71214285D02*
X156133390Y-71166666D01*
X156133390Y-71166666D02*
X156276247Y-71166666D01*
X156276247Y-71166666D02*
X156466723Y-71214285D01*
X156466723Y-71214285D02*
X156561961Y-71261904D01*
X156561961Y-71261904D02*
X156657200Y-71357142D01*
X156657200Y-71357142D02*
X156704819Y-71499999D01*
X156704819Y-71499999D02*
X156704819Y-71738094D01*
X155704819Y-70833332D02*
X155704819Y-70214285D01*
X155704819Y-70214285D02*
X156085771Y-70547618D01*
X156085771Y-70547618D02*
X156085771Y-70404761D01*
X156085771Y-70404761D02*
X156133390Y-70309523D01*
X156133390Y-70309523D02*
X156181009Y-70261904D01*
X156181009Y-70261904D02*
X156276247Y-70214285D01*
X156276247Y-70214285D02*
X156514342Y-70214285D01*
X156514342Y-70214285D02*
X156609580Y-70261904D01*
X156609580Y-70261904D02*
X156657200Y-70309523D01*
X156657200Y-70309523D02*
X156704819Y-70404761D01*
X156704819Y-70404761D02*
X156704819Y-70690475D01*
X156704819Y-70690475D02*
X156657200Y-70785713D01*
X156657200Y-70785713D02*
X156609580Y-70833332D01*
X199454819Y-65333333D02*
X200169104Y-65333333D01*
X200169104Y-65333333D02*
X200311961Y-65380952D01*
X200311961Y-65380952D02*
X200407200Y-65476190D01*
X200407200Y-65476190D02*
X200454819Y-65619047D01*
X200454819Y-65619047D02*
X200454819Y-65714285D01*
X199454819Y-64428571D02*
X199454819Y-64619047D01*
X199454819Y-64619047D02*
X199502438Y-64714285D01*
X199502438Y-64714285D02*
X199550057Y-64761904D01*
X199550057Y-64761904D02*
X199692914Y-64857142D01*
X199692914Y-64857142D02*
X199883390Y-64904761D01*
X199883390Y-64904761D02*
X200264342Y-64904761D01*
X200264342Y-64904761D02*
X200359580Y-64857142D01*
X200359580Y-64857142D02*
X200407200Y-64809523D01*
X200407200Y-64809523D02*
X200454819Y-64714285D01*
X200454819Y-64714285D02*
X200454819Y-64523809D01*
X200454819Y-64523809D02*
X200407200Y-64428571D01*
X200407200Y-64428571D02*
X200359580Y-64380952D01*
X200359580Y-64380952D02*
X200264342Y-64333333D01*
X200264342Y-64333333D02*
X200026247Y-64333333D01*
X200026247Y-64333333D02*
X199931009Y-64380952D01*
X199931009Y-64380952D02*
X199883390Y-64428571D01*
X199883390Y-64428571D02*
X199835771Y-64523809D01*
X199835771Y-64523809D02*
X199835771Y-64714285D01*
X199835771Y-64714285D02*
X199883390Y-64809523D01*
X199883390Y-64809523D02*
X199931009Y-64857142D01*
X199931009Y-64857142D02*
X200026247Y-64904761D01*
X132857142Y-75609580D02*
X132809523Y-75657200D01*
X132809523Y-75657200D02*
X132666666Y-75704819D01*
X132666666Y-75704819D02*
X132571428Y-75704819D01*
X132571428Y-75704819D02*
X132428571Y-75657200D01*
X132428571Y-75657200D02*
X132333333Y-75561961D01*
X132333333Y-75561961D02*
X132285714Y-75466723D01*
X132285714Y-75466723D02*
X132238095Y-75276247D01*
X132238095Y-75276247D02*
X132238095Y-75133390D01*
X132238095Y-75133390D02*
X132285714Y-74942914D01*
X132285714Y-74942914D02*
X132333333Y-74847676D01*
X132333333Y-74847676D02*
X132428571Y-74752438D01*
X132428571Y-74752438D02*
X132571428Y-74704819D01*
X132571428Y-74704819D02*
X132666666Y-74704819D01*
X132666666Y-74704819D02*
X132809523Y-74752438D01*
X132809523Y-74752438D02*
X132857142Y-74800057D01*
X133714285Y-75038152D02*
X133714285Y-75704819D01*
X133476190Y-74657200D02*
X133238095Y-75371485D01*
X133238095Y-75371485D02*
X133857142Y-75371485D01*
X134142857Y-74704819D02*
X134809523Y-74704819D01*
X134809523Y-74704819D02*
X134380952Y-75704819D01*
X190107142Y-69109580D02*
X190059523Y-69157200D01*
X190059523Y-69157200D02*
X189916666Y-69204819D01*
X189916666Y-69204819D02*
X189821428Y-69204819D01*
X189821428Y-69204819D02*
X189678571Y-69157200D01*
X189678571Y-69157200D02*
X189583333Y-69061961D01*
X189583333Y-69061961D02*
X189535714Y-68966723D01*
X189535714Y-68966723D02*
X189488095Y-68776247D01*
X189488095Y-68776247D02*
X189488095Y-68633390D01*
X189488095Y-68633390D02*
X189535714Y-68442914D01*
X189535714Y-68442914D02*
X189583333Y-68347676D01*
X189583333Y-68347676D02*
X189678571Y-68252438D01*
X189678571Y-68252438D02*
X189821428Y-68204819D01*
X189821428Y-68204819D02*
X189916666Y-68204819D01*
X189916666Y-68204819D02*
X190059523Y-68252438D01*
X190059523Y-68252438D02*
X190107142Y-68300057D01*
X190440476Y-68204819D02*
X191059523Y-68204819D01*
X191059523Y-68204819D02*
X190726190Y-68585771D01*
X190726190Y-68585771D02*
X190869047Y-68585771D01*
X190869047Y-68585771D02*
X190964285Y-68633390D01*
X190964285Y-68633390D02*
X191011904Y-68681009D01*
X191011904Y-68681009D02*
X191059523Y-68776247D01*
X191059523Y-68776247D02*
X191059523Y-69014342D01*
X191059523Y-69014342D02*
X191011904Y-69109580D01*
X191011904Y-69109580D02*
X190964285Y-69157200D01*
X190964285Y-69157200D02*
X190869047Y-69204819D01*
X190869047Y-69204819D02*
X190583333Y-69204819D01*
X190583333Y-69204819D02*
X190488095Y-69157200D01*
X190488095Y-69157200D02*
X190440476Y-69109580D01*
X191535714Y-69204819D02*
X191726190Y-69204819D01*
X191726190Y-69204819D02*
X191821428Y-69157200D01*
X191821428Y-69157200D02*
X191869047Y-69109580D01*
X191869047Y-69109580D02*
X191964285Y-68966723D01*
X191964285Y-68966723D02*
X192011904Y-68776247D01*
X192011904Y-68776247D02*
X192011904Y-68395295D01*
X192011904Y-68395295D02*
X191964285Y-68300057D01*
X191964285Y-68300057D02*
X191916666Y-68252438D01*
X191916666Y-68252438D02*
X191821428Y-68204819D01*
X191821428Y-68204819D02*
X191630952Y-68204819D01*
X191630952Y-68204819D02*
X191535714Y-68252438D01*
X191535714Y-68252438D02*
X191488095Y-68300057D01*
X191488095Y-68300057D02*
X191440476Y-68395295D01*
X191440476Y-68395295D02*
X191440476Y-68633390D01*
X191440476Y-68633390D02*
X191488095Y-68728628D01*
X191488095Y-68728628D02*
X191535714Y-68776247D01*
X191535714Y-68776247D02*
X191630952Y-68823866D01*
X191630952Y-68823866D02*
X191821428Y-68823866D01*
X191821428Y-68823866D02*
X191916666Y-68776247D01*
X191916666Y-68776247D02*
X191964285Y-68728628D01*
X191964285Y-68728628D02*
X192011904Y-68633390D01*
X135204819Y-83042857D02*
X134728628Y-83376190D01*
X135204819Y-83614285D02*
X134204819Y-83614285D01*
X134204819Y-83614285D02*
X134204819Y-83233333D01*
X134204819Y-83233333D02*
X134252438Y-83138095D01*
X134252438Y-83138095D02*
X134300057Y-83090476D01*
X134300057Y-83090476D02*
X134395295Y-83042857D01*
X134395295Y-83042857D02*
X134538152Y-83042857D01*
X134538152Y-83042857D02*
X134633390Y-83090476D01*
X134633390Y-83090476D02*
X134681009Y-83138095D01*
X134681009Y-83138095D02*
X134728628Y-83233333D01*
X134728628Y-83233333D02*
X134728628Y-83614285D01*
X134300057Y-82661904D02*
X134252438Y-82614285D01*
X134252438Y-82614285D02*
X134204819Y-82519047D01*
X134204819Y-82519047D02*
X134204819Y-82280952D01*
X134204819Y-82280952D02*
X134252438Y-82185714D01*
X134252438Y-82185714D02*
X134300057Y-82138095D01*
X134300057Y-82138095D02*
X134395295Y-82090476D01*
X134395295Y-82090476D02*
X134490533Y-82090476D01*
X134490533Y-82090476D02*
X134633390Y-82138095D01*
X134633390Y-82138095D02*
X135204819Y-82709523D01*
X135204819Y-82709523D02*
X135204819Y-82090476D01*
X134204819Y-81757142D02*
X134204819Y-81090476D01*
X134204819Y-81090476D02*
X135204819Y-81519047D01*
X164607142Y-84859580D02*
X164559523Y-84907200D01*
X164559523Y-84907200D02*
X164416666Y-84954819D01*
X164416666Y-84954819D02*
X164321428Y-84954819D01*
X164321428Y-84954819D02*
X164178571Y-84907200D01*
X164178571Y-84907200D02*
X164083333Y-84811961D01*
X164083333Y-84811961D02*
X164035714Y-84716723D01*
X164035714Y-84716723D02*
X163988095Y-84526247D01*
X163988095Y-84526247D02*
X163988095Y-84383390D01*
X163988095Y-84383390D02*
X164035714Y-84192914D01*
X164035714Y-84192914D02*
X164083333Y-84097676D01*
X164083333Y-84097676D02*
X164178571Y-84002438D01*
X164178571Y-84002438D02*
X164321428Y-83954819D01*
X164321428Y-83954819D02*
X164416666Y-83954819D01*
X164416666Y-83954819D02*
X164559523Y-84002438D01*
X164559523Y-84002438D02*
X164607142Y-84050057D01*
X164940476Y-83954819D02*
X165559523Y-83954819D01*
X165559523Y-83954819D02*
X165226190Y-84335771D01*
X165226190Y-84335771D02*
X165369047Y-84335771D01*
X165369047Y-84335771D02*
X165464285Y-84383390D01*
X165464285Y-84383390D02*
X165511904Y-84431009D01*
X165511904Y-84431009D02*
X165559523Y-84526247D01*
X165559523Y-84526247D02*
X165559523Y-84764342D01*
X165559523Y-84764342D02*
X165511904Y-84859580D01*
X165511904Y-84859580D02*
X165464285Y-84907200D01*
X165464285Y-84907200D02*
X165369047Y-84954819D01*
X165369047Y-84954819D02*
X165083333Y-84954819D01*
X165083333Y-84954819D02*
X164988095Y-84907200D01*
X164988095Y-84907200D02*
X164940476Y-84859580D01*
X166130952Y-84383390D02*
X166035714Y-84335771D01*
X166035714Y-84335771D02*
X165988095Y-84288152D01*
X165988095Y-84288152D02*
X165940476Y-84192914D01*
X165940476Y-84192914D02*
X165940476Y-84145295D01*
X165940476Y-84145295D02*
X165988095Y-84050057D01*
X165988095Y-84050057D02*
X166035714Y-84002438D01*
X166035714Y-84002438D02*
X166130952Y-83954819D01*
X166130952Y-83954819D02*
X166321428Y-83954819D01*
X166321428Y-83954819D02*
X166416666Y-84002438D01*
X166416666Y-84002438D02*
X166464285Y-84050057D01*
X166464285Y-84050057D02*
X166511904Y-84145295D01*
X166511904Y-84145295D02*
X166511904Y-84192914D01*
X166511904Y-84192914D02*
X166464285Y-84288152D01*
X166464285Y-84288152D02*
X166416666Y-84335771D01*
X166416666Y-84335771D02*
X166321428Y-84383390D01*
X166321428Y-84383390D02*
X166130952Y-84383390D01*
X166130952Y-84383390D02*
X166035714Y-84431009D01*
X166035714Y-84431009D02*
X165988095Y-84478628D01*
X165988095Y-84478628D02*
X165940476Y-84573866D01*
X165940476Y-84573866D02*
X165940476Y-84764342D01*
X165940476Y-84764342D02*
X165988095Y-84859580D01*
X165988095Y-84859580D02*
X166035714Y-84907200D01*
X166035714Y-84907200D02*
X166130952Y-84954819D01*
X166130952Y-84954819D02*
X166321428Y-84954819D01*
X166321428Y-84954819D02*
X166416666Y-84907200D01*
X166416666Y-84907200D02*
X166464285Y-84859580D01*
X166464285Y-84859580D02*
X166511904Y-84764342D01*
X166511904Y-84764342D02*
X166511904Y-84573866D01*
X166511904Y-84573866D02*
X166464285Y-84478628D01*
X166464285Y-84478628D02*
X166416666Y-84431009D01*
X166416666Y-84431009D02*
X166321428Y-84383390D01*
X183857142Y-64954819D02*
X183523809Y-64478628D01*
X183285714Y-64954819D02*
X183285714Y-63954819D01*
X183285714Y-63954819D02*
X183666666Y-63954819D01*
X183666666Y-63954819D02*
X183761904Y-64002438D01*
X183761904Y-64002438D02*
X183809523Y-64050057D01*
X183809523Y-64050057D02*
X183857142Y-64145295D01*
X183857142Y-64145295D02*
X183857142Y-64288152D01*
X183857142Y-64288152D02*
X183809523Y-64383390D01*
X183809523Y-64383390D02*
X183761904Y-64431009D01*
X183761904Y-64431009D02*
X183666666Y-64478628D01*
X183666666Y-64478628D02*
X183285714Y-64478628D01*
X184238095Y-64050057D02*
X184285714Y-64002438D01*
X184285714Y-64002438D02*
X184380952Y-63954819D01*
X184380952Y-63954819D02*
X184619047Y-63954819D01*
X184619047Y-63954819D02*
X184714285Y-64002438D01*
X184714285Y-64002438D02*
X184761904Y-64050057D01*
X184761904Y-64050057D02*
X184809523Y-64145295D01*
X184809523Y-64145295D02*
X184809523Y-64240533D01*
X184809523Y-64240533D02*
X184761904Y-64383390D01*
X184761904Y-64383390D02*
X184190476Y-64954819D01*
X184190476Y-64954819D02*
X184809523Y-64954819D01*
X185428571Y-63954819D02*
X185523809Y-63954819D01*
X185523809Y-63954819D02*
X185619047Y-64002438D01*
X185619047Y-64002438D02*
X185666666Y-64050057D01*
X185666666Y-64050057D02*
X185714285Y-64145295D01*
X185714285Y-64145295D02*
X185761904Y-64335771D01*
X185761904Y-64335771D02*
X185761904Y-64573866D01*
X185761904Y-64573866D02*
X185714285Y-64764342D01*
X185714285Y-64764342D02*
X185666666Y-64859580D01*
X185666666Y-64859580D02*
X185619047Y-64907200D01*
X185619047Y-64907200D02*
X185523809Y-64954819D01*
X185523809Y-64954819D02*
X185428571Y-64954819D01*
X185428571Y-64954819D02*
X185333333Y-64907200D01*
X185333333Y-64907200D02*
X185285714Y-64859580D01*
X185285714Y-64859580D02*
X185238095Y-64764342D01*
X185238095Y-64764342D02*
X185190476Y-64573866D01*
X185190476Y-64573866D02*
X185190476Y-64335771D01*
X185190476Y-64335771D02*
X185238095Y-64145295D01*
X185238095Y-64145295D02*
X185285714Y-64050057D01*
X185285714Y-64050057D02*
X185333333Y-64002438D01*
X185333333Y-64002438D02*
X185428571Y-63954819D01*
X158359580Y-63892857D02*
X158407200Y-63940476D01*
X158407200Y-63940476D02*
X158454819Y-64083333D01*
X158454819Y-64083333D02*
X158454819Y-64178571D01*
X158454819Y-64178571D02*
X158407200Y-64321428D01*
X158407200Y-64321428D02*
X158311961Y-64416666D01*
X158311961Y-64416666D02*
X158216723Y-64464285D01*
X158216723Y-64464285D02*
X158026247Y-64511904D01*
X158026247Y-64511904D02*
X157883390Y-64511904D01*
X157883390Y-64511904D02*
X157692914Y-64464285D01*
X157692914Y-64464285D02*
X157597676Y-64416666D01*
X157597676Y-64416666D02*
X157502438Y-64321428D01*
X157502438Y-64321428D02*
X157454819Y-64178571D01*
X157454819Y-64178571D02*
X157454819Y-64083333D01*
X157454819Y-64083333D02*
X157502438Y-63940476D01*
X157502438Y-63940476D02*
X157550057Y-63892857D01*
X158454819Y-62940476D02*
X158454819Y-63511904D01*
X158454819Y-63226190D02*
X157454819Y-63226190D01*
X157454819Y-63226190D02*
X157597676Y-63321428D01*
X157597676Y-63321428D02*
X157692914Y-63416666D01*
X157692914Y-63416666D02*
X157740533Y-63511904D01*
X157550057Y-62559523D02*
X157502438Y-62511904D01*
X157502438Y-62511904D02*
X157454819Y-62416666D01*
X157454819Y-62416666D02*
X157454819Y-62178571D01*
X157454819Y-62178571D02*
X157502438Y-62083333D01*
X157502438Y-62083333D02*
X157550057Y-62035714D01*
X157550057Y-62035714D02*
X157645295Y-61988095D01*
X157645295Y-61988095D02*
X157740533Y-61988095D01*
X157740533Y-61988095D02*
X157883390Y-62035714D01*
X157883390Y-62035714D02*
X158454819Y-62607142D01*
X158454819Y-62607142D02*
X158454819Y-61988095D01*
X147357142Y-78609580D02*
X147309523Y-78657200D01*
X147309523Y-78657200D02*
X147166666Y-78704819D01*
X147166666Y-78704819D02*
X147071428Y-78704819D01*
X147071428Y-78704819D02*
X146928571Y-78657200D01*
X146928571Y-78657200D02*
X146833333Y-78561961D01*
X146833333Y-78561961D02*
X146785714Y-78466723D01*
X146785714Y-78466723D02*
X146738095Y-78276247D01*
X146738095Y-78276247D02*
X146738095Y-78133390D01*
X146738095Y-78133390D02*
X146785714Y-77942914D01*
X146785714Y-77942914D02*
X146833333Y-77847676D01*
X146833333Y-77847676D02*
X146928571Y-77752438D01*
X146928571Y-77752438D02*
X147071428Y-77704819D01*
X147071428Y-77704819D02*
X147166666Y-77704819D01*
X147166666Y-77704819D02*
X147309523Y-77752438D01*
X147309523Y-77752438D02*
X147357142Y-77800057D01*
X148309523Y-78704819D02*
X147738095Y-78704819D01*
X148023809Y-78704819D02*
X148023809Y-77704819D01*
X148023809Y-77704819D02*
X147928571Y-77847676D01*
X147928571Y-77847676D02*
X147833333Y-77942914D01*
X147833333Y-77942914D02*
X147738095Y-77990533D01*
X148880952Y-78133390D02*
X148785714Y-78085771D01*
X148785714Y-78085771D02*
X148738095Y-78038152D01*
X148738095Y-78038152D02*
X148690476Y-77942914D01*
X148690476Y-77942914D02*
X148690476Y-77895295D01*
X148690476Y-77895295D02*
X148738095Y-77800057D01*
X148738095Y-77800057D02*
X148785714Y-77752438D01*
X148785714Y-77752438D02*
X148880952Y-77704819D01*
X148880952Y-77704819D02*
X149071428Y-77704819D01*
X149071428Y-77704819D02*
X149166666Y-77752438D01*
X149166666Y-77752438D02*
X149214285Y-77800057D01*
X149214285Y-77800057D02*
X149261904Y-77895295D01*
X149261904Y-77895295D02*
X149261904Y-77942914D01*
X149261904Y-77942914D02*
X149214285Y-78038152D01*
X149214285Y-78038152D02*
X149166666Y-78085771D01*
X149166666Y-78085771D02*
X149071428Y-78133390D01*
X149071428Y-78133390D02*
X148880952Y-78133390D01*
X148880952Y-78133390D02*
X148785714Y-78181009D01*
X148785714Y-78181009D02*
X148738095Y-78228628D01*
X148738095Y-78228628D02*
X148690476Y-78323866D01*
X148690476Y-78323866D02*
X148690476Y-78514342D01*
X148690476Y-78514342D02*
X148738095Y-78609580D01*
X148738095Y-78609580D02*
X148785714Y-78657200D01*
X148785714Y-78657200D02*
X148880952Y-78704819D01*
X148880952Y-78704819D02*
X149071428Y-78704819D01*
X149071428Y-78704819D02*
X149166666Y-78657200D01*
X149166666Y-78657200D02*
X149214285Y-78609580D01*
X149214285Y-78609580D02*
X149261904Y-78514342D01*
X149261904Y-78514342D02*
X149261904Y-78323866D01*
X149261904Y-78323866D02*
X149214285Y-78228628D01*
X149214285Y-78228628D02*
X149166666Y-78181009D01*
X149166666Y-78181009D02*
X149071428Y-78133390D01*
X168109580Y-62954257D02*
X168157200Y-63001876D01*
X168157200Y-63001876D02*
X168204819Y-63144733D01*
X168204819Y-63144733D02*
X168204819Y-63239971D01*
X168204819Y-63239971D02*
X168157200Y-63382828D01*
X168157200Y-63382828D02*
X168061961Y-63478066D01*
X168061961Y-63478066D02*
X167966723Y-63525685D01*
X167966723Y-63525685D02*
X167776247Y-63573304D01*
X167776247Y-63573304D02*
X167633390Y-63573304D01*
X167633390Y-63573304D02*
X167442914Y-63525685D01*
X167442914Y-63525685D02*
X167347676Y-63478066D01*
X167347676Y-63478066D02*
X167252438Y-63382828D01*
X167252438Y-63382828D02*
X167204819Y-63239971D01*
X167204819Y-63239971D02*
X167204819Y-63144733D01*
X167204819Y-63144733D02*
X167252438Y-63001876D01*
X167252438Y-63001876D02*
X167300057Y-62954257D01*
X168204819Y-62001876D02*
X168204819Y-62573304D01*
X168204819Y-62287590D02*
X167204819Y-62287590D01*
X167204819Y-62287590D02*
X167347676Y-62382828D01*
X167347676Y-62382828D02*
X167442914Y-62478066D01*
X167442914Y-62478066D02*
X167490533Y-62573304D01*
X167204819Y-61668542D02*
X167204819Y-61001876D01*
X167204819Y-61001876D02*
X168204819Y-61430447D01*
X178261905Y-83204819D02*
X178261905Y-82204819D01*
X178261905Y-82204819D02*
X178500000Y-82204819D01*
X178500000Y-82204819D02*
X178642857Y-82252438D01*
X178642857Y-82252438D02*
X178738095Y-82347676D01*
X178738095Y-82347676D02*
X178785714Y-82442914D01*
X178785714Y-82442914D02*
X178833333Y-82633390D01*
X178833333Y-82633390D02*
X178833333Y-82776247D01*
X178833333Y-82776247D02*
X178785714Y-82966723D01*
X178785714Y-82966723D02*
X178738095Y-83061961D01*
X178738095Y-83061961D02*
X178642857Y-83157200D01*
X178642857Y-83157200D02*
X178500000Y-83204819D01*
X178500000Y-83204819D02*
X178261905Y-83204819D01*
X179738095Y-82204819D02*
X179261905Y-82204819D01*
X179261905Y-82204819D02*
X179214286Y-82681009D01*
X179214286Y-82681009D02*
X179261905Y-82633390D01*
X179261905Y-82633390D02*
X179357143Y-82585771D01*
X179357143Y-82585771D02*
X179595238Y-82585771D01*
X179595238Y-82585771D02*
X179690476Y-82633390D01*
X179690476Y-82633390D02*
X179738095Y-82681009D01*
X179738095Y-82681009D02*
X179785714Y-82776247D01*
X179785714Y-82776247D02*
X179785714Y-83014342D01*
X179785714Y-83014342D02*
X179738095Y-83109580D01*
X179738095Y-83109580D02*
X179690476Y-83157200D01*
X179690476Y-83157200D02*
X179595238Y-83204819D01*
X179595238Y-83204819D02*
X179357143Y-83204819D01*
X179357143Y-83204819D02*
X179261905Y-83157200D01*
X179261905Y-83157200D02*
X179214286Y-83109580D01*
X134924819Y-88717857D02*
X134448628Y-89051190D01*
X134924819Y-89289285D02*
X133924819Y-89289285D01*
X133924819Y-89289285D02*
X133924819Y-88908333D01*
X133924819Y-88908333D02*
X133972438Y-88813095D01*
X133972438Y-88813095D02*
X134020057Y-88765476D01*
X134020057Y-88765476D02*
X134115295Y-88717857D01*
X134115295Y-88717857D02*
X134258152Y-88717857D01*
X134258152Y-88717857D02*
X134353390Y-88765476D01*
X134353390Y-88765476D02*
X134401009Y-88813095D01*
X134401009Y-88813095D02*
X134448628Y-88908333D01*
X134448628Y-88908333D02*
X134448628Y-89289285D01*
X134020057Y-88336904D02*
X133972438Y-88289285D01*
X133972438Y-88289285D02*
X133924819Y-88194047D01*
X133924819Y-88194047D02*
X133924819Y-87955952D01*
X133924819Y-87955952D02*
X133972438Y-87860714D01*
X133972438Y-87860714D02*
X134020057Y-87813095D01*
X134020057Y-87813095D02*
X134115295Y-87765476D01*
X134115295Y-87765476D02*
X134210533Y-87765476D01*
X134210533Y-87765476D02*
X134353390Y-87813095D01*
X134353390Y-87813095D02*
X134924819Y-88384523D01*
X134924819Y-88384523D02*
X134924819Y-87765476D01*
X133924819Y-86908333D02*
X133924819Y-87098809D01*
X133924819Y-87098809D02*
X133972438Y-87194047D01*
X133972438Y-87194047D02*
X134020057Y-87241666D01*
X134020057Y-87241666D02*
X134162914Y-87336904D01*
X134162914Y-87336904D02*
X134353390Y-87384523D01*
X134353390Y-87384523D02*
X134734342Y-87384523D01*
X134734342Y-87384523D02*
X134829580Y-87336904D01*
X134829580Y-87336904D02*
X134877200Y-87289285D01*
X134877200Y-87289285D02*
X134924819Y-87194047D01*
X134924819Y-87194047D02*
X134924819Y-87003571D01*
X134924819Y-87003571D02*
X134877200Y-86908333D01*
X134877200Y-86908333D02*
X134829580Y-86860714D01*
X134829580Y-86860714D02*
X134734342Y-86813095D01*
X134734342Y-86813095D02*
X134496247Y-86813095D01*
X134496247Y-86813095D02*
X134401009Y-86860714D01*
X134401009Y-86860714D02*
X134353390Y-86908333D01*
X134353390Y-86908333D02*
X134305771Y-87003571D01*
X134305771Y-87003571D02*
X134305771Y-87194047D01*
X134305771Y-87194047D02*
X134353390Y-87289285D01*
X134353390Y-87289285D02*
X134401009Y-87336904D01*
X134401009Y-87336904D02*
X134496247Y-87384523D01*
X151511905Y-59454819D02*
X151511905Y-58454819D01*
X151511905Y-58454819D02*
X151750000Y-58454819D01*
X151750000Y-58454819D02*
X151892857Y-58502438D01*
X151892857Y-58502438D02*
X151988095Y-58597676D01*
X151988095Y-58597676D02*
X152035714Y-58692914D01*
X152035714Y-58692914D02*
X152083333Y-58883390D01*
X152083333Y-58883390D02*
X152083333Y-59026247D01*
X152083333Y-59026247D02*
X152035714Y-59216723D01*
X152035714Y-59216723D02*
X151988095Y-59311961D01*
X151988095Y-59311961D02*
X151892857Y-59407200D01*
X151892857Y-59407200D02*
X151750000Y-59454819D01*
X151750000Y-59454819D02*
X151511905Y-59454819D01*
X153035714Y-59454819D02*
X152464286Y-59454819D01*
X152750000Y-59454819D02*
X152750000Y-58454819D01*
X152750000Y-58454819D02*
X152654762Y-58597676D01*
X152654762Y-58597676D02*
X152559524Y-58692914D01*
X152559524Y-58692914D02*
X152464286Y-58740533D01*
X187609580Y-77142857D02*
X187657200Y-77190476D01*
X187657200Y-77190476D02*
X187704819Y-77333333D01*
X187704819Y-77333333D02*
X187704819Y-77428571D01*
X187704819Y-77428571D02*
X187657200Y-77571428D01*
X187657200Y-77571428D02*
X187561961Y-77666666D01*
X187561961Y-77666666D02*
X187466723Y-77714285D01*
X187466723Y-77714285D02*
X187276247Y-77761904D01*
X187276247Y-77761904D02*
X187133390Y-77761904D01*
X187133390Y-77761904D02*
X186942914Y-77714285D01*
X186942914Y-77714285D02*
X186847676Y-77666666D01*
X186847676Y-77666666D02*
X186752438Y-77571428D01*
X186752438Y-77571428D02*
X186704819Y-77428571D01*
X186704819Y-77428571D02*
X186704819Y-77333333D01*
X186704819Y-77333333D02*
X186752438Y-77190476D01*
X186752438Y-77190476D02*
X186800057Y-77142857D01*
X186704819Y-76809523D02*
X186704819Y-76190476D01*
X186704819Y-76190476D02*
X187085771Y-76523809D01*
X187085771Y-76523809D02*
X187085771Y-76380952D01*
X187085771Y-76380952D02*
X187133390Y-76285714D01*
X187133390Y-76285714D02*
X187181009Y-76238095D01*
X187181009Y-76238095D02*
X187276247Y-76190476D01*
X187276247Y-76190476D02*
X187514342Y-76190476D01*
X187514342Y-76190476D02*
X187609580Y-76238095D01*
X187609580Y-76238095D02*
X187657200Y-76285714D01*
X187657200Y-76285714D02*
X187704819Y-76380952D01*
X187704819Y-76380952D02*
X187704819Y-76666666D01*
X187704819Y-76666666D02*
X187657200Y-76761904D01*
X187657200Y-76761904D02*
X187609580Y-76809523D01*
X186704819Y-75857142D02*
X186704819Y-75190476D01*
X186704819Y-75190476D02*
X187704819Y-75619047D01*
X193690476Y-104204819D02*
X193690476Y-104919104D01*
X193690476Y-104919104D02*
X193642857Y-105061961D01*
X193642857Y-105061961D02*
X193547619Y-105157200D01*
X193547619Y-105157200D02*
X193404762Y-105204819D01*
X193404762Y-105204819D02*
X193309524Y-105204819D01*
X194690476Y-105204819D02*
X194119048Y-105204819D01*
X194404762Y-105204819D02*
X194404762Y-104204819D01*
X194404762Y-104204819D02*
X194309524Y-104347676D01*
X194309524Y-104347676D02*
X194214286Y-104442914D01*
X194214286Y-104442914D02*
X194119048Y-104490533D01*
X195309524Y-104204819D02*
X195404762Y-104204819D01*
X195404762Y-104204819D02*
X195500000Y-104252438D01*
X195500000Y-104252438D02*
X195547619Y-104300057D01*
X195547619Y-104300057D02*
X195595238Y-104395295D01*
X195595238Y-104395295D02*
X195642857Y-104585771D01*
X195642857Y-104585771D02*
X195642857Y-104823866D01*
X195642857Y-104823866D02*
X195595238Y-105014342D01*
X195595238Y-105014342D02*
X195547619Y-105109580D01*
X195547619Y-105109580D02*
X195500000Y-105157200D01*
X195500000Y-105157200D02*
X195404762Y-105204819D01*
X195404762Y-105204819D02*
X195309524Y-105204819D01*
X195309524Y-105204819D02*
X195214286Y-105157200D01*
X195214286Y-105157200D02*
X195166667Y-105109580D01*
X195166667Y-105109580D02*
X195119048Y-105014342D01*
X195119048Y-105014342D02*
X195071429Y-104823866D01*
X195071429Y-104823866D02*
X195071429Y-104585771D01*
X195071429Y-104585771D02*
X195119048Y-104395295D01*
X195119048Y-104395295D02*
X195166667Y-104300057D01*
X195166667Y-104300057D02*
X195214286Y-104252438D01*
X195214286Y-104252438D02*
X195309524Y-104204819D01*
X181357142Y-84704819D02*
X181023809Y-84228628D01*
X180785714Y-84704819D02*
X180785714Y-83704819D01*
X180785714Y-83704819D02*
X181166666Y-83704819D01*
X181166666Y-83704819D02*
X181261904Y-83752438D01*
X181261904Y-83752438D02*
X181309523Y-83800057D01*
X181309523Y-83800057D02*
X181357142Y-83895295D01*
X181357142Y-83895295D02*
X181357142Y-84038152D01*
X181357142Y-84038152D02*
X181309523Y-84133390D01*
X181309523Y-84133390D02*
X181261904Y-84181009D01*
X181261904Y-84181009D02*
X181166666Y-84228628D01*
X181166666Y-84228628D02*
X180785714Y-84228628D01*
X181738095Y-83800057D02*
X181785714Y-83752438D01*
X181785714Y-83752438D02*
X181880952Y-83704819D01*
X181880952Y-83704819D02*
X182119047Y-83704819D01*
X182119047Y-83704819D02*
X182214285Y-83752438D01*
X182214285Y-83752438D02*
X182261904Y-83800057D01*
X182261904Y-83800057D02*
X182309523Y-83895295D01*
X182309523Y-83895295D02*
X182309523Y-83990533D01*
X182309523Y-83990533D02*
X182261904Y-84133390D01*
X182261904Y-84133390D02*
X181690476Y-84704819D01*
X181690476Y-84704819D02*
X182309523Y-84704819D01*
X183166666Y-84038152D02*
X183166666Y-84704819D01*
X182928571Y-83657200D02*
X182690476Y-84371485D01*
X182690476Y-84371485D02*
X183309523Y-84371485D01*
X190892857Y-82181009D02*
X191035714Y-82228628D01*
X191035714Y-82228628D02*
X191083333Y-82276247D01*
X191083333Y-82276247D02*
X191130952Y-82371485D01*
X191130952Y-82371485D02*
X191130952Y-82514342D01*
X191130952Y-82514342D02*
X191083333Y-82609580D01*
X191083333Y-82609580D02*
X191035714Y-82657200D01*
X191035714Y-82657200D02*
X190940476Y-82704819D01*
X190940476Y-82704819D02*
X190559524Y-82704819D01*
X190559524Y-82704819D02*
X190559524Y-81704819D01*
X190559524Y-81704819D02*
X190892857Y-81704819D01*
X190892857Y-81704819D02*
X190988095Y-81752438D01*
X190988095Y-81752438D02*
X191035714Y-81800057D01*
X191035714Y-81800057D02*
X191083333Y-81895295D01*
X191083333Y-81895295D02*
X191083333Y-81990533D01*
X191083333Y-81990533D02*
X191035714Y-82085771D01*
X191035714Y-82085771D02*
X190988095Y-82133390D01*
X190988095Y-82133390D02*
X190892857Y-82181009D01*
X190892857Y-82181009D02*
X190559524Y-82181009D01*
X191750000Y-81704819D02*
X191940476Y-81704819D01*
X191940476Y-81704819D02*
X192035714Y-81752438D01*
X192035714Y-81752438D02*
X192130952Y-81847676D01*
X192130952Y-81847676D02*
X192178571Y-82038152D01*
X192178571Y-82038152D02*
X192178571Y-82371485D01*
X192178571Y-82371485D02*
X192130952Y-82561961D01*
X192130952Y-82561961D02*
X192035714Y-82657200D01*
X192035714Y-82657200D02*
X191940476Y-82704819D01*
X191940476Y-82704819D02*
X191750000Y-82704819D01*
X191750000Y-82704819D02*
X191654762Y-82657200D01*
X191654762Y-82657200D02*
X191559524Y-82561961D01*
X191559524Y-82561961D02*
X191511905Y-82371485D01*
X191511905Y-82371485D02*
X191511905Y-82038152D01*
X191511905Y-82038152D02*
X191559524Y-81847676D01*
X191559524Y-81847676D02*
X191654762Y-81752438D01*
X191654762Y-81752438D02*
X191750000Y-81704819D01*
X192797619Y-81704819D02*
X192988095Y-81704819D01*
X192988095Y-81704819D02*
X193083333Y-81752438D01*
X193083333Y-81752438D02*
X193178571Y-81847676D01*
X193178571Y-81847676D02*
X193226190Y-82038152D01*
X193226190Y-82038152D02*
X193226190Y-82371485D01*
X193226190Y-82371485D02*
X193178571Y-82561961D01*
X193178571Y-82561961D02*
X193083333Y-82657200D01*
X193083333Y-82657200D02*
X192988095Y-82704819D01*
X192988095Y-82704819D02*
X192797619Y-82704819D01*
X192797619Y-82704819D02*
X192702381Y-82657200D01*
X192702381Y-82657200D02*
X192607143Y-82561961D01*
X192607143Y-82561961D02*
X192559524Y-82371485D01*
X192559524Y-82371485D02*
X192559524Y-82038152D01*
X192559524Y-82038152D02*
X192607143Y-81847676D01*
X192607143Y-81847676D02*
X192702381Y-81752438D01*
X192702381Y-81752438D02*
X192797619Y-81704819D01*
X193511905Y-81704819D02*
X194083333Y-81704819D01*
X193797619Y-82704819D02*
X193797619Y-81704819D01*
X159083333Y-95204819D02*
X158750000Y-94728628D01*
X158511905Y-95204819D02*
X158511905Y-94204819D01*
X158511905Y-94204819D02*
X158892857Y-94204819D01*
X158892857Y-94204819D02*
X158988095Y-94252438D01*
X158988095Y-94252438D02*
X159035714Y-94300057D01*
X159035714Y-94300057D02*
X159083333Y-94395295D01*
X159083333Y-94395295D02*
X159083333Y-94538152D01*
X159083333Y-94538152D02*
X159035714Y-94633390D01*
X159035714Y-94633390D02*
X158988095Y-94681009D01*
X158988095Y-94681009D02*
X158892857Y-94728628D01*
X158892857Y-94728628D02*
X158511905Y-94728628D01*
X159416667Y-94204819D02*
X160083333Y-94204819D01*
X160083333Y-94204819D02*
X159654762Y-95204819D01*
X148109580Y-63666666D02*
X148157200Y-63714285D01*
X148157200Y-63714285D02*
X148204819Y-63857142D01*
X148204819Y-63857142D02*
X148204819Y-63952380D01*
X148204819Y-63952380D02*
X148157200Y-64095237D01*
X148157200Y-64095237D02*
X148061961Y-64190475D01*
X148061961Y-64190475D02*
X147966723Y-64238094D01*
X147966723Y-64238094D02*
X147776247Y-64285713D01*
X147776247Y-64285713D02*
X147633390Y-64285713D01*
X147633390Y-64285713D02*
X147442914Y-64238094D01*
X147442914Y-64238094D02*
X147347676Y-64190475D01*
X147347676Y-64190475D02*
X147252438Y-64095237D01*
X147252438Y-64095237D02*
X147204819Y-63952380D01*
X147204819Y-63952380D02*
X147204819Y-63857142D01*
X147204819Y-63857142D02*
X147252438Y-63714285D01*
X147252438Y-63714285D02*
X147300057Y-63666666D01*
X148204819Y-63190475D02*
X148204819Y-62999999D01*
X148204819Y-62999999D02*
X148157200Y-62904761D01*
X148157200Y-62904761D02*
X148109580Y-62857142D01*
X148109580Y-62857142D02*
X147966723Y-62761904D01*
X147966723Y-62761904D02*
X147776247Y-62714285D01*
X147776247Y-62714285D02*
X147395295Y-62714285D01*
X147395295Y-62714285D02*
X147300057Y-62761904D01*
X147300057Y-62761904D02*
X147252438Y-62809523D01*
X147252438Y-62809523D02*
X147204819Y-62904761D01*
X147204819Y-62904761D02*
X147204819Y-63095237D01*
X147204819Y-63095237D02*
X147252438Y-63190475D01*
X147252438Y-63190475D02*
X147300057Y-63238094D01*
X147300057Y-63238094D02*
X147395295Y-63285713D01*
X147395295Y-63285713D02*
X147633390Y-63285713D01*
X147633390Y-63285713D02*
X147728628Y-63238094D01*
X147728628Y-63238094D02*
X147776247Y-63190475D01*
X147776247Y-63190475D02*
X147823866Y-63095237D01*
X147823866Y-63095237D02*
X147823866Y-62904761D01*
X147823866Y-62904761D02*
X147776247Y-62809523D01*
X147776247Y-62809523D02*
X147728628Y-62761904D01*
X147728628Y-62761904D02*
X147633390Y-62714285D01*
X181107142Y-59109580D02*
X181059523Y-59157200D01*
X181059523Y-59157200D02*
X180916666Y-59204819D01*
X180916666Y-59204819D02*
X180821428Y-59204819D01*
X180821428Y-59204819D02*
X180678571Y-59157200D01*
X180678571Y-59157200D02*
X180583333Y-59061961D01*
X180583333Y-59061961D02*
X180535714Y-58966723D01*
X180535714Y-58966723D02*
X180488095Y-58776247D01*
X180488095Y-58776247D02*
X180488095Y-58633390D01*
X180488095Y-58633390D02*
X180535714Y-58442914D01*
X180535714Y-58442914D02*
X180583333Y-58347676D01*
X180583333Y-58347676D02*
X180678571Y-58252438D01*
X180678571Y-58252438D02*
X180821428Y-58204819D01*
X180821428Y-58204819D02*
X180916666Y-58204819D01*
X180916666Y-58204819D02*
X181059523Y-58252438D01*
X181059523Y-58252438D02*
X181107142Y-58300057D01*
X181488095Y-58300057D02*
X181535714Y-58252438D01*
X181535714Y-58252438D02*
X181630952Y-58204819D01*
X181630952Y-58204819D02*
X181869047Y-58204819D01*
X181869047Y-58204819D02*
X181964285Y-58252438D01*
X181964285Y-58252438D02*
X182011904Y-58300057D01*
X182011904Y-58300057D02*
X182059523Y-58395295D01*
X182059523Y-58395295D02*
X182059523Y-58490533D01*
X182059523Y-58490533D02*
X182011904Y-58633390D01*
X182011904Y-58633390D02*
X181440476Y-59204819D01*
X181440476Y-59204819D02*
X182059523Y-59204819D01*
X182964285Y-58204819D02*
X182488095Y-58204819D01*
X182488095Y-58204819D02*
X182440476Y-58681009D01*
X182440476Y-58681009D02*
X182488095Y-58633390D01*
X182488095Y-58633390D02*
X182583333Y-58585771D01*
X182583333Y-58585771D02*
X182821428Y-58585771D01*
X182821428Y-58585771D02*
X182916666Y-58633390D01*
X182916666Y-58633390D02*
X182964285Y-58681009D01*
X182964285Y-58681009D02*
X183011904Y-58776247D01*
X183011904Y-58776247D02*
X183011904Y-59014342D01*
X183011904Y-59014342D02*
X182964285Y-59109580D01*
X182964285Y-59109580D02*
X182916666Y-59157200D01*
X182916666Y-59157200D02*
X182821428Y-59204819D01*
X182821428Y-59204819D02*
X182583333Y-59204819D01*
X182583333Y-59204819D02*
X182488095Y-59157200D01*
X182488095Y-59157200D02*
X182440476Y-59109580D01*
X149083333Y-84454819D02*
X148750000Y-83978628D01*
X148511905Y-84454819D02*
X148511905Y-83454819D01*
X148511905Y-83454819D02*
X148892857Y-83454819D01*
X148892857Y-83454819D02*
X148988095Y-83502438D01*
X148988095Y-83502438D02*
X149035714Y-83550057D01*
X149035714Y-83550057D02*
X149083333Y-83645295D01*
X149083333Y-83645295D02*
X149083333Y-83788152D01*
X149083333Y-83788152D02*
X149035714Y-83883390D01*
X149035714Y-83883390D02*
X148988095Y-83931009D01*
X148988095Y-83931009D02*
X148892857Y-83978628D01*
X148892857Y-83978628D02*
X148511905Y-83978628D01*
X149988095Y-83454819D02*
X149511905Y-83454819D01*
X149511905Y-83454819D02*
X149464286Y-83931009D01*
X149464286Y-83931009D02*
X149511905Y-83883390D01*
X149511905Y-83883390D02*
X149607143Y-83835771D01*
X149607143Y-83835771D02*
X149845238Y-83835771D01*
X149845238Y-83835771D02*
X149940476Y-83883390D01*
X149940476Y-83883390D02*
X149988095Y-83931009D01*
X149988095Y-83931009D02*
X150035714Y-84026247D01*
X150035714Y-84026247D02*
X150035714Y-84264342D01*
X150035714Y-84264342D02*
X149988095Y-84359580D01*
X149988095Y-84359580D02*
X149940476Y-84407200D01*
X149940476Y-84407200D02*
X149845238Y-84454819D01*
X149845238Y-84454819D02*
X149607143Y-84454819D01*
X149607143Y-84454819D02*
X149511905Y-84407200D01*
X149511905Y-84407200D02*
X149464286Y-84359580D01*
X158704819Y-71416666D02*
X158228628Y-71749999D01*
X158704819Y-71988094D02*
X157704819Y-71988094D01*
X157704819Y-71988094D02*
X157704819Y-71607142D01*
X157704819Y-71607142D02*
X157752438Y-71511904D01*
X157752438Y-71511904D02*
X157800057Y-71464285D01*
X157800057Y-71464285D02*
X157895295Y-71416666D01*
X157895295Y-71416666D02*
X158038152Y-71416666D01*
X158038152Y-71416666D02*
X158133390Y-71464285D01*
X158133390Y-71464285D02*
X158181009Y-71511904D01*
X158181009Y-71511904D02*
X158228628Y-71607142D01*
X158228628Y-71607142D02*
X158228628Y-71988094D01*
X157704819Y-71083332D02*
X157704819Y-70464285D01*
X157704819Y-70464285D02*
X158085771Y-70797618D01*
X158085771Y-70797618D02*
X158085771Y-70654761D01*
X158085771Y-70654761D02*
X158133390Y-70559523D01*
X158133390Y-70559523D02*
X158181009Y-70511904D01*
X158181009Y-70511904D02*
X158276247Y-70464285D01*
X158276247Y-70464285D02*
X158514342Y-70464285D01*
X158514342Y-70464285D02*
X158609580Y-70511904D01*
X158609580Y-70511904D02*
X158657200Y-70559523D01*
X158657200Y-70559523D02*
X158704819Y-70654761D01*
X158704819Y-70654761D02*
X158704819Y-70940475D01*
X158704819Y-70940475D02*
X158657200Y-71035713D01*
X158657200Y-71035713D02*
X158609580Y-71083332D01*
X161607142Y-93109580D02*
X161559523Y-93157200D01*
X161559523Y-93157200D02*
X161416666Y-93204819D01*
X161416666Y-93204819D02*
X161321428Y-93204819D01*
X161321428Y-93204819D02*
X161178571Y-93157200D01*
X161178571Y-93157200D02*
X161083333Y-93061961D01*
X161083333Y-93061961D02*
X161035714Y-92966723D01*
X161035714Y-92966723D02*
X160988095Y-92776247D01*
X160988095Y-92776247D02*
X160988095Y-92633390D01*
X160988095Y-92633390D02*
X161035714Y-92442914D01*
X161035714Y-92442914D02*
X161083333Y-92347676D01*
X161083333Y-92347676D02*
X161178571Y-92252438D01*
X161178571Y-92252438D02*
X161321428Y-92204819D01*
X161321428Y-92204819D02*
X161416666Y-92204819D01*
X161416666Y-92204819D02*
X161559523Y-92252438D01*
X161559523Y-92252438D02*
X161607142Y-92300057D01*
X161988095Y-92300057D02*
X162035714Y-92252438D01*
X162035714Y-92252438D02*
X162130952Y-92204819D01*
X162130952Y-92204819D02*
X162369047Y-92204819D01*
X162369047Y-92204819D02*
X162464285Y-92252438D01*
X162464285Y-92252438D02*
X162511904Y-92300057D01*
X162511904Y-92300057D02*
X162559523Y-92395295D01*
X162559523Y-92395295D02*
X162559523Y-92490533D01*
X162559523Y-92490533D02*
X162511904Y-92633390D01*
X162511904Y-92633390D02*
X161940476Y-93204819D01*
X161940476Y-93204819D02*
X162559523Y-93204819D01*
X162940476Y-92300057D02*
X162988095Y-92252438D01*
X162988095Y-92252438D02*
X163083333Y-92204819D01*
X163083333Y-92204819D02*
X163321428Y-92204819D01*
X163321428Y-92204819D02*
X163416666Y-92252438D01*
X163416666Y-92252438D02*
X163464285Y-92300057D01*
X163464285Y-92300057D02*
X163511904Y-92395295D01*
X163511904Y-92395295D02*
X163511904Y-92490533D01*
X163511904Y-92490533D02*
X163464285Y-92633390D01*
X163464285Y-92633390D02*
X162892857Y-93204819D01*
X162892857Y-93204819D02*
X163511904Y-93204819D01*
X193954819Y-62142857D02*
X193478628Y-62476190D01*
X193954819Y-62714285D02*
X192954819Y-62714285D01*
X192954819Y-62714285D02*
X192954819Y-62333333D01*
X192954819Y-62333333D02*
X193002438Y-62238095D01*
X193002438Y-62238095D02*
X193050057Y-62190476D01*
X193050057Y-62190476D02*
X193145295Y-62142857D01*
X193145295Y-62142857D02*
X193288152Y-62142857D01*
X193288152Y-62142857D02*
X193383390Y-62190476D01*
X193383390Y-62190476D02*
X193431009Y-62238095D01*
X193431009Y-62238095D02*
X193478628Y-62333333D01*
X193478628Y-62333333D02*
X193478628Y-62714285D01*
X193050057Y-61761904D02*
X193002438Y-61714285D01*
X193002438Y-61714285D02*
X192954819Y-61619047D01*
X192954819Y-61619047D02*
X192954819Y-61380952D01*
X192954819Y-61380952D02*
X193002438Y-61285714D01*
X193002438Y-61285714D02*
X193050057Y-61238095D01*
X193050057Y-61238095D02*
X193145295Y-61190476D01*
X193145295Y-61190476D02*
X193240533Y-61190476D01*
X193240533Y-61190476D02*
X193383390Y-61238095D01*
X193383390Y-61238095D02*
X193954819Y-61809523D01*
X193954819Y-61809523D02*
X193954819Y-61190476D01*
X193050057Y-60809523D02*
X193002438Y-60761904D01*
X193002438Y-60761904D02*
X192954819Y-60666666D01*
X192954819Y-60666666D02*
X192954819Y-60428571D01*
X192954819Y-60428571D02*
X193002438Y-60333333D01*
X193002438Y-60333333D02*
X193050057Y-60285714D01*
X193050057Y-60285714D02*
X193145295Y-60238095D01*
X193145295Y-60238095D02*
X193240533Y-60238095D01*
X193240533Y-60238095D02*
X193383390Y-60285714D01*
X193383390Y-60285714D02*
X193954819Y-60857142D01*
X193954819Y-60857142D02*
X193954819Y-60238095D01*
X176107142Y-79359580D02*
X176059523Y-79407200D01*
X176059523Y-79407200D02*
X175916666Y-79454819D01*
X175916666Y-79454819D02*
X175821428Y-79454819D01*
X175821428Y-79454819D02*
X175678571Y-79407200D01*
X175678571Y-79407200D02*
X175583333Y-79311961D01*
X175583333Y-79311961D02*
X175535714Y-79216723D01*
X175535714Y-79216723D02*
X175488095Y-79026247D01*
X175488095Y-79026247D02*
X175488095Y-78883390D01*
X175488095Y-78883390D02*
X175535714Y-78692914D01*
X175535714Y-78692914D02*
X175583333Y-78597676D01*
X175583333Y-78597676D02*
X175678571Y-78502438D01*
X175678571Y-78502438D02*
X175821428Y-78454819D01*
X175821428Y-78454819D02*
X175916666Y-78454819D01*
X175916666Y-78454819D02*
X176059523Y-78502438D01*
X176059523Y-78502438D02*
X176107142Y-78550057D01*
X176488095Y-78550057D02*
X176535714Y-78502438D01*
X176535714Y-78502438D02*
X176630952Y-78454819D01*
X176630952Y-78454819D02*
X176869047Y-78454819D01*
X176869047Y-78454819D02*
X176964285Y-78502438D01*
X176964285Y-78502438D02*
X177011904Y-78550057D01*
X177011904Y-78550057D02*
X177059523Y-78645295D01*
X177059523Y-78645295D02*
X177059523Y-78740533D01*
X177059523Y-78740533D02*
X177011904Y-78883390D01*
X177011904Y-78883390D02*
X176440476Y-79454819D01*
X176440476Y-79454819D02*
X177059523Y-79454819D01*
X177535714Y-79454819D02*
X177726190Y-79454819D01*
X177726190Y-79454819D02*
X177821428Y-79407200D01*
X177821428Y-79407200D02*
X177869047Y-79359580D01*
X177869047Y-79359580D02*
X177964285Y-79216723D01*
X177964285Y-79216723D02*
X178011904Y-79026247D01*
X178011904Y-79026247D02*
X178011904Y-78645295D01*
X178011904Y-78645295D02*
X177964285Y-78550057D01*
X177964285Y-78550057D02*
X177916666Y-78502438D01*
X177916666Y-78502438D02*
X177821428Y-78454819D01*
X177821428Y-78454819D02*
X177630952Y-78454819D01*
X177630952Y-78454819D02*
X177535714Y-78502438D01*
X177535714Y-78502438D02*
X177488095Y-78550057D01*
X177488095Y-78550057D02*
X177440476Y-78645295D01*
X177440476Y-78645295D02*
X177440476Y-78883390D01*
X177440476Y-78883390D02*
X177488095Y-78978628D01*
X177488095Y-78978628D02*
X177535714Y-79026247D01*
X177535714Y-79026247D02*
X177630952Y-79073866D01*
X177630952Y-79073866D02*
X177821428Y-79073866D01*
X177821428Y-79073866D02*
X177916666Y-79026247D01*
X177916666Y-79026247D02*
X177964285Y-78978628D01*
X177964285Y-78978628D02*
X178011904Y-78883390D01*
X135166666Y-96454819D02*
X135166666Y-97169104D01*
X135166666Y-97169104D02*
X135119047Y-97311961D01*
X135119047Y-97311961D02*
X135023809Y-97407200D01*
X135023809Y-97407200D02*
X134880952Y-97454819D01*
X134880952Y-97454819D02*
X134785714Y-97454819D01*
X135785714Y-96883390D02*
X135690476Y-96835771D01*
X135690476Y-96835771D02*
X135642857Y-96788152D01*
X135642857Y-96788152D02*
X135595238Y-96692914D01*
X135595238Y-96692914D02*
X135595238Y-96645295D01*
X135595238Y-96645295D02*
X135642857Y-96550057D01*
X135642857Y-96550057D02*
X135690476Y-96502438D01*
X135690476Y-96502438D02*
X135785714Y-96454819D01*
X135785714Y-96454819D02*
X135976190Y-96454819D01*
X135976190Y-96454819D02*
X136071428Y-96502438D01*
X136071428Y-96502438D02*
X136119047Y-96550057D01*
X136119047Y-96550057D02*
X136166666Y-96645295D01*
X136166666Y-96645295D02*
X136166666Y-96692914D01*
X136166666Y-96692914D02*
X136119047Y-96788152D01*
X136119047Y-96788152D02*
X136071428Y-96835771D01*
X136071428Y-96835771D02*
X135976190Y-96883390D01*
X135976190Y-96883390D02*
X135785714Y-96883390D01*
X135785714Y-96883390D02*
X135690476Y-96931009D01*
X135690476Y-96931009D02*
X135642857Y-96978628D01*
X135642857Y-96978628D02*
X135595238Y-97073866D01*
X135595238Y-97073866D02*
X135595238Y-97264342D01*
X135595238Y-97264342D02*
X135642857Y-97359580D01*
X135642857Y-97359580D02*
X135690476Y-97407200D01*
X135690476Y-97407200D02*
X135785714Y-97454819D01*
X135785714Y-97454819D02*
X135976190Y-97454819D01*
X135976190Y-97454819D02*
X136071428Y-97407200D01*
X136071428Y-97407200D02*
X136119047Y-97359580D01*
X136119047Y-97359580D02*
X136166666Y-97264342D01*
X136166666Y-97264342D02*
X136166666Y-97073866D01*
X136166666Y-97073866D02*
X136119047Y-96978628D01*
X136119047Y-96978628D02*
X136071428Y-96931009D01*
X136071428Y-96931009D02*
X135976190Y-96883390D01*
X184107142Y-66454819D02*
X183773809Y-65978628D01*
X183535714Y-66454819D02*
X183535714Y-65454819D01*
X183535714Y-65454819D02*
X183916666Y-65454819D01*
X183916666Y-65454819D02*
X184011904Y-65502438D01*
X184011904Y-65502438D02*
X184059523Y-65550057D01*
X184059523Y-65550057D02*
X184107142Y-65645295D01*
X184107142Y-65645295D02*
X184107142Y-65788152D01*
X184107142Y-65788152D02*
X184059523Y-65883390D01*
X184059523Y-65883390D02*
X184011904Y-65931009D01*
X184011904Y-65931009D02*
X183916666Y-65978628D01*
X183916666Y-65978628D02*
X183535714Y-65978628D01*
X185059523Y-66454819D02*
X184488095Y-66454819D01*
X184773809Y-66454819D02*
X184773809Y-65454819D01*
X184773809Y-65454819D02*
X184678571Y-65597676D01*
X184678571Y-65597676D02*
X184583333Y-65692914D01*
X184583333Y-65692914D02*
X184488095Y-65740533D01*
X185535714Y-66454819D02*
X185726190Y-66454819D01*
X185726190Y-66454819D02*
X185821428Y-66407200D01*
X185821428Y-66407200D02*
X185869047Y-66359580D01*
X185869047Y-66359580D02*
X185964285Y-66216723D01*
X185964285Y-66216723D02*
X186011904Y-66026247D01*
X186011904Y-66026247D02*
X186011904Y-65645295D01*
X186011904Y-65645295D02*
X185964285Y-65550057D01*
X185964285Y-65550057D02*
X185916666Y-65502438D01*
X185916666Y-65502438D02*
X185821428Y-65454819D01*
X185821428Y-65454819D02*
X185630952Y-65454819D01*
X185630952Y-65454819D02*
X185535714Y-65502438D01*
X185535714Y-65502438D02*
X185488095Y-65550057D01*
X185488095Y-65550057D02*
X185440476Y-65645295D01*
X185440476Y-65645295D02*
X185440476Y-65883390D01*
X185440476Y-65883390D02*
X185488095Y-65978628D01*
X185488095Y-65978628D02*
X185535714Y-66026247D01*
X185535714Y-66026247D02*
X185630952Y-66073866D01*
X185630952Y-66073866D02*
X185821428Y-66073866D01*
X185821428Y-66073866D02*
X185916666Y-66026247D01*
X185916666Y-66026247D02*
X185964285Y-65978628D01*
X185964285Y-65978628D02*
X186011904Y-65883390D01*
X139607142Y-89204819D02*
X139273809Y-88728628D01*
X139035714Y-89204819D02*
X139035714Y-88204819D01*
X139035714Y-88204819D02*
X139416666Y-88204819D01*
X139416666Y-88204819D02*
X139511904Y-88252438D01*
X139511904Y-88252438D02*
X139559523Y-88300057D01*
X139559523Y-88300057D02*
X139607142Y-88395295D01*
X139607142Y-88395295D02*
X139607142Y-88538152D01*
X139607142Y-88538152D02*
X139559523Y-88633390D01*
X139559523Y-88633390D02*
X139511904Y-88681009D01*
X139511904Y-88681009D02*
X139416666Y-88728628D01*
X139416666Y-88728628D02*
X139035714Y-88728628D01*
X139988095Y-88300057D02*
X140035714Y-88252438D01*
X140035714Y-88252438D02*
X140130952Y-88204819D01*
X140130952Y-88204819D02*
X140369047Y-88204819D01*
X140369047Y-88204819D02*
X140464285Y-88252438D01*
X140464285Y-88252438D02*
X140511904Y-88300057D01*
X140511904Y-88300057D02*
X140559523Y-88395295D01*
X140559523Y-88395295D02*
X140559523Y-88490533D01*
X140559523Y-88490533D02*
X140511904Y-88633390D01*
X140511904Y-88633390D02*
X139940476Y-89204819D01*
X139940476Y-89204819D02*
X140559523Y-89204819D01*
X141130952Y-88633390D02*
X141035714Y-88585771D01*
X141035714Y-88585771D02*
X140988095Y-88538152D01*
X140988095Y-88538152D02*
X140940476Y-88442914D01*
X140940476Y-88442914D02*
X140940476Y-88395295D01*
X140940476Y-88395295D02*
X140988095Y-88300057D01*
X140988095Y-88300057D02*
X141035714Y-88252438D01*
X141035714Y-88252438D02*
X141130952Y-88204819D01*
X141130952Y-88204819D02*
X141321428Y-88204819D01*
X141321428Y-88204819D02*
X141416666Y-88252438D01*
X141416666Y-88252438D02*
X141464285Y-88300057D01*
X141464285Y-88300057D02*
X141511904Y-88395295D01*
X141511904Y-88395295D02*
X141511904Y-88442914D01*
X141511904Y-88442914D02*
X141464285Y-88538152D01*
X141464285Y-88538152D02*
X141416666Y-88585771D01*
X141416666Y-88585771D02*
X141321428Y-88633390D01*
X141321428Y-88633390D02*
X141130952Y-88633390D01*
X141130952Y-88633390D02*
X141035714Y-88681009D01*
X141035714Y-88681009D02*
X140988095Y-88728628D01*
X140988095Y-88728628D02*
X140940476Y-88823866D01*
X140940476Y-88823866D02*
X140940476Y-89014342D01*
X140940476Y-89014342D02*
X140988095Y-89109580D01*
X140988095Y-89109580D02*
X141035714Y-89157200D01*
X141035714Y-89157200D02*
X141130952Y-89204819D01*
X141130952Y-89204819D02*
X141321428Y-89204819D01*
X141321428Y-89204819D02*
X141416666Y-89157200D01*
X141416666Y-89157200D02*
X141464285Y-89109580D01*
X141464285Y-89109580D02*
X141511904Y-89014342D01*
X141511904Y-89014342D02*
X141511904Y-88823866D01*
X141511904Y-88823866D02*
X141464285Y-88728628D01*
X141464285Y-88728628D02*
X141416666Y-88681009D01*
X141416666Y-88681009D02*
X141321428Y-88633390D01*
X162857142Y-69359580D02*
X162809523Y-69407200D01*
X162809523Y-69407200D02*
X162666666Y-69454819D01*
X162666666Y-69454819D02*
X162571428Y-69454819D01*
X162571428Y-69454819D02*
X162428571Y-69407200D01*
X162428571Y-69407200D02*
X162333333Y-69311961D01*
X162333333Y-69311961D02*
X162285714Y-69216723D01*
X162285714Y-69216723D02*
X162238095Y-69026247D01*
X162238095Y-69026247D02*
X162238095Y-68883390D01*
X162238095Y-68883390D02*
X162285714Y-68692914D01*
X162285714Y-68692914D02*
X162333333Y-68597676D01*
X162333333Y-68597676D02*
X162428571Y-68502438D01*
X162428571Y-68502438D02*
X162571428Y-68454819D01*
X162571428Y-68454819D02*
X162666666Y-68454819D01*
X162666666Y-68454819D02*
X162809523Y-68502438D01*
X162809523Y-68502438D02*
X162857142Y-68550057D01*
X163238095Y-68550057D02*
X163285714Y-68502438D01*
X163285714Y-68502438D02*
X163380952Y-68454819D01*
X163380952Y-68454819D02*
X163619047Y-68454819D01*
X163619047Y-68454819D02*
X163714285Y-68502438D01*
X163714285Y-68502438D02*
X163761904Y-68550057D01*
X163761904Y-68550057D02*
X163809523Y-68645295D01*
X163809523Y-68645295D02*
X163809523Y-68740533D01*
X163809523Y-68740533D02*
X163761904Y-68883390D01*
X163761904Y-68883390D02*
X163190476Y-69454819D01*
X163190476Y-69454819D02*
X163809523Y-69454819D01*
X164666666Y-68454819D02*
X164476190Y-68454819D01*
X164476190Y-68454819D02*
X164380952Y-68502438D01*
X164380952Y-68502438D02*
X164333333Y-68550057D01*
X164333333Y-68550057D02*
X164238095Y-68692914D01*
X164238095Y-68692914D02*
X164190476Y-68883390D01*
X164190476Y-68883390D02*
X164190476Y-69264342D01*
X164190476Y-69264342D02*
X164238095Y-69359580D01*
X164238095Y-69359580D02*
X164285714Y-69407200D01*
X164285714Y-69407200D02*
X164380952Y-69454819D01*
X164380952Y-69454819D02*
X164571428Y-69454819D01*
X164571428Y-69454819D02*
X164666666Y-69407200D01*
X164666666Y-69407200D02*
X164714285Y-69359580D01*
X164714285Y-69359580D02*
X164761904Y-69264342D01*
X164761904Y-69264342D02*
X164761904Y-69026247D01*
X164761904Y-69026247D02*
X164714285Y-68931009D01*
X164714285Y-68931009D02*
X164666666Y-68883390D01*
X164666666Y-68883390D02*
X164571428Y-68835771D01*
X164571428Y-68835771D02*
X164380952Y-68835771D01*
X164380952Y-68835771D02*
X164285714Y-68883390D01*
X164285714Y-68883390D02*
X164238095Y-68931009D01*
X164238095Y-68931009D02*
X164190476Y-69026247D01*
X172359580Y-80642857D02*
X172407200Y-80690476D01*
X172407200Y-80690476D02*
X172454819Y-80833333D01*
X172454819Y-80833333D02*
X172454819Y-80928571D01*
X172454819Y-80928571D02*
X172407200Y-81071428D01*
X172407200Y-81071428D02*
X172311961Y-81166666D01*
X172311961Y-81166666D02*
X172216723Y-81214285D01*
X172216723Y-81214285D02*
X172026247Y-81261904D01*
X172026247Y-81261904D02*
X171883390Y-81261904D01*
X171883390Y-81261904D02*
X171692914Y-81214285D01*
X171692914Y-81214285D02*
X171597676Y-81166666D01*
X171597676Y-81166666D02*
X171502438Y-81071428D01*
X171502438Y-81071428D02*
X171454819Y-80928571D01*
X171454819Y-80928571D02*
X171454819Y-80833333D01*
X171454819Y-80833333D02*
X171502438Y-80690476D01*
X171502438Y-80690476D02*
X171550057Y-80642857D01*
X171454819Y-80309523D02*
X171454819Y-79690476D01*
X171454819Y-79690476D02*
X171835771Y-80023809D01*
X171835771Y-80023809D02*
X171835771Y-79880952D01*
X171835771Y-79880952D02*
X171883390Y-79785714D01*
X171883390Y-79785714D02*
X171931009Y-79738095D01*
X171931009Y-79738095D02*
X172026247Y-79690476D01*
X172026247Y-79690476D02*
X172264342Y-79690476D01*
X172264342Y-79690476D02*
X172359580Y-79738095D01*
X172359580Y-79738095D02*
X172407200Y-79785714D01*
X172407200Y-79785714D02*
X172454819Y-79880952D01*
X172454819Y-79880952D02*
X172454819Y-80166666D01*
X172454819Y-80166666D02*
X172407200Y-80261904D01*
X172407200Y-80261904D02*
X172359580Y-80309523D01*
X171454819Y-79071428D02*
X171454819Y-78976190D01*
X171454819Y-78976190D02*
X171502438Y-78880952D01*
X171502438Y-78880952D02*
X171550057Y-78833333D01*
X171550057Y-78833333D02*
X171645295Y-78785714D01*
X171645295Y-78785714D02*
X171835771Y-78738095D01*
X171835771Y-78738095D02*
X172073866Y-78738095D01*
X172073866Y-78738095D02*
X172264342Y-78785714D01*
X172264342Y-78785714D02*
X172359580Y-78833333D01*
X172359580Y-78833333D02*
X172407200Y-78880952D01*
X172407200Y-78880952D02*
X172454819Y-78976190D01*
X172454819Y-78976190D02*
X172454819Y-79071428D01*
X172454819Y-79071428D02*
X172407200Y-79166666D01*
X172407200Y-79166666D02*
X172359580Y-79214285D01*
X172359580Y-79214285D02*
X172264342Y-79261904D01*
X172264342Y-79261904D02*
X172073866Y-79309523D01*
X172073866Y-79309523D02*
X171835771Y-79309523D01*
X171835771Y-79309523D02*
X171645295Y-79261904D01*
X171645295Y-79261904D02*
X171550057Y-79214285D01*
X171550057Y-79214285D02*
X171502438Y-79166666D01*
X171502438Y-79166666D02*
X171454819Y-79071428D01*
X156449580Y-63892857D02*
X156497200Y-63940476D01*
X156497200Y-63940476D02*
X156544819Y-64083333D01*
X156544819Y-64083333D02*
X156544819Y-64178571D01*
X156544819Y-64178571D02*
X156497200Y-64321428D01*
X156497200Y-64321428D02*
X156401961Y-64416666D01*
X156401961Y-64416666D02*
X156306723Y-64464285D01*
X156306723Y-64464285D02*
X156116247Y-64511904D01*
X156116247Y-64511904D02*
X155973390Y-64511904D01*
X155973390Y-64511904D02*
X155782914Y-64464285D01*
X155782914Y-64464285D02*
X155687676Y-64416666D01*
X155687676Y-64416666D02*
X155592438Y-64321428D01*
X155592438Y-64321428D02*
X155544819Y-64178571D01*
X155544819Y-64178571D02*
X155544819Y-64083333D01*
X155544819Y-64083333D02*
X155592438Y-63940476D01*
X155592438Y-63940476D02*
X155640057Y-63892857D01*
X156544819Y-62940476D02*
X156544819Y-63511904D01*
X156544819Y-63226190D02*
X155544819Y-63226190D01*
X155544819Y-63226190D02*
X155687676Y-63321428D01*
X155687676Y-63321428D02*
X155782914Y-63416666D01*
X155782914Y-63416666D02*
X155830533Y-63511904D01*
X156544819Y-61988095D02*
X156544819Y-62559523D01*
X156544819Y-62273809D02*
X155544819Y-62273809D01*
X155544819Y-62273809D02*
X155687676Y-62369047D01*
X155687676Y-62369047D02*
X155782914Y-62464285D01*
X155782914Y-62464285D02*
X155830533Y-62559523D01*
X178306905Y-84774819D02*
X178306905Y-83774819D01*
X178306905Y-83774819D02*
X178545000Y-83774819D01*
X178545000Y-83774819D02*
X178687857Y-83822438D01*
X178687857Y-83822438D02*
X178783095Y-83917676D01*
X178783095Y-83917676D02*
X178830714Y-84012914D01*
X178830714Y-84012914D02*
X178878333Y-84203390D01*
X178878333Y-84203390D02*
X178878333Y-84346247D01*
X178878333Y-84346247D02*
X178830714Y-84536723D01*
X178830714Y-84536723D02*
X178783095Y-84631961D01*
X178783095Y-84631961D02*
X178687857Y-84727200D01*
X178687857Y-84727200D02*
X178545000Y-84774819D01*
X178545000Y-84774819D02*
X178306905Y-84774819D01*
X179211667Y-83774819D02*
X179878333Y-83774819D01*
X179878333Y-83774819D02*
X179449762Y-84774819D01*
X180857142Y-59859580D02*
X180809523Y-59907200D01*
X180809523Y-59907200D02*
X180666666Y-59954819D01*
X180666666Y-59954819D02*
X180571428Y-59954819D01*
X180571428Y-59954819D02*
X180428571Y-59907200D01*
X180428571Y-59907200D02*
X180333333Y-59811961D01*
X180333333Y-59811961D02*
X180285714Y-59716723D01*
X180285714Y-59716723D02*
X180238095Y-59526247D01*
X180238095Y-59526247D02*
X180238095Y-59383390D01*
X180238095Y-59383390D02*
X180285714Y-59192914D01*
X180285714Y-59192914D02*
X180333333Y-59097676D01*
X180333333Y-59097676D02*
X180428571Y-59002438D01*
X180428571Y-59002438D02*
X180571428Y-58954819D01*
X180571428Y-58954819D02*
X180666666Y-58954819D01*
X180666666Y-58954819D02*
X180809523Y-59002438D01*
X180809523Y-59002438D02*
X180857142Y-59050057D01*
X181190476Y-58954819D02*
X181809523Y-58954819D01*
X181809523Y-58954819D02*
X181476190Y-59335771D01*
X181476190Y-59335771D02*
X181619047Y-59335771D01*
X181619047Y-59335771D02*
X181714285Y-59383390D01*
X181714285Y-59383390D02*
X181761904Y-59431009D01*
X181761904Y-59431009D02*
X181809523Y-59526247D01*
X181809523Y-59526247D02*
X181809523Y-59764342D01*
X181809523Y-59764342D02*
X181761904Y-59859580D01*
X181761904Y-59859580D02*
X181714285Y-59907200D01*
X181714285Y-59907200D02*
X181619047Y-59954819D01*
X181619047Y-59954819D02*
X181333333Y-59954819D01*
X181333333Y-59954819D02*
X181238095Y-59907200D01*
X181238095Y-59907200D02*
X181190476Y-59859580D01*
X182142857Y-58954819D02*
X182761904Y-58954819D01*
X182761904Y-58954819D02*
X182428571Y-59335771D01*
X182428571Y-59335771D02*
X182571428Y-59335771D01*
X182571428Y-59335771D02*
X182666666Y-59383390D01*
X182666666Y-59383390D02*
X182714285Y-59431009D01*
X182714285Y-59431009D02*
X182761904Y-59526247D01*
X182761904Y-59526247D02*
X182761904Y-59764342D01*
X182761904Y-59764342D02*
X182714285Y-59859580D01*
X182714285Y-59859580D02*
X182666666Y-59907200D01*
X182666666Y-59907200D02*
X182571428Y-59954819D01*
X182571428Y-59954819D02*
X182285714Y-59954819D01*
X182285714Y-59954819D02*
X182190476Y-59907200D01*
X182190476Y-59907200D02*
X182142857Y-59859580D01*
X187704819Y-79666666D02*
X187228628Y-79999999D01*
X187704819Y-80238094D02*
X186704819Y-80238094D01*
X186704819Y-80238094D02*
X186704819Y-79857142D01*
X186704819Y-79857142D02*
X186752438Y-79761904D01*
X186752438Y-79761904D02*
X186800057Y-79714285D01*
X186800057Y-79714285D02*
X186895295Y-79666666D01*
X186895295Y-79666666D02*
X187038152Y-79666666D01*
X187038152Y-79666666D02*
X187133390Y-79714285D01*
X187133390Y-79714285D02*
X187181009Y-79761904D01*
X187181009Y-79761904D02*
X187228628Y-79857142D01*
X187228628Y-79857142D02*
X187228628Y-80238094D01*
X186704819Y-78809523D02*
X186704819Y-78999999D01*
X186704819Y-78999999D02*
X186752438Y-79095237D01*
X186752438Y-79095237D02*
X186800057Y-79142856D01*
X186800057Y-79142856D02*
X186942914Y-79238094D01*
X186942914Y-79238094D02*
X187133390Y-79285713D01*
X187133390Y-79285713D02*
X187514342Y-79285713D01*
X187514342Y-79285713D02*
X187609580Y-79238094D01*
X187609580Y-79238094D02*
X187657200Y-79190475D01*
X187657200Y-79190475D02*
X187704819Y-79095237D01*
X187704819Y-79095237D02*
X187704819Y-78904761D01*
X187704819Y-78904761D02*
X187657200Y-78809523D01*
X187657200Y-78809523D02*
X187609580Y-78761904D01*
X187609580Y-78761904D02*
X187514342Y-78714285D01*
X187514342Y-78714285D02*
X187276247Y-78714285D01*
X187276247Y-78714285D02*
X187181009Y-78761904D01*
X187181009Y-78761904D02*
X187133390Y-78809523D01*
X187133390Y-78809523D02*
X187085771Y-78904761D01*
X187085771Y-78904761D02*
X187085771Y-79095237D01*
X187085771Y-79095237D02*
X187133390Y-79190475D01*
X187133390Y-79190475D02*
X187181009Y-79238094D01*
X187181009Y-79238094D02*
X187276247Y-79285713D01*
X120454819Y-65833333D02*
X121169104Y-65833333D01*
X121169104Y-65833333D02*
X121311961Y-65880952D01*
X121311961Y-65880952D02*
X121407200Y-65976190D01*
X121407200Y-65976190D02*
X121454819Y-66119047D01*
X121454819Y-66119047D02*
X121454819Y-66214285D01*
X120454819Y-65452380D02*
X120454819Y-64785714D01*
X120454819Y-64785714D02*
X121454819Y-65214285D01*
X138764700Y-60171428D02*
X138764700Y-59028571D01*
X139336128Y-59599999D02*
X138193271Y-59599999D01*
X153107142Y-84609580D02*
X153059523Y-84657200D01*
X153059523Y-84657200D02*
X152916666Y-84704819D01*
X152916666Y-84704819D02*
X152821428Y-84704819D01*
X152821428Y-84704819D02*
X152678571Y-84657200D01*
X152678571Y-84657200D02*
X152583333Y-84561961D01*
X152583333Y-84561961D02*
X152535714Y-84466723D01*
X152535714Y-84466723D02*
X152488095Y-84276247D01*
X152488095Y-84276247D02*
X152488095Y-84133390D01*
X152488095Y-84133390D02*
X152535714Y-83942914D01*
X152535714Y-83942914D02*
X152583333Y-83847676D01*
X152583333Y-83847676D02*
X152678571Y-83752438D01*
X152678571Y-83752438D02*
X152821428Y-83704819D01*
X152821428Y-83704819D02*
X152916666Y-83704819D01*
X152916666Y-83704819D02*
X153059523Y-83752438D01*
X153059523Y-83752438D02*
X153107142Y-83800057D01*
X154059523Y-84704819D02*
X153488095Y-84704819D01*
X153773809Y-84704819D02*
X153773809Y-83704819D01*
X153773809Y-83704819D02*
X153678571Y-83847676D01*
X153678571Y-83847676D02*
X153583333Y-83942914D01*
X153583333Y-83942914D02*
X153488095Y-83990533D01*
X154535714Y-84704819D02*
X154726190Y-84704819D01*
X154726190Y-84704819D02*
X154821428Y-84657200D01*
X154821428Y-84657200D02*
X154869047Y-84609580D01*
X154869047Y-84609580D02*
X154964285Y-84466723D01*
X154964285Y-84466723D02*
X155011904Y-84276247D01*
X155011904Y-84276247D02*
X155011904Y-83895295D01*
X155011904Y-83895295D02*
X154964285Y-83800057D01*
X154964285Y-83800057D02*
X154916666Y-83752438D01*
X154916666Y-83752438D02*
X154821428Y-83704819D01*
X154821428Y-83704819D02*
X154630952Y-83704819D01*
X154630952Y-83704819D02*
X154535714Y-83752438D01*
X154535714Y-83752438D02*
X154488095Y-83800057D01*
X154488095Y-83800057D02*
X154440476Y-83895295D01*
X154440476Y-83895295D02*
X154440476Y-84133390D01*
X154440476Y-84133390D02*
X154488095Y-84228628D01*
X154488095Y-84228628D02*
X154535714Y-84276247D01*
X154535714Y-84276247D02*
X154630952Y-84323866D01*
X154630952Y-84323866D02*
X154821428Y-84323866D01*
X154821428Y-84323866D02*
X154916666Y-84276247D01*
X154916666Y-84276247D02*
X154964285Y-84228628D01*
X154964285Y-84228628D02*
X155011904Y-84133390D01*
X167357142Y-95109580D02*
X167309523Y-95157200D01*
X167309523Y-95157200D02*
X167166666Y-95204819D01*
X167166666Y-95204819D02*
X167071428Y-95204819D01*
X167071428Y-95204819D02*
X166928571Y-95157200D01*
X166928571Y-95157200D02*
X166833333Y-95061961D01*
X166833333Y-95061961D02*
X166785714Y-94966723D01*
X166785714Y-94966723D02*
X166738095Y-94776247D01*
X166738095Y-94776247D02*
X166738095Y-94633390D01*
X166738095Y-94633390D02*
X166785714Y-94442914D01*
X166785714Y-94442914D02*
X166833333Y-94347676D01*
X166833333Y-94347676D02*
X166928571Y-94252438D01*
X166928571Y-94252438D02*
X167071428Y-94204819D01*
X167071428Y-94204819D02*
X167166666Y-94204819D01*
X167166666Y-94204819D02*
X167309523Y-94252438D01*
X167309523Y-94252438D02*
X167357142Y-94300057D01*
X167738095Y-94300057D02*
X167785714Y-94252438D01*
X167785714Y-94252438D02*
X167880952Y-94204819D01*
X167880952Y-94204819D02*
X168119047Y-94204819D01*
X168119047Y-94204819D02*
X168214285Y-94252438D01*
X168214285Y-94252438D02*
X168261904Y-94300057D01*
X168261904Y-94300057D02*
X168309523Y-94395295D01*
X168309523Y-94395295D02*
X168309523Y-94490533D01*
X168309523Y-94490533D02*
X168261904Y-94633390D01*
X168261904Y-94633390D02*
X167690476Y-95204819D01*
X167690476Y-95204819D02*
X168309523Y-95204819D01*
X169166666Y-94538152D02*
X169166666Y-95204819D01*
X168928571Y-94157200D02*
X168690476Y-94871485D01*
X168690476Y-94871485D02*
X169309523Y-94871485D01*
X189204819Y-77142857D02*
X188728628Y-77476190D01*
X189204819Y-77714285D02*
X188204819Y-77714285D01*
X188204819Y-77714285D02*
X188204819Y-77333333D01*
X188204819Y-77333333D02*
X188252438Y-77238095D01*
X188252438Y-77238095D02*
X188300057Y-77190476D01*
X188300057Y-77190476D02*
X188395295Y-77142857D01*
X188395295Y-77142857D02*
X188538152Y-77142857D01*
X188538152Y-77142857D02*
X188633390Y-77190476D01*
X188633390Y-77190476D02*
X188681009Y-77238095D01*
X188681009Y-77238095D02*
X188728628Y-77333333D01*
X188728628Y-77333333D02*
X188728628Y-77714285D01*
X189204819Y-76190476D02*
X189204819Y-76761904D01*
X189204819Y-76476190D02*
X188204819Y-76476190D01*
X188204819Y-76476190D02*
X188347676Y-76571428D01*
X188347676Y-76571428D02*
X188442914Y-76666666D01*
X188442914Y-76666666D02*
X188490533Y-76761904D01*
X189204819Y-75238095D02*
X189204819Y-75809523D01*
X189204819Y-75523809D02*
X188204819Y-75523809D01*
X188204819Y-75523809D02*
X188347676Y-75619047D01*
X188347676Y-75619047D02*
X188442914Y-75714285D01*
X188442914Y-75714285D02*
X188490533Y-75809523D01*
X145083333Y-69954819D02*
X144607143Y-69954819D01*
X144607143Y-69954819D02*
X144607143Y-68954819D01*
X145369048Y-69050057D02*
X145416667Y-69002438D01*
X145416667Y-69002438D02*
X145511905Y-68954819D01*
X145511905Y-68954819D02*
X145750000Y-68954819D01*
X145750000Y-68954819D02*
X145845238Y-69002438D01*
X145845238Y-69002438D02*
X145892857Y-69050057D01*
X145892857Y-69050057D02*
X145940476Y-69145295D01*
X145940476Y-69145295D02*
X145940476Y-69240533D01*
X145940476Y-69240533D02*
X145892857Y-69383390D01*
X145892857Y-69383390D02*
X145321429Y-69954819D01*
X145321429Y-69954819D02*
X145940476Y-69954819D01*
X184609580Y-76642857D02*
X184657200Y-76690476D01*
X184657200Y-76690476D02*
X184704819Y-76833333D01*
X184704819Y-76833333D02*
X184704819Y-76928571D01*
X184704819Y-76928571D02*
X184657200Y-77071428D01*
X184657200Y-77071428D02*
X184561961Y-77166666D01*
X184561961Y-77166666D02*
X184466723Y-77214285D01*
X184466723Y-77214285D02*
X184276247Y-77261904D01*
X184276247Y-77261904D02*
X184133390Y-77261904D01*
X184133390Y-77261904D02*
X183942914Y-77214285D01*
X183942914Y-77214285D02*
X183847676Y-77166666D01*
X183847676Y-77166666D02*
X183752438Y-77071428D01*
X183752438Y-77071428D02*
X183704819Y-76928571D01*
X183704819Y-76928571D02*
X183704819Y-76833333D01*
X183704819Y-76833333D02*
X183752438Y-76690476D01*
X183752438Y-76690476D02*
X183800057Y-76642857D01*
X183800057Y-76261904D02*
X183752438Y-76214285D01*
X183752438Y-76214285D02*
X183704819Y-76119047D01*
X183704819Y-76119047D02*
X183704819Y-75880952D01*
X183704819Y-75880952D02*
X183752438Y-75785714D01*
X183752438Y-75785714D02*
X183800057Y-75738095D01*
X183800057Y-75738095D02*
X183895295Y-75690476D01*
X183895295Y-75690476D02*
X183990533Y-75690476D01*
X183990533Y-75690476D02*
X184133390Y-75738095D01*
X184133390Y-75738095D02*
X184704819Y-76309523D01*
X184704819Y-76309523D02*
X184704819Y-75690476D01*
X184133390Y-75119047D02*
X184085771Y-75214285D01*
X184085771Y-75214285D02*
X184038152Y-75261904D01*
X184038152Y-75261904D02*
X183942914Y-75309523D01*
X183942914Y-75309523D02*
X183895295Y-75309523D01*
X183895295Y-75309523D02*
X183800057Y-75261904D01*
X183800057Y-75261904D02*
X183752438Y-75214285D01*
X183752438Y-75214285D02*
X183704819Y-75119047D01*
X183704819Y-75119047D02*
X183704819Y-74928571D01*
X183704819Y-74928571D02*
X183752438Y-74833333D01*
X183752438Y-74833333D02*
X183800057Y-74785714D01*
X183800057Y-74785714D02*
X183895295Y-74738095D01*
X183895295Y-74738095D02*
X183942914Y-74738095D01*
X183942914Y-74738095D02*
X184038152Y-74785714D01*
X184038152Y-74785714D02*
X184085771Y-74833333D01*
X184085771Y-74833333D02*
X184133390Y-74928571D01*
X184133390Y-74928571D02*
X184133390Y-75119047D01*
X184133390Y-75119047D02*
X184181009Y-75214285D01*
X184181009Y-75214285D02*
X184228628Y-75261904D01*
X184228628Y-75261904D02*
X184323866Y-75309523D01*
X184323866Y-75309523D02*
X184514342Y-75309523D01*
X184514342Y-75309523D02*
X184609580Y-75261904D01*
X184609580Y-75261904D02*
X184657200Y-75214285D01*
X184657200Y-75214285D02*
X184704819Y-75119047D01*
X184704819Y-75119047D02*
X184704819Y-74928571D01*
X184704819Y-74928571D02*
X184657200Y-74833333D01*
X184657200Y-74833333D02*
X184609580Y-74785714D01*
X184609580Y-74785714D02*
X184514342Y-74738095D01*
X184514342Y-74738095D02*
X184323866Y-74738095D01*
X184323866Y-74738095D02*
X184228628Y-74785714D01*
X184228628Y-74785714D02*
X184181009Y-74833333D01*
X184181009Y-74833333D02*
X184133390Y-74928571D01*
X178261905Y-84704819D02*
X178261905Y-83704819D01*
X178261905Y-83704819D02*
X178500000Y-83704819D01*
X178500000Y-83704819D02*
X178642857Y-83752438D01*
X178642857Y-83752438D02*
X178738095Y-83847676D01*
X178738095Y-83847676D02*
X178785714Y-83942914D01*
X178785714Y-83942914D02*
X178833333Y-84133390D01*
X178833333Y-84133390D02*
X178833333Y-84276247D01*
X178833333Y-84276247D02*
X178785714Y-84466723D01*
X178785714Y-84466723D02*
X178738095Y-84561961D01*
X178738095Y-84561961D02*
X178642857Y-84657200D01*
X178642857Y-84657200D02*
X178500000Y-84704819D01*
X178500000Y-84704819D02*
X178261905Y-84704819D01*
X179690476Y-83704819D02*
X179500000Y-83704819D01*
X179500000Y-83704819D02*
X179404762Y-83752438D01*
X179404762Y-83752438D02*
X179357143Y-83800057D01*
X179357143Y-83800057D02*
X179261905Y-83942914D01*
X179261905Y-83942914D02*
X179214286Y-84133390D01*
X179214286Y-84133390D02*
X179214286Y-84514342D01*
X179214286Y-84514342D02*
X179261905Y-84609580D01*
X179261905Y-84609580D02*
X179309524Y-84657200D01*
X179309524Y-84657200D02*
X179404762Y-84704819D01*
X179404762Y-84704819D02*
X179595238Y-84704819D01*
X179595238Y-84704819D02*
X179690476Y-84657200D01*
X179690476Y-84657200D02*
X179738095Y-84609580D01*
X179738095Y-84609580D02*
X179785714Y-84514342D01*
X179785714Y-84514342D02*
X179785714Y-84276247D01*
X179785714Y-84276247D02*
X179738095Y-84181009D01*
X179738095Y-84181009D02*
X179690476Y-84133390D01*
X179690476Y-84133390D02*
X179595238Y-84085771D01*
X179595238Y-84085771D02*
X179404762Y-84085771D01*
X179404762Y-84085771D02*
X179309524Y-84133390D01*
X179309524Y-84133390D02*
X179261905Y-84181009D01*
X179261905Y-84181009D02*
X179214286Y-84276247D01*
X162157142Y-58859580D02*
X162109523Y-58907200D01*
X162109523Y-58907200D02*
X161966666Y-58954819D01*
X161966666Y-58954819D02*
X161871428Y-58954819D01*
X161871428Y-58954819D02*
X161728571Y-58907200D01*
X161728571Y-58907200D02*
X161633333Y-58811961D01*
X161633333Y-58811961D02*
X161585714Y-58716723D01*
X161585714Y-58716723D02*
X161538095Y-58526247D01*
X161538095Y-58526247D02*
X161538095Y-58383390D01*
X161538095Y-58383390D02*
X161585714Y-58192914D01*
X161585714Y-58192914D02*
X161633333Y-58097676D01*
X161633333Y-58097676D02*
X161728571Y-58002438D01*
X161728571Y-58002438D02*
X161871428Y-57954819D01*
X161871428Y-57954819D02*
X161966666Y-57954819D01*
X161966666Y-57954819D02*
X162109523Y-58002438D01*
X162109523Y-58002438D02*
X162157142Y-58050057D01*
X163109523Y-58954819D02*
X162538095Y-58954819D01*
X162823809Y-58954819D02*
X162823809Y-57954819D01*
X162823809Y-57954819D02*
X162728571Y-58097676D01*
X162728571Y-58097676D02*
X162633333Y-58192914D01*
X162633333Y-58192914D02*
X162538095Y-58240533D01*
X164014285Y-57954819D02*
X163538095Y-57954819D01*
X163538095Y-57954819D02*
X163490476Y-58431009D01*
X163490476Y-58431009D02*
X163538095Y-58383390D01*
X163538095Y-58383390D02*
X163633333Y-58335771D01*
X163633333Y-58335771D02*
X163871428Y-58335771D01*
X163871428Y-58335771D02*
X163966666Y-58383390D01*
X163966666Y-58383390D02*
X164014285Y-58431009D01*
X164014285Y-58431009D02*
X164061904Y-58526247D01*
X164061904Y-58526247D02*
X164061904Y-58764342D01*
X164061904Y-58764342D02*
X164014285Y-58859580D01*
X164014285Y-58859580D02*
X163966666Y-58907200D01*
X163966666Y-58907200D02*
X163871428Y-58954819D01*
X163871428Y-58954819D02*
X163633333Y-58954819D01*
X163633333Y-58954819D02*
X163538095Y-58907200D01*
X163538095Y-58907200D02*
X163490476Y-58859580D01*
X151454819Y-64261904D02*
X152264342Y-64261904D01*
X152264342Y-64261904D02*
X152359580Y-64214285D01*
X152359580Y-64214285D02*
X152407200Y-64166666D01*
X152407200Y-64166666D02*
X152454819Y-64071428D01*
X152454819Y-64071428D02*
X152454819Y-63880952D01*
X152454819Y-63880952D02*
X152407200Y-63785714D01*
X152407200Y-63785714D02*
X152359580Y-63738095D01*
X152359580Y-63738095D02*
X152264342Y-63690476D01*
X152264342Y-63690476D02*
X151454819Y-63690476D01*
X151550057Y-63261904D02*
X151502438Y-63214285D01*
X151502438Y-63214285D02*
X151454819Y-63119047D01*
X151454819Y-63119047D02*
X151454819Y-62880952D01*
X151454819Y-62880952D02*
X151502438Y-62785714D01*
X151502438Y-62785714D02*
X151550057Y-62738095D01*
X151550057Y-62738095D02*
X151645295Y-62690476D01*
X151645295Y-62690476D02*
X151740533Y-62690476D01*
X151740533Y-62690476D02*
X151883390Y-62738095D01*
X151883390Y-62738095D02*
X152454819Y-63309523D01*
X152454819Y-63309523D02*
X152454819Y-62690476D01*
X170859580Y-80642857D02*
X170907200Y-80690476D01*
X170907200Y-80690476D02*
X170954819Y-80833333D01*
X170954819Y-80833333D02*
X170954819Y-80928571D01*
X170954819Y-80928571D02*
X170907200Y-81071428D01*
X170907200Y-81071428D02*
X170811961Y-81166666D01*
X170811961Y-81166666D02*
X170716723Y-81214285D01*
X170716723Y-81214285D02*
X170526247Y-81261904D01*
X170526247Y-81261904D02*
X170383390Y-81261904D01*
X170383390Y-81261904D02*
X170192914Y-81214285D01*
X170192914Y-81214285D02*
X170097676Y-81166666D01*
X170097676Y-81166666D02*
X170002438Y-81071428D01*
X170002438Y-81071428D02*
X169954819Y-80928571D01*
X169954819Y-80928571D02*
X169954819Y-80833333D01*
X169954819Y-80833333D02*
X170002438Y-80690476D01*
X170002438Y-80690476D02*
X170050057Y-80642857D01*
X169954819Y-80309523D02*
X169954819Y-79690476D01*
X169954819Y-79690476D02*
X170335771Y-80023809D01*
X170335771Y-80023809D02*
X170335771Y-79880952D01*
X170335771Y-79880952D02*
X170383390Y-79785714D01*
X170383390Y-79785714D02*
X170431009Y-79738095D01*
X170431009Y-79738095D02*
X170526247Y-79690476D01*
X170526247Y-79690476D02*
X170764342Y-79690476D01*
X170764342Y-79690476D02*
X170859580Y-79738095D01*
X170859580Y-79738095D02*
X170907200Y-79785714D01*
X170907200Y-79785714D02*
X170954819Y-79880952D01*
X170954819Y-79880952D02*
X170954819Y-80166666D01*
X170954819Y-80166666D02*
X170907200Y-80261904D01*
X170907200Y-80261904D02*
X170859580Y-80309523D01*
X170954819Y-78738095D02*
X170954819Y-79309523D01*
X170954819Y-79023809D02*
X169954819Y-79023809D01*
X169954819Y-79023809D02*
X170097676Y-79119047D01*
X170097676Y-79119047D02*
X170192914Y-79214285D01*
X170192914Y-79214285D02*
X170240533Y-79309523D01*
X169032142Y-88774819D02*
X168698809Y-88298628D01*
X168460714Y-88774819D02*
X168460714Y-87774819D01*
X168460714Y-87774819D02*
X168841666Y-87774819D01*
X168841666Y-87774819D02*
X168936904Y-87822438D01*
X168936904Y-87822438D02*
X168984523Y-87870057D01*
X168984523Y-87870057D02*
X169032142Y-87965295D01*
X169032142Y-87965295D02*
X169032142Y-88108152D01*
X169032142Y-88108152D02*
X168984523Y-88203390D01*
X168984523Y-88203390D02*
X168936904Y-88251009D01*
X168936904Y-88251009D02*
X168841666Y-88298628D01*
X168841666Y-88298628D02*
X168460714Y-88298628D01*
X169984523Y-88774819D02*
X169413095Y-88774819D01*
X169698809Y-88774819D02*
X169698809Y-87774819D01*
X169698809Y-87774819D02*
X169603571Y-87917676D01*
X169603571Y-87917676D02*
X169508333Y-88012914D01*
X169508333Y-88012914D02*
X169413095Y-88060533D01*
X170889285Y-87774819D02*
X170413095Y-87774819D01*
X170413095Y-87774819D02*
X170365476Y-88251009D01*
X170365476Y-88251009D02*
X170413095Y-88203390D01*
X170413095Y-88203390D02*
X170508333Y-88155771D01*
X170508333Y-88155771D02*
X170746428Y-88155771D01*
X170746428Y-88155771D02*
X170841666Y-88203390D01*
X170841666Y-88203390D02*
X170889285Y-88251009D01*
X170889285Y-88251009D02*
X170936904Y-88346247D01*
X170936904Y-88346247D02*
X170936904Y-88584342D01*
X170936904Y-88584342D02*
X170889285Y-88679580D01*
X170889285Y-88679580D02*
X170841666Y-88727200D01*
X170841666Y-88727200D02*
X170746428Y-88774819D01*
X170746428Y-88774819D02*
X170508333Y-88774819D01*
X170508333Y-88774819D02*
X170413095Y-88727200D01*
X170413095Y-88727200D02*
X170365476Y-88679580D01*
X151496666Y-53204819D02*
X151496666Y-53919104D01*
X151496666Y-53919104D02*
X151449047Y-54061961D01*
X151449047Y-54061961D02*
X151353809Y-54157200D01*
X151353809Y-54157200D02*
X151210952Y-54204819D01*
X151210952Y-54204819D02*
X151115714Y-54204819D01*
X152496666Y-54204819D02*
X151925238Y-54204819D01*
X152210952Y-54204819D02*
X152210952Y-53204819D01*
X152210952Y-53204819D02*
X152115714Y-53347676D01*
X152115714Y-53347676D02*
X152020476Y-53442914D01*
X152020476Y-53442914D02*
X151925238Y-53490533D01*
X163291169Y-73299693D02*
X163223825Y-73299693D01*
X163223825Y-73299693D02*
X163089138Y-73232349D01*
X163089138Y-73232349D02*
X163021795Y-73165006D01*
X163021795Y-73165006D02*
X162954451Y-73030319D01*
X162954451Y-73030319D02*
X162954451Y-72895632D01*
X162954451Y-72895632D02*
X162988123Y-72794617D01*
X162988123Y-72794617D02*
X163089138Y-72626258D01*
X163089138Y-72626258D02*
X163190153Y-72525243D01*
X163190153Y-72525243D02*
X163358512Y-72424227D01*
X163358512Y-72424227D02*
X163459527Y-72390556D01*
X163459527Y-72390556D02*
X163594214Y-72390556D01*
X163594214Y-72390556D02*
X163728901Y-72457899D01*
X163728901Y-72457899D02*
X163796245Y-72525243D01*
X163796245Y-72525243D02*
X163863588Y-72659930D01*
X163863588Y-72659930D02*
X163863588Y-72727273D01*
X164132962Y-72996647D02*
X164200306Y-72996647D01*
X164200306Y-72996647D02*
X164301321Y-73030319D01*
X164301321Y-73030319D02*
X164469680Y-73198678D01*
X164469680Y-73198678D02*
X164503352Y-73299693D01*
X164503352Y-73299693D02*
X164503352Y-73367036D01*
X164503352Y-73367036D02*
X164469680Y-73468052D01*
X164469680Y-73468052D02*
X164402336Y-73535395D01*
X164402336Y-73535395D02*
X164267649Y-73602739D01*
X164267649Y-73602739D02*
X163459527Y-73602739D01*
X163459527Y-73602739D02*
X163897260Y-74040471D01*
X164840069Y-73569067D02*
X165311474Y-74040472D01*
X165311474Y-74040472D02*
X164301321Y-74444533D01*
X162704819Y-61416666D02*
X162228628Y-61749999D01*
X162704819Y-61988094D02*
X161704819Y-61988094D01*
X161704819Y-61988094D02*
X161704819Y-61607142D01*
X161704819Y-61607142D02*
X161752438Y-61511904D01*
X161752438Y-61511904D02*
X161800057Y-61464285D01*
X161800057Y-61464285D02*
X161895295Y-61416666D01*
X161895295Y-61416666D02*
X162038152Y-61416666D01*
X162038152Y-61416666D02*
X162133390Y-61464285D01*
X162133390Y-61464285D02*
X162181009Y-61511904D01*
X162181009Y-61511904D02*
X162228628Y-61607142D01*
X162228628Y-61607142D02*
X162228628Y-61988094D01*
X162038152Y-60559523D02*
X162704819Y-60559523D01*
X161657200Y-60797618D02*
X162371485Y-61035713D01*
X162371485Y-61035713D02*
X162371485Y-60416666D01*
X148954819Y-90761904D02*
X149764342Y-90761904D01*
X149764342Y-90761904D02*
X149859580Y-90714285D01*
X149859580Y-90714285D02*
X149907200Y-90666666D01*
X149907200Y-90666666D02*
X149954819Y-90571428D01*
X149954819Y-90571428D02*
X149954819Y-90380952D01*
X149954819Y-90380952D02*
X149907200Y-90285714D01*
X149907200Y-90285714D02*
X149859580Y-90238095D01*
X149859580Y-90238095D02*
X149764342Y-90190476D01*
X149764342Y-90190476D02*
X148954819Y-90190476D01*
X149288152Y-89285714D02*
X149954819Y-89285714D01*
X148907200Y-89523809D02*
X149621485Y-89761904D01*
X149621485Y-89761904D02*
X149621485Y-89142857D01*
X163107142Y-71109580D02*
X163059523Y-71157200D01*
X163059523Y-71157200D02*
X162916666Y-71204819D01*
X162916666Y-71204819D02*
X162821428Y-71204819D01*
X162821428Y-71204819D02*
X162678571Y-71157200D01*
X162678571Y-71157200D02*
X162583333Y-71061961D01*
X162583333Y-71061961D02*
X162535714Y-70966723D01*
X162535714Y-70966723D02*
X162488095Y-70776247D01*
X162488095Y-70776247D02*
X162488095Y-70633390D01*
X162488095Y-70633390D02*
X162535714Y-70442914D01*
X162535714Y-70442914D02*
X162583333Y-70347676D01*
X162583333Y-70347676D02*
X162678571Y-70252438D01*
X162678571Y-70252438D02*
X162821428Y-70204819D01*
X162821428Y-70204819D02*
X162916666Y-70204819D01*
X162916666Y-70204819D02*
X163059523Y-70252438D01*
X163059523Y-70252438D02*
X163107142Y-70300057D01*
X163440476Y-70204819D02*
X164059523Y-70204819D01*
X164059523Y-70204819D02*
X163726190Y-70585771D01*
X163726190Y-70585771D02*
X163869047Y-70585771D01*
X163869047Y-70585771D02*
X163964285Y-70633390D01*
X163964285Y-70633390D02*
X164011904Y-70681009D01*
X164011904Y-70681009D02*
X164059523Y-70776247D01*
X164059523Y-70776247D02*
X164059523Y-71014342D01*
X164059523Y-71014342D02*
X164011904Y-71109580D01*
X164011904Y-71109580D02*
X163964285Y-71157200D01*
X163964285Y-71157200D02*
X163869047Y-71204819D01*
X163869047Y-71204819D02*
X163583333Y-71204819D01*
X163583333Y-71204819D02*
X163488095Y-71157200D01*
X163488095Y-71157200D02*
X163440476Y-71109580D01*
X164916666Y-70538152D02*
X164916666Y-71204819D01*
X164678571Y-70157200D02*
X164440476Y-70871485D01*
X164440476Y-70871485D02*
X165059523Y-70871485D01*
X162233850Y-76544617D02*
X161897132Y-76881335D01*
X162368537Y-75938526D02*
X162233850Y-76544617D01*
X162233850Y-76544617D02*
X162839941Y-76409930D01*
X162974628Y-76679304D02*
X163041972Y-76679304D01*
X163041972Y-76679304D02*
X163142987Y-76712976D01*
X163142987Y-76712976D02*
X163311346Y-76881335D01*
X163311346Y-76881335D02*
X163345018Y-76982350D01*
X163345018Y-76982350D02*
X163345018Y-77049693D01*
X163345018Y-77049693D02*
X163311346Y-77150709D01*
X163311346Y-77150709D02*
X163244002Y-77218052D01*
X163244002Y-77218052D02*
X163109315Y-77285396D01*
X163109315Y-77285396D02*
X162301193Y-77285396D01*
X162301193Y-77285396D02*
X162738926Y-77723128D01*
X163738095Y-61860519D02*
X163738095Y-62670042D01*
X163738095Y-62670042D02*
X163785714Y-62765280D01*
X163785714Y-62765280D02*
X163833333Y-62812900D01*
X163833333Y-62812900D02*
X163928571Y-62860519D01*
X163928571Y-62860519D02*
X164119047Y-62860519D01*
X164119047Y-62860519D02*
X164214285Y-62812900D01*
X164214285Y-62812900D02*
X164261904Y-62765280D01*
X164261904Y-62765280D02*
X164309523Y-62670042D01*
X164309523Y-62670042D02*
X164309523Y-61860519D01*
X164690476Y-61860519D02*
X165309523Y-61860519D01*
X165309523Y-61860519D02*
X164976190Y-62241471D01*
X164976190Y-62241471D02*
X165119047Y-62241471D01*
X165119047Y-62241471D02*
X165214285Y-62289090D01*
X165214285Y-62289090D02*
X165261904Y-62336709D01*
X165261904Y-62336709D02*
X165309523Y-62431947D01*
X165309523Y-62431947D02*
X165309523Y-62670042D01*
X165309523Y-62670042D02*
X165261904Y-62765280D01*
X165261904Y-62765280D02*
X165214285Y-62812900D01*
X165214285Y-62812900D02*
X165119047Y-62860519D01*
X165119047Y-62860519D02*
X164833333Y-62860519D01*
X164833333Y-62860519D02*
X164738095Y-62812900D01*
X164738095Y-62812900D02*
X164690476Y-62765280D01*
X162954819Y-64386899D02*
X163192914Y-64386899D01*
X163097676Y-64624994D02*
X163192914Y-64386899D01*
X163192914Y-64386899D02*
X163097676Y-64148804D01*
X163383390Y-64529756D02*
X163192914Y-64386899D01*
X163192914Y-64386899D02*
X163383390Y-64244042D01*
X162954819Y-64386899D02*
X163192914Y-64386899D01*
X163097676Y-64624994D02*
X163192914Y-64386899D01*
X163192914Y-64386899D02*
X163097676Y-64148804D01*
X163383390Y-64529756D02*
X163192914Y-64386899D01*
X163192914Y-64386899D02*
X163383390Y-64244042D01*
X193704819Y-69142857D02*
X193228628Y-69476190D01*
X193704819Y-69714285D02*
X192704819Y-69714285D01*
X192704819Y-69714285D02*
X192704819Y-69333333D01*
X192704819Y-69333333D02*
X192752438Y-69238095D01*
X192752438Y-69238095D02*
X192800057Y-69190476D01*
X192800057Y-69190476D02*
X192895295Y-69142857D01*
X192895295Y-69142857D02*
X193038152Y-69142857D01*
X193038152Y-69142857D02*
X193133390Y-69190476D01*
X193133390Y-69190476D02*
X193181009Y-69238095D01*
X193181009Y-69238095D02*
X193228628Y-69333333D01*
X193228628Y-69333333D02*
X193228628Y-69714285D01*
X192800057Y-68761904D02*
X192752438Y-68714285D01*
X192752438Y-68714285D02*
X192704819Y-68619047D01*
X192704819Y-68619047D02*
X192704819Y-68380952D01*
X192704819Y-68380952D02*
X192752438Y-68285714D01*
X192752438Y-68285714D02*
X192800057Y-68238095D01*
X192800057Y-68238095D02*
X192895295Y-68190476D01*
X192895295Y-68190476D02*
X192990533Y-68190476D01*
X192990533Y-68190476D02*
X193133390Y-68238095D01*
X193133390Y-68238095D02*
X193704819Y-68809523D01*
X193704819Y-68809523D02*
X193704819Y-68190476D01*
X193704819Y-67238095D02*
X193704819Y-67809523D01*
X193704819Y-67523809D02*
X192704819Y-67523809D01*
X192704819Y-67523809D02*
X192847676Y-67619047D01*
X192847676Y-67619047D02*
X192942914Y-67714285D01*
X192942914Y-67714285D02*
X192990533Y-67809523D01*
X182859580Y-76642857D02*
X182907200Y-76690476D01*
X182907200Y-76690476D02*
X182954819Y-76833333D01*
X182954819Y-76833333D02*
X182954819Y-76928571D01*
X182954819Y-76928571D02*
X182907200Y-77071428D01*
X182907200Y-77071428D02*
X182811961Y-77166666D01*
X182811961Y-77166666D02*
X182716723Y-77214285D01*
X182716723Y-77214285D02*
X182526247Y-77261904D01*
X182526247Y-77261904D02*
X182383390Y-77261904D01*
X182383390Y-77261904D02*
X182192914Y-77214285D01*
X182192914Y-77214285D02*
X182097676Y-77166666D01*
X182097676Y-77166666D02*
X182002438Y-77071428D01*
X182002438Y-77071428D02*
X181954819Y-76928571D01*
X181954819Y-76928571D02*
X181954819Y-76833333D01*
X181954819Y-76833333D02*
X182002438Y-76690476D01*
X182002438Y-76690476D02*
X182050057Y-76642857D01*
X181954819Y-76309523D02*
X181954819Y-75690476D01*
X181954819Y-75690476D02*
X182335771Y-76023809D01*
X182335771Y-76023809D02*
X182335771Y-75880952D01*
X182335771Y-75880952D02*
X182383390Y-75785714D01*
X182383390Y-75785714D02*
X182431009Y-75738095D01*
X182431009Y-75738095D02*
X182526247Y-75690476D01*
X182526247Y-75690476D02*
X182764342Y-75690476D01*
X182764342Y-75690476D02*
X182859580Y-75738095D01*
X182859580Y-75738095D02*
X182907200Y-75785714D01*
X182907200Y-75785714D02*
X182954819Y-75880952D01*
X182954819Y-75880952D02*
X182954819Y-76166666D01*
X182954819Y-76166666D02*
X182907200Y-76261904D01*
X182907200Y-76261904D02*
X182859580Y-76309523D01*
X182050057Y-75309523D02*
X182002438Y-75261904D01*
X182002438Y-75261904D02*
X181954819Y-75166666D01*
X181954819Y-75166666D02*
X181954819Y-74928571D01*
X181954819Y-74928571D02*
X182002438Y-74833333D01*
X182002438Y-74833333D02*
X182050057Y-74785714D01*
X182050057Y-74785714D02*
X182145295Y-74738095D01*
X182145295Y-74738095D02*
X182240533Y-74738095D01*
X182240533Y-74738095D02*
X182383390Y-74785714D01*
X182383390Y-74785714D02*
X182954819Y-75357142D01*
X182954819Y-75357142D02*
X182954819Y-74738095D01*
X143359580Y-63642857D02*
X143407200Y-63690476D01*
X143407200Y-63690476D02*
X143454819Y-63833333D01*
X143454819Y-63833333D02*
X143454819Y-63928571D01*
X143454819Y-63928571D02*
X143407200Y-64071428D01*
X143407200Y-64071428D02*
X143311961Y-64166666D01*
X143311961Y-64166666D02*
X143216723Y-64214285D01*
X143216723Y-64214285D02*
X143026247Y-64261904D01*
X143026247Y-64261904D02*
X142883390Y-64261904D01*
X142883390Y-64261904D02*
X142692914Y-64214285D01*
X142692914Y-64214285D02*
X142597676Y-64166666D01*
X142597676Y-64166666D02*
X142502438Y-64071428D01*
X142502438Y-64071428D02*
X142454819Y-63928571D01*
X142454819Y-63928571D02*
X142454819Y-63833333D01*
X142454819Y-63833333D02*
X142502438Y-63690476D01*
X142502438Y-63690476D02*
X142550057Y-63642857D01*
X142788152Y-62785714D02*
X143454819Y-62785714D01*
X142407200Y-63023809D02*
X143121485Y-63261904D01*
X143121485Y-63261904D02*
X143121485Y-62642857D01*
X142454819Y-61785714D02*
X142454819Y-62261904D01*
X142454819Y-62261904D02*
X142931009Y-62309523D01*
X142931009Y-62309523D02*
X142883390Y-62261904D01*
X142883390Y-62261904D02*
X142835771Y-62166666D01*
X142835771Y-62166666D02*
X142835771Y-61928571D01*
X142835771Y-61928571D02*
X142883390Y-61833333D01*
X142883390Y-61833333D02*
X142931009Y-61785714D01*
X142931009Y-61785714D02*
X143026247Y-61738095D01*
X143026247Y-61738095D02*
X143264342Y-61738095D01*
X143264342Y-61738095D02*
X143359580Y-61785714D01*
X143359580Y-61785714D02*
X143407200Y-61833333D01*
X143407200Y-61833333D02*
X143454819Y-61928571D01*
X143454819Y-61928571D02*
X143454819Y-62166666D01*
X143454819Y-62166666D02*
X143407200Y-62261904D01*
X143407200Y-62261904D02*
X143359580Y-62309523D01*
X178166666Y-93431009D02*
X177833333Y-93431009D01*
X177833333Y-93954819D02*
X177833333Y-92954819D01*
X177833333Y-92954819D02*
X178309523Y-92954819D01*
X179023809Y-93431009D02*
X179166666Y-93478628D01*
X179166666Y-93478628D02*
X179214285Y-93526247D01*
X179214285Y-93526247D02*
X179261904Y-93621485D01*
X179261904Y-93621485D02*
X179261904Y-93764342D01*
X179261904Y-93764342D02*
X179214285Y-93859580D01*
X179214285Y-93859580D02*
X179166666Y-93907200D01*
X179166666Y-93907200D02*
X179071428Y-93954819D01*
X179071428Y-93954819D02*
X178690476Y-93954819D01*
X178690476Y-93954819D02*
X178690476Y-92954819D01*
X178690476Y-92954819D02*
X179023809Y-92954819D01*
X179023809Y-92954819D02*
X179119047Y-93002438D01*
X179119047Y-93002438D02*
X179166666Y-93050057D01*
X179166666Y-93050057D02*
X179214285Y-93145295D01*
X179214285Y-93145295D02*
X179214285Y-93240533D01*
X179214285Y-93240533D02*
X179166666Y-93335771D01*
X179166666Y-93335771D02*
X179119047Y-93383390D01*
X179119047Y-93383390D02*
X179023809Y-93431009D01*
X179023809Y-93431009D02*
X178690476Y-93431009D01*
X179642857Y-93050057D02*
X179690476Y-93002438D01*
X179690476Y-93002438D02*
X179785714Y-92954819D01*
X179785714Y-92954819D02*
X180023809Y-92954819D01*
X180023809Y-92954819D02*
X180119047Y-93002438D01*
X180119047Y-93002438D02*
X180166666Y-93050057D01*
X180166666Y-93050057D02*
X180214285Y-93145295D01*
X180214285Y-93145295D02*
X180214285Y-93240533D01*
X180214285Y-93240533D02*
X180166666Y-93383390D01*
X180166666Y-93383390D02*
X179595238Y-93954819D01*
X179595238Y-93954819D02*
X180214285Y-93954819D01*
X181432142Y-87634819D02*
X181098809Y-87158628D01*
X180860714Y-87634819D02*
X180860714Y-86634819D01*
X180860714Y-86634819D02*
X181241666Y-86634819D01*
X181241666Y-86634819D02*
X181336904Y-86682438D01*
X181336904Y-86682438D02*
X181384523Y-86730057D01*
X181384523Y-86730057D02*
X181432142Y-86825295D01*
X181432142Y-86825295D02*
X181432142Y-86968152D01*
X181432142Y-86968152D02*
X181384523Y-87063390D01*
X181384523Y-87063390D02*
X181336904Y-87111009D01*
X181336904Y-87111009D02*
X181241666Y-87158628D01*
X181241666Y-87158628D02*
X180860714Y-87158628D01*
X181813095Y-86730057D02*
X181860714Y-86682438D01*
X181860714Y-86682438D02*
X181955952Y-86634819D01*
X181955952Y-86634819D02*
X182194047Y-86634819D01*
X182194047Y-86634819D02*
X182289285Y-86682438D01*
X182289285Y-86682438D02*
X182336904Y-86730057D01*
X182336904Y-86730057D02*
X182384523Y-86825295D01*
X182384523Y-86825295D02*
X182384523Y-86920533D01*
X182384523Y-86920533D02*
X182336904Y-87063390D01*
X182336904Y-87063390D02*
X181765476Y-87634819D01*
X181765476Y-87634819D02*
X182384523Y-87634819D01*
X182860714Y-87634819D02*
X183051190Y-87634819D01*
X183051190Y-87634819D02*
X183146428Y-87587200D01*
X183146428Y-87587200D02*
X183194047Y-87539580D01*
X183194047Y-87539580D02*
X183289285Y-87396723D01*
X183289285Y-87396723D02*
X183336904Y-87206247D01*
X183336904Y-87206247D02*
X183336904Y-86825295D01*
X183336904Y-86825295D02*
X183289285Y-86730057D01*
X183289285Y-86730057D02*
X183241666Y-86682438D01*
X183241666Y-86682438D02*
X183146428Y-86634819D01*
X183146428Y-86634819D02*
X182955952Y-86634819D01*
X182955952Y-86634819D02*
X182860714Y-86682438D01*
X182860714Y-86682438D02*
X182813095Y-86730057D01*
X182813095Y-86730057D02*
X182765476Y-86825295D01*
X182765476Y-86825295D02*
X182765476Y-87063390D01*
X182765476Y-87063390D02*
X182813095Y-87158628D01*
X182813095Y-87158628D02*
X182860714Y-87206247D01*
X182860714Y-87206247D02*
X182955952Y-87253866D01*
X182955952Y-87253866D02*
X183146428Y-87253866D01*
X183146428Y-87253866D02*
X183241666Y-87206247D01*
X183241666Y-87206247D02*
X183289285Y-87158628D01*
X183289285Y-87158628D02*
X183336904Y-87063390D01*
X173738095Y-69204819D02*
X173738095Y-70014342D01*
X173738095Y-70014342D02*
X173785714Y-70109580D01*
X173785714Y-70109580D02*
X173833333Y-70157200D01*
X173833333Y-70157200D02*
X173928571Y-70204819D01*
X173928571Y-70204819D02*
X174119047Y-70204819D01*
X174119047Y-70204819D02*
X174214285Y-70157200D01*
X174214285Y-70157200D02*
X174261904Y-70109580D01*
X174261904Y-70109580D02*
X174309523Y-70014342D01*
X174309523Y-70014342D02*
X174309523Y-69204819D01*
X175261904Y-69204819D02*
X174785714Y-69204819D01*
X174785714Y-69204819D02*
X174738095Y-69681009D01*
X174738095Y-69681009D02*
X174785714Y-69633390D01*
X174785714Y-69633390D02*
X174880952Y-69585771D01*
X174880952Y-69585771D02*
X175119047Y-69585771D01*
X175119047Y-69585771D02*
X175214285Y-69633390D01*
X175214285Y-69633390D02*
X175261904Y-69681009D01*
X175261904Y-69681009D02*
X175309523Y-69776247D01*
X175309523Y-69776247D02*
X175309523Y-70014342D01*
X175309523Y-70014342D02*
X175261904Y-70109580D01*
X175261904Y-70109580D02*
X175214285Y-70157200D01*
X175214285Y-70157200D02*
X175119047Y-70204819D01*
X175119047Y-70204819D02*
X174880952Y-70204819D01*
X174880952Y-70204819D02*
X174785714Y-70157200D01*
X174785714Y-70157200D02*
X174738095Y-70109580D01*
X190797618Y-73954819D02*
X190464285Y-73478628D01*
X190226190Y-73954819D02*
X190226190Y-72954819D01*
X190226190Y-72954819D02*
X190607142Y-72954819D01*
X190607142Y-72954819D02*
X190702380Y-73002438D01*
X190702380Y-73002438D02*
X190749999Y-73050057D01*
X190749999Y-73050057D02*
X190797618Y-73145295D01*
X190797618Y-73145295D02*
X190797618Y-73288152D01*
X190797618Y-73288152D02*
X190749999Y-73383390D01*
X190749999Y-73383390D02*
X190702380Y-73431009D01*
X190702380Y-73431009D02*
X190607142Y-73478628D01*
X190607142Y-73478628D02*
X190226190Y-73478628D01*
X191226190Y-73431009D02*
X191559523Y-73431009D01*
X191702380Y-73954819D02*
X191226190Y-73954819D01*
X191226190Y-73954819D02*
X191226190Y-72954819D01*
X191226190Y-72954819D02*
X191702380Y-72954819D01*
X192083333Y-73907200D02*
X192226190Y-73954819D01*
X192226190Y-73954819D02*
X192464285Y-73954819D01*
X192464285Y-73954819D02*
X192559523Y-73907200D01*
X192559523Y-73907200D02*
X192607142Y-73859580D01*
X192607142Y-73859580D02*
X192654761Y-73764342D01*
X192654761Y-73764342D02*
X192654761Y-73669104D01*
X192654761Y-73669104D02*
X192607142Y-73573866D01*
X192607142Y-73573866D02*
X192559523Y-73526247D01*
X192559523Y-73526247D02*
X192464285Y-73478628D01*
X192464285Y-73478628D02*
X192273809Y-73431009D01*
X192273809Y-73431009D02*
X192178571Y-73383390D01*
X192178571Y-73383390D02*
X192130952Y-73335771D01*
X192130952Y-73335771D02*
X192083333Y-73240533D01*
X192083333Y-73240533D02*
X192083333Y-73145295D01*
X192083333Y-73145295D02*
X192130952Y-73050057D01*
X192130952Y-73050057D02*
X192178571Y-73002438D01*
X192178571Y-73002438D02*
X192273809Y-72954819D01*
X192273809Y-72954819D02*
X192511904Y-72954819D01*
X192511904Y-72954819D02*
X192654761Y-73002438D01*
X193083333Y-73431009D02*
X193416666Y-73431009D01*
X193559523Y-73954819D02*
X193083333Y-73954819D01*
X193083333Y-73954819D02*
X193083333Y-72954819D01*
X193083333Y-72954819D02*
X193559523Y-72954819D01*
X193845238Y-72954819D02*
X194416666Y-72954819D01*
X194130952Y-73954819D02*
X194130952Y-72954819D01*
X171107142Y-95204819D02*
X170773809Y-94728628D01*
X170535714Y-95204819D02*
X170535714Y-94204819D01*
X170535714Y-94204819D02*
X170916666Y-94204819D01*
X170916666Y-94204819D02*
X171011904Y-94252438D01*
X171011904Y-94252438D02*
X171059523Y-94300057D01*
X171059523Y-94300057D02*
X171107142Y-94395295D01*
X171107142Y-94395295D02*
X171107142Y-94538152D01*
X171107142Y-94538152D02*
X171059523Y-94633390D01*
X171059523Y-94633390D02*
X171011904Y-94681009D01*
X171011904Y-94681009D02*
X170916666Y-94728628D01*
X170916666Y-94728628D02*
X170535714Y-94728628D01*
X172059523Y-95204819D02*
X171488095Y-95204819D01*
X171773809Y-95204819D02*
X171773809Y-94204819D01*
X171773809Y-94204819D02*
X171678571Y-94347676D01*
X171678571Y-94347676D02*
X171583333Y-94442914D01*
X171583333Y-94442914D02*
X171488095Y-94490533D01*
X172678571Y-94204819D02*
X172773809Y-94204819D01*
X172773809Y-94204819D02*
X172869047Y-94252438D01*
X172869047Y-94252438D02*
X172916666Y-94300057D01*
X172916666Y-94300057D02*
X172964285Y-94395295D01*
X172964285Y-94395295D02*
X173011904Y-94585771D01*
X173011904Y-94585771D02*
X173011904Y-94823866D01*
X173011904Y-94823866D02*
X172964285Y-95014342D01*
X172964285Y-95014342D02*
X172916666Y-95109580D01*
X172916666Y-95109580D02*
X172869047Y-95157200D01*
X172869047Y-95157200D02*
X172773809Y-95204819D01*
X172773809Y-95204819D02*
X172678571Y-95204819D01*
X172678571Y-95204819D02*
X172583333Y-95157200D01*
X172583333Y-95157200D02*
X172535714Y-95109580D01*
X172535714Y-95109580D02*
X172488095Y-95014342D01*
X172488095Y-95014342D02*
X172440476Y-94823866D01*
X172440476Y-94823866D02*
X172440476Y-94585771D01*
X172440476Y-94585771D02*
X172488095Y-94395295D01*
X172488095Y-94395295D02*
X172535714Y-94300057D01*
X172535714Y-94300057D02*
X172583333Y-94252438D01*
X172583333Y-94252438D02*
X172678571Y-94204819D01*
X173681009Y-80833333D02*
X173681009Y-81166666D01*
X174204819Y-81166666D02*
X173204819Y-81166666D01*
X173204819Y-81166666D02*
X173204819Y-80690476D01*
X173681009Y-79976190D02*
X173728628Y-79833333D01*
X173728628Y-79833333D02*
X173776247Y-79785714D01*
X173776247Y-79785714D02*
X173871485Y-79738095D01*
X173871485Y-79738095D02*
X174014342Y-79738095D01*
X174014342Y-79738095D02*
X174109580Y-79785714D01*
X174109580Y-79785714D02*
X174157200Y-79833333D01*
X174157200Y-79833333D02*
X174204819Y-79928571D01*
X174204819Y-79928571D02*
X174204819Y-80309523D01*
X174204819Y-80309523D02*
X173204819Y-80309523D01*
X173204819Y-80309523D02*
X173204819Y-79976190D01*
X173204819Y-79976190D02*
X173252438Y-79880952D01*
X173252438Y-79880952D02*
X173300057Y-79833333D01*
X173300057Y-79833333D02*
X173395295Y-79785714D01*
X173395295Y-79785714D02*
X173490533Y-79785714D01*
X173490533Y-79785714D02*
X173585771Y-79833333D01*
X173585771Y-79833333D02*
X173633390Y-79880952D01*
X173633390Y-79880952D02*
X173681009Y-79976190D01*
X173681009Y-79976190D02*
X173681009Y-80309523D01*
X174204819Y-78785714D02*
X174204819Y-79357142D01*
X174204819Y-79071428D02*
X173204819Y-79071428D01*
X173204819Y-79071428D02*
X173347676Y-79166666D01*
X173347676Y-79166666D02*
X173442914Y-79261904D01*
X173442914Y-79261904D02*
X173490533Y-79357142D01*
X183550057Y-90845238D02*
X183502438Y-90940476D01*
X183502438Y-90940476D02*
X183407200Y-91035714D01*
X183407200Y-91035714D02*
X183264342Y-91178571D01*
X183264342Y-91178571D02*
X183216723Y-91273809D01*
X183216723Y-91273809D02*
X183216723Y-91369047D01*
X183454819Y-91321428D02*
X183407200Y-91416666D01*
X183407200Y-91416666D02*
X183311961Y-91511904D01*
X183311961Y-91511904D02*
X183121485Y-91559523D01*
X183121485Y-91559523D02*
X182788152Y-91559523D01*
X182788152Y-91559523D02*
X182597676Y-91511904D01*
X182597676Y-91511904D02*
X182502438Y-91416666D01*
X182502438Y-91416666D02*
X182454819Y-91321428D01*
X182454819Y-91321428D02*
X182454819Y-91130952D01*
X182454819Y-91130952D02*
X182502438Y-91035714D01*
X182502438Y-91035714D02*
X182597676Y-90940476D01*
X182597676Y-90940476D02*
X182788152Y-90892857D01*
X182788152Y-90892857D02*
X183121485Y-90892857D01*
X183121485Y-90892857D02*
X183311961Y-90940476D01*
X183311961Y-90940476D02*
X183407200Y-91035714D01*
X183407200Y-91035714D02*
X183454819Y-91130952D01*
X183454819Y-91130952D02*
X183454819Y-91321428D01*
X183454819Y-89940476D02*
X183454819Y-90511904D01*
X183454819Y-90226190D02*
X182454819Y-90226190D01*
X182454819Y-90226190D02*
X182597676Y-90321428D01*
X182597676Y-90321428D02*
X182692914Y-90416666D01*
X182692914Y-90416666D02*
X182740533Y-90511904D01*
X136524819Y-88642857D02*
X136048628Y-88976190D01*
X136524819Y-89214285D02*
X135524819Y-89214285D01*
X135524819Y-89214285D02*
X135524819Y-88833333D01*
X135524819Y-88833333D02*
X135572438Y-88738095D01*
X135572438Y-88738095D02*
X135620057Y-88690476D01*
X135620057Y-88690476D02*
X135715295Y-88642857D01*
X135715295Y-88642857D02*
X135858152Y-88642857D01*
X135858152Y-88642857D02*
X135953390Y-88690476D01*
X135953390Y-88690476D02*
X136001009Y-88738095D01*
X136001009Y-88738095D02*
X136048628Y-88833333D01*
X136048628Y-88833333D02*
X136048628Y-89214285D01*
X135620057Y-88261904D02*
X135572438Y-88214285D01*
X135572438Y-88214285D02*
X135524819Y-88119047D01*
X135524819Y-88119047D02*
X135524819Y-87880952D01*
X135524819Y-87880952D02*
X135572438Y-87785714D01*
X135572438Y-87785714D02*
X135620057Y-87738095D01*
X135620057Y-87738095D02*
X135715295Y-87690476D01*
X135715295Y-87690476D02*
X135810533Y-87690476D01*
X135810533Y-87690476D02*
X135953390Y-87738095D01*
X135953390Y-87738095D02*
X136524819Y-88309523D01*
X136524819Y-88309523D02*
X136524819Y-87690476D01*
X135524819Y-86785714D02*
X135524819Y-87261904D01*
X135524819Y-87261904D02*
X136001009Y-87309523D01*
X136001009Y-87309523D02*
X135953390Y-87261904D01*
X135953390Y-87261904D02*
X135905771Y-87166666D01*
X135905771Y-87166666D02*
X135905771Y-86928571D01*
X135905771Y-86928571D02*
X135953390Y-86833333D01*
X135953390Y-86833333D02*
X136001009Y-86785714D01*
X136001009Y-86785714D02*
X136096247Y-86738095D01*
X136096247Y-86738095D02*
X136334342Y-86738095D01*
X136334342Y-86738095D02*
X136429580Y-86785714D01*
X136429580Y-86785714D02*
X136477200Y-86833333D01*
X136477200Y-86833333D02*
X136524819Y-86928571D01*
X136524819Y-86928571D02*
X136524819Y-87166666D01*
X136524819Y-87166666D02*
X136477200Y-87261904D01*
X136477200Y-87261904D02*
X136429580Y-87309523D01*
X161607142Y-95109580D02*
X161559523Y-95157200D01*
X161559523Y-95157200D02*
X161416666Y-95204819D01*
X161416666Y-95204819D02*
X161321428Y-95204819D01*
X161321428Y-95204819D02*
X161178571Y-95157200D01*
X161178571Y-95157200D02*
X161083333Y-95061961D01*
X161083333Y-95061961D02*
X161035714Y-94966723D01*
X161035714Y-94966723D02*
X160988095Y-94776247D01*
X160988095Y-94776247D02*
X160988095Y-94633390D01*
X160988095Y-94633390D02*
X161035714Y-94442914D01*
X161035714Y-94442914D02*
X161083333Y-94347676D01*
X161083333Y-94347676D02*
X161178571Y-94252438D01*
X161178571Y-94252438D02*
X161321428Y-94204819D01*
X161321428Y-94204819D02*
X161416666Y-94204819D01*
X161416666Y-94204819D02*
X161559523Y-94252438D01*
X161559523Y-94252438D02*
X161607142Y-94300057D01*
X161988095Y-94300057D02*
X162035714Y-94252438D01*
X162035714Y-94252438D02*
X162130952Y-94204819D01*
X162130952Y-94204819D02*
X162369047Y-94204819D01*
X162369047Y-94204819D02*
X162464285Y-94252438D01*
X162464285Y-94252438D02*
X162511904Y-94300057D01*
X162511904Y-94300057D02*
X162559523Y-94395295D01*
X162559523Y-94395295D02*
X162559523Y-94490533D01*
X162559523Y-94490533D02*
X162511904Y-94633390D01*
X162511904Y-94633390D02*
X161940476Y-95204819D01*
X161940476Y-95204819D02*
X162559523Y-95204819D01*
X163511904Y-95204819D02*
X162940476Y-95204819D01*
X163226190Y-95204819D02*
X163226190Y-94204819D01*
X163226190Y-94204819D02*
X163130952Y-94347676D01*
X163130952Y-94347676D02*
X163035714Y-94442914D01*
X163035714Y-94442914D02*
X162940476Y-94490533D01*
X125357141Y-83359579D02*
X125309522Y-83407199D01*
X125309522Y-83407199D02*
X125166665Y-83454818D01*
X125166665Y-83454818D02*
X125071427Y-83454818D01*
X125071427Y-83454818D02*
X124928570Y-83407199D01*
X124928570Y-83407199D02*
X124833332Y-83311960D01*
X124833332Y-83311960D02*
X124785713Y-83216722D01*
X124785713Y-83216722D02*
X124738094Y-83026246D01*
X124738094Y-83026246D02*
X124738094Y-82883389D01*
X124738094Y-82883389D02*
X124785713Y-82692913D01*
X124785713Y-82692913D02*
X124833332Y-82597675D01*
X124833332Y-82597675D02*
X124928570Y-82502437D01*
X124928570Y-82502437D02*
X125071427Y-82454818D01*
X125071427Y-82454818D02*
X125166665Y-82454818D01*
X125166665Y-82454818D02*
X125309522Y-82502437D01*
X125309522Y-82502437D02*
X125357141Y-82550056D01*
X126214284Y-82788151D02*
X126214284Y-83454818D01*
X125976189Y-82407199D02*
X125738094Y-83121484D01*
X125738094Y-83121484D02*
X126357141Y-83121484D01*
X126880951Y-82883389D02*
X126785713Y-82835770D01*
X126785713Y-82835770D02*
X126738094Y-82788151D01*
X126738094Y-82788151D02*
X126690475Y-82692913D01*
X126690475Y-82692913D02*
X126690475Y-82645294D01*
X126690475Y-82645294D02*
X126738094Y-82550056D01*
X126738094Y-82550056D02*
X126785713Y-82502437D01*
X126785713Y-82502437D02*
X126880951Y-82454818D01*
X126880951Y-82454818D02*
X127071427Y-82454818D01*
X127071427Y-82454818D02*
X127166665Y-82502437D01*
X127166665Y-82502437D02*
X127214284Y-82550056D01*
X127214284Y-82550056D02*
X127261903Y-82645294D01*
X127261903Y-82645294D02*
X127261903Y-82692913D01*
X127261903Y-82692913D02*
X127214284Y-82788151D01*
X127214284Y-82788151D02*
X127166665Y-82835770D01*
X127166665Y-82835770D02*
X127071427Y-82883389D01*
X127071427Y-82883389D02*
X126880951Y-82883389D01*
X126880951Y-82883389D02*
X126785713Y-82931008D01*
X126785713Y-82931008D02*
X126738094Y-82978627D01*
X126738094Y-82978627D02*
X126690475Y-83073865D01*
X126690475Y-83073865D02*
X126690475Y-83264341D01*
X126690475Y-83264341D02*
X126738094Y-83359579D01*
X126738094Y-83359579D02*
X126785713Y-83407199D01*
X126785713Y-83407199D02*
X126880951Y-83454818D01*
X126880951Y-83454818D02*
X127071427Y-83454818D01*
X127071427Y-83454818D02*
X127166665Y-83407199D01*
X127166665Y-83407199D02*
X127214284Y-83359579D01*
X127214284Y-83359579D02*
X127261903Y-83264341D01*
X127261903Y-83264341D02*
X127261903Y-83073865D01*
X127261903Y-83073865D02*
X127214284Y-82978627D01*
X127214284Y-82978627D02*
X127166665Y-82931008D01*
X127166665Y-82931008D02*
X127071427Y-82883389D01*
X146511905Y-59454819D02*
X146511905Y-58454819D01*
X146511905Y-58454819D02*
X146750000Y-58454819D01*
X146750000Y-58454819D02*
X146892857Y-58502438D01*
X146892857Y-58502438D02*
X146988095Y-58597676D01*
X146988095Y-58597676D02*
X147035714Y-58692914D01*
X147035714Y-58692914D02*
X147083333Y-58883390D01*
X147083333Y-58883390D02*
X147083333Y-59026247D01*
X147083333Y-59026247D02*
X147035714Y-59216723D01*
X147035714Y-59216723D02*
X146988095Y-59311961D01*
X146988095Y-59311961D02*
X146892857Y-59407200D01*
X146892857Y-59407200D02*
X146750000Y-59454819D01*
X146750000Y-59454819D02*
X146511905Y-59454819D01*
X147464286Y-58550057D02*
X147511905Y-58502438D01*
X147511905Y-58502438D02*
X147607143Y-58454819D01*
X147607143Y-58454819D02*
X147845238Y-58454819D01*
X147845238Y-58454819D02*
X147940476Y-58502438D01*
X147940476Y-58502438D02*
X147988095Y-58550057D01*
X147988095Y-58550057D02*
X148035714Y-58645295D01*
X148035714Y-58645295D02*
X148035714Y-58740533D01*
X148035714Y-58740533D02*
X147988095Y-58883390D01*
X147988095Y-58883390D02*
X147416667Y-59454819D01*
X147416667Y-59454819D02*
X148035714Y-59454819D01*
X146109580Y-63892857D02*
X146157200Y-63940476D01*
X146157200Y-63940476D02*
X146204819Y-64083333D01*
X146204819Y-64083333D02*
X146204819Y-64178571D01*
X146204819Y-64178571D02*
X146157200Y-64321428D01*
X146157200Y-64321428D02*
X146061961Y-64416666D01*
X146061961Y-64416666D02*
X145966723Y-64464285D01*
X145966723Y-64464285D02*
X145776247Y-64511904D01*
X145776247Y-64511904D02*
X145633390Y-64511904D01*
X145633390Y-64511904D02*
X145442914Y-64464285D01*
X145442914Y-64464285D02*
X145347676Y-64416666D01*
X145347676Y-64416666D02*
X145252438Y-64321428D01*
X145252438Y-64321428D02*
X145204819Y-64178571D01*
X145204819Y-64178571D02*
X145204819Y-64083333D01*
X145204819Y-64083333D02*
X145252438Y-63940476D01*
X145252438Y-63940476D02*
X145300057Y-63892857D01*
X146204819Y-62940476D02*
X146204819Y-63511904D01*
X146204819Y-63226190D02*
X145204819Y-63226190D01*
X145204819Y-63226190D02*
X145347676Y-63321428D01*
X145347676Y-63321428D02*
X145442914Y-63416666D01*
X145442914Y-63416666D02*
X145490533Y-63511904D01*
X145204819Y-62321428D02*
X145204819Y-62226190D01*
X145204819Y-62226190D02*
X145252438Y-62130952D01*
X145252438Y-62130952D02*
X145300057Y-62083333D01*
X145300057Y-62083333D02*
X145395295Y-62035714D01*
X145395295Y-62035714D02*
X145585771Y-61988095D01*
X145585771Y-61988095D02*
X145823866Y-61988095D01*
X145823866Y-61988095D02*
X146014342Y-62035714D01*
X146014342Y-62035714D02*
X146109580Y-62083333D01*
X146109580Y-62083333D02*
X146157200Y-62130952D01*
X146157200Y-62130952D02*
X146204819Y-62226190D01*
X146204819Y-62226190D02*
X146204819Y-62321428D01*
X146204819Y-62321428D02*
X146157200Y-62416666D01*
X146157200Y-62416666D02*
X146109580Y-62464285D01*
X146109580Y-62464285D02*
X146014342Y-62511904D01*
X146014342Y-62511904D02*
X145823866Y-62559523D01*
X145823866Y-62559523D02*
X145585771Y-62559523D01*
X145585771Y-62559523D02*
X145395295Y-62511904D01*
X145395295Y-62511904D02*
X145300057Y-62464285D01*
X145300057Y-62464285D02*
X145252438Y-62416666D01*
X145252438Y-62416666D02*
X145204819Y-62321428D01*
X133632142Y-80109580D02*
X133584523Y-80157200D01*
X133584523Y-80157200D02*
X133441666Y-80204819D01*
X133441666Y-80204819D02*
X133346428Y-80204819D01*
X133346428Y-80204819D02*
X133203571Y-80157200D01*
X133203571Y-80157200D02*
X133108333Y-80061961D01*
X133108333Y-80061961D02*
X133060714Y-79966723D01*
X133060714Y-79966723D02*
X133013095Y-79776247D01*
X133013095Y-79776247D02*
X133013095Y-79633390D01*
X133013095Y-79633390D02*
X133060714Y-79442914D01*
X133060714Y-79442914D02*
X133108333Y-79347676D01*
X133108333Y-79347676D02*
X133203571Y-79252438D01*
X133203571Y-79252438D02*
X133346428Y-79204819D01*
X133346428Y-79204819D02*
X133441666Y-79204819D01*
X133441666Y-79204819D02*
X133584523Y-79252438D01*
X133584523Y-79252438D02*
X133632142Y-79300057D01*
X134489285Y-79538152D02*
X134489285Y-80204819D01*
X134251190Y-79157200D02*
X134013095Y-79871485D01*
X134013095Y-79871485D02*
X134632142Y-79871485D01*
X135536904Y-80204819D02*
X134965476Y-80204819D01*
X135251190Y-80204819D02*
X135251190Y-79204819D01*
X135251190Y-79204819D02*
X135155952Y-79347676D01*
X135155952Y-79347676D02*
X135060714Y-79442914D01*
X135060714Y-79442914D02*
X134965476Y-79490533D01*
X137959580Y-88617857D02*
X138007200Y-88665476D01*
X138007200Y-88665476D02*
X138054819Y-88808333D01*
X138054819Y-88808333D02*
X138054819Y-88903571D01*
X138054819Y-88903571D02*
X138007200Y-89046428D01*
X138007200Y-89046428D02*
X137911961Y-89141666D01*
X137911961Y-89141666D02*
X137816723Y-89189285D01*
X137816723Y-89189285D02*
X137626247Y-89236904D01*
X137626247Y-89236904D02*
X137483390Y-89236904D01*
X137483390Y-89236904D02*
X137292914Y-89189285D01*
X137292914Y-89189285D02*
X137197676Y-89141666D01*
X137197676Y-89141666D02*
X137102438Y-89046428D01*
X137102438Y-89046428D02*
X137054819Y-88903571D01*
X137054819Y-88903571D02*
X137054819Y-88808333D01*
X137054819Y-88808333D02*
X137102438Y-88665476D01*
X137102438Y-88665476D02*
X137150057Y-88617857D01*
X137388152Y-87760714D02*
X138054819Y-87760714D01*
X137007200Y-87998809D02*
X137721485Y-88236904D01*
X137721485Y-88236904D02*
X137721485Y-87617857D01*
X137150057Y-87284523D02*
X137102438Y-87236904D01*
X137102438Y-87236904D02*
X137054819Y-87141666D01*
X137054819Y-87141666D02*
X137054819Y-86903571D01*
X137054819Y-86903571D02*
X137102438Y-86808333D01*
X137102438Y-86808333D02*
X137150057Y-86760714D01*
X137150057Y-86760714D02*
X137245295Y-86713095D01*
X137245295Y-86713095D02*
X137340533Y-86713095D01*
X137340533Y-86713095D02*
X137483390Y-86760714D01*
X137483390Y-86760714D02*
X138054819Y-87332142D01*
X138054819Y-87332142D02*
X138054819Y-86713095D01*
X181357142Y-83204819D02*
X181023809Y-82728628D01*
X180785714Y-83204819D02*
X180785714Y-82204819D01*
X180785714Y-82204819D02*
X181166666Y-82204819D01*
X181166666Y-82204819D02*
X181261904Y-82252438D01*
X181261904Y-82252438D02*
X181309523Y-82300057D01*
X181309523Y-82300057D02*
X181357142Y-82395295D01*
X181357142Y-82395295D02*
X181357142Y-82538152D01*
X181357142Y-82538152D02*
X181309523Y-82633390D01*
X181309523Y-82633390D02*
X181261904Y-82681009D01*
X181261904Y-82681009D02*
X181166666Y-82728628D01*
X181166666Y-82728628D02*
X180785714Y-82728628D01*
X181738095Y-82300057D02*
X181785714Y-82252438D01*
X181785714Y-82252438D02*
X181880952Y-82204819D01*
X181880952Y-82204819D02*
X182119047Y-82204819D01*
X182119047Y-82204819D02*
X182214285Y-82252438D01*
X182214285Y-82252438D02*
X182261904Y-82300057D01*
X182261904Y-82300057D02*
X182309523Y-82395295D01*
X182309523Y-82395295D02*
X182309523Y-82490533D01*
X182309523Y-82490533D02*
X182261904Y-82633390D01*
X182261904Y-82633390D02*
X181690476Y-83204819D01*
X181690476Y-83204819D02*
X182309523Y-83204819D01*
X182642857Y-82204819D02*
X183261904Y-82204819D01*
X183261904Y-82204819D02*
X182928571Y-82585771D01*
X182928571Y-82585771D02*
X183071428Y-82585771D01*
X183071428Y-82585771D02*
X183166666Y-82633390D01*
X183166666Y-82633390D02*
X183214285Y-82681009D01*
X183214285Y-82681009D02*
X183261904Y-82776247D01*
X183261904Y-82776247D02*
X183261904Y-83014342D01*
X183261904Y-83014342D02*
X183214285Y-83109580D01*
X183214285Y-83109580D02*
X183166666Y-83157200D01*
X183166666Y-83157200D02*
X183071428Y-83204819D01*
X183071428Y-83204819D02*
X182785714Y-83204819D01*
X182785714Y-83204819D02*
X182690476Y-83157200D01*
X182690476Y-83157200D02*
X182642857Y-83109580D01*
X140859580Y-63642857D02*
X140907200Y-63690476D01*
X140907200Y-63690476D02*
X140954819Y-63833333D01*
X140954819Y-63833333D02*
X140954819Y-63928571D01*
X140954819Y-63928571D02*
X140907200Y-64071428D01*
X140907200Y-64071428D02*
X140811961Y-64166666D01*
X140811961Y-64166666D02*
X140716723Y-64214285D01*
X140716723Y-64214285D02*
X140526247Y-64261904D01*
X140526247Y-64261904D02*
X140383390Y-64261904D01*
X140383390Y-64261904D02*
X140192914Y-64214285D01*
X140192914Y-64214285D02*
X140097676Y-64166666D01*
X140097676Y-64166666D02*
X140002438Y-64071428D01*
X140002438Y-64071428D02*
X139954819Y-63928571D01*
X139954819Y-63928571D02*
X139954819Y-63833333D01*
X139954819Y-63833333D02*
X140002438Y-63690476D01*
X140002438Y-63690476D02*
X140050057Y-63642857D01*
X140288152Y-62785714D02*
X140954819Y-62785714D01*
X139907200Y-63023809D02*
X140621485Y-63261904D01*
X140621485Y-63261904D02*
X140621485Y-62642857D01*
X139954819Y-61833333D02*
X139954819Y-62023809D01*
X139954819Y-62023809D02*
X140002438Y-62119047D01*
X140002438Y-62119047D02*
X140050057Y-62166666D01*
X140050057Y-62166666D02*
X140192914Y-62261904D01*
X140192914Y-62261904D02*
X140383390Y-62309523D01*
X140383390Y-62309523D02*
X140764342Y-62309523D01*
X140764342Y-62309523D02*
X140859580Y-62261904D01*
X140859580Y-62261904D02*
X140907200Y-62214285D01*
X140907200Y-62214285D02*
X140954819Y-62119047D01*
X140954819Y-62119047D02*
X140954819Y-61928571D01*
X140954819Y-61928571D02*
X140907200Y-61833333D01*
X140907200Y-61833333D02*
X140859580Y-61785714D01*
X140859580Y-61785714D02*
X140764342Y-61738095D01*
X140764342Y-61738095D02*
X140526247Y-61738095D01*
X140526247Y-61738095D02*
X140431009Y-61785714D01*
X140431009Y-61785714D02*
X140383390Y-61833333D01*
X140383390Y-61833333D02*
X140335771Y-61928571D01*
X140335771Y-61928571D02*
X140335771Y-62119047D01*
X140335771Y-62119047D02*
X140383390Y-62214285D01*
X140383390Y-62214285D02*
X140431009Y-62261904D01*
X140431009Y-62261904D02*
X140526247Y-62309523D01*
X161632142Y-84954819D02*
X161298809Y-84478628D01*
X161060714Y-84954819D02*
X161060714Y-83954819D01*
X161060714Y-83954819D02*
X161441666Y-83954819D01*
X161441666Y-83954819D02*
X161536904Y-84002438D01*
X161536904Y-84002438D02*
X161584523Y-84050057D01*
X161584523Y-84050057D02*
X161632142Y-84145295D01*
X161632142Y-84145295D02*
X161632142Y-84288152D01*
X161632142Y-84288152D02*
X161584523Y-84383390D01*
X161584523Y-84383390D02*
X161536904Y-84431009D01*
X161536904Y-84431009D02*
X161441666Y-84478628D01*
X161441666Y-84478628D02*
X161060714Y-84478628D01*
X162584523Y-84954819D02*
X162013095Y-84954819D01*
X162298809Y-84954819D02*
X162298809Y-83954819D01*
X162298809Y-83954819D02*
X162203571Y-84097676D01*
X162203571Y-84097676D02*
X162108333Y-84192914D01*
X162108333Y-84192914D02*
X162013095Y-84240533D01*
X163155952Y-84383390D02*
X163060714Y-84335771D01*
X163060714Y-84335771D02*
X163013095Y-84288152D01*
X163013095Y-84288152D02*
X162965476Y-84192914D01*
X162965476Y-84192914D02*
X162965476Y-84145295D01*
X162965476Y-84145295D02*
X163013095Y-84050057D01*
X163013095Y-84050057D02*
X163060714Y-84002438D01*
X163060714Y-84002438D02*
X163155952Y-83954819D01*
X163155952Y-83954819D02*
X163346428Y-83954819D01*
X163346428Y-83954819D02*
X163441666Y-84002438D01*
X163441666Y-84002438D02*
X163489285Y-84050057D01*
X163489285Y-84050057D02*
X163536904Y-84145295D01*
X163536904Y-84145295D02*
X163536904Y-84192914D01*
X163536904Y-84192914D02*
X163489285Y-84288152D01*
X163489285Y-84288152D02*
X163441666Y-84335771D01*
X163441666Y-84335771D02*
X163346428Y-84383390D01*
X163346428Y-84383390D02*
X163155952Y-84383390D01*
X163155952Y-84383390D02*
X163060714Y-84431009D01*
X163060714Y-84431009D02*
X163013095Y-84478628D01*
X163013095Y-84478628D02*
X162965476Y-84573866D01*
X162965476Y-84573866D02*
X162965476Y-84764342D01*
X162965476Y-84764342D02*
X163013095Y-84859580D01*
X163013095Y-84859580D02*
X163060714Y-84907200D01*
X163060714Y-84907200D02*
X163155952Y-84954819D01*
X163155952Y-84954819D02*
X163346428Y-84954819D01*
X163346428Y-84954819D02*
X163441666Y-84907200D01*
X163441666Y-84907200D02*
X163489285Y-84859580D01*
X163489285Y-84859580D02*
X163536904Y-84764342D01*
X163536904Y-84764342D02*
X163536904Y-84573866D01*
X163536904Y-84573866D02*
X163489285Y-84478628D01*
X163489285Y-84478628D02*
X163441666Y-84431009D01*
X163441666Y-84431009D02*
X163346428Y-84383390D01*
X165279819Y-89261904D02*
X166089342Y-89261904D01*
X166089342Y-89261904D02*
X166184580Y-89214285D01*
X166184580Y-89214285D02*
X166232200Y-89166666D01*
X166232200Y-89166666D02*
X166279819Y-89071428D01*
X166279819Y-89071428D02*
X166279819Y-88880952D01*
X166279819Y-88880952D02*
X166232200Y-88785714D01*
X166232200Y-88785714D02*
X166184580Y-88738095D01*
X166184580Y-88738095D02*
X166089342Y-88690476D01*
X166089342Y-88690476D02*
X165279819Y-88690476D01*
X165279819Y-87785714D02*
X165279819Y-87976190D01*
X165279819Y-87976190D02*
X165327438Y-88071428D01*
X165327438Y-88071428D02*
X165375057Y-88119047D01*
X165375057Y-88119047D02*
X165517914Y-88214285D01*
X165517914Y-88214285D02*
X165708390Y-88261904D01*
X165708390Y-88261904D02*
X166089342Y-88261904D01*
X166089342Y-88261904D02*
X166184580Y-88214285D01*
X166184580Y-88214285D02*
X166232200Y-88166666D01*
X166232200Y-88166666D02*
X166279819Y-88071428D01*
X166279819Y-88071428D02*
X166279819Y-87880952D01*
X166279819Y-87880952D02*
X166232200Y-87785714D01*
X166232200Y-87785714D02*
X166184580Y-87738095D01*
X166184580Y-87738095D02*
X166089342Y-87690476D01*
X166089342Y-87690476D02*
X165851247Y-87690476D01*
X165851247Y-87690476D02*
X165756009Y-87738095D01*
X165756009Y-87738095D02*
X165708390Y-87785714D01*
X165708390Y-87785714D02*
X165660771Y-87880952D01*
X165660771Y-87880952D02*
X165660771Y-88071428D01*
X165660771Y-88071428D02*
X165708390Y-88166666D01*
X165708390Y-88166666D02*
X165756009Y-88214285D01*
X165756009Y-88214285D02*
X165851247Y-88261904D01*
X199454819Y-90833333D02*
X200169104Y-90833333D01*
X200169104Y-90833333D02*
X200311961Y-90880952D01*
X200311961Y-90880952D02*
X200407200Y-90976190D01*
X200407200Y-90976190D02*
X200454819Y-91119047D01*
X200454819Y-91119047D02*
X200454819Y-91214285D01*
X199454819Y-89880952D02*
X199454819Y-90357142D01*
X199454819Y-90357142D02*
X199931009Y-90404761D01*
X199931009Y-90404761D02*
X199883390Y-90357142D01*
X199883390Y-90357142D02*
X199835771Y-90261904D01*
X199835771Y-90261904D02*
X199835771Y-90023809D01*
X199835771Y-90023809D02*
X199883390Y-89928571D01*
X199883390Y-89928571D02*
X199931009Y-89880952D01*
X199931009Y-89880952D02*
X200026247Y-89833333D01*
X200026247Y-89833333D02*
X200264342Y-89833333D01*
X200264342Y-89833333D02*
X200359580Y-89880952D01*
X200359580Y-89880952D02*
X200407200Y-89928571D01*
X200407200Y-89928571D02*
X200454819Y-90023809D01*
X200454819Y-90023809D02*
X200454819Y-90261904D01*
X200454819Y-90261904D02*
X200407200Y-90357142D01*
X200407200Y-90357142D02*
X200359580Y-90404761D01*
X158833333Y-93204819D02*
X158500000Y-92728628D01*
X158261905Y-93204819D02*
X158261905Y-92204819D01*
X158261905Y-92204819D02*
X158642857Y-92204819D01*
X158642857Y-92204819D02*
X158738095Y-92252438D01*
X158738095Y-92252438D02*
X158785714Y-92300057D01*
X158785714Y-92300057D02*
X158833333Y-92395295D01*
X158833333Y-92395295D02*
X158833333Y-92538152D01*
X158833333Y-92538152D02*
X158785714Y-92633390D01*
X158785714Y-92633390D02*
X158738095Y-92681009D01*
X158738095Y-92681009D02*
X158642857Y-92728628D01*
X158642857Y-92728628D02*
X158261905Y-92728628D01*
X159404762Y-92633390D02*
X159309524Y-92585771D01*
X159309524Y-92585771D02*
X159261905Y-92538152D01*
X159261905Y-92538152D02*
X159214286Y-92442914D01*
X159214286Y-92442914D02*
X159214286Y-92395295D01*
X159214286Y-92395295D02*
X159261905Y-92300057D01*
X159261905Y-92300057D02*
X159309524Y-92252438D01*
X159309524Y-92252438D02*
X159404762Y-92204819D01*
X159404762Y-92204819D02*
X159595238Y-92204819D01*
X159595238Y-92204819D02*
X159690476Y-92252438D01*
X159690476Y-92252438D02*
X159738095Y-92300057D01*
X159738095Y-92300057D02*
X159785714Y-92395295D01*
X159785714Y-92395295D02*
X159785714Y-92442914D01*
X159785714Y-92442914D02*
X159738095Y-92538152D01*
X159738095Y-92538152D02*
X159690476Y-92585771D01*
X159690476Y-92585771D02*
X159595238Y-92633390D01*
X159595238Y-92633390D02*
X159404762Y-92633390D01*
X159404762Y-92633390D02*
X159309524Y-92681009D01*
X159309524Y-92681009D02*
X159261905Y-92728628D01*
X159261905Y-92728628D02*
X159214286Y-92823866D01*
X159214286Y-92823866D02*
X159214286Y-93014342D01*
X159214286Y-93014342D02*
X159261905Y-93109580D01*
X159261905Y-93109580D02*
X159309524Y-93157200D01*
X159309524Y-93157200D02*
X159404762Y-93204819D01*
X159404762Y-93204819D02*
X159595238Y-93204819D01*
X159595238Y-93204819D02*
X159690476Y-93157200D01*
X159690476Y-93157200D02*
X159738095Y-93109580D01*
X159738095Y-93109580D02*
X159785714Y-93014342D01*
X159785714Y-93014342D02*
X159785714Y-92823866D01*
X159785714Y-92823866D02*
X159738095Y-92728628D01*
X159738095Y-92728628D02*
X159690476Y-92681009D01*
X159690476Y-92681009D02*
X159595238Y-92633390D01*
X169032142Y-90134819D02*
X168698809Y-89658628D01*
X168460714Y-90134819D02*
X168460714Y-89134819D01*
X168460714Y-89134819D02*
X168841666Y-89134819D01*
X168841666Y-89134819D02*
X168936904Y-89182438D01*
X168936904Y-89182438D02*
X168984523Y-89230057D01*
X168984523Y-89230057D02*
X169032142Y-89325295D01*
X169032142Y-89325295D02*
X169032142Y-89468152D01*
X169032142Y-89468152D02*
X168984523Y-89563390D01*
X168984523Y-89563390D02*
X168936904Y-89611009D01*
X168936904Y-89611009D02*
X168841666Y-89658628D01*
X168841666Y-89658628D02*
X168460714Y-89658628D01*
X169984523Y-90134819D02*
X169413095Y-90134819D01*
X169698809Y-90134819D02*
X169698809Y-89134819D01*
X169698809Y-89134819D02*
X169603571Y-89277676D01*
X169603571Y-89277676D02*
X169508333Y-89372914D01*
X169508333Y-89372914D02*
X169413095Y-89420533D01*
X170841666Y-89468152D02*
X170841666Y-90134819D01*
X170603571Y-89087200D02*
X170365476Y-89801485D01*
X170365476Y-89801485D02*
X170984523Y-89801485D01*
X178583333Y-89359580D02*
X178535714Y-89407200D01*
X178535714Y-89407200D02*
X178392857Y-89454819D01*
X178392857Y-89454819D02*
X178297619Y-89454819D01*
X178297619Y-89454819D02*
X178154762Y-89407200D01*
X178154762Y-89407200D02*
X178059524Y-89311961D01*
X178059524Y-89311961D02*
X178011905Y-89216723D01*
X178011905Y-89216723D02*
X177964286Y-89026247D01*
X177964286Y-89026247D02*
X177964286Y-88883390D01*
X177964286Y-88883390D02*
X178011905Y-88692914D01*
X178011905Y-88692914D02*
X178059524Y-88597676D01*
X178059524Y-88597676D02*
X178154762Y-88502438D01*
X178154762Y-88502438D02*
X178297619Y-88454819D01*
X178297619Y-88454819D02*
X178392857Y-88454819D01*
X178392857Y-88454819D02*
X178535714Y-88502438D01*
X178535714Y-88502438D02*
X178583333Y-88550057D01*
X178964286Y-88550057D02*
X179011905Y-88502438D01*
X179011905Y-88502438D02*
X179107143Y-88454819D01*
X179107143Y-88454819D02*
X179345238Y-88454819D01*
X179345238Y-88454819D02*
X179440476Y-88502438D01*
X179440476Y-88502438D02*
X179488095Y-88550057D01*
X179488095Y-88550057D02*
X179535714Y-88645295D01*
X179535714Y-88645295D02*
X179535714Y-88740533D01*
X179535714Y-88740533D02*
X179488095Y-88883390D01*
X179488095Y-88883390D02*
X178916667Y-89454819D01*
X178916667Y-89454819D02*
X179535714Y-89454819D01*
X139357142Y-87609580D02*
X139309523Y-87657200D01*
X139309523Y-87657200D02*
X139166666Y-87704819D01*
X139166666Y-87704819D02*
X139071428Y-87704819D01*
X139071428Y-87704819D02*
X138928571Y-87657200D01*
X138928571Y-87657200D02*
X138833333Y-87561961D01*
X138833333Y-87561961D02*
X138785714Y-87466723D01*
X138785714Y-87466723D02*
X138738095Y-87276247D01*
X138738095Y-87276247D02*
X138738095Y-87133390D01*
X138738095Y-87133390D02*
X138785714Y-86942914D01*
X138785714Y-86942914D02*
X138833333Y-86847676D01*
X138833333Y-86847676D02*
X138928571Y-86752438D01*
X138928571Y-86752438D02*
X139071428Y-86704819D01*
X139071428Y-86704819D02*
X139166666Y-86704819D01*
X139166666Y-86704819D02*
X139309523Y-86752438D01*
X139309523Y-86752438D02*
X139357142Y-86800057D01*
X140214285Y-87038152D02*
X140214285Y-87704819D01*
X139976190Y-86657200D02*
X139738095Y-87371485D01*
X139738095Y-87371485D02*
X140357142Y-87371485D01*
X140642857Y-86704819D02*
X141261904Y-86704819D01*
X141261904Y-86704819D02*
X140928571Y-87085771D01*
X140928571Y-87085771D02*
X141071428Y-87085771D01*
X141071428Y-87085771D02*
X141166666Y-87133390D01*
X141166666Y-87133390D02*
X141214285Y-87181009D01*
X141214285Y-87181009D02*
X141261904Y-87276247D01*
X141261904Y-87276247D02*
X141261904Y-87514342D01*
X141261904Y-87514342D02*
X141214285Y-87609580D01*
X141214285Y-87609580D02*
X141166666Y-87657200D01*
X141166666Y-87657200D02*
X141071428Y-87704819D01*
X141071428Y-87704819D02*
X140785714Y-87704819D01*
X140785714Y-87704819D02*
X140690476Y-87657200D01*
X140690476Y-87657200D02*
X140642857Y-87609580D01*
X187857142Y-92204819D02*
X187523809Y-91728628D01*
X187285714Y-92204819D02*
X187285714Y-91204819D01*
X187285714Y-91204819D02*
X187666666Y-91204819D01*
X187666666Y-91204819D02*
X187761904Y-91252438D01*
X187761904Y-91252438D02*
X187809523Y-91300057D01*
X187809523Y-91300057D02*
X187857142Y-91395295D01*
X187857142Y-91395295D02*
X187857142Y-91538152D01*
X187857142Y-91538152D02*
X187809523Y-91633390D01*
X187809523Y-91633390D02*
X187761904Y-91681009D01*
X187761904Y-91681009D02*
X187666666Y-91728628D01*
X187666666Y-91728628D02*
X187285714Y-91728628D01*
X188809523Y-92204819D02*
X188238095Y-92204819D01*
X188523809Y-92204819D02*
X188523809Y-91204819D01*
X188523809Y-91204819D02*
X188428571Y-91347676D01*
X188428571Y-91347676D02*
X188333333Y-91442914D01*
X188333333Y-91442914D02*
X188238095Y-91490533D01*
X189190476Y-91300057D02*
X189238095Y-91252438D01*
X189238095Y-91252438D02*
X189333333Y-91204819D01*
X189333333Y-91204819D02*
X189571428Y-91204819D01*
X189571428Y-91204819D02*
X189666666Y-91252438D01*
X189666666Y-91252438D02*
X189714285Y-91300057D01*
X189714285Y-91300057D02*
X189761904Y-91395295D01*
X189761904Y-91395295D02*
X189761904Y-91490533D01*
X189761904Y-91490533D02*
X189714285Y-91633390D01*
X189714285Y-91633390D02*
X189142857Y-92204819D01*
X189142857Y-92204819D02*
X189761904Y-92204819D01*
X193166666Y-55704819D02*
X193166666Y-56419104D01*
X193166666Y-56419104D02*
X193119047Y-56561961D01*
X193119047Y-56561961D02*
X193023809Y-56657200D01*
X193023809Y-56657200D02*
X192880952Y-56704819D01*
X192880952Y-56704819D02*
X192785714Y-56704819D01*
X193690476Y-56704819D02*
X193880952Y-56704819D01*
X193880952Y-56704819D02*
X193976190Y-56657200D01*
X193976190Y-56657200D02*
X194023809Y-56609580D01*
X194023809Y-56609580D02*
X194119047Y-56466723D01*
X194119047Y-56466723D02*
X194166666Y-56276247D01*
X194166666Y-56276247D02*
X194166666Y-55895295D01*
X194166666Y-55895295D02*
X194119047Y-55800057D01*
X194119047Y-55800057D02*
X194071428Y-55752438D01*
X194071428Y-55752438D02*
X193976190Y-55704819D01*
X193976190Y-55704819D02*
X193785714Y-55704819D01*
X193785714Y-55704819D02*
X193690476Y-55752438D01*
X193690476Y-55752438D02*
X193642857Y-55800057D01*
X193642857Y-55800057D02*
X193595238Y-55895295D01*
X193595238Y-55895295D02*
X193595238Y-56133390D01*
X193595238Y-56133390D02*
X193642857Y-56228628D01*
X193642857Y-56228628D02*
X193690476Y-56276247D01*
X193690476Y-56276247D02*
X193785714Y-56323866D01*
X193785714Y-56323866D02*
X193976190Y-56323866D01*
X193976190Y-56323866D02*
X194071428Y-56276247D01*
X194071428Y-56276247D02*
X194119047Y-56228628D01*
X194119047Y-56228628D02*
X194166666Y-56133390D01*
X188738095Y-64704819D02*
X188738095Y-65514342D01*
X188738095Y-65514342D02*
X188785714Y-65609580D01*
X188785714Y-65609580D02*
X188833333Y-65657200D01*
X188833333Y-65657200D02*
X188928571Y-65704819D01*
X188928571Y-65704819D02*
X189119047Y-65704819D01*
X189119047Y-65704819D02*
X189214285Y-65657200D01*
X189214285Y-65657200D02*
X189261904Y-65609580D01*
X189261904Y-65609580D02*
X189309523Y-65514342D01*
X189309523Y-65514342D02*
X189309523Y-64704819D01*
X189690476Y-64704819D02*
X190357142Y-64704819D01*
X190357142Y-64704819D02*
X189928571Y-65704819D01*
X168166666Y-101204819D02*
X168166666Y-101919104D01*
X168166666Y-101919104D02*
X168119047Y-102061961D01*
X168119047Y-102061961D02*
X168023809Y-102157200D01*
X168023809Y-102157200D02*
X167880952Y-102204819D01*
X167880952Y-102204819D02*
X167785714Y-102204819D01*
X168547619Y-101204819D02*
X169166666Y-101204819D01*
X169166666Y-101204819D02*
X168833333Y-101585771D01*
X168833333Y-101585771D02*
X168976190Y-101585771D01*
X168976190Y-101585771D02*
X169071428Y-101633390D01*
X169071428Y-101633390D02*
X169119047Y-101681009D01*
X169119047Y-101681009D02*
X169166666Y-101776247D01*
X169166666Y-101776247D02*
X169166666Y-102014342D01*
X169166666Y-102014342D02*
X169119047Y-102109580D01*
X169119047Y-102109580D02*
X169071428Y-102157200D01*
X169071428Y-102157200D02*
X168976190Y-102204819D01*
X168976190Y-102204819D02*
X168690476Y-102204819D01*
X168690476Y-102204819D02*
X168595238Y-102157200D01*
X168595238Y-102157200D02*
X168547619Y-102109580D01*
X169032142Y-85524819D02*
X168698809Y-85048628D01*
X168460714Y-85524819D02*
X168460714Y-84524819D01*
X168460714Y-84524819D02*
X168841666Y-84524819D01*
X168841666Y-84524819D02*
X168936904Y-84572438D01*
X168936904Y-84572438D02*
X168984523Y-84620057D01*
X168984523Y-84620057D02*
X169032142Y-84715295D01*
X169032142Y-84715295D02*
X169032142Y-84858152D01*
X169032142Y-84858152D02*
X168984523Y-84953390D01*
X168984523Y-84953390D02*
X168936904Y-85001009D01*
X168936904Y-85001009D02*
X168841666Y-85048628D01*
X168841666Y-85048628D02*
X168460714Y-85048628D01*
X169984523Y-85524819D02*
X169413095Y-85524819D01*
X169698809Y-85524819D02*
X169698809Y-84524819D01*
X169698809Y-84524819D02*
X169603571Y-84667676D01*
X169603571Y-84667676D02*
X169508333Y-84762914D01*
X169508333Y-84762914D02*
X169413095Y-84810533D01*
X170317857Y-84524819D02*
X170984523Y-84524819D01*
X170984523Y-84524819D02*
X170555952Y-85524819D01*
X169032142Y-86884819D02*
X168698809Y-86408628D01*
X168460714Y-86884819D02*
X168460714Y-85884819D01*
X168460714Y-85884819D02*
X168841666Y-85884819D01*
X168841666Y-85884819D02*
X168936904Y-85932438D01*
X168936904Y-85932438D02*
X168984523Y-85980057D01*
X168984523Y-85980057D02*
X169032142Y-86075295D01*
X169032142Y-86075295D02*
X169032142Y-86218152D01*
X169032142Y-86218152D02*
X168984523Y-86313390D01*
X168984523Y-86313390D02*
X168936904Y-86361009D01*
X168936904Y-86361009D02*
X168841666Y-86408628D01*
X168841666Y-86408628D02*
X168460714Y-86408628D01*
X169984523Y-86884819D02*
X169413095Y-86884819D01*
X169698809Y-86884819D02*
X169698809Y-85884819D01*
X169698809Y-85884819D02*
X169603571Y-86027676D01*
X169603571Y-86027676D02*
X169508333Y-86122914D01*
X169508333Y-86122914D02*
X169413095Y-86170533D01*
X170841666Y-85884819D02*
X170651190Y-85884819D01*
X170651190Y-85884819D02*
X170555952Y-85932438D01*
X170555952Y-85932438D02*
X170508333Y-85980057D01*
X170508333Y-85980057D02*
X170413095Y-86122914D01*
X170413095Y-86122914D02*
X170365476Y-86313390D01*
X170365476Y-86313390D02*
X170365476Y-86694342D01*
X170365476Y-86694342D02*
X170413095Y-86789580D01*
X170413095Y-86789580D02*
X170460714Y-86837200D01*
X170460714Y-86837200D02*
X170555952Y-86884819D01*
X170555952Y-86884819D02*
X170746428Y-86884819D01*
X170746428Y-86884819D02*
X170841666Y-86837200D01*
X170841666Y-86837200D02*
X170889285Y-86789580D01*
X170889285Y-86789580D02*
X170936904Y-86694342D01*
X170936904Y-86694342D02*
X170936904Y-86456247D01*
X170936904Y-86456247D02*
X170889285Y-86361009D01*
X170889285Y-86361009D02*
X170841666Y-86313390D01*
X170841666Y-86313390D02*
X170746428Y-86265771D01*
X170746428Y-86265771D02*
X170555952Y-86265771D01*
X170555952Y-86265771D02*
X170460714Y-86313390D01*
X170460714Y-86313390D02*
X170413095Y-86361009D01*
X170413095Y-86361009D02*
X170365476Y-86456247D01*
X145107142Y-84359580D02*
X145059523Y-84407200D01*
X145059523Y-84407200D02*
X144916666Y-84454819D01*
X144916666Y-84454819D02*
X144821428Y-84454819D01*
X144821428Y-84454819D02*
X144678571Y-84407200D01*
X144678571Y-84407200D02*
X144583333Y-84311961D01*
X144583333Y-84311961D02*
X144535714Y-84216723D01*
X144535714Y-84216723D02*
X144488095Y-84026247D01*
X144488095Y-84026247D02*
X144488095Y-83883390D01*
X144488095Y-83883390D02*
X144535714Y-83692914D01*
X144535714Y-83692914D02*
X144583333Y-83597676D01*
X144583333Y-83597676D02*
X144678571Y-83502438D01*
X144678571Y-83502438D02*
X144821428Y-83454819D01*
X144821428Y-83454819D02*
X144916666Y-83454819D01*
X144916666Y-83454819D02*
X145059523Y-83502438D01*
X145059523Y-83502438D02*
X145107142Y-83550057D01*
X145488095Y-83550057D02*
X145535714Y-83502438D01*
X145535714Y-83502438D02*
X145630952Y-83454819D01*
X145630952Y-83454819D02*
X145869047Y-83454819D01*
X145869047Y-83454819D02*
X145964285Y-83502438D01*
X145964285Y-83502438D02*
X146011904Y-83550057D01*
X146011904Y-83550057D02*
X146059523Y-83645295D01*
X146059523Y-83645295D02*
X146059523Y-83740533D01*
X146059523Y-83740533D02*
X146011904Y-83883390D01*
X146011904Y-83883390D02*
X145440476Y-84454819D01*
X145440476Y-84454819D02*
X146059523Y-84454819D01*
X146678571Y-83454819D02*
X146773809Y-83454819D01*
X146773809Y-83454819D02*
X146869047Y-83502438D01*
X146869047Y-83502438D02*
X146916666Y-83550057D01*
X146916666Y-83550057D02*
X146964285Y-83645295D01*
X146964285Y-83645295D02*
X147011904Y-83835771D01*
X147011904Y-83835771D02*
X147011904Y-84073866D01*
X147011904Y-84073866D02*
X146964285Y-84264342D01*
X146964285Y-84264342D02*
X146916666Y-84359580D01*
X146916666Y-84359580D02*
X146869047Y-84407200D01*
X146869047Y-84407200D02*
X146773809Y-84454819D01*
X146773809Y-84454819D02*
X146678571Y-84454819D01*
X146678571Y-84454819D02*
X146583333Y-84407200D01*
X146583333Y-84407200D02*
X146535714Y-84359580D01*
X146535714Y-84359580D02*
X146488095Y-84264342D01*
X146488095Y-84264342D02*
X146440476Y-84073866D01*
X146440476Y-84073866D02*
X146440476Y-83835771D01*
X146440476Y-83835771D02*
X146488095Y-83645295D01*
X146488095Y-83645295D02*
X146535714Y-83550057D01*
X146535714Y-83550057D02*
X146583333Y-83502438D01*
X146583333Y-83502438D02*
X146678571Y-83454819D01*
X189109580Y-80142857D02*
X189157200Y-80190476D01*
X189157200Y-80190476D02*
X189204819Y-80333333D01*
X189204819Y-80333333D02*
X189204819Y-80428571D01*
X189204819Y-80428571D02*
X189157200Y-80571428D01*
X189157200Y-80571428D02*
X189061961Y-80666666D01*
X189061961Y-80666666D02*
X188966723Y-80714285D01*
X188966723Y-80714285D02*
X188776247Y-80761904D01*
X188776247Y-80761904D02*
X188633390Y-80761904D01*
X188633390Y-80761904D02*
X188442914Y-80714285D01*
X188442914Y-80714285D02*
X188347676Y-80666666D01*
X188347676Y-80666666D02*
X188252438Y-80571428D01*
X188252438Y-80571428D02*
X188204819Y-80428571D01*
X188204819Y-80428571D02*
X188204819Y-80333333D01*
X188204819Y-80333333D02*
X188252438Y-80190476D01*
X188252438Y-80190476D02*
X188300057Y-80142857D01*
X188204819Y-79809523D02*
X188204819Y-79190476D01*
X188204819Y-79190476D02*
X188585771Y-79523809D01*
X188585771Y-79523809D02*
X188585771Y-79380952D01*
X188585771Y-79380952D02*
X188633390Y-79285714D01*
X188633390Y-79285714D02*
X188681009Y-79238095D01*
X188681009Y-79238095D02*
X188776247Y-79190476D01*
X188776247Y-79190476D02*
X189014342Y-79190476D01*
X189014342Y-79190476D02*
X189109580Y-79238095D01*
X189109580Y-79238095D02*
X189157200Y-79285714D01*
X189157200Y-79285714D02*
X189204819Y-79380952D01*
X189204819Y-79380952D02*
X189204819Y-79666666D01*
X189204819Y-79666666D02*
X189157200Y-79761904D01*
X189157200Y-79761904D02*
X189109580Y-79809523D01*
X188204819Y-78333333D02*
X188204819Y-78523809D01*
X188204819Y-78523809D02*
X188252438Y-78619047D01*
X188252438Y-78619047D02*
X188300057Y-78666666D01*
X188300057Y-78666666D02*
X188442914Y-78761904D01*
X188442914Y-78761904D02*
X188633390Y-78809523D01*
X188633390Y-78809523D02*
X189014342Y-78809523D01*
X189014342Y-78809523D02*
X189109580Y-78761904D01*
X189109580Y-78761904D02*
X189157200Y-78714285D01*
X189157200Y-78714285D02*
X189204819Y-78619047D01*
X189204819Y-78619047D02*
X189204819Y-78428571D01*
X189204819Y-78428571D02*
X189157200Y-78333333D01*
X189157200Y-78333333D02*
X189109580Y-78285714D01*
X189109580Y-78285714D02*
X189014342Y-78238095D01*
X189014342Y-78238095D02*
X188776247Y-78238095D01*
X188776247Y-78238095D02*
X188681009Y-78285714D01*
X188681009Y-78285714D02*
X188633390Y-78333333D01*
X188633390Y-78333333D02*
X188585771Y-78428571D01*
X188585771Y-78428571D02*
X188585771Y-78619047D01*
X188585771Y-78619047D02*
X188633390Y-78714285D01*
X188633390Y-78714285D02*
X188681009Y-78761904D01*
X188681009Y-78761904D02*
X188776247Y-78809523D01*
X151916666Y-101154819D02*
X151916666Y-101869104D01*
X151916666Y-101869104D02*
X151869047Y-102011961D01*
X151869047Y-102011961D02*
X151773809Y-102107200D01*
X151773809Y-102107200D02*
X151630952Y-102154819D01*
X151630952Y-102154819D02*
X151535714Y-102154819D01*
X152345238Y-101250057D02*
X152392857Y-101202438D01*
X152392857Y-101202438D02*
X152488095Y-101154819D01*
X152488095Y-101154819D02*
X152726190Y-101154819D01*
X152726190Y-101154819D02*
X152821428Y-101202438D01*
X152821428Y-101202438D02*
X152869047Y-101250057D01*
X152869047Y-101250057D02*
X152916666Y-101345295D01*
X152916666Y-101345295D02*
X152916666Y-101440533D01*
X152916666Y-101440533D02*
X152869047Y-101583390D01*
X152869047Y-101583390D02*
X152297619Y-102154819D01*
X152297619Y-102154819D02*
X152916666Y-102154819D01*
X138107142Y-77609580D02*
X138059523Y-77657200D01*
X138059523Y-77657200D02*
X137916666Y-77704819D01*
X137916666Y-77704819D02*
X137821428Y-77704819D01*
X137821428Y-77704819D02*
X137678571Y-77657200D01*
X137678571Y-77657200D02*
X137583333Y-77561961D01*
X137583333Y-77561961D02*
X137535714Y-77466723D01*
X137535714Y-77466723D02*
X137488095Y-77276247D01*
X137488095Y-77276247D02*
X137488095Y-77133390D01*
X137488095Y-77133390D02*
X137535714Y-76942914D01*
X137535714Y-76942914D02*
X137583333Y-76847676D01*
X137583333Y-76847676D02*
X137678571Y-76752438D01*
X137678571Y-76752438D02*
X137821428Y-76704819D01*
X137821428Y-76704819D02*
X137916666Y-76704819D01*
X137916666Y-76704819D02*
X138059523Y-76752438D01*
X138059523Y-76752438D02*
X138107142Y-76800057D01*
X138964285Y-77038152D02*
X138964285Y-77704819D01*
X138726190Y-76657200D02*
X138488095Y-77371485D01*
X138488095Y-77371485D02*
X139107142Y-77371485D01*
X139916666Y-77038152D02*
X139916666Y-77704819D01*
X139678571Y-76657200D02*
X139440476Y-77371485D01*
X139440476Y-77371485D02*
X140059523Y-77371485D01*
X171083333Y-93204819D02*
X170750000Y-92728628D01*
X170511905Y-93204819D02*
X170511905Y-92204819D01*
X170511905Y-92204819D02*
X170892857Y-92204819D01*
X170892857Y-92204819D02*
X170988095Y-92252438D01*
X170988095Y-92252438D02*
X171035714Y-92300057D01*
X171035714Y-92300057D02*
X171083333Y-92395295D01*
X171083333Y-92395295D02*
X171083333Y-92538152D01*
X171083333Y-92538152D02*
X171035714Y-92633390D01*
X171035714Y-92633390D02*
X170988095Y-92681009D01*
X170988095Y-92681009D02*
X170892857Y-92728628D01*
X170892857Y-92728628D02*
X170511905Y-92728628D01*
X171559524Y-93204819D02*
X171750000Y-93204819D01*
X171750000Y-93204819D02*
X171845238Y-93157200D01*
X171845238Y-93157200D02*
X171892857Y-93109580D01*
X171892857Y-93109580D02*
X171988095Y-92966723D01*
X171988095Y-92966723D02*
X172035714Y-92776247D01*
X172035714Y-92776247D02*
X172035714Y-92395295D01*
X172035714Y-92395295D02*
X171988095Y-92300057D01*
X171988095Y-92300057D02*
X171940476Y-92252438D01*
X171940476Y-92252438D02*
X171845238Y-92204819D01*
X171845238Y-92204819D02*
X171654762Y-92204819D01*
X171654762Y-92204819D02*
X171559524Y-92252438D01*
X171559524Y-92252438D02*
X171511905Y-92300057D01*
X171511905Y-92300057D02*
X171464286Y-92395295D01*
X171464286Y-92395295D02*
X171464286Y-92633390D01*
X171464286Y-92633390D02*
X171511905Y-92728628D01*
X171511905Y-92728628D02*
X171559524Y-92776247D01*
X171559524Y-92776247D02*
X171654762Y-92823866D01*
X171654762Y-92823866D02*
X171845238Y-92823866D01*
X171845238Y-92823866D02*
X171940476Y-92776247D01*
X171940476Y-92776247D02*
X171988095Y-92728628D01*
X171988095Y-92728628D02*
X172035714Y-92633390D01*
%TO.C,C40*%
D12*
X132813748Y-76840000D02*
X134236252Y-76840000D01*
X132813748Y-78660000D02*
X134236252Y-78660000D01*
%TO.C,C16*%
X165988747Y-57765000D02*
X166511253Y-57765000D01*
X165988747Y-59235000D02*
X166511253Y-59235000D01*
%TO.C,C49*%
X142760000Y-87463748D02*
X142760000Y-87986252D01*
X144230000Y-87463748D02*
X144230000Y-87986252D01*
%TO.C,C35*%
X165595604Y-75708097D02*
X165794415Y-75906908D01*
X166316853Y-74986848D02*
X166515664Y-75185659D01*
%TO.C,U9*%
D11*
X136175000Y-84525000D02*
X136175000Y-80375000D01*
X141325000Y-84525000D02*
X141325000Y-80375000D01*
D12*
X136275000Y-85125000D02*
X135945000Y-85365000D01*
X135945000Y-84885000D01*
X136275000Y-85125000D01*
G36*
X136275000Y-85125000D02*
G01*
X135945000Y-85365000D01*
X135945000Y-84885000D01*
X136275000Y-85125000D01*
G37*
%TO.C,C23*%
X168261252Y-92015000D02*
X167738748Y-92015000D01*
X168261252Y-93485000D02*
X167738748Y-93485000D01*
%TO.C,R13*%
X191787258Y-88297500D02*
X191312742Y-88297500D01*
X191787258Y-89342500D02*
X191312742Y-89342500D01*
%TO.C,C1*%
X175915580Y-91490000D02*
X175634420Y-91490000D01*
X175915580Y-92510000D02*
X175634420Y-92510000D01*
%TO.C,J4*%
X196140000Y-72690000D02*
X197410000Y-72690000D01*
X196140000Y-73960000D02*
X196140000Y-72690000D01*
X198487358Y-76070000D02*
X198872642Y-76070000D01*
X198487358Y-76930000D02*
X198872642Y-76930000D01*
X198487358Y-78610000D02*
X198872642Y-78610000D01*
X198487358Y-79470000D02*
X198872642Y-79470000D01*
X198487358Y-81150000D02*
X198872642Y-81150000D01*
X198487358Y-82010000D02*
X198872642Y-82010000D01*
X198570000Y-73530000D02*
X198872642Y-73530000D01*
X198570000Y-74390000D02*
X198872642Y-74390000D01*
X201027358Y-73530000D02*
X201340000Y-73530000D01*
X201027358Y-74390000D02*
X201340000Y-74390000D01*
X201027358Y-76070000D02*
X201340000Y-76070000D01*
X201027358Y-76930000D02*
X201340000Y-76930000D01*
X201027358Y-78610000D02*
X201340000Y-78610000D01*
X201027358Y-79470000D02*
X201340000Y-79470000D01*
X201027358Y-81150000D02*
X201340000Y-81150000D01*
X201027358Y-82010000D02*
X201340000Y-82010000D01*
X201340000Y-75230000D02*
X204100000Y-75230000D01*
X201340000Y-77770000D02*
X204100000Y-77770000D01*
X201340000Y-80310000D02*
X204100000Y-80310000D01*
X204100000Y-76070000D02*
X210100000Y-76070000D01*
X204100000Y-78610000D02*
X210100000Y-78610000D01*
X204100000Y-81150000D02*
X210100000Y-81150000D01*
X210100000Y-76070000D02*
X210100000Y-76930000D01*
X210100000Y-76930000D02*
X204100000Y-76930000D01*
X210100000Y-78610000D02*
X210100000Y-79470000D01*
X210100000Y-79470000D02*
X204100000Y-79470000D01*
X210100000Y-81150000D02*
X210100000Y-82010000D01*
X210100000Y-82010000D02*
X204100000Y-82010000D01*
X201340000Y-72580000D02*
X204100000Y-72580000D01*
X204100000Y-82960000D01*
X201340000Y-82960000D01*
X201340000Y-72580000D01*
X204100000Y-73530000D02*
X210100000Y-73530000D01*
X210100000Y-74390000D01*
X204100000Y-74390000D01*
X204100000Y-73530000D01*
G36*
X204100000Y-73530000D02*
G01*
X210100000Y-73530000D01*
X210100000Y-74390000D01*
X204100000Y-74390000D01*
X204100000Y-73530000D01*
G37*
%TO.C,D3*%
X155290000Y-69502502D02*
X155290000Y-72187501D01*
X157210000Y-69502502D02*
X155290000Y-69502502D01*
X157210000Y-72187501D02*
X157210000Y-69502502D01*
%TO.C,J6*%
X198100000Y-60300000D02*
X200100000Y-60300000D01*
X198100000Y-69700000D02*
X200100000Y-69700000D01*
X202000000Y-60300000D02*
X203900000Y-60300000D01*
X202000000Y-69700000D02*
X203900000Y-69700000D01*
X203900000Y-69700000D02*
X203900000Y-60300000D01*
%TO.C,C47*%
X132788748Y-74340000D02*
X134211252Y-74340000D01*
X132788748Y-76160000D02*
X134211252Y-76160000D01*
%TO.C,C39*%
X190609420Y-68240000D02*
X190890580Y-68240000D01*
X190609420Y-69260000D02*
X190890580Y-69260000D01*
%TO.C,R27*%
X134327500Y-82162742D02*
X134327500Y-82637258D01*
X135372500Y-82162742D02*
X135372500Y-82637258D01*
%TO.C,C38*%
X165134420Y-83990000D02*
X165415580Y-83990000D01*
X165134420Y-85010000D02*
X165415580Y-85010000D01*
%TO.C,R20*%
X184512742Y-63977500D02*
X184987258Y-63977500D01*
X184512742Y-65022500D02*
X184987258Y-65022500D01*
%TO.C,C12*%
X157265000Y-63188748D02*
X157265000Y-63711252D01*
X158735000Y-63188748D02*
X158735000Y-63711252D01*
%TO.C,C18*%
X143562500Y-76402500D02*
X144350000Y-76402500D01*
X143956250Y-76008750D02*
X143956250Y-76796250D01*
X144590000Y-75904437D02*
X144590000Y-77190000D01*
X144590000Y-75904437D02*
X145654437Y-74840000D01*
X144590000Y-80595563D02*
X144590000Y-79310000D01*
X144590000Y-80595563D02*
X145654437Y-81660000D01*
X145654437Y-74840000D02*
X151410000Y-74840000D01*
X145654437Y-81660000D02*
X151410000Y-81660000D01*
X151410000Y-74840000D02*
X151410000Y-77190000D01*
X151410000Y-81660000D02*
X151410000Y-79310000D01*
%TO.C,C17*%
X167015000Y-62666953D02*
X167015000Y-62144447D01*
X168485000Y-62666953D02*
X168485000Y-62144447D01*
%TO.C,D5*%
X177562645Y-82009496D02*
X177562645Y-83479496D01*
X177562645Y-83479496D02*
X179847645Y-83479496D01*
X179847645Y-82009496D02*
X177562645Y-82009496D01*
%TO.C,R26*%
X133977500Y-87762742D02*
X133977500Y-88237258D01*
X135022500Y-87762742D02*
X135022500Y-88237258D01*
%TO.C,D1*%
X150050000Y-58100000D02*
X150050000Y-60100000D01*
X150050000Y-58100000D02*
X154060000Y-58100000D01*
X150050000Y-60100000D02*
X154060000Y-60100000D01*
%TO.C,C37*%
X186740000Y-76334420D02*
X186740000Y-76615580D01*
X187760000Y-76334420D02*
X187760000Y-76615580D01*
%TO.C,J10*%
X186090000Y-100920000D02*
X186090000Y-103580000D01*
X198850000Y-100920000D02*
X186090000Y-100920000D01*
X198850000Y-100920000D02*
X198850000Y-103580000D01*
X198850000Y-103580000D02*
X186090000Y-103580000D01*
X201450000Y-102250000D02*
X201450000Y-103580000D01*
X201450000Y-103580000D02*
X200120000Y-103580000D01*
%TO.C,R24*%
X182324904Y-83727500D02*
X181850388Y-83727500D01*
X182324904Y-84772500D02*
X181850388Y-84772500D01*
%TO.C,BOOT*%
X190600000Y-78350000D02*
X193900000Y-78350000D01*
X190600000Y-78650000D02*
X190600000Y-78350000D01*
X190600000Y-80850000D02*
X190600000Y-81150000D01*
X190600000Y-81150000D02*
X193900000Y-81150000D01*
X193900000Y-78350000D02*
X193900000Y-78650000D01*
X193900000Y-81150000D02*
X193900000Y-80850000D01*
%TO.C,R7*%
X159039564Y-94015000D02*
X158585436Y-94015000D01*
X159039564Y-95485000D02*
X158585436Y-95485000D01*
%TO.C,C9*%
X147025000Y-63138748D02*
X147025000Y-63661252D01*
X148495000Y-63138748D02*
X148495000Y-63661252D01*
%TO.C,C25*%
X181609419Y-58240000D02*
X181890581Y-58240000D01*
X181609419Y-59260000D02*
X181890581Y-59260000D01*
%TO.C,R5*%
X148935436Y-83265000D02*
X149389564Y-83265000D01*
X148935436Y-84735000D02*
X149389564Y-84735000D01*
%TO.C,R3*%
X157515000Y-70960437D02*
X157515000Y-71414565D01*
X158985000Y-70960437D02*
X158985000Y-71414565D01*
%TO.C,C22*%
X162051248Y-92015000D02*
X162573752Y-92015000D01*
X162051248Y-93485000D02*
X162573752Y-93485000D01*
%TO.C,R22*%
X192977500Y-61737258D02*
X192977500Y-61262742D01*
X194022500Y-61737258D02*
X194022500Y-61262742D01*
%TO.C,C29*%
X176890581Y-78490000D02*
X176609419Y-78490000D01*
X176890581Y-79510000D02*
X176609419Y-79510000D01*
%TO.C,J8*%
X128190000Y-105970000D02*
X128190000Y-106490000D01*
X128190000Y-106490000D02*
X142810000Y-106490000D01*
X128840000Y-91010000D02*
X128840000Y-94340000D01*
X128840000Y-91010000D02*
X142160000Y-91010000D01*
X128840000Y-105970000D02*
X128190000Y-105970000D01*
X128840000Y-105970000D02*
X128840000Y-97860000D01*
X131100000Y-90790000D02*
X132900000Y-90790000D01*
X142160000Y-91010000D02*
X142160000Y-94340000D01*
X142160000Y-97860000D02*
X142160000Y-105970000D01*
X142810000Y-105970000D02*
X142160000Y-105970000D01*
X142810000Y-106490000D02*
X142810000Y-105970000D01*
%TO.C,R19*%
X184987258Y-65477500D02*
X184512742Y-65477500D01*
X184987258Y-66522500D02*
X184512742Y-66522500D01*
%TO.C,R28*%
X139862742Y-88227500D02*
X140337258Y-88227500D01*
X139862742Y-89272500D02*
X140337258Y-89272500D01*
%TO.C,C26*%
X163865581Y-68490000D02*
X163584419Y-68490000D01*
X163865581Y-69510000D02*
X163584419Y-69510000D01*
%TO.C,C30*%
X171490000Y-79984419D02*
X171490000Y-80265581D01*
X172510000Y-79984419D02*
X172510000Y-80265581D01*
%TO.C,C11*%
X155265000Y-63188748D02*
X155265000Y-63711252D01*
X156735000Y-63188748D02*
X156735000Y-63711252D01*
%TO.C,D7*%
X177560000Y-85015000D02*
X177560000Y-86485000D01*
X177560000Y-86485000D02*
X179845000Y-86485000D01*
X179845000Y-85015000D02*
X177560000Y-85015000D01*
%TO.C,C33*%
X181786253Y-59765000D02*
X181263747Y-59765000D01*
X181786253Y-61235000D02*
X181263747Y-61235000D01*
%TO.C,R6*%
X186727500Y-79737258D02*
X186727500Y-79262742D01*
X187772500Y-79737258D02*
X187772500Y-79262742D01*
%TO.C,J7*%
X119690000Y-57640000D02*
X134000000Y-57640000D01*
X119690000Y-73360000D02*
X119690000Y-57640000D01*
X119690000Y-73360000D02*
X134000000Y-73360000D01*
X138110000Y-66790000D02*
X138110000Y-63050000D01*
X134000000Y-57640000D02*
G75*
G02*
X137930413Y-60548352I0J-4110000D01*
G01*
X137522958Y-71366806D02*
G75*
G02*
X134000000Y-73360000I-3522957J2116805D01*
G01*
%TO.C,C19*%
X153238748Y-83515000D02*
X153761252Y-83515000D01*
X153238748Y-84985000D02*
X153761252Y-84985000D01*
%TO.C,C24*%
X168261252Y-94015000D02*
X167738748Y-94015000D01*
X168261252Y-95485000D02*
X167738748Y-95485000D01*
%TO.C,R11*%
X188227500Y-76812258D02*
X188227500Y-76337742D01*
X189272500Y-76812258D02*
X189272500Y-76337742D01*
%TO.C,L2*%
X141550000Y-65800000D02*
X143850000Y-65800000D01*
X141550000Y-73200000D02*
X141550000Y-65800000D01*
X143850000Y-73200000D02*
X141550000Y-73200000D01*
X146650000Y-65800000D02*
X148950000Y-65800000D01*
X148950000Y-65800000D02*
X148950000Y-73200000D01*
X148950000Y-73200000D02*
X146650000Y-73200000D01*
%TO.C,C28*%
X183740000Y-75859419D02*
X183740000Y-76140581D01*
X184760000Y-75859419D02*
X184760000Y-76140581D01*
%TO.C,D6*%
X177575932Y-83515000D02*
X177575932Y-84985000D01*
X177575932Y-84985000D02*
X179860932Y-84985000D01*
X179860932Y-83515000D02*
X177575932Y-83515000D01*
%TO.C,C15*%
X163011253Y-57765000D02*
X162488747Y-57765000D01*
X163011253Y-59235000D02*
X162488747Y-59235000D01*
%TO.C,U2*%
X151090000Y-61890000D02*
X152910000Y-61890000D01*
X151090000Y-61940000D02*
X151090000Y-61890000D01*
X151090000Y-65010000D02*
X151090000Y-64960000D01*
X152910000Y-61890000D02*
X152910000Y-61940000D01*
X152910000Y-63060000D02*
X152910000Y-63840000D01*
X152910000Y-64960000D02*
X152910000Y-65010000D01*
X152910000Y-65010000D02*
X151090000Y-65010000D01*
X150550000Y-61940000D02*
X150310000Y-61610000D01*
X150790000Y-61610000D01*
X150550000Y-61940000D01*
G36*
X150550000Y-61940000D02*
G01*
X150310000Y-61610000D01*
X150790000Y-61610000D01*
X150550000Y-61940000D01*
G37*
%TO.C,C31*%
X169990001Y-79984419D02*
X169990001Y-80265581D01*
X171010001Y-79984419D02*
X171010001Y-80265581D01*
%TO.C,R15*%
X169437742Y-89227500D02*
X169912258Y-89227500D01*
X169437742Y-90272500D02*
X169912258Y-90272500D01*
%TO.C,J1*%
X126220000Y-51080000D02*
X177240000Y-51080000D01*
X126220000Y-53730000D02*
X126220000Y-51080000D01*
X126220000Y-56380000D02*
X126220000Y-55000000D01*
X127600000Y-56380000D02*
X126220000Y-56380000D01*
X128870000Y-53730000D02*
X126220000Y-53730000D01*
X128870000Y-56380000D02*
X128870000Y-53730000D01*
X128870000Y-56380000D02*
X177240000Y-56380000D01*
X177240000Y-56380000D02*
X177240000Y-51080000D01*
%TO.C,C27*%
X163890581Y-70240000D02*
X163609419Y-70240000D01*
X163890581Y-71260000D02*
X163609419Y-71260000D01*
%TO.C,R4*%
X161265000Y-61022936D02*
X161265000Y-61477064D01*
X162735000Y-61022936D02*
X162735000Y-61477064D01*
%TO.C,U4*%
X145290000Y-87240000D02*
X145465000Y-87240000D01*
X145290000Y-92760000D02*
X145290000Y-87240000D01*
X145465000Y-92760000D02*
X145290000Y-92760000D01*
X153535000Y-87240000D02*
X153710000Y-87240000D01*
X153710000Y-87240000D02*
X153710000Y-92760000D01*
X153710000Y-92760000D02*
X153535000Y-92760000D01*
X145460000Y-93500000D02*
X144990000Y-93840000D01*
X144990000Y-93160000D01*
X145460000Y-93500000D01*
G36*
X145460000Y-93500000D02*
G01*
X144990000Y-93840000D01*
X144990000Y-93160000D01*
X145460000Y-93500000D01*
G37*
%TO.C,C34*%
X163673094Y-73785587D02*
X163474283Y-73586776D01*
X164394343Y-73064338D02*
X164195532Y-72865527D01*
%TO.C,Y2*%
X159359334Y-76153985D02*
X161989771Y-73523548D01*
X159394689Y-76189340D02*
X159359334Y-76153985D01*
X161728141Y-78522793D02*
X160893755Y-77688407D01*
X161989771Y-73523548D02*
X162025126Y-73558903D01*
X163262563Y-80057214D02*
X163227208Y-80021859D01*
X163524193Y-75057969D02*
X164358579Y-75892355D01*
X164358579Y-75892355D02*
X164606066Y-75644868D01*
X165857645Y-77391422D02*
X165893000Y-77426777D01*
X165893000Y-77426777D02*
X163262563Y-80057214D01*
X166105132Y-77143934D02*
X165857645Y-77391422D01*
%TO.C,U3*%
D13*
X163179200Y-60780100D02*
X163179200Y-61550915D01*
X163179200Y-63260485D02*
X163179200Y-64031300D01*
X163179200Y-64031300D02*
X163467702Y-64031300D01*
X163467702Y-60780100D02*
X163179200Y-60780100D01*
X165532298Y-64031300D02*
X165820800Y-64031300D01*
X165820800Y-60780100D02*
X165532298Y-60780100D01*
X165820800Y-61550915D02*
X165820800Y-60780100D01*
X165820800Y-64031300D02*
X165820800Y-63260485D01*
D14*
G36*
X164440501Y-60805500D02*
G01*
X164059500Y-60805500D01*
X164059500Y-60551500D01*
X164440501Y-60551500D01*
X164440501Y-60805500D01*
G37*
%TO.C,R21*%
D12*
X192727500Y-68737258D02*
X192727500Y-68262742D01*
X193772500Y-68737258D02*
X193772500Y-68262742D01*
%TO.C,C32*%
X181747233Y-76193359D02*
X181747233Y-75670853D01*
X183217233Y-76193359D02*
X183217233Y-75670853D01*
%TO.C,C45*%
X141990000Y-62313748D02*
X141990000Y-63736252D01*
X143810000Y-62313748D02*
X143810000Y-63736252D01*
%TO.C,FB2*%
X178912779Y-91490000D02*
X178587221Y-91490000D01*
X178912779Y-92510000D02*
X178587221Y-92510000D01*
%TO.C,R29*%
X182312258Y-85227500D02*
X181837742Y-85227500D01*
X182312258Y-86272500D02*
X181837742Y-86272500D01*
%TO.C,U5*%
X167273369Y-69750000D02*
X167945120Y-69078249D01*
X167945120Y-70421751D02*
X167273369Y-69750000D01*
X173828249Y-63195120D02*
X174500000Y-62523369D01*
X174500000Y-62523369D02*
X175171751Y-63195120D01*
X174500000Y-76976631D02*
X173828249Y-76304880D01*
X175171751Y-76304880D02*
X174500000Y-76976631D01*
X181054880Y-69078249D02*
X181726631Y-69750000D01*
X181726631Y-69750000D02*
X181054880Y-70421751D01*
X167492572Y-70874300D02*
X166919815Y-70782376D01*
X167400648Y-70301543D01*
X167492572Y-70874300D01*
G36*
X167492572Y-70874300D02*
G01*
X166919815Y-70782376D01*
X167400648Y-70301543D01*
X167492572Y-70874300D01*
G37*
%TO.C,RESET*%
X190600000Y-74600000D02*
X193900000Y-74600000D01*
X190600000Y-74900000D02*
X190600000Y-74600000D01*
X190600000Y-77100000D02*
X190600000Y-77400000D01*
X190600000Y-77400000D02*
X193900000Y-77400000D01*
X193900000Y-74600000D02*
X193900000Y-74900000D01*
X193900000Y-77400000D02*
X193900000Y-77100000D01*
%TO.C,R10*%
X171272936Y-94015000D02*
X171727064Y-94015000D01*
X171272936Y-95485000D02*
X171727064Y-95485000D01*
%TO.C,FB1*%
X173190000Y-80649622D02*
X173190000Y-79850378D01*
X174310000Y-80649622D02*
X174310000Y-79850378D01*
%TO.C,Q1*%
X182240000Y-88940000D02*
X183760000Y-88940000D01*
X182240000Y-89940000D02*
X182240000Y-88940000D01*
X182240000Y-92060000D02*
X182240000Y-91060000D01*
X183760000Y-88940000D02*
X183760000Y-88990000D01*
X183760000Y-90110000D02*
X183760000Y-90890000D01*
X183760000Y-92010000D02*
X183760000Y-92060000D01*
X183760000Y-92060000D02*
X182240000Y-92060000D01*
X184300000Y-90880000D02*
X184060000Y-90550000D01*
X184540000Y-90550000D01*
X184300000Y-90880000D01*
G36*
X184300000Y-90880000D02*
G01*
X184060000Y-90550000D01*
X184540000Y-90550000D01*
X184300000Y-90880000D01*
G37*
%TO.C,R25*%
X135577500Y-87762742D02*
X135577500Y-88237258D01*
X136622500Y-87762742D02*
X136622500Y-88237258D01*
%TO.C,C21*%
X162051248Y-93995000D02*
X162573752Y-93995000D01*
X162051248Y-95465000D02*
X162573752Y-95465000D01*
%TO.C,C48*%
X124759999Y-84412322D02*
X121082999Y-84412323D01*
X124759999Y-84452321D02*
X121092999Y-84452322D01*
X124759999Y-84492322D02*
X121103999Y-84492322D01*
X124759999Y-84532322D02*
X121114999Y-84532322D01*
X124759999Y-84572322D02*
X121126999Y-84572322D01*
X124759999Y-84652322D02*
X121150999Y-84652322D01*
X124759999Y-84692322D02*
X121162999Y-84692322D01*
X124759999Y-84732322D02*
X121175999Y-84732322D01*
X124759999Y-84812322D02*
X121202999Y-84812322D01*
X124759999Y-84852322D02*
X121217999Y-84852322D01*
X124759999Y-84892321D02*
X121231999Y-84892322D01*
X124759999Y-84932322D02*
X121246999Y-84932322D01*
X124759999Y-84972322D02*
X121262000Y-84972322D01*
X124759999Y-85012322D02*
X121277999Y-85012322D01*
X124759999Y-85092322D02*
X121309999Y-85092322D01*
X124759999Y-85132322D02*
X121326999Y-85132323D01*
X124759999Y-85172322D02*
X121343999Y-85172322D01*
X124759999Y-85252322D02*
X121379999Y-85252322D01*
X124759999Y-85292322D02*
X121397999Y-85292322D01*
X124759999Y-85332321D02*
X121416999Y-85332321D01*
X124759999Y-85372323D02*
X121435999Y-85372322D01*
X124759999Y-85412322D02*
X121455999Y-85412322D01*
X124759999Y-85452322D02*
X121475999Y-85452322D01*
X124759999Y-85532322D02*
X121516999Y-85532322D01*
X124759999Y-85572322D02*
X121538999Y-85572322D01*
X124759999Y-85612322D02*
X121560999Y-85612322D01*
X124759999Y-85692322D02*
X121605999Y-85692322D01*
X124759999Y-85732322D02*
X121628999Y-85732322D01*
X124759999Y-85772321D02*
X121652999Y-85772322D01*
X124759999Y-85812323D02*
X121676999Y-85812323D01*
X124759999Y-85852322D02*
X121701999Y-85852321D01*
X124759999Y-85892322D02*
X121727999Y-85892322D01*
X124759999Y-85972322D02*
X121779999Y-85972322D01*
X124759999Y-86012322D02*
X121806999Y-86012322D01*
X124759999Y-86052322D02*
X121833999Y-86052322D01*
X124759999Y-86132322D02*
X121890999Y-86132322D01*
X124759999Y-86172322D02*
X121919999Y-86172322D01*
X124759999Y-86212322D02*
X121949999Y-86212322D01*
X124759999Y-86252323D02*
X121979999Y-86252322D01*
X124759999Y-86292322D02*
X122011999Y-86292322D01*
X124759999Y-86332322D02*
X122042999Y-86332322D01*
X124759999Y-86412322D02*
X122108999Y-86412322D01*
X124759999Y-86452322D02*
X122142000Y-86452322D01*
X124759999Y-86492322D02*
X122176999Y-86492322D01*
X124759999Y-86572322D02*
X122247999Y-86572322D01*
X124759999Y-86612322D02*
X122283999Y-86612322D01*
X124759999Y-86652322D02*
X122321999Y-86652322D01*
X124759999Y-86692323D02*
X122359999Y-86692322D01*
X124759999Y-86732322D02*
X122398999Y-86732322D01*
X124759999Y-86772322D02*
X122438999Y-86772322D01*
X124759999Y-86812321D02*
X122479999Y-86812322D01*
X124759999Y-86852322D02*
X122521999Y-86852322D01*
X124760000Y-84612322D02*
X121138999Y-84612322D01*
X124760000Y-84772322D02*
X121189998Y-84772322D01*
X124760000Y-85052322D02*
X121293999Y-85052321D01*
X124760000Y-85212322D02*
X121361999Y-85212322D01*
X124760000Y-85492322D02*
X121495999Y-85492322D01*
X124760000Y-85652322D02*
X121582999Y-85652322D01*
X124760000Y-85932322D02*
X121752999Y-85932321D01*
X124760000Y-86092322D02*
X121861999Y-86092322D01*
X124760000Y-86372322D02*
X122075999Y-86372322D01*
X124760000Y-86532322D02*
X122212000Y-86532322D01*
X126598999Y-88212321D02*
X125400999Y-88212321D01*
X126861999Y-88172322D02*
X125137999Y-88172322D01*
X127061999Y-88132321D02*
X124937999Y-88132321D01*
X127229999Y-88092322D02*
X124769999Y-88092322D01*
X127376999Y-88052322D02*
X124622999Y-88052322D01*
X127508999Y-88012322D02*
X124490999Y-88012322D01*
X127629999Y-87972322D02*
X124369999Y-87972322D01*
X127742000Y-87932322D02*
X124257998Y-87932322D01*
X127845999Y-87892322D02*
X124153999Y-87892322D01*
X127944000Y-87852322D02*
X124055998Y-87852322D01*
X128036999Y-87812322D02*
X123962999Y-87812322D01*
X128123999Y-87772322D02*
X123875999Y-87772322D01*
X128207999Y-87732322D02*
X123791999Y-87732322D01*
X128287999Y-87692322D02*
X123711999Y-87692322D01*
X128364999Y-87652322D02*
X123634999Y-87652322D01*
X128438999Y-87612322D02*
X123560999Y-87612322D01*
X128509999Y-87572322D02*
X123489999Y-87572322D01*
X128577999Y-87532322D02*
X123421999Y-87532322D01*
X128643999Y-87492322D02*
X123355999Y-87492322D01*
X128707999Y-87452322D02*
X123291999Y-87452322D01*
X128769999Y-87412322D02*
X123229999Y-87412322D01*
X128829999Y-87372322D02*
X123169999Y-87372322D01*
X128874999Y-77652676D02*
X128874999Y-78652676D01*
X128887999Y-87332322D02*
X123111999Y-87332322D01*
X128944999Y-87292322D02*
X123054999Y-87292322D01*
X128999999Y-87252322D02*
X122999999Y-87252322D01*
X129052999Y-87212323D02*
X122946999Y-87212323D01*
X129104999Y-87172322D02*
X122894999Y-87172322D01*
X129155999Y-87132322D02*
X122843999Y-87132322D01*
X129204999Y-87092322D02*
X122794999Y-87092322D01*
X129253999Y-87052322D02*
X122745999Y-87052322D01*
X129300999Y-87012322D02*
X122698999Y-87012322D01*
X129346998Y-86972322D02*
X122653000Y-86972322D01*
X129374999Y-78152676D02*
X128374999Y-78152676D01*
X129390999Y-86932322D02*
X122608999Y-86932322D01*
X129434999Y-86892322D02*
X122564999Y-86892322D01*
X129477999Y-86852322D02*
X127239999Y-86852322D01*
X129519999Y-86812322D02*
X127239999Y-86812321D01*
X129560999Y-86772322D02*
X127239999Y-86772322D01*
X129600999Y-86732322D02*
X127239999Y-86732322D01*
X129639999Y-86692322D02*
X127239999Y-86692323D01*
X129677999Y-86652322D02*
X127239999Y-86652322D01*
X129715999Y-86612322D02*
X127239999Y-86612322D01*
X129751999Y-86572322D02*
X127239999Y-86572322D01*
X129787998Y-86532322D02*
X127239998Y-86532322D01*
X129822999Y-86492322D02*
X127239999Y-86492322D01*
X129857998Y-86452322D02*
X127239999Y-86452322D01*
X129890999Y-86412322D02*
X127239999Y-86412322D01*
X129923999Y-86372322D02*
X127239998Y-86372322D01*
X129956999Y-86332322D02*
X127239999Y-86332322D01*
X129987999Y-86292322D02*
X127239999Y-86292322D01*
X130019999Y-86252322D02*
X127239999Y-86252323D01*
X130049999Y-86212322D02*
X127239999Y-86212322D01*
X130079999Y-86172322D02*
X127239999Y-86172322D01*
X130108999Y-86132322D02*
X127239999Y-86132322D01*
X130137999Y-86092322D02*
X127239998Y-86092322D01*
X130165999Y-86052322D02*
X127239999Y-86052322D01*
X130192999Y-86012322D02*
X127239999Y-86012322D01*
X130219999Y-85972322D02*
X127239999Y-85972322D01*
X130246999Y-85932321D02*
X127239998Y-85932322D01*
X130271999Y-85892322D02*
X127239999Y-85892322D01*
X130297999Y-85852321D02*
X127239999Y-85852322D01*
X130322999Y-85812323D02*
X127239999Y-85812323D01*
X130346999Y-85772322D02*
X127239999Y-85772321D01*
X130370999Y-85732322D02*
X127239999Y-85732322D01*
X130393999Y-85692322D02*
X127239999Y-85692322D01*
X130416999Y-85652322D02*
X127239998Y-85652322D01*
X130438999Y-85612322D02*
X127239999Y-85612322D01*
X130460999Y-85572322D02*
X127239999Y-85572322D01*
X130482999Y-85532322D02*
X127239999Y-85532322D01*
X130503999Y-85492322D02*
X127239998Y-85492322D01*
X130523999Y-85452322D02*
X127239999Y-85452322D01*
X130543999Y-85412322D02*
X127239999Y-85412322D01*
X130563999Y-85372322D02*
X127239999Y-85372323D01*
X130582999Y-85332321D02*
X127239999Y-85332321D01*
X130601999Y-85292322D02*
X127239999Y-85292322D01*
X130619999Y-85252322D02*
X127239999Y-85252322D01*
X130637999Y-85212322D02*
X127239998Y-85212322D01*
X130655999Y-85172322D02*
X127239999Y-85172322D01*
X130672999Y-85132323D02*
X127239999Y-85132322D01*
X130689999Y-85092322D02*
X127239999Y-85092322D01*
X130705999Y-85052321D02*
X127239998Y-85052322D01*
X130721999Y-85012322D02*
X127239999Y-85012322D01*
X130737998Y-84972322D02*
X127239999Y-84972322D01*
X130752999Y-84932322D02*
X127239999Y-84932322D01*
X130767999Y-84892322D02*
X127239999Y-84892321D01*
X130781999Y-84852322D02*
X127239999Y-84852322D01*
X130796999Y-84812322D02*
X127239999Y-84812322D01*
X130810000Y-84772322D02*
X127239998Y-84772322D01*
X130823999Y-84732322D02*
X127239999Y-84732322D01*
X130836999Y-84692322D02*
X127239999Y-84692322D01*
X130848999Y-84652322D02*
X127239999Y-84652322D01*
X130860999Y-84612322D02*
X127239998Y-84612322D01*
X130872999Y-84572322D02*
X127239999Y-84572322D01*
X130884999Y-84532322D02*
X127239999Y-84532322D01*
X130895999Y-84492322D02*
X127239999Y-84492322D01*
X130906999Y-84452322D02*
X127239999Y-84452321D01*
X130916999Y-84412323D02*
X127239999Y-84412322D01*
X130927999Y-84372322D02*
X121071999Y-84372322D01*
X130936999Y-84332322D02*
X121062999Y-84332322D01*
X130946999Y-84292322D02*
X121052999Y-84292322D01*
X130955999Y-84252322D02*
X121043999Y-84252322D01*
X130964999Y-84212322D02*
X121034999Y-84212322D01*
X130972999Y-84172322D02*
X121026999Y-84172322D01*
X130980999Y-84132322D02*
X121018999Y-84132322D01*
X130988999Y-84092322D02*
X121010999Y-84092322D01*
X130996999Y-84052322D02*
X121002999Y-84052322D01*
X131003999Y-84012322D02*
X120995999Y-84012322D01*
X131010999Y-83972322D02*
X120988999Y-83972322D01*
X131016999Y-83932322D02*
X120982999Y-83932322D01*
X131022998Y-83892322D02*
X120977000Y-83892322D01*
X131028999Y-83852322D02*
X120970999Y-83852322D01*
X131034999Y-83812322D02*
X120964999Y-83812322D01*
X131039999Y-83772322D02*
X120959999Y-83772322D01*
X131044999Y-83732322D02*
X120954999Y-83732322D01*
X131048999Y-83692322D02*
X120950999Y-83692322D01*
X131053999Y-83652322D02*
X120945999Y-83652322D01*
X131056999Y-83612322D02*
X120942999Y-83612322D01*
X131060998Y-83572322D02*
X120939000Y-83572322D01*
X131063999Y-83532322D02*
X120935999Y-83532322D01*
X131066999Y-83492321D02*
X120932999Y-83492321D01*
X131069999Y-83452323D02*
X120929999Y-83452323D01*
X131071999Y-83412322D02*
X120927999Y-83412322D01*
X131073999Y-83372322D02*
X120925999Y-83372322D01*
X131075999Y-83332322D02*
X120923999Y-83332322D01*
X131076999Y-83292322D02*
X120922999Y-83292322D01*
X131078999Y-83212322D02*
X120920999Y-83212322D01*
X131078999Y-83252322D02*
X120920999Y-83252322D01*
X131079998Y-83132322D02*
X120920000Y-83132322D01*
X131079999Y-83172322D02*
X120919999Y-83172322D01*
X131119999Y-83132322D02*
G75*
G02*
X120879999Y-83132322I-5120000J0D01*
G01*
X120879999Y-83132322D02*
G75*
G02*
X131119999Y-83132322I5120000J0D01*
G01*
%TO.C,D2*%
X149620000Y-58100000D02*
X145610000Y-58100000D01*
X149620000Y-60100000D02*
X145610000Y-60100000D01*
X149620000Y-60100000D02*
X149620000Y-58100000D01*
%TO.C,C10*%
X145015000Y-63138748D02*
X145015000Y-63661252D01*
X146485000Y-63138748D02*
X146485000Y-63661252D01*
%TO.C,C41*%
X134084420Y-79240000D02*
X134365580Y-79240000D01*
X134084420Y-80260000D02*
X134365580Y-80260000D01*
%TO.C,C42*%
X137090000Y-88115580D02*
X137090000Y-87834420D01*
X138110000Y-88115580D02*
X138110000Y-87834420D01*
%TO.C,R23*%
X182324903Y-82221997D02*
X181850387Y-82221997D01*
X182324903Y-83266997D02*
X181850387Y-83266997D01*
%TO.C,C46*%
X139590000Y-62288748D02*
X139590000Y-63711252D01*
X141410000Y-62288748D02*
X141410000Y-63711252D01*
%TO.C,R18*%
X162037742Y-83977500D02*
X162512258Y-83977500D01*
X162037742Y-85022500D02*
X162512258Y-85022500D01*
%TO.C,U6*%
X161865000Y-85940000D02*
X165985000Y-85940000D01*
X161865000Y-86035000D02*
X161865000Y-85940000D01*
X161865000Y-91060000D02*
X161865000Y-90965000D01*
X165985000Y-85940000D02*
X165985000Y-86035000D01*
X165985000Y-90965000D02*
X165985000Y-91060000D01*
X165985000Y-91060000D02*
X161865000Y-91060000D01*
X166525000Y-90970000D02*
X166765000Y-91300000D01*
X166285000Y-91300000D01*
X166525000Y-90970000D01*
G36*
X166765000Y-91300000D02*
G01*
X166285000Y-91300000D01*
X166525000Y-90970000D01*
X166765000Y-91300000D01*
G37*
%TO.C,J5*%
X198100000Y-85800000D02*
X200100000Y-85800000D01*
X198100000Y-95200000D02*
X200100000Y-95200000D01*
X202000000Y-85800000D02*
X203900000Y-85800000D01*
X202000000Y-95200000D02*
X203900000Y-95200000D01*
X203900000Y-95200000D02*
X203900000Y-85800000D01*
%TO.C,R8*%
X159039564Y-92015000D02*
X158585436Y-92015000D01*
X159039564Y-93485000D02*
X158585436Y-93485000D01*
%TO.C,R14*%
X169912258Y-87727500D02*
X169437742Y-87727500D01*
X169912258Y-88772500D02*
X169437742Y-88772500D01*
%TO.C,C2*%
X178890580Y-89990000D02*
X178609420Y-89990000D01*
X178890580Y-91010000D02*
X178609420Y-91010000D01*
%TO.C,C43*%
X139959420Y-86740000D02*
X140240580Y-86740000D01*
X139959420Y-87760000D02*
X140240580Y-87760000D01*
%TO.C,R12*%
X191787258Y-91297500D02*
X191312742Y-91297500D01*
X191787258Y-92342500D02*
X191312742Y-92342500D01*
%TO.C,J9*%
X185820000Y-52170000D02*
X185820000Y-54830000D01*
X198580000Y-52170000D02*
X185820000Y-52170000D01*
X198580000Y-52170000D02*
X198580000Y-54830000D01*
X198580000Y-54830000D02*
X185820000Y-54830000D01*
X201180000Y-53500000D02*
X201180000Y-54830000D01*
X201180000Y-54830000D02*
X199850000Y-54830000D01*
%TO.C,U7*%
X187890000Y-63640000D02*
X191110000Y-63640000D01*
X187890000Y-63815000D02*
X187890000Y-63640000D01*
X187890000Y-66860000D02*
X187890000Y-66685000D01*
X191110000Y-63640000D02*
X191110000Y-63815000D01*
X191110000Y-66685000D02*
X191110000Y-66860000D01*
X191110000Y-66860000D02*
X187890000Y-66860000D01*
X191660000Y-66690000D02*
X191900000Y-67020000D01*
X191420000Y-67020000D01*
X191660000Y-66690000D01*
G36*
X191900000Y-67020000D02*
G01*
X191420000Y-67020000D01*
X191660000Y-66690000D01*
X191900000Y-67020000D01*
G37*
%TO.C,J3*%
X161440000Y-97840000D02*
X161440000Y-105660000D01*
X161440000Y-99440000D02*
X162360000Y-99440000D01*
X161440000Y-105660000D02*
X175560000Y-105660000D01*
X162360000Y-97840000D02*
X161440000Y-97840000D01*
X162360000Y-99440000D02*
X162360000Y-97840000D01*
X162640000Y-99440000D02*
X162360000Y-99440000D01*
X162640000Y-99440000D02*
X162640000Y-98225000D01*
X162700000Y-103400000D02*
X162700000Y-105660000D01*
X163200000Y-103400000D02*
X163200000Y-105660000D01*
X164000000Y-101300000D02*
X173000000Y-101300000D01*
X164000000Y-105660000D02*
X164000000Y-101300000D01*
X173000000Y-101300000D02*
X173000000Y-105660000D01*
X174640000Y-97840000D02*
X174640000Y-99440000D01*
X174640000Y-99440000D02*
X174360000Y-99440000D01*
X175560000Y-97840000D02*
X174640000Y-97840000D01*
X175560000Y-99440000D02*
X174640000Y-99440000D01*
X175560000Y-105660000D02*
X175560000Y-97840000D01*
X162200000Y-101800000D02*
X163200000Y-101800000D01*
X163200000Y-103400000D01*
X162200000Y-103400000D01*
X162200000Y-101800000D01*
X173800000Y-101800000D02*
X174800000Y-101800000D01*
X174800000Y-103400000D01*
X173800000Y-103400000D01*
X173800000Y-101800000D01*
%TO.C,R17*%
X169437742Y-85977500D02*
X169912258Y-85977500D01*
X169437742Y-87022500D02*
X169912258Y-87022500D01*
%TO.C,R16*%
X169912258Y-84477500D02*
X169437742Y-84477500D01*
X169912258Y-85522500D02*
X169437742Y-85522500D01*
%TO.C,C20*%
X145973752Y-83265000D02*
X145451248Y-83265000D01*
X145973752Y-84735000D02*
X145451248Y-84735000D01*
%TO.C,C36*%
X188240000Y-79615580D02*
X188240000Y-79334420D01*
X189260000Y-79615580D02*
X189260000Y-79334420D01*
%TO.C,J2*%
X145190000Y-97790000D02*
X145190000Y-105610000D01*
X145190000Y-99390000D02*
X146110000Y-99390000D01*
X145190000Y-105610000D02*
X159310000Y-105610000D01*
X146110000Y-97790000D02*
X145190000Y-97790000D01*
X146110000Y-99390000D02*
X146110000Y-97790000D01*
X146390000Y-99390000D02*
X146110000Y-99390000D01*
X146390000Y-99390000D02*
X146390000Y-98175000D01*
X146450000Y-103350000D02*
X146450000Y-105610000D01*
X146950000Y-103350000D02*
X146950000Y-105610000D01*
X147750000Y-101250000D02*
X156750000Y-101250000D01*
X147750000Y-105610000D02*
X147750000Y-101250000D01*
X156750000Y-101250000D02*
X156750000Y-105610000D01*
X158390000Y-97790000D02*
X158390000Y-99390000D01*
X158390000Y-99390000D02*
X158110000Y-99390000D01*
X159310000Y-97790000D02*
X158390000Y-97790000D01*
X159310000Y-99390000D02*
X158390000Y-99390000D01*
X159310000Y-105610000D02*
X159310000Y-97790000D01*
X145950000Y-101750000D02*
X146950000Y-101750000D01*
X146950000Y-103350000D01*
X145950000Y-103350000D01*
X145950000Y-101750000D01*
X157550000Y-101750000D02*
X158550000Y-101750000D01*
X158550000Y-103350000D01*
X157550000Y-103350000D01*
X157550000Y-101750000D01*
%TO.C,C44*%
X138584420Y-76740000D02*
X138865580Y-76740000D01*
X138584420Y-77760000D02*
X138865580Y-77760000D01*
%TO.C,R9*%
X171272936Y-92015000D02*
X171727064Y-92015000D01*
X171272936Y-93485000D02*
X171727064Y-93485000D01*
%TD*%
M02*
