M48
; DRILL file KiCad 10.0.3 date 2026-09-20T10:00:24
; FORMAT={-:-/ absolute / metric / decimal}
; #@! TF.CreationDate,2026-09-20T10:00:24+07:00
; #@! TF.GenerationSoftware,Kicad,Pcbnew,10.0.3
; #@! TF.FileFunction,Plated,1,4,PTH
FMAT,2
METRIC
; #@! TA.AperFunction,Plated,PTH,ViaDrill
T1C0.300
; #@! TA.AperFunction,Plated,PTH,ComponentDrill
T2C0.300
; #@! TA.AperFunction,Plated,PTH,ComponentDrill
T3C0.600
; #@! TA.AperFunction,Plated,PTH,ComponentDrill
T4C0.750
; #@! TA.AperFunction,Plated,PTH,ComponentDrill
T5C0.950
; #@! TA.AperFunction,Plated,PTH,ComponentDrill
T6C1.000
; #@! TA.AperFunction,Plated,PTH,ComponentDrill
T7C2.300
; #@! TA.AperFunction,Plated,PTH,ComponentDrill
T8C2.700
%
G90
G05
T1
X122.75Y-60.25
X122.75Y-62.25
X122.75Y-64.25
X122.75Y-66.25
X122.75Y-68.25
X122.75Y-70.5
X122.75Y-74.5
X122.75Y-76.75
X123.0Y-89.75
X123.0Y-92.25
X125.5Y-60.25
X125.5Y-62.25
X125.5Y-64.25
X125.5Y-66.25
X125.5Y-68.25
X125.5Y-70.5
X125.5Y-74.5
X125.5Y-76.75
X126.0Y-89.75
X126.0Y-92.25
X128.25Y-60.25
X128.25Y-62.25
X129.0Y-89.75
X130.25Y-68.75
X130.25Y-70.5
X131.25Y-60.25
X131.25Y-62.25
X132.0Y-68.75
X132.0Y-70.5
X132.75Y-81.0
X132.75Y-82.0
X133.75Y-81.0
X133.75Y-82.0
X134.0Y-90.0
X135.0Y-90.0
X136.25Y-74.75
X136.25Y-75.75
X136.25Y-76.75
X136.25Y-77.75
X136.75Y-90.25
X137.0Y-74.75
X137.0Y-75.75
X137.0Y-76.75
X137.0Y-77.75
X139.75Y-59.25
X139.75Y-60.0
X140.5Y-59.25
X140.5Y-60.0
X140.5Y-66.5
X140.75Y-69.0
X140.75Y-70.75
X140.75Y-72.75
X141.5Y-59.25
X141.5Y-60.0
X142.0Y-87.25
X142.0Y-88.25
X142.25Y-65.75
X142.25Y-66.5
X142.25Y-67.25
X142.5Y-59.25
X142.5Y-60.0
X142.75Y-77.5
X142.75Y-78.25
X142.75Y-79.0
X142.75Y-83.5
X142.75Y-84.25
X142.75Y-90.0
X142.75Y-90.75
X143.0Y-85.5
X143.25Y-65.75
X143.25Y-66.5
X143.25Y-67.25
X143.495Y-90.0
X143.5Y-59.25
X143.5Y-60.0
X143.5Y-83.5
X143.5Y-84.25
X143.5Y-90.75
X143.75Y-69.0
X143.75Y-70.75
X144.0Y-85.5
X144.25Y-90.0
X144.25Y-90.75
X145.0Y-85.5
X145.0Y-86.25
X145.0Y-87.0
X146.25Y-95.25
X146.45Y-56.25
X147.0Y-69.0
X147.0Y-70.75
X147.25Y-65.75
X147.25Y-66.5
X147.25Y-67.25
X147.25Y-91.75
X147.5Y-56.85
X148.0Y-91.75
X148.25Y-65.75
X148.25Y-66.5
X148.25Y-67.25
X149.505Y-63.246
X150.25Y-69.0
X150.25Y-70.75
X151.0Y-82.5
X151.0Y-91.75
X151.25Y-84.5
X151.75Y-91.75
X153.25Y-60.5
X153.25Y-61.5
X153.5Y-78.0
X153.5Y-79.25
X153.5Y-80.5
X153.5Y-82.0
X153.5Y-96.25
X153.75Y-69.0
X153.75Y-70.75
X154.25Y-60.5
X154.25Y-61.5
X154.25Y-85.75
X154.25Y-87.0
X154.5Y-92.5
X154.5Y-93.5
X154.75Y-78.0
X154.75Y-79.25
X154.75Y-80.5
X154.75Y-82.0
X154.75Y-95.25
X155.0Y-96.75
X155.25Y-92.5
X155.25Y-93.5
X156.0Y-65.75
X156.0Y-67.0
X156.0Y-68.25
X158.0Y-65.75
X158.0Y-67.0
X158.0Y-68.25
X158.0Y-73.75
X158.0Y-75.0
X158.0Y-91.25
X159.0Y-88.75
X159.25Y-73.75
X159.25Y-75.0
X159.25Y-77.75
X159.75Y-88.0
X160.25Y-72.0
X160.25Y-73.25
X160.5Y-78.75
X160.75Y-79.5
X161.5Y-69.5
X161.5Y-70.75
X161.5Y-72.0
X161.5Y-73.25
X161.5Y-80.25
X162.0Y-63.5
X162.936Y-64.806
X163.75Y-90.25
X164.25Y-66.3
X164.5Y-92.25
X164.5Y-93.25
X164.5Y-94.25
X164.5Y-95.25
X164.75Y-65.45
X165.75Y-70.0
X165.75Y-92.25
X165.75Y-93.25
X165.75Y-94.25
X165.75Y-95.25
X166.0Y-85.5
X166.218Y-79.218
X166.25Y-63.5
X166.5Y-61.25
X166.5Y-62.0
X167.22Y-85.47
X167.25Y-84.5
X167.562Y-78.562
X167.75Y-75.25
X168.5Y-58.25
X168.5Y-59.0
X168.5Y-91.25
X169.0Y-80.0
X169.0Y-96.25
X169.245Y-62.75
X169.245Y-63.505
X169.25Y-60.5
X169.535Y-77.26
X169.75Y-82.25
X170.0Y-62.25
X170.5Y-83.75
X170.925Y-59.825
X171.0Y-78.0
X171.75Y-86.5
X171.75Y-87.75
X171.75Y-88.75
X171.75Y-89.75
X171.78Y-69.5
X172.0Y-78.25
X173.5Y-59.325
X173.5Y-72.0
X173.5Y-90.0
X173.576Y-73.5
X174.0Y-93.25
X174.0Y-94.0
X174.0Y-94.75
X174.0Y-95.5
X174.5Y-91.0
X175.0Y-78.025
X175.0Y-93.25
X175.0Y-94.0
X175.0Y-94.75
X175.0Y-95.5
X175.25Y-91.0
X175.5Y-70.075
X177.0Y-60.25
X177.5Y-80.25
X177.5Y-88.25
X177.5Y-89.5
X178.25Y-88.25
X178.25Y-89.5
X179.075Y-79.0
X180.25Y-95.5
X180.5Y-58.0
X180.5Y-62.75
X181.25Y-58.0
X181.375Y-73.25
X181.496Y-74.247
X181.5Y-63.5
X181.75Y-62.0
X183.25Y-78.0
X184.25Y-78.0
X185.25Y-68.25
X185.25Y-69.75
X185.25Y-73.75
X186.0Y-77.25
X186.0Y-78.0
X186.0Y-78.75
X186.5Y-86.25
X186.75Y-58.75
X186.75Y-61.25
X187.0Y-69.25
X187.0Y-70.75
X188.5Y-89.0
X188.5Y-90.25
X188.5Y-91.75
X189.25Y-67.5
X189.5Y-89.0
X189.5Y-90.25
X189.5Y-91.75
X190.0Y-94.25
X190.0Y-96.0
X190.25Y-58.75
X190.25Y-61.25
X190.25Y-67.5
X190.75Y-90.5
X191.5Y-79.5
X191.5Y-80.25
X191.75Y-89.75
X192.0Y-71.5
X192.75Y-84.25
X193.0Y-56.75
X193.0Y-94.25
X193.0Y-96.0
X193.0Y-98.5
X193.252Y-66.3
X193.5Y-71.5
X193.5Y-88.0
X193.75Y-64.75
X194.25Y-93.0
X195.0Y-56.75
X195.75Y-98.5
X197.0Y-56.75
X198.25Y-98.5
X201.0Y-98.5
T2
X136.8Y-81.8
X136.8Y-83.1
X138.1Y-81.8
X138.1Y-83.1
X139.4Y-81.8
X139.4Y-83.1
X140.7Y-81.8
X140.7Y-83.1
T4
X147.25Y-99.25
X149.25Y-99.25
X151.25Y-99.25
X153.25Y-99.25
X155.25Y-99.25
X157.25Y-99.25
X163.5Y-99.3
X165.5Y-99.3
X167.5Y-99.3
X169.5Y-99.3
X171.5Y-99.3
X173.5Y-99.3
T5
X132.0Y-93.39
X134.5Y-93.39
X136.5Y-93.39
X139.0Y-93.39
T6
X126.0Y-80.632
X126.0Y-85.632
X127.6Y-52.46
X127.6Y-55.0
X130.14Y-52.46
X130.14Y-55.0
X132.68Y-52.46
X132.68Y-55.0
X135.22Y-52.46
X135.22Y-55.0
X137.76Y-52.46
X137.76Y-55.0
X140.3Y-52.46
X140.3Y-55.0
X142.84Y-52.46
X142.84Y-55.0
X145.38Y-52.46
X145.38Y-55.0
X147.92Y-52.46
X147.92Y-55.0
X150.46Y-52.46
X150.46Y-55.0
X153.0Y-52.46
X153.0Y-55.0
X155.54Y-52.46
X155.54Y-55.0
X158.08Y-52.46
X158.08Y-55.0
X160.62Y-52.46
X160.62Y-55.0
X163.16Y-52.46
X163.16Y-55.0
X165.7Y-52.46
X165.7Y-55.0
X168.24Y-52.46
X168.24Y-55.0
X170.78Y-52.46
X170.78Y-55.0
X173.32Y-52.46
X173.32Y-55.0
X175.86Y-52.46
X175.86Y-55.0
X187.15Y-53.5
X187.42Y-102.25
X189.69Y-53.5
X189.96Y-102.25
X192.23Y-53.5
X192.5Y-102.25
X194.77Y-53.5
X195.04Y-102.25
X197.31Y-53.5
X197.41Y-73.96
X197.41Y-76.5
X197.41Y-79.04
X197.41Y-81.58
X197.58Y-102.25
X199.85Y-53.5
X199.95Y-73.96
X199.95Y-76.5
X199.95Y-79.04
X199.95Y-81.58
X200.12Y-102.25
T7
X128.93Y-96.1
X142.07Y-96.1
T8
X136.15Y-61.9
X136.15Y-69.1
T3
X129.6Y-58.75G85X130.7Y-58.75
G05
X129.6Y-72.25G85X130.7Y-72.25
G05
X196.32Y-60.68G85X197.42Y-60.68
G05
X196.32Y-69.32G85X197.42Y-69.32
G05
X196.32Y-86.18G85X197.42Y-86.18
G05
X196.32Y-94.82G85X197.42Y-94.82
G05
X200.75Y-60.68G85X201.35Y-60.68
G05
X200.75Y-69.32G85X201.35Y-69.32
G05
X200.75Y-86.18G85X201.35Y-86.18
G05
X200.75Y-94.82G85X201.35Y-94.82
G05
M30
